/* XPM */
static char *icwinrst[] = {
/* width height num_colors chars_per_pixel */
"     16     9        2            1",
/* colors */
". c #000000",
"# c none",
/* pixels */
"#####.......####",
"#####.......####",
"#####.#####.####",
"###.......#.####",
"###.......#.####",
"###.#####...####",
"###.#####.######",
"###.#####.######",
"###.......######"
};
