#define ilvloadf_width 16
#define ilvloadf_height 16
static unsigned char ilvloadf_bits[] = {
   0x00, 0x00, 0x00, 0x00, 0x00, 0x00, 0x00, 0x00, 0x3c, 0x00, 0x42, 0x00,
   0xc1, 0x1f, 0x01, 0x10, 0x01, 0x10, 0x01, 0x10, 0xe1, 0xff, 0x11, 0x80,
   0x09, 0x40, 0x05, 0x20, 0x03, 0x10, 0xfe, 0x0f };
