#define dirvert_width 16
#define dirvert_height 16
static char dirvert_bits[] = {
   0xff, 0xff, 0xe1, 0x87, 0xe1, 0x87, 0xe1, 0x87, 0xe1, 0x87, 0xff, 0xff,
   0xe1, 0x87, 0xe1, 0x87, 0xe1, 0x87, 0xe1, 0x87, 0xff, 0xff, 0xe1, 0x87,
   0xe1, 0x87, 0xe1, 0x87, 0xe1, 0x87, 0xff, 0xff};
