#define dirhorz_width 16
#define dirhorz_height 16
static char dirhorz_bits[] = {
   0xff, 0xff, 0x21, 0x84, 0x21, 0x84, 0x21, 0x84, 0x21, 0x84, 0xff, 0xff,
   0xff, 0xff, 0xff, 0xff, 0xff, 0xff, 0xff, 0xff, 0xff, 0xff, 0x21, 0x84,
   0x21, 0x84, 0x21, 0x84, 0x21, 0x84, 0xff, 0xff};
