#define diro_width 16
#define diro_height 16
static char diro_bits[] = {
   0xff, 0xff, 0x21, 0x84, 0x21, 0x84, 0x21, 0x84, 0x21, 0x84, 0xff, 0xff,
   0x3f, 0x84, 0x3f, 0x84, 0x3f, 0x84, 0x3f, 0x84, 0xff, 0xff, 0x21, 0x84,
   0x21, 0x84, 0x21, 0x84, 0x21, 0x84, 0xff, 0xff};
