#define dir_width 16
#define dir_height 16
static char dir_bits[] = {
   0xff, 0xff, 0x21, 0x84, 0x21, 0x84, 0x21, 0x84, 0x21, 0x84, 0xff, 0xff,
   0xe1, 0x87, 0xe1, 0x87, 0xe1, 0x87, 0xe1, 0x87, 0xff, 0xff, 0x21, 0x84,
   0x21, 0x84, 0x21, 0x84, 0x21, 0x84, 0xff, 0xff};
