#define dire_width 16
#define dire_height 16
static char dire_bits[] = {
   0xff, 0xff, 0x21, 0x84, 0x21, 0x84, 0x21, 0x84, 0x21, 0x84, 0xff, 0xff,
   0x21, 0xfc, 0x21, 0xfc, 0x21, 0xfc, 0x21, 0xfc, 0xff, 0xff, 0x21, 0x84,
   0x21, 0x84, 0x21, 0x84, 0x21, 0x84, 0xff, 0xff};
