#define dirhorz_width 16
#define dirhorz_height 16
static char dirhorz_bits[] = {
   0xff, 0xff, 
   0x3f, 0xfc, 
   0x3f, 0xfc, 
   0x3f, 0xfc, 
   0x3f, 0xfc, 
   0xff, 0xff,
   0xe1, 0x87, 
   0xe1, 0x87, 
   0xe1, 0x87, 
   0xe1, 0x87, 
   0xff, 0xff, 
   0x3f, 0xfc,
   0x3f, 0xfc, 
   0x3f, 0xfc, 
   0x3f, 0xfc, 
   0xff, 0xff};
