  0
SECTION
 2
HEADER
 0
ENDSEC
  0
SECTION
2
TABLES
 0
TABLE
 2
APPID
 2
IlogViews
 70
0
  0
ENDTAB
  0
TABLE
  2
LTYPE
 70
27
 0
LTYPE
 2
SOLID
70
64
3
Ilv Line Type
72
 65
73
0
40
0
 0
LTYPE
 2
SOLID
70
64
3
Ilv Line Type
72
 65
73
0
40
0
 0
LTYPE
 2
SOLID
70
64
3
Ilv Line Type
72
 65
73
0
40
0
 0
LTYPE
 2
SOLID
70
64
3
Ilv Line Type
72
 65
73
0
40
0
 0
LTYPE
 2
SOLID
70
64
3
Ilv Line Type
72
 65
73
0
40
0
 0
LTYPE
 2
SOLID
70
64
3
Ilv Line Type
72
 65
73
0
40
0
 0
LTYPE
 2
SOLID
70
64
3
Ilv Line Type
72
 65
73
0
40
0
 0
LTYPE
 2
SOLID
70
64
3
Ilv Line Type
72
 65
73
0
40
0
 0
LTYPE
 2
SOLID
70
64
3
Ilv Line Type
72
 65
73
0
40
0
 0
LTYPE
 2
SOLID
70
64
3
Ilv Line Type
72
 65
73
0
40
0
 0
LTYPE
 2
SOLID
70
64
3
Ilv Line Type
72
 65
73
0
40
0
 0
LTYPE
 2
SOLID
70
64
3
Ilv Line Type
72
 65
73
0
40
0
 0
LTYPE
 2
SOLID
70
64
3
Ilv Line Type
72
 65
73
0
40
0
 0
LTYPE
 2
SOLID
70
64
3
Ilv Line Type
72
 65
73
0
40
0
 0
LTYPE
 2
SOLID
70
64
3
Ilv Line Type
72
 65
73
0
40
0
 0
LTYPE
 2
SOLID
70
64
3
Ilv Line Type
72
 65
73
0
40
0
 0
LTYPE
 2
SOLID
70
64
3
Ilv Line Type
72
 65
73
0
40
0
 0
LTYPE
 2
SOLID
70
64
3
Ilv Line Type
72
 65
73
0
40
0
 0
LTYPE
 2
SOLID
70
64
3
Ilv Line Type
72
 65
73
0
40
0
 0
LTYPE
 2
SOLID
70
64
3
Ilv Line Type
72
 65
73
0
40
0
 0
LTYPE
 2
SOLID
70
64
3
Ilv Line Type
72
 65
73
0
40
0
 0
LTYPE
 2
SOLID
70
64
3
Ilv Line Type
72
 65
73
0
40
0
 0
LTYPE
 2
SOLID
70
64
3
Ilv Line Type
72
 65
73
0
40
0
 0
LTYPE
 2
SOLID
70
64
3
Ilv Line Type
72
 65
73
0
40
0
 0
LTYPE
 2
SOLID
70
64
3
Ilv Line Type
72
 65
73
0
40
0
 0
LTYPE
 2
SOLID
70
64
3
Ilv Line Type
72
 65
73
0
40
0
 0
LTYPE
 2
SOLID
70
64
3
Ilv Line Type
72
 65
73
0
40
0
 0
LTYPE
 2
SOLID
70
64
3
Ilv Line Type
72
 65
73
0
40
0
 0
LTYPE
 2
SOLID
70
64
3
Ilv Line Type
72
 65
73
0
40
0
  0
ENDTAB
  0
TABLE
  2
LAYER
 70
27
  0
LAYER
 70
0
 2
L26
 62
15
 6
SOLID
  0
LAYER
 70
0
 2
L1
 62
8
 6
SOLID
  0
LAYER
 70
0
 2
L12
 62
15
 6
SOLID
  0
LAYER
 70
0
 2
L19
 62
8
 6
SOLID
  0
LAYER
 70
0
 2
L16
 62
8
 6
SOLID
  0
LAYER
 70
0
 2
L9
 62
8
 6
SOLID
  0
LAYER
 70
0
 2
L28
 62
15
 6
SOLID
  0
LAYER
 70
0
 2
L20
 62
8
 6
SOLID
  0
LAYER
 70
0
 2
L21
 62
8
 6
SOLID
  0
LAYER
 70
0
 2
L11
 62
7
 6
SOLID
  0
LAYER
 70
0
 2
L25
 62
8
 6
SOLID
  0
LAYER
 70
0
 2
L18
 62
7
 6
SOLID
  0
LAYER
 70
0
 2
L8
 62
8
 6
SOLID
  0
LAYER
 70
0
 2
L5
 62
7
 6
SOLID
  0
LAYER
 70
0
 2
L24
 62
7
 6
SOLID
  0
LAYER
 70
0
 2
L15
 62
8
 6
SOLID
  0
LAYER
 70
0
 2
L29
 62
8
 6
SOLID
  0
LAYER
 70
0
 2
L17
 62
8
 6
SOLID
  0
LAYER
 70
0
 2
L14
 62
8
 6
SOLID
  0
LAYER
 70
0
 2
L22
 62
7
 6
SOLID
  0
LAYER
 70
0
 2
L10
 62
8
 6
SOLID
  0
LAYER
 70
0
 2
L6
 62
8
 6
SOLID
  0
LAYER
 70
0
 2
L3
 62
8
 6
SOLID
  0
LAYER
 70
0
 2
L2
 62
7
 6
SOLID
  0
LAYER
 70
0
 2
L27
 62
7
 6
SOLID
  0
LAYER
 70
0
 2
L23
 62
15
 6
SOLID
  0
LAYER
 70
0
 2
L13
 62
7
 6
SOLID
  0
LAYER
 70
0
 2
L7
 62
7
 6
SOLID
  0
LAYER
 70
0
 2
L4
 62
8
 6
SOLID
  0
ENDTAB
  0
ENDSEC
  0
SECTION
 2
BLOCKS
  0
ENDSEC
  0
SECTION
  2
ENTITIES
 999
********** Spline **********
  0
POLYLINE
 8
L1
 66
1
 70
17
 39
0
 40
0
 41
0
  0
VERTEX
 8
L1
 10
115
 20
-281
 30
0.
  0
VERTEX
 8
L1
 10
123
 20
-321
 30
0.
  0
VERTEX
 8
L1
 10
125
 20
-341
 30
0.
  0
VERTEX
 8
L1
 10
126
 20
-362
 30
0.
  0
VERTEX
 8
L1
 10
126
 20
-370
 30
0.
  0
VERTEX
 8
L1
 10
126
 20
-379
 30
0.
  0
VERTEX
 8
L1
 10
125
 20
-389
 30
0.
  0
VERTEX
 8
L1
 10
124
 20
-399
 30
0.
  0
VERTEX
 8
L1
 10
125
 20
-404
 30
0.
  0
VERTEX
 8
L1
 10
127
 20
-408
 30
0.
  0
VERTEX
 8
L1
 10
135
 20
-412
 30
0.
  0
VERTEX
 8
L1
 10
155
 20
-411
 30
0.
  0
VERTEX
 8
L1
 10
163
 20
-409
 30
0.
  0
VERTEX
 8
L1
 10
167
 20
-407
 30
0.
  0
VERTEX
 8
L1
 10
168
 20
-403
 30
0.
  0
VERTEX
 8
L1
 10
166
 20
-395
 30
0.
  0
VERTEX
 8
L1
 10
164
 20
-389
 30
0.
  0
VERTEX
 8
L1
 10
161
 20
-380
 30
0.
  0
VERTEX
 8
L1
 10
159
 20
-375
 30
0.
  0
VERTEX
 8
L1
 10
160
 20
-371
 30
0.
  0
VERTEX
 8
L1
 10
169
 20
-372
 30
0.
  0
VERTEX
 8
L1
 10
178
 20
-373
 30
0.
  0
VERTEX
 8
L1
 10
182
 20
-372
 30
0.
  0
VERTEX
 8
L1
 10
184
 20
-373
 30
0.
  0
VERTEX
 8
L1
 10
184
 20
-380
 30
0.
  0
VERTEX
 8
L1
 10
181
 20
-390
 30
0.
  0
VERTEX
 8
L1
 10
179
 20
-400
 30
0.
  0
VERTEX
 8
L1
 10
180
 20
-405
 30
0.
  0
VERTEX
 8
L1
 10
183
 20
-408
 30
0.
  0
VERTEX
 8
L1
 10
193
 20
-410
 30
0.
  0
VERTEX
 8
L1
 10
213
 20
-407
 30
0.
  0
VERTEX
 8
L1
 10
216
 20
-405
 30
0.
  0
VERTEX
 8
L1
 10
217
 20
-401
 30
0.
  0
VERTEX
 8
L1
 10
217
 20
-392
 30
0.
  0
VERTEX
 8
L1
 10
215
 20
-373
 30
0.
  0
VERTEX
 8
L1
 10
218
 20
-351
 30
0.
  0
VERTEX
 8
L1
 10
221
 20
-329
 30
0.
  0
VERTEX
 8
L1
 10
225
 20
-290
 30
0.
  0
VERTEX
 8
L1
 10
226
 20
-251
 30
0.
  0
VERTEX
 8
L1
 10
232
 20
-210
 30
0.
  0
VERTEX
 8
L1
 10
235
 20
-189
 30
0.
  0
VERTEX
 8
L1
 10
237
 20
-168
 30
0.
  0
VERTEX
 8
L1
 10
236
 20
-149
 30
0.
  0
VERTEX
 8
L1
 10
232
 20
-130
 30
0.
  0
VERTEX
 8
L1
 10
221
 20
-93
 30
0.
  0
VERTEX
 8
L1
 10
216
 20
-84
 30
0.
  0
VERTEX
 8
L1
 10
210
 20
-79
 30
0.
  0
VERTEX
 8
L1
 10
192
 20
-71
 30
0.
  0
VERTEX
 8
L1
 10
174
 20
-65
 30
0.
  0
VERTEX
 8
L1
 10
155
 20
-61
 30
0.
  0
VERTEX
 8
L1
 10
115
 20
-51
 30
0.
  0
VERTEX
 8
L1
 10
94
 20
-48
 30
0.
  0
VERTEX
 8
L1
 10
74
 20
-47
 30
0.
  0
VERTEX
 8
L1
 10
65
 20
-47
 30
0.
  0
VERTEX
 8
L1
 10
56
 20
-47
 30
0.
  0
VERTEX
 8
L1
 10
46
 20
-48
 30
0.
  0
VERTEX
 8
L1
 10
41
 20
-50
 30
0.
  0
VERTEX
 8
L1
 10
38
 20
-52
 30
0.
  0
VERTEX
 8
L1
 10
36
 20
-61
 30
0.
  0
VERTEX
 8
L1
 10
34
 20
-70
 30
0.
  0
VERTEX
 8
L1
 10
36
 20
-79
 30
0.
  0
VERTEX
 8
L1
 10
38
 20
-88
 30
0.
  0
VERTEX
 8
L1
 10
39
 20
-92
 30
0.
  0
VERTEX
 8
L1
 10
39
 20
-96
 30
0.
  0
VERTEX
 8
L1
 10
39
 20
-100
 30
0.
  0
VERTEX
 8
L1
 10
38
 20
-104
 30
0.
  0
VERTEX
 8
L1
 10
37
 20
-115
 30
0.
  0
VERTEX
 8
L1
 10
35
 20
-125
 30
0.
  0
VERTEX
 8
L1
 10
31
 20
-144
 30
0.
  0
VERTEX
 8
L1
 10
30
 20
-163
 30
0.
  0
VERTEX
 8
L1
 10
29
 20
-177
 30
0.
  0
VERTEX
 8
L1
 10
26
 20
-190
 30
0.
  0
VERTEX
 8
L1
 10
22
 20
-203
 30
0.
  0
VERTEX
 8
L1
 10
16
 20
-215
 30
0.
  0
VERTEX
 8
L1
 10
10
 20
-225
 30
0.
  0
VERTEX
 8
L1
 10
1
 20
-233
 30
0.
  0
VERTEX
 8
L1
 10
0
 20
-238
 30
0.
  0
VERTEX
 8
L1
 10
2
 20
-242
 30
0.
  0
VERTEX
 8
L1
 10
5
 20
-242
 30
0.
  0
VERTEX
 8
L1
 10
6
 20
-237
 30
0.
  0
VERTEX
 8
L1
 10
6
 20
-239
 30
0.
  0
VERTEX
 8
L1
 10
6
 20
-241
 30
0.
  0
VERTEX
 8
L1
 10
8
 20
-236
 30
0.
  0
VERTEX
 8
L1
 10
10
 20
-231
 30
0.
  0
VERTEX
 8
L1
 10
13
 20
-225
 30
0.
  0
VERTEX
 8
L1
 10
17
 20
-219
 30
0.
  0
VERTEX
 8
L1
 10
25
 20
-206
 30
0.
  0
VERTEX
 8
L1
 10
32
 20
-192
 30
0.
  0
VERTEX
 8
L1
 10
34
 20
-211
 30
0.
  0
VERTEX
 8
L1
 10
36
 20
-221
 30
0.
  0
VERTEX
 8
L1
 10
39
 20
-230
 30
0.
  0
VERTEX
 8
L1
 10
50
 20
-248
 30
0.
  0
VERTEX
 8
L1
 10
63
 20
-264
 30
0.
  0
VERTEX
 8
L1
 10
66
 20
-272
 30
0.
  0
VERTEX
 8
L1
 10
66
 20
-282
 30
0.
  0
VERTEX
 8
L1
 10
66
 20
-292
 30
0.
  0
VERTEX
 8
L1
 10
67
 20
-301
 30
0.
  0
VERTEX
 8
L1
 10
72
 20
-318
 30
0.
  0
VERTEX
 8
L1
 10
76
 20
-335
 30
0.
  0
VERTEX
 8
L1
 10
79
 20
-353
 30
0.
  0
VERTEX
 8
L1
 10
80
 20
-370
 30
0.
  0
VERTEX
 8
L1
 10
80
 20
-379
 30
0.
  0
VERTEX
 8
L1
 10
80
 20
-388
 30
0.
  0
VERTEX
 8
L1
 10
81
 20
-393
 30
0.
  0
VERTEX
 8
L1
 10
82
 20
-395
 30
0.
  0
VERTEX
 8
L1
 10
90
 20
-399
 30
0.
  0
VERTEX
 8
L1
 10
98
 20
-400
 30
0.
  0
VERTEX
 8
L1
 10
109
 20
-400
 30
0.
  0
VERTEX
 8
L1
 10
119
 20
-396
 30
0.
  0
VERTEX
 8
L1
 10
121
 20
-394
 30
0.
  0
VERTEX
 8
L1
 10
121
 20
-391
 30
0.
  0
VERTEX
 8
L1
 10
115
 20
-373
 30
0.
  0
VERTEX
 8
L1
 10
113
 20
-353
 30
0.
  0
VERTEX
 8
L1
 10
113
 20
-345
 30
0.
  0
VERTEX
 8
L1
 10
110
 20
-337
 30
0.
  0
VERTEX
 8
L1
 10
109
 20
-328
 30
0.
  0
VERTEX
 8
L1
 10
110
 20
-319
 30
0.
  0
VERTEX
 8
L1
 10
113
 20
-300
 30
0.
  0
VERTEX
 8
L1
 10
115
 20
-281
 30
0.
  0
VERTEX
 8
L1
 10
115
 20
-281
 30
0.
  0
SEQEND
 8
L1
 999
********** Spline **********
  0
POLYLINE
 8
L2
 66
1
 39
0
 40
0
 41
0
  0
VERTEX
 8
L2
 10
115
 20
-281
 30
0.
  0
VERTEX
 8
L2
 10
123
 20
-321
 30
0.
  0
VERTEX
 8
L2
 10
125
 20
-341
 30
0.
  0
VERTEX
 8
L2
 10
126
 20
-362
 30
0.
  0
VERTEX
 8
L2
 10
126
 20
-370
 30
0.
  0
VERTEX
 8
L2
 10
126
 20
-379
 30
0.
  0
VERTEX
 8
L2
 10
125
 20
-389
 30
0.
  0
VERTEX
 8
L2
 10
124
 20
-399
 30
0.
  0
VERTEX
 8
L2
 10
125
 20
-404
 30
0.
  0
VERTEX
 8
L2
 10
127
 20
-408
 30
0.
  0
VERTEX
 8
L2
 10
135
 20
-412
 30
0.
  0
VERTEX
 8
L2
 10
155
 20
-411
 30
0.
  0
VERTEX
 8
L2
 10
163
 20
-409
 30
0.
  0
VERTEX
 8
L2
 10
167
 20
-407
 30
0.
  0
VERTEX
 8
L2
 10
168
 20
-403
 30
0.
  0
VERTEX
 8
L2
 10
166
 20
-395
 30
0.
  0
VERTEX
 8
L2
 10
164
 20
-389
 30
0.
  0
VERTEX
 8
L2
 10
161
 20
-380
 30
0.
  0
VERTEX
 8
L2
 10
159
 20
-375
 30
0.
  0
VERTEX
 8
L2
 10
160
 20
-371
 30
0.
  0
VERTEX
 8
L2
 10
169
 20
-372
 30
0.
  0
VERTEX
 8
L2
 10
178
 20
-373
 30
0.
  0
VERTEX
 8
L2
 10
182
 20
-372
 30
0.
  0
VERTEX
 8
L2
 10
184
 20
-373
 30
0.
  0
VERTEX
 8
L2
 10
184
 20
-380
 30
0.
  0
VERTEX
 8
L2
 10
181
 20
-390
 30
0.
  0
VERTEX
 8
L2
 10
179
 20
-400
 30
0.
  0
VERTEX
 8
L2
 10
180
 20
-405
 30
0.
  0
VERTEX
 8
L2
 10
183
 20
-408
 30
0.
  0
VERTEX
 8
L2
 10
193
 20
-410
 30
0.
  0
VERTEX
 8
L2
 10
213
 20
-407
 30
0.
  0
VERTEX
 8
L2
 10
216
 20
-405
 30
0.
  0
VERTEX
 8
L2
 10
217
 20
-401
 30
0.
  0
VERTEX
 8
L2
 10
217
 20
-392
 30
0.
  0
VERTEX
 8
L2
 10
215
 20
-373
 30
0.
  0
VERTEX
 8
L2
 10
218
 20
-351
 30
0.
  0
VERTEX
 8
L2
 10
221
 20
-329
 30
0.
  0
VERTEX
 8
L2
 10
225
 20
-290
 30
0.
  0
VERTEX
 8
L2
 10
226
 20
-251
 30
0.
  0
VERTEX
 8
L2
 10
232
 20
-210
 30
0.
  0
VERTEX
 8
L2
 10
235
 20
-189
 30
0.
  0
VERTEX
 8
L2
 10
237
 20
-168
 30
0.
  0
VERTEX
 8
L2
 10
236
 20
-149
 30
0.
  0
VERTEX
 8
L2
 10
232
 20
-130
 30
0.
  0
VERTEX
 8
L2
 10
221
 20
-93
 30
0.
  0
VERTEX
 8
L2
 10
216
 20
-84
 30
0.
  0
VERTEX
 8
L2
 10
210
 20
-79
 30
0.
  0
VERTEX
 8
L2
 10
192
 20
-71
 30
0.
  0
VERTEX
 8
L2
 10
174
 20
-65
 30
0.
  0
VERTEX
 8
L2
 10
155
 20
-61
 30
0.
  0
VERTEX
 8
L2
 10
115
 20
-51
 30
0.
  0
VERTEX
 8
L2
 10
94
 20
-48
 30
0.
  0
VERTEX
 8
L2
 10
74
 20
-47
 30
0.
  0
VERTEX
 8
L2
 10
65
 20
-47
 30
0.
  0
VERTEX
 8
L2
 10
56
 20
-47
 30
0.
  0
VERTEX
 8
L2
 10
46
 20
-48
 30
0.
  0
VERTEX
 8
L2
 10
41
 20
-50
 30
0.
  0
VERTEX
 8
L2
 10
38
 20
-52
 30
0.
  0
VERTEX
 8
L2
 10
36
 20
-61
 30
0.
  0
VERTEX
 8
L2
 10
34
 20
-70
 30
0.
  0
VERTEX
 8
L2
 10
36
 20
-79
 30
0.
  0
VERTEX
 8
L2
 10
38
 20
-88
 30
0.
  0
VERTEX
 8
L2
 10
39
 20
-92
 30
0.
  0
VERTEX
 8
L2
 10
39
 20
-96
 30
0.
  0
VERTEX
 8
L2
 10
39
 20
-100
 30
0.
  0
VERTEX
 8
L2
 10
38
 20
-104
 30
0.
  0
VERTEX
 8
L2
 10
37
 20
-115
 30
0.
  0
VERTEX
 8
L2
 10
35
 20
-125
 30
0.
  0
VERTEX
 8
L2
 10
31
 20
-144
 30
0.
  0
VERTEX
 8
L2
 10
30
 20
-163
 30
0.
  0
VERTEX
 8
L2
 10
29
 20
-177
 30
0.
  0
VERTEX
 8
L2
 10
26
 20
-190
 30
0.
  0
VERTEX
 8
L2
 10
22
 20
-203
 30
0.
  0
VERTEX
 8
L2
 10
16
 20
-215
 30
0.
  0
VERTEX
 8
L2
 10
10
 20
-225
 30
0.
  0
VERTEX
 8
L2
 10
1
 20
-233
 30
0.
  0
VERTEX
 8
L2
 10
0
 20
-238
 30
0.
  0
VERTEX
 8
L2
 10
2
 20
-242
 30
0.
  0
VERTEX
 8
L2
 10
5
 20
-242
 30
0.
  0
VERTEX
 8
L2
 10
6
 20
-237
 30
0.
  0
VERTEX
 8
L2
 10
6
 20
-239
 30
0.
  0
VERTEX
 8
L2
 10
6
 20
-241
 30
0.
  0
VERTEX
 8
L2
 10
8
 20
-236
 30
0.
  0
VERTEX
 8
L2
 10
10
 20
-231
 30
0.
  0
VERTEX
 8
L2
 10
13
 20
-225
 30
0.
  0
VERTEX
 8
L2
 10
17
 20
-219
 30
0.
  0
VERTEX
 8
L2
 10
25
 20
-206
 30
0.
  0
VERTEX
 8
L2
 10
32
 20
-192
 30
0.
  0
VERTEX
 8
L2
 10
34
 20
-211
 30
0.
  0
VERTEX
 8
L2
 10
36
 20
-221
 30
0.
  0
VERTEX
 8
L2
 10
39
 20
-230
 30
0.
  0
VERTEX
 8
L2
 10
50
 20
-248
 30
0.
  0
VERTEX
 8
L2
 10
63
 20
-264
 30
0.
  0
VERTEX
 8
L2
 10
66
 20
-272
 30
0.
  0
VERTEX
 8
L2
 10
66
 20
-282
 30
0.
  0
VERTEX
 8
L2
 10
66
 20
-292
 30
0.
  0
VERTEX
 8
L2
 10
67
 20
-301
 30
0.
  0
VERTEX
 8
L2
 10
72
 20
-318
 30
0.
  0
VERTEX
 8
L2
 10
76
 20
-335
 30
0.
  0
VERTEX
 8
L2
 10
79
 20
-353
 30
0.
  0
VERTEX
 8
L2
 10
80
 20
-370
 30
0.
  0
VERTEX
 8
L2
 10
80
 20
-379
 30
0.
  0
VERTEX
 8
L2
 10
80
 20
-388
 30
0.
  0
VERTEX
 8
L2
 10
81
 20
-393
 30
0.
  0
VERTEX
 8
L2
 10
82
 20
-395
 30
0.
  0
VERTEX
 8
L2
 10
90
 20
-399
 30
0.
  0
VERTEX
 8
L2
 10
98
 20
-400
 30
0.
  0
VERTEX
 8
L2
 10
109
 20
-400
 30
0.
  0
VERTEX
 8
L2
 10
119
 20
-396
 30
0.
  0
VERTEX
 8
L2
 10
121
 20
-394
 30
0.
  0
VERTEX
 8
L2
 10
121
 20
-391
 30
0.
  0
VERTEX
 8
L2
 10
115
 20
-373
 30
0.
  0
VERTEX
 8
L2
 10
113
 20
-353
 30
0.
  0
VERTEX
 8
L2
 10
113
 20
-345
 30
0.
  0
VERTEX
 8
L2
 10
110
 20
-337
 30
0.
  0
VERTEX
 8
L2
 10
109
 20
-328
 30
0.
  0
VERTEX
 8
L2
 10
110
 20
-319
 30
0.
  0
VERTEX
 8
L2
 10
113
 20
-300
 30
0.
  0
VERTEX
 8
L2
 10
115
 20
-281
 30
0.
  0
SEQEND
 8
L2
 999
********** Spline **********
  0
POLYLINE
 8
L3
 66
1
 70
17
 39
0
 40
0
 41
0
  0
VERTEX
 8
L3
 10
155
 20
-250
 30
0.
  0
VERTEX
 8
L3
 10
152
 20
-242
 30
0.
  0
VERTEX
 8
L3
 10
151
 20
-238
 30
0.
  0
VERTEX
 8
L3
 10
152
 20
-235
 30
0.
  0
VERTEX
 8
L3
 10
154
 20
-232
 30
0.
  0
VERTEX
 8
L3
 10
154
 20
-227
 30
0.
  0
VERTEX
 8
L3
 10
152
 20
-223
 30
0.
  0
VERTEX
 8
L3
 10
148
 20
-221
 30
0.
  0
VERTEX
 8
L3
 10
148
 20
-218
 30
0.
  0
VERTEX
 8
L3
 10
148
 20
-214
 30
0.
  0
VERTEX
 8
L3
 10
146
 20
-211
 30
0.
  0
VERTEX
 8
L3
 10
142
 20
-210
 30
0.
  0
VERTEX
 8
L3
 10
140
 20
-208
 30
0.
  0
VERTEX
 8
L3
 10
138
 20
-206
 30
0.
  0
VERTEX
 8
L3
 10
132
 20
-208
 30
0.
  0
VERTEX
 8
L3
 10
129
 20
-204
 30
0.
  0
VERTEX
 8
L3
 10
124
 20
-196
 30
0.
  0
VERTEX
 8
L3
 10
121
 20
-185
 30
0.
  0
VERTEX
 8
L3
 10
117
 20
-165
 30
0.
  0
VERTEX
 8
L3
 10
111
 20
-147
 30
0.
  0
VERTEX
 8
L3
 10
101
 20
-131
 30
0.
  0
VERTEX
 8
L3
 10
97
 20
-124
 30
0.
  0
VERTEX
 8
L3
 10
97
 20
-121
 30
0.
  0
VERTEX
 8
L3
 10
101
 20
-119
 30
0.
  0
VERTEX
 8
L3
 10
106
 20
-118
 30
0.
  0
VERTEX
 8
L3
 10
111
 20
-119
 30
0.
  0
VERTEX
 8
L3
 10
120
 20
-123
 30
0.
  0
VERTEX
 8
L3
 10
129
 20
-127
 30
0.
  0
VERTEX
 8
L3
 10
138
 20
-128
 30
0.
  0
VERTEX
 8
L3
 10
147
 20
-128
 30
0.
  0
VERTEX
 8
L3
 10
156
 20
-126
 30
0.
  0
VERTEX
 8
L3
 10
174
 20
-125
 30
0.
  0
VERTEX
 8
L3
 10
192
 20
-126
 30
0.
  0
VERTEX
 8
L3
 10
201
 20
-129
 30
0.
  0
VERTEX
 8
L3
 10
206
 20
-135
 30
0.
  0
VERTEX
 8
L3
 10
211
 20
-145
 30
0.
  0
VERTEX
 8
L3
 10
216
 20
-154
 30
0.
  0
VERTEX
 8
L3
 10
221
 20
-170
 30
0.
  0
VERTEX
 8
L3
 10
223
 20
-187
 30
0.
  0
VERTEX
 8
L3
 10
220
 20
-205
 30
0.
  0
VERTEX
 8
L3
 10
213
 20
-222
 30
0.
  0
VERTEX
 8
L3
 10
208
 20
-240
 30
0.
  0
VERTEX
 8
L3
 10
206
 20
-259
 30
0.
  0
VERTEX
 8
L3
 10
206
 20
-267
 30
0.
  0
VERTEX
 8
L3
 10
206
 20
-275
 30
0.
  0
VERTEX
 8
L3
 10
203
 20
-283
 30
0.
  0
VERTEX
 8
L3
 10
202
 20
-287
 30
0.
  0
VERTEX
 8
L3
 10
202
 20
-289
 30
0.
  0
VERTEX
 8
L3
 10
205
 20
-287
 30
0.
  0
VERTEX
 8
L3
 10
206
 20
-288
 30
0.
  0
VERTEX
 8
L3
 10
204
 20
-294
 30
0.
  0
VERTEX
 8
L3
 10
200
 20
-299
 30
0.
  0
VERTEX
 8
L3
 10
199
 20
-301
 30
0.
  0
VERTEX
 8
L3
 10
199
 20
-305
 30
0.
  0
VERTEX
 8
L3
 10
201
 20
-303
 30
0.
  0
VERTEX
 8
L3
 10
202
 20
-301
 30
0.
  0
VERTEX
 8
L3
 10
198
 20
-311
 30
0.
  0
VERTEX
 8
L3
 10
195
 20
-321
 30
0.
  0
VERTEX
 8
L3
 10
194
 20
-326
 30
0.
  0
VERTEX
 8
L3
 10
193
 20
-331
 30
0.
  0
VERTEX
 8
L3
 10
197
 20
-329
 30
0.
  0
VERTEX
 8
L3
 10
201
 20
-325
 30
0.
  0
VERTEX
 8
L3
 10
197
 20
-332
 30
0.
  0
VERTEX
 8
L3
 10
196
 20
-336
 30
0.
  0
VERTEX
 8
L3
 10
194
 20
-339
 30
0.
  0
VERTEX
 8
L3
 10
192
 20
-346
 30
0.
  0
VERTEX
 8
L3
 10
193
 20
-349
 30
0.
  0
VERTEX
 8
L3
 10
195
 20
-351
 30
0.
  0
VERTEX
 8
L3
 10
190
 20
-371
 30
0.
  0
VERTEX
 8
L3
 10
189
 20
-382
 30
0.
  0
VERTEX
 8
L3
 10
189
 20
-386
 30
0.
  0
VERTEX
 8
L3
 10
191
 20
-389
 30
0.
  0
VERTEX
 8
L3
 10
188
 20
-392
 30
0.
  0
VERTEX
 8
L3
 10
188
 20
-398
 30
0.
  0
VERTEX
 8
L3
 10
191
 20
-403
 30
0.
  0
VERTEX
 8
L3
 10
196
 20
-402
 30
0.
  0
VERTEX
 8
L3
 10
200
 20
-405
 30
0.
  0
VERTEX
 8
L3
 10
201
 20
-407
 30
0.
  0
VERTEX
 8
L3
 10
201
 20
-410
 30
0.
  0
VERTEX
 8
L3
 10
195
 20
-410
 30
0.
  0
VERTEX
 8
L3
 10
189
 20
-410
 30
0.
  0
VERTEX
 8
L3
 10
183
 20
-408
 30
0.
  0
VERTEX
 8
L3
 10
180
 20
-404
 30
0.
  0
VERTEX
 8
L3
 10
180
 20
-391
 30
0.
  0
VERTEX
 8
L3
 10
183
 20
-381
 30
0.
  0
VERTEX
 8
L3
 10
184
 20
-371
 30
0.
  0
VERTEX
 8
L3
 10
179
 20
-373
 30
0.
  0
VERTEX
 8
L3
 10
172
 20
-373
 30
0.
  0
VERTEX
 8
L3
 10
160
 20
-369
 30
0.
  0
VERTEX
 8
L3
 10
161
 20
-380
 30
0.
  0
VERTEX
 8
L3
 10
164
 20
-390
 30
0.
  0
VERTEX
 8
L3
 10
166
 20
-395
 30
0.
  0
VERTEX
 8
L3
 10
167
 20
-400
 30
0.
  0
VERTEX
 8
L3
 10
168
 20
-403
 30
0.
  0
VERTEX
 8
L3
 10
168
 20
-405
 30
0.
  0
VERTEX
 8
L3
 10
166
 20
-406
 30
0.
  0
VERTEX
 8
L3
 10
164
 20
-406
 30
0.
  0
VERTEX
 8
L3
 10
164
 20
-407
 30
0.
  0
VERTEX
 8
L3
 10
163
 20
-408
 30
0.
  0
VERTEX
 8
L3
 10
160
 20
-409
 30
0.
  0
VERTEX
 8
L3
 10
156
 20
-409
 30
0.
  0
VERTEX
 8
L3
 10
151
 20
-411
 30
0.
  0
VERTEX
 8
L3
 10
145
 20
-411
 30
0.
  0
VERTEX
 8
L3
 10
140
 20
-411
 30
0.
  0
VERTEX
 8
L3
 10
135
 20
-410
 30
0.
  0
VERTEX
 8
L3
 10
135
 20
-409
 30
0.
  0
VERTEX
 8
L3
 10
137
 20
-409
 30
0.
  0
VERTEX
 8
L3
 10
142
 20
-410
 30
0.
  0
VERTEX
 8
L3
 10
143
 20
-407
 30
0.
  0
VERTEX
 8
L3
 10
145
 20
-405
 30
0.
  0
VERTEX
 8
L3
 10
147
 20
-403
 30
0.
  0
VERTEX
 8
L3
 10
147
 20
-401
 30
0.
  0
VERTEX
 8
L3
 10
148
 20
-400
 30
0.
  0
VERTEX
 8
L3
 10
153
 20
-398
 30
0.
  0
VERTEX
 8
L3
 10
158
 20
-395
 30
0.
  0
VERTEX
 8
L3
 10
155
 20
-392
 30
0.
  0
VERTEX
 8
L3
 10
156
 20
-390
 30
0.
  0
VERTEX
 8
L3
 10
157
 20
-390
 30
0.
  0
VERTEX
 8
L3
 10
158
 20
-388
 30
0.
  0
VERTEX
 8
L3
 10
154
 20
-382
 30
0.
  0
VERTEX
 8
L3
 10
149
 20
-377
 30
0.
  0
VERTEX
 8
L3
 10
153
 20
-379
 30
0.
  0
VERTEX
 8
L3
 10
156
 20
-380
 30
0.
  0
VERTEX
 8
L3
 10
158
 20
-379
 30
0.
  0
VERTEX
 8
L3
 10
159
 20
-377
 30
0.
  0
VERTEX
 8
L3
 10
158
 20
-372
 30
0.
  0
VERTEX
 8
L3
 10
155
 20
-364
 30
0.
  0
VERTEX
 8
L3
 10
152
 20
-360
 30
0.
  0
VERTEX
 8
L3
 10
151
 20
-356
 30
0.
  0
VERTEX
 8
L3
 10
154
 20
-359
 30
0.
  0
VERTEX
 8
L3
 10
156
 20
-359
 30
0.
  0
VERTEX
 8
L3
 10
157
 20
-352
 30
0.
  0
VERTEX
 8
L3
 10
154
 20
-346
 30
0.
  0
VERTEX
 8
L3
 10
151
 20
-340
 30
0.
  0
VERTEX
 8
L3
 10
155
 20
-342
 30
0.
  0
VERTEX
 8
L3
 10
158
 20
-342
 30
0.
  0
VERTEX
 8
L3
 10
154
 20
-334
 30
0.
  0
VERTEX
 8
L3
 10
149
 20
-325
 30
0.
  0
VERTEX
 8
L3
 10
152
 20
-324
 30
0.
  0
VERTEX
 8
L3
 10
154
 20
-320
 30
0.
  0
VERTEX
 8
L3
 10
155
 20
-312
 30
0.
  0
VERTEX
 8
L3
 10
151
 20
-304
 30
0.
  0
VERTEX
 8
L3
 10
146
 20
-296
 30
0.
  0
VERTEX
 8
L3
 10
151
 20
-296
 30
0.
  0
VERTEX
 8
L3
 10
152
 20
-294
 30
0.
  0
VERTEX
 8
L3
 10
149
 20
-285
 30
0.
  0
VERTEX
 8
L3
 10
153
 20
-285
 30
0.
  0
VERTEX
 8
L3
 10
155
 20
-282
 30
0.
  0
VERTEX
 8
L3
 10
155
 20
-279
 30
0.
  0
VERTEX
 8
L3
 10
154
 20
-275
 30
0.
  0
VERTEX
 8
L3
 10
150
 20
-267
 30
0.
  0
VERTEX
 8
L3
 10
144
 20
-259
 30
0.
  0
VERTEX
 8
L3
 10
146
 20
-258
 30
0.
  0
VERTEX
 8
L3
 10
149
 20
-260
 30
0.
  0
VERTEX
 8
L3
 10
152
 20
-262
 30
0.
  0
VERTEX
 8
L3
 10
155
 20
-261
 30
0.
  0
VERTEX
 8
L3
 10
156
 20
-259
 30
0.
  0
VERTEX
 8
L3
 10
155
 20
-256
 30
0.
  0
VERTEX
 8
L3
 10
151
 20
-250
 30
0.
  0
VERTEX
 8
L3
 10
153
 20
-250
 30
0.
  0
VERTEX
 8
L3
 10
155
 20
-250
 30
0.
  0
VERTEX
 8
L3
 10
155
 20
-250
 30
0.
  0
SEQEND
 8
L3
 999
********** Spline **********
  0
POLYLINE
 8
L4
 66
1
 70
17
 39
0
 40
0
 41
0
  0
VERTEX
 8
L4
 10
208
 20
-410
 30
0.
  0
VERTEX
 8
L4
 10
213
 20
-408
 30
0.
  0
VERTEX
 8
L4
 10
216
 20
-405
 30
0.
  0
VERTEX
 8
L4
 10
217
 20
-398
 30
0.
  0
VERTEX
 8
L4
 10
213
 20
-380
 30
0.
  0
VERTEX
 8
L4
 10
215
 20
-361
 30
0.
  0
VERTEX
 8
L4
 10
219
 20
-342
 30
0.
  0
VERTEX
 8
L4
 10
224
 20
-303
 30
0.
  0
VERTEX
 8
L4
 10
226
 20
-264
 30
0.
  0
VERTEX
 8
L4
 10
228
 20
-225
 30
0.
  0
VERTEX
 8
L4
 10
235
 20
-186
 30
0.
  0
VERTEX
 8
L4
 10
237
 20
-176
 30
0.
  0
VERTEX
 8
L4
 10
237
 20
-166
 30
0.
  0
VERTEX
 8
L4
 10
236
 20
-158
 30
0.
  0
VERTEX
 8
L4
 10
234
 20
-149
 30
0.
  0
VERTEX
 8
L4
 10
234
 20
-144
 30
0.
  0
VERTEX
 8
L4
 10
234
 20
-138
 30
0.
  0
VERTEX
 8
L4
 10
232
 20
-135
 30
0.
  0
VERTEX
 8
L4
 10
229
 20
-132
 30
0.
  0
VERTEX
 8
L4
 10
224
 20
-124
 30
0.
  0
VERTEX
 8
L4
 10
217
 20
-116
 30
0.
  0
VERTEX
 8
L4
 10
216
 20
-132
 30
0.
  0
VERTEX
 8
L4
 10
218
 20
-149
 30
0.
  0
VERTEX
 8
L4
 10
224
 20
-182
 30
0.
  0
VERTEX
 8
L4
 10
225
 20
-190
 30
0.
  0
VERTEX
 8
L4
 10
226
 20
-197
 30
0.
  0
VERTEX
 8
L4
 10
225
 20
-204
 30
0.
  0
VERTEX
 8
L4
 10
224
 20
-210
 30
0.
  0
VERTEX
 8
L4
 10
226
 20
-226
 30
0.
  0
VERTEX
 8
L4
 10
226
 20
-234
 30
0.
  0
VERTEX
 8
L4
 10
223
 20
-239
 30
0.
  0
VERTEX
 8
L4
 10
222
 20
-236
 30
0.
  0
VERTEX
 8
L4
 10
221
 20
-232
 30
0.
  0
VERTEX
 8
L4
 10
222
 20
-243
 30
0.
  0
VERTEX
 8
L4
 10
223
 20
-254
 30
0.
  0
VERTEX
 8
L4
 10
222
 20
-259
 30
0.
  0
VERTEX
 8
L4
 10
221
 20
-257
 30
0.
  0
VERTEX
 8
L4
 10
220
 20
-256
 30
0.
  0
VERTEX
 8
L4
 10
219
 20
-257
 30
0.
  0
VERTEX
 8
L4
 10
220
 20
-260
 30
0.
  0
VERTEX
 8
L4
 10
221
 20
-263
 30
0.
  0
VERTEX
 8
L4
 10
222
 20
-269
 30
0.
  0
VERTEX
 8
L4
 10
223
 20
-275
 30
0.
  0
VERTEX
 8
L4
 10
222
 20
-279
 30
0.
  0
VERTEX
 8
L4
 10
222
 20
-282
 30
0.
  0
VERTEX
 8
L4
 10
223
 20
-288
 30
0.
  0
VERTEX
 8
L4
 10
221
 20
-293
 30
0.
  0
VERTEX
 8
L4
 10
221
 20
-299
 30
0.
  0
VERTEX
 8
L4
 10
221
 20
-305
 30
0.
  0
VERTEX
 8
L4
 10
220
 20
-303
 30
0.
  0
VERTEX
 8
L4
 10
217
 20
-301
 30
0.
  0
VERTEX
 8
L4
 10
219
 20
-315
 30
0.
  0
VERTEX
 8
L4
 10
218
 20
-321
 30
0.
  0
VERTEX
 8
L4
 10
217
 20
-323
 30
0.
  0
VERTEX
 8
L4
 10
215
 20
-322
 30
0.
  0
VERTEX
 8
L4
 10
216
 20
-331
 30
0.
  0
VERTEX
 8
L4
 10
216
 20
-334
 30
0.
  0
VERTEX
 8
L4
 10
215
 20
-339
 30
0.
  0
VERTEX
 8
L4
 10
215
 20
-347
 30
0.
  0
VERTEX
 8
L4
 10
215
 20
-350
 30
0.
  0
VERTEX
 8
L4
 10
212
 20
-351
 30
0.
  0
VERTEX
 8
L4
 10
214
 20
-355
 30
0.
  0
VERTEX
 8
L4
 10
213
 20
-361
 30
0.
  0
VERTEX
 8
L4
 10
210
 20
-371
 30
0.
  0
VERTEX
 8
L4
 10
210
 20
-381
 30
0.
  0
VERTEX
 8
L4
 10
209
 20
-386
 30
0.
  0
VERTEX
 8
L4
 10
206
 20
-388
 30
0.
  0
VERTEX
 8
L4
 10
212
 20
-391
 30
0.
  0
VERTEX
 8
L4
 10
213
 20
-394
 30
0.
  0
VERTEX
 8
L4
 10
212
 20
-397
 30
0.
  0
VERTEX
 8
L4
 10
214
 20
-399
 30
0.
  0
VERTEX
 8
L4
 10
213
 20
-402
 30
0.
  0
VERTEX
 8
L4
 10
209
 20
-399
 30
0.
  0
VERTEX
 8
L4
 10
206
 20
-401
 30
0.
  0
VERTEX
 8
L4
 10
202
 20
-410
 30
0.
  0
VERTEX
 8
L4
 10
205
 20
-410
 30
0.
  0
VERTEX
 8
L4
 10
208
 20
-410
 30
0.
  0
VERTEX
 8
L4
 10
208
 20
-410
 30
0.
  0
SEQEND
 8
L4
 999
********** Spline **********
  0
POLYLINE
 8
L5
 66
1
 70
17
 39
0
 40
0
 41
0
  0
VERTEX
 8
L5
 10
168
 20
-371
 30
0.
  0
VERTEX
 8
L5
 10
162
 20
-370
 30
0.
  0
VERTEX
 8
L5
 10
160
 20
-366
 30
0.
  0
VERTEX
 8
L5
 10
160
 20
-355
 30
0.
  0
VERTEX
 8
L5
 10
160
 20
-345
 30
0.
  0
VERTEX
 8
L5
 10
160
 20
-334
 30
0.
  0
VERTEX
 8
L5
 10
160
 20
-322
 30
0.
  0
VERTEX
 8
L5
 10
160
 20
-310
 30
0.
  0
VERTEX
 8
L5
 10
160
 20
-305
 30
0.
  0
VERTEX
 8
L5
 10
159
 20
-299
 30
0.
  0
VERTEX
 8
L5
 10
156
 20
-295
 30
0.
  0
VERTEX
 8
L5
 10
153
 20
-290
 30
0.
  0
VERTEX
 8
L5
 10
157
 20
-292
 30
0.
  0
VERTEX
 8
L5
 10
160
 20
-290
 30
0.
  0
VERTEX
 8
L5
 10
161
 20
-285
 30
0.
  0
VERTEX
 8
L5
 10
160
 20
-279
 30
0.
  0
VERTEX
 8
L5
 10
159
 20
-269
 30
0.
  0
VERTEX
 8
L5
 10
158
 20
-259
 30
0.
  0
VERTEX
 8
L5
 10
160
 20
-264
 30
0.
  0
VERTEX
 8
L5
 10
161
 20
-267
 30
0.
  0
VERTEX
 8
L5
 10
164
 20
-265
 30
0.
  0
VERTEX
 8
L5
 10
163
 20
-261
 30
0.
  0
VERTEX
 8
L5
 10
159
 20
-250
 30
0.
  0
VERTEX
 8
L5
 10
158
 20
-239
 30
0.
  0
VERTEX
 8
L5
 10
161
 20
-245
 30
0.
  0
VERTEX
 8
L5
 10
164
 20
-250
 30
0.
  0
VERTEX
 8
L5
 10
162
 20
-236
 30
0.
  0
VERTEX
 8
L5
 10
157
 20
-223
 30
0.
  0
VERTEX
 8
L5
 10
153
 20
-218
 30
0.
  0
VERTEX
 8
L5
 10
150
 20
-212
 30
0.
  0
VERTEX
 8
L5
 10
148
 20
-207
 30
0.
  0
VERTEX
 8
L5
 10
148
 20
-204
 30
0.
  0
VERTEX
 8
L5
 10
151
 20
-204
 30
0.
  0
VERTEX
 8
L5
 10
147
 20
-199
 30
0.
  0
VERTEX
 8
L5
 10
146
 20
-196
 30
0.
  0
VERTEX
 8
L5
 10
146
 20
-193
 30
0.
  0
VERTEX
 8
L5
 10
150
 20
-197
 30
0.
  0
VERTEX
 8
L5
 10
153
 20
-201
 30
0.
  0
VERTEX
 8
L5
 10
152
 20
-195
 30
0.
  0
VERTEX
 8
L5
 10
152
 20
-193
 30
0.
  0
VERTEX
 8
L5
 10
154
 20
-189
 30
0.
  0
VERTEX
 8
L5
 10
157
 20
-187
 30
0.
  0
VERTEX
 8
L5
 10
160
 20
-188
 30
0.
  0
VERTEX
 8
L5
 10
165
 20
-192
 30
0.
  0
VERTEX
 8
L5
 10
171
 20
-207
 30
0.
  0
VERTEX
 8
L5
 10
176
 20
-222
 30
0.
  0
VERTEX
 8
L5
 10
185
 20
-251
 30
0.
  0
VERTEX
 8
L5
 10
190
 20
-266
 30
0.
  0
VERTEX
 8
L5
 10
193
 20
-281
 30
0.
  0
VERTEX
 8
L5
 10
191
 20
-310
 30
0.
  0
VERTEX
 8
L5
 10
189
 20
-325
 30
0.
  0
VERTEX
 8
L5
 10
188
 20
-339
 30
0.
  0
VERTEX
 8
L5
 10
186
 20
-345
 30
0.
  0
VERTEX
 8
L5
 10
186
 20
-348
 30
0.
  0
VERTEX
 8
L5
 10
187
 20
-350
 30
0.
  0
VERTEX
 8
L5
 10
187
 20
-356
 30
0.
  0
VERTEX
 8
L5
 10
184
 20
-362
 30
0.
  0
VERTEX
 8
L5
 10
184
 20
-368
 30
0.
  0
VERTEX
 8
L5
 10
184
 20
-371
 30
0.
  0
VERTEX
 8
L5
 10
182
 20
-372
 30
0.
  0
VERTEX
 8
L5
 10
175
 20
-373
 30
0.
  0
VERTEX
 8
L5
 10
168
 20
-371
 30
0.
  0
VERTEX
 8
L5
 10
168
 20
-371
 30
0.
  0
SEQEND
 8
L5
 999
********** Spline **********
  0
POLYLINE
 8
L6
 66
1
 70
17
 39
0
 40
0
 41
0
  0
VERTEX
 8
L6
 10
135
 20
-8
 30
0.
  0
VERTEX
 8
L6
 10
137
 20
-10
 30
0.
  0
VERTEX
 8
L6
 10
140
 20
-9
 30
0.
  0
VERTEX
 8
L6
 10
148
 20
-5
 30
0.
  0
VERTEX
 8
L6
 10
158
 20
-2
 30
0.
  0
VERTEX
 8
L6
 10
169
 20
0
 30
0.
  0
VERTEX
 8
L6
 10
178
 20
0
 30
0.
  0
VERTEX
 8
L6
 10
188
 20
-2
 30
0.
  0
VERTEX
 8
L6
 10
197
 20
-5
 30
0.
  0
VERTEX
 8
L6
 10
205
 20
-11
 30
0.
  0
VERTEX
 8
L6
 10
208
 20
-11
 30
0.
  0
VERTEX
 8
L6
 10
211
 20
-10
 30
0.
  0
VERTEX
 8
L6
 10
217
 20
-5
 30
0.
  0
VERTEX
 8
L6
 10
226
 20
-5
 30
0.
  0
VERTEX
 8
L6
 10
235
 20
-6
 30
0.
  0
VERTEX
 8
L6
 10
243
 20
-8
 30
0.
  0
VERTEX
 8
L6
 10
250
 20
-10
 30
0.
  0
VERTEX
 8
L6
 10
262
 20
-11
 30
0.
  0
VERTEX
 8
L6
 10
274
 20
-12
 30
0.
  0
VERTEX
 8
L6
 10
291
 20
-17
 30
0.
  0
VERTEX
 8
L6
 10
306
 20
-26
 30
0.
  0
VERTEX
 8
L6
 10
319
 20
-38
 30
0.
  0
VERTEX
 8
L6
 10
330
 20
-52
 30
0.
  0
VERTEX
 8
L6
 10
335
 20
-60
 30
0.
  0
VERTEX
 8
L6
 10
336
 20
-64
 30
0.
  0
VERTEX
 8
L6
 10
333
 20
-67
 30
0.
  0
VERTEX
 8
L6
 10
325
 20
-72
 30
0.
  0
VERTEX
 8
L6
 10
317
 20
-77
 30
0.
  0
VERTEX
 8
L6
 10
309
 20
-80
 30
0.
  0
VERTEX
 8
L6
 10
304
 20
-82
 30
0.
  0
VERTEX
 8
L6
 10
301
 20
-84
 30
0.
  0
VERTEX
 8
L6
 10
299
 20
-89
 30
0.
  0
VERTEX
 8
L6
 10
297
 20
-94
 30
0.
  0
VERTEX
 8
L6
 10
295
 20
-97
 30
0.
  0
VERTEX
 8
L6
 10
292
 20
-100
 30
0.
  0
VERTEX
 8
L6
 10
288
 20
-106
 30
0.
  0
VERTEX
 8
L6
 10
284
 20
-112
 30
0.
  0
VERTEX
 8
L6
 10
281
 20
-118
 30
0.
  0
VERTEX
 8
L6
 10
275
 20
-123
 30
0.
  0
VERTEX
 8
L6
 10
269
 20
-125
 30
0.
  0
VERTEX
 8
L6
 10
265
 20
-131
 30
0.
  0
VERTEX
 8
L6
 10
260
 20
-136
 30
0.
  0
VERTEX
 8
L6
 10
255
 20
-141
 30
0.
  0
VERTEX
 8
L6
 10
249
 20
-145
 30
0.
  0
VERTEX
 8
L6
 10
245
 20
-150
 30
0.
  0
VERTEX
 8
L6
 10
242
 20
-152
 30
0.
  0
VERTEX
 8
L6
 10
239
 20
-150
 30
0.
  0
VERTEX
 8
L6
 10
235
 20
-144
 30
0.
  0
VERTEX
 8
L6
 10
225
 20
-131
 30
0.
  0
VERTEX
 8
L6
 10
220
 20
-125
 30
0.
  0
VERTEX
 8
L6
 10
217
 20
-118
 30
0.
  0
VERTEX
 8
L6
 10
217
 20
-121
 30
0.
  0
VERTEX
 8
L6
 10
217
 20
-125
 30
0.
  0
VERTEX
 8
L6
 10
219
 20
-128
 30
0.
  0
VERTEX
 8
L6
 10
221
 20
-132
 30
0.
  0
VERTEX
 8
L6
 10
221
 20
-137
 30
0.
  0
VERTEX
 8
L6
 10
221
 20
-141
 30
0.
  0
VERTEX
 8
L6
 10
220
 20
-144
 30
0.
  0
VERTEX
 8
L6
 10
215
 20
-144
 30
0.
  0
VERTEX
 8
L6
 10
208
 20
-148
 30
0.
  0
VERTEX
 8
L6
 10
205
 20
-156
 30
0.
  0
VERTEX
 8
L6
 10
204
 20
-173
 30
0.
  0
VERTEX
 8
L6
 10
204
 20
-177
 30
0.
  0
VERTEX
 8
L6
 10
202
 20
-181
 30
0.
  0
VERTEX
 8
L6
 10
201
 20
-185
 30
0.
  0
VERTEX
 8
L6
 10
202
 20
-188
 30
0.
  0
VERTEX
 8
L6
 10
202
 20
-197
 30
0.
  0
VERTEX
 8
L6
 10
202
 20
-205
 30
0.
  0
VERTEX
 8
L6
 10
202
 20
-210
 30
0.
  0
VERTEX
 8
L6
 10
201
 20
-214
 30
0.
  0
VERTEX
 8
L6
 10
202
 20
-218
 30
0.
  0
VERTEX
 8
L6
 10
202
 20
-221
 30
0.
  0
VERTEX
 8
L6
 10
202
 20
-230
 30
0.
  0
VERTEX
 8
L6
 10
201
 20
-239
 30
0.
  0
VERTEX
 8
L6
 10
201
 20
-249
 30
0.
  0
VERTEX
 8
L6
 10
201
 20
-259
 30
0.
  0
VERTEX
 8
L6
 10
200
 20
-268
 30
0.
  0
VERTEX
 8
L6
 10
199
 20
-277
 30
0.
  0
VERTEX
 8
L6
 10
195
 20
-292
 30
0.
  0
VERTEX
 8
L6
 10
192
 20
-299
 30
0.
  0
VERTEX
 8
L6
 10
191
 20
-306
 30
0.
  0
VERTEX
 8
L6
 10
190
 20
-309
 30
0.
  0
VERTEX
 8
L6
 10
188
 20
-312
 30
0.
  0
VERTEX
 8
L6
 10
186
 20
-315
 30
0.
  0
VERTEX
 8
L6
 10
183
 20
-317
 30
0.
  0
VERTEX
 8
L6
 10
178
 20
-322
 30
0.
  0
VERTEX
 8
L6
 10
172
 20
-327
 30
0.
  0
VERTEX
 8
L6
 10
168
 20
-327
 30
0.
  0
VERTEX
 8
L6
 10
164
 20
-327
 30
0.
  0
VERTEX
 8
L6
 10
160
 20
-329
 30
0.
  0
VERTEX
 8
L6
 10
156
 20
-331
 30
0.
  0
VERTEX
 8
L6
 10
147
 20
-333
 30
0.
  0
VERTEX
 8
L6
 10
144
 20
-332
 30
0.
  0
VERTEX
 8
L6
 10
145
 20
-328
 30
0.
  0
VERTEX
 8
L6
 10
147
 20
-321
 30
0.
  0
VERTEX
 8
L6
 10
148
 20
-314
 30
0.
  0
VERTEX
 8
L6
 10
150
 20
-310
 30
0.
  0
VERTEX
 8
L6
 10
152
 20
-309
 30
0.
  0
VERTEX
 8
L6
 10
154
 20
-310
 30
0.
  0
VERTEX
 8
L6
 10
158
 20
-309
 30
0.
  0
VERTEX
 8
L6
 10
161
 20
-307
 30
0.
  0
VERTEX
 8
L6
 10
163
 20
-304
 30
0.
  0
VERTEX
 8
L6
 10
164
 20
-298
 30
0.
  0
VERTEX
 8
L6
 10
166
 20
-296
 30
0.
  0
VERTEX
 8
L6
 10
168
 20
-293
 30
0.
  0
VERTEX
 8
L6
 10
169
 20
-289
 30
0.
  0
VERTEX
 8
L6
 10
169
 20
-285
 30
0.
  0
VERTEX
 8
L6
 10
171
 20
-269
 30
0.
  0
VERTEX
 8
L6
 10
169
 20
-254
 30
0.
  0
VERTEX
 8
L6
 10
166
 20
-239
 30
0.
  0
VERTEX
 8
L6
 10
164
 20
-223
 30
0.
  0
VERTEX
 8
L6
 10
162
 20
-209
 30
0.
  0
VERTEX
 8
L6
 10
158
 20
-195
 30
0.
  0
VERTEX
 8
L6
 10
158
 20
-188
 30
0.
  0
VERTEX
 8
L6
 10
157
 20
-181
 30
0.
  0
VERTEX
 8
L6
 10
154
 20
-173
 30
0.
  0
VERTEX
 8
L6
 10
154
 20
-165
 30
0.
  0
VERTEX
 8
L6
 10
152
 20
-160
 30
0.
  0
VERTEX
 8
L6
 10
148
 20
-154
 30
0.
  0
VERTEX
 8
L6
 10
146
 20
-152
 30
0.
  0
VERTEX
 8
L6
 10
144
 20
-150
 30
0.
  0
VERTEX
 8
L6
 10
143
 20
-147
 30
0.
  0
VERTEX
 8
L6
 10
140
 20
-144
 30
0.
  0
VERTEX
 8
L6
 10
135
 20
-141
 30
0.
  0
VERTEX
 8
L6
 10
129
 20
-137
 30
0.
  0
VERTEX
 8
L6
 10
128
 20
-129
 30
0.
  0
VERTEX
 8
L6
 10
128
 20
-125
 30
0.
  0
VERTEX
 8
L6
 10
127
 20
-122
 30
0.
  0
VERTEX
 8
L6
 10
122
 20
-129
 30
0.
  0
VERTEX
 8
L6
 10
119
 20
-137
 30
0.
  0
VERTEX
 8
L6
 10
114
 20
-147
 30
0.
  0
VERTEX
 8
L6
 10
109
 20
-156
 30
0.
  0
VERTEX
 8
L6
 10
107
 20
-160
 30
0.
  0
VERTEX
 8
L6
 10
103
 20
-160
 30
0.
  0
VERTEX
 8
L6
 10
95
 20
-157
 30
0.
  0
VERTEX
 8
L6
 10
89
 20
-149
 30
0.
  0
VERTEX
 8
L6
 10
83
 20
-139
 30
0.
  0
VERTEX
 8
L6
 10
78
 20
-132
 30
0.
  0
VERTEX
 8
L6
 10
72
 20
-127
 30
0.
  0
VERTEX
 8
L6
 10
63
 20
-124
 30
0.
  0
VERTEX
 8
L6
 10
54
 20
-120
 30
0.
  0
VERTEX
 8
L6
 10
47
 20
-115
 30
0.
  0
VERTEX
 8
L6
 10
42
 20
-107
 30
0.
  0
VERTEX
 8
L6
 10
38
 20
-98
 30
0.
  0
VERTEX
 8
L6
 10
36
 20
-94
 30
0.
  0
VERTEX
 8
L6
 10
33
 20
-90
 30
0.
  0
VERTEX
 8
L6
 10
30
 20
-87
 30
0.
  0
VERTEX
 8
L6
 10
26
 20
-85
 30
0.
  0
VERTEX
 8
L6
 10
22
 20
-84
 30
0.
  0
VERTEX
 8
L6
 10
21
 20
-82
 30
0.
  0
VERTEX
 8
L6
 10
19
 20
-79
 30
0.
  0
VERTEX
 8
L6
 10
17
 20
-76
 30
0.
  0
VERTEX
 8
L6
 10
11
 20
-74
 30
0.
  0
VERTEX
 8
L6
 10
6
 20
-72
 30
0.
  0
VERTEX
 8
L6
 10
1
 20
-64
 30
0.
  0
VERTEX
 8
L6
 10
2
 20
-57
 30
0.
  0
VERTEX
 8
L6
 10
13
 20
-44
 30
0.
  0
VERTEX
 8
L6
 10
26
 20
-30
 30
0.
  0
VERTEX
 8
L6
 10
39
 20
-16
 30
0.
  0
VERTEX
 8
L6
 10
46
 20
-11
 30
0.
  0
VERTEX
 8
L6
 10
55
 20
-10
 30
0.
  0
VERTEX
 8
L6
 10
60
 20
-11
 30
0.
  0
VERTEX
 8
L6
 10
65
 20
-11
 30
0.
  0
VERTEX
 8
L6
 10
69
 20
-11
 30
0.
  0
VERTEX
 8
L6
 10
73
 20
-10
 30
0.
  0
VERTEX
 8
L6
 10
81
 20
-8
 30
0.
  0
VERTEX
 8
L6
 10
89
 20
-5
 30
0.
  0
VERTEX
 8
L6
 10
97
 20
-5
 30
0.
  0
VERTEX
 8
L6
 10
104
 20
-5
 30
0.
  0
VERTEX
 8
L6
 10
108
 20
-5
 30
0.
  0
VERTEX
 8
L6
 10
112
 20
-6
 30
0.
  0
VERTEX
 8
L6
 10
115
 20
-6
 30
0.
  0
VERTEX
 8
L6
 10
118
 20
-5
 30
0.
  0
VERTEX
 8
L6
 10
127
 20
-5
 30
0.
  0
VERTEX
 8
L6
 10
135
 20
-8
 30
0.
  0
VERTEX
 8
L6
 10
135
 20
-8
 30
0.
  0
SEQEND
 8
L6
 999
********** Spline **********
  0
POLYLINE
 8
L7
 66
1
 39
0
 40
0
 41
0
  0
VERTEX
 8
L7
 10
135
 20
-8
 30
0.
  0
VERTEX
 8
L7
 10
137
 20
-10
 30
0.
  0
VERTEX
 8
L7
 10
140
 20
-9
 30
0.
  0
VERTEX
 8
L7
 10
148
 20
-5
 30
0.
  0
VERTEX
 8
L7
 10
158
 20
-2
 30
0.
  0
VERTEX
 8
L7
 10
169
 20
0
 30
0.
  0
VERTEX
 8
L7
 10
178
 20
0
 30
0.
  0
VERTEX
 8
L7
 10
188
 20
-2
 30
0.
  0
VERTEX
 8
L7
 10
197
 20
-5
 30
0.
  0
VERTEX
 8
L7
 10
205
 20
-11
 30
0.
  0
VERTEX
 8
L7
 10
208
 20
-11
 30
0.
  0
VERTEX
 8
L7
 10
211
 20
-10
 30
0.
  0
VERTEX
 8
L7
 10
217
 20
-5
 30
0.
  0
VERTEX
 8
L7
 10
226
 20
-5
 30
0.
  0
VERTEX
 8
L7
 10
235
 20
-6
 30
0.
  0
VERTEX
 8
L7
 10
243
 20
-8
 30
0.
  0
VERTEX
 8
L7
 10
250
 20
-10
 30
0.
  0
VERTEX
 8
L7
 10
262
 20
-11
 30
0.
  0
VERTEX
 8
L7
 10
274
 20
-12
 30
0.
  0
VERTEX
 8
L7
 10
291
 20
-17
 30
0.
  0
VERTEX
 8
L7
 10
306
 20
-26
 30
0.
  0
VERTEX
 8
L7
 10
319
 20
-38
 30
0.
  0
VERTEX
 8
L7
 10
330
 20
-52
 30
0.
  0
VERTEX
 8
L7
 10
335
 20
-60
 30
0.
  0
VERTEX
 8
L7
 10
336
 20
-64
 30
0.
  0
VERTEX
 8
L7
 10
333
 20
-67
 30
0.
  0
VERTEX
 8
L7
 10
325
 20
-72
 30
0.
  0
VERTEX
 8
L7
 10
317
 20
-77
 30
0.
  0
VERTEX
 8
L7
 10
309
 20
-80
 30
0.
  0
VERTEX
 8
L7
 10
304
 20
-82
 30
0.
  0
VERTEX
 8
L7
 10
301
 20
-84
 30
0.
  0
VERTEX
 8
L7
 10
299
 20
-89
 30
0.
  0
VERTEX
 8
L7
 10
297
 20
-94
 30
0.
  0
VERTEX
 8
L7
 10
295
 20
-97
 30
0.
  0
VERTEX
 8
L7
 10
292
 20
-100
 30
0.
  0
VERTEX
 8
L7
 10
288
 20
-106
 30
0.
  0
VERTEX
 8
L7
 10
284
 20
-112
 30
0.
  0
VERTEX
 8
L7
 10
281
 20
-118
 30
0.
  0
VERTEX
 8
L7
 10
275
 20
-123
 30
0.
  0
VERTEX
 8
L7
 10
269
 20
-125
 30
0.
  0
VERTEX
 8
L7
 10
265
 20
-131
 30
0.
  0
VERTEX
 8
L7
 10
260
 20
-136
 30
0.
  0
VERTEX
 8
L7
 10
255
 20
-141
 30
0.
  0
VERTEX
 8
L7
 10
249
 20
-145
 30
0.
  0
VERTEX
 8
L7
 10
245
 20
-150
 30
0.
  0
VERTEX
 8
L7
 10
242
 20
-152
 30
0.
  0
VERTEX
 8
L7
 10
239
 20
-150
 30
0.
  0
VERTEX
 8
L7
 10
235
 20
-144
 30
0.
  0
VERTEX
 8
L7
 10
225
 20
-131
 30
0.
  0
VERTEX
 8
L7
 10
220
 20
-125
 30
0.
  0
VERTEX
 8
L7
 10
217
 20
-118
 30
0.
  0
VERTEX
 8
L7
 10
217
 20
-121
 30
0.
  0
VERTEX
 8
L7
 10
217
 20
-125
 30
0.
  0
VERTEX
 8
L7
 10
219
 20
-128
 30
0.
  0
VERTEX
 8
L7
 10
221
 20
-132
 30
0.
  0
VERTEX
 8
L7
 10
221
 20
-137
 30
0.
  0
VERTEX
 8
L7
 10
221
 20
-141
 30
0.
  0
VERTEX
 8
L7
 10
220
 20
-144
 30
0.
  0
VERTEX
 8
L7
 10
215
 20
-144
 30
0.
  0
VERTEX
 8
L7
 10
208
 20
-148
 30
0.
  0
VERTEX
 8
L7
 10
205
 20
-156
 30
0.
  0
VERTEX
 8
L7
 10
204
 20
-173
 30
0.
  0
VERTEX
 8
L7
 10
204
 20
-177
 30
0.
  0
VERTEX
 8
L7
 10
202
 20
-181
 30
0.
  0
VERTEX
 8
L7
 10
201
 20
-185
 30
0.
  0
VERTEX
 8
L7
 10
202
 20
-188
 30
0.
  0
VERTEX
 8
L7
 10
202
 20
-197
 30
0.
  0
VERTEX
 8
L7
 10
202
 20
-205
 30
0.
  0
VERTEX
 8
L7
 10
202
 20
-210
 30
0.
  0
VERTEX
 8
L7
 10
201
 20
-214
 30
0.
  0
VERTEX
 8
L7
 10
202
 20
-218
 30
0.
  0
VERTEX
 8
L7
 10
202
 20
-221
 30
0.
  0
VERTEX
 8
L7
 10
202
 20
-230
 30
0.
  0
VERTEX
 8
L7
 10
201
 20
-239
 30
0.
  0
VERTEX
 8
L7
 10
201
 20
-249
 30
0.
  0
VERTEX
 8
L7
 10
201
 20
-259
 30
0.
  0
VERTEX
 8
L7
 10
200
 20
-268
 30
0.
  0
VERTEX
 8
L7
 10
199
 20
-277
 30
0.
  0
VERTEX
 8
L7
 10
195
 20
-292
 30
0.
  0
VERTEX
 8
L7
 10
192
 20
-299
 30
0.
  0
VERTEX
 8
L7
 10
191
 20
-306
 30
0.
  0
VERTEX
 8
L7
 10
190
 20
-309
 30
0.
  0
VERTEX
 8
L7
 10
188
 20
-312
 30
0.
  0
VERTEX
 8
L7
 10
186
 20
-315
 30
0.
  0
VERTEX
 8
L7
 10
183
 20
-317
 30
0.
  0
VERTEX
 8
L7
 10
178
 20
-322
 30
0.
  0
VERTEX
 8
L7
 10
172
 20
-327
 30
0.
  0
VERTEX
 8
L7
 10
168
 20
-327
 30
0.
  0
VERTEX
 8
L7
 10
164
 20
-327
 30
0.
  0
VERTEX
 8
L7
 10
160
 20
-329
 30
0.
  0
VERTEX
 8
L7
 10
156
 20
-331
 30
0.
  0
VERTEX
 8
L7
 10
147
 20
-333
 30
0.
  0
VERTEX
 8
L7
 10
144
 20
-332
 30
0.
  0
VERTEX
 8
L7
 10
145
 20
-328
 30
0.
  0
VERTEX
 8
L7
 10
147
 20
-321
 30
0.
  0
VERTEX
 8
L7
 10
148
 20
-314
 30
0.
  0
VERTEX
 8
L7
 10
150
 20
-310
 30
0.
  0
VERTEX
 8
L7
 10
152
 20
-309
 30
0.
  0
VERTEX
 8
L7
 10
154
 20
-310
 30
0.
  0
VERTEX
 8
L7
 10
158
 20
-309
 30
0.
  0
VERTEX
 8
L7
 10
161
 20
-307
 30
0.
  0
VERTEX
 8
L7
 10
163
 20
-304
 30
0.
  0
VERTEX
 8
L7
 10
164
 20
-298
 30
0.
  0
VERTEX
 8
L7
 10
166
 20
-296
 30
0.
  0
VERTEX
 8
L7
 10
168
 20
-293
 30
0.
  0
VERTEX
 8
L7
 10
169
 20
-289
 30
0.
  0
VERTEX
 8
L7
 10
169
 20
-285
 30
0.
  0
VERTEX
 8
L7
 10
171
 20
-269
 30
0.
  0
VERTEX
 8
L7
 10
169
 20
-254
 30
0.
  0
VERTEX
 8
L7
 10
166
 20
-239
 30
0.
  0
VERTEX
 8
L7
 10
164
 20
-223
 30
0.
  0
VERTEX
 8
L7
 10
162
 20
-209
 30
0.
  0
VERTEX
 8
L7
 10
158
 20
-195
 30
0.
  0
VERTEX
 8
L7
 10
158
 20
-188
 30
0.
  0
VERTEX
 8
L7
 10
157
 20
-181
 30
0.
  0
VERTEX
 8
L7
 10
154
 20
-173
 30
0.
  0
VERTEX
 8
L7
 10
154
 20
-165
 30
0.
  0
VERTEX
 8
L7
 10
152
 20
-160
 30
0.
  0
VERTEX
 8
L7
 10
148
 20
-154
 30
0.
  0
VERTEX
 8
L7
 10
146
 20
-152
 30
0.
  0
VERTEX
 8
L7
 10
144
 20
-150
 30
0.
  0
VERTEX
 8
L7
 10
143
 20
-147
 30
0.
  0
VERTEX
 8
L7
 10
140
 20
-144
 30
0.
  0
VERTEX
 8
L7
 10
135
 20
-141
 30
0.
  0
VERTEX
 8
L7
 10
129
 20
-137
 30
0.
  0
VERTEX
 8
L7
 10
128
 20
-129
 30
0.
  0
VERTEX
 8
L7
 10
128
 20
-125
 30
0.
  0
VERTEX
 8
L7
 10
127
 20
-122
 30
0.
  0
VERTEX
 8
L7
 10
122
 20
-129
 30
0.
  0
VERTEX
 8
L7
 10
119
 20
-137
 30
0.
  0
VERTEX
 8
L7
 10
114
 20
-147
 30
0.
  0
VERTEX
 8
L7
 10
109
 20
-156
 30
0.
  0
VERTEX
 8
L7
 10
107
 20
-160
 30
0.
  0
VERTEX
 8
L7
 10
103
 20
-160
 30
0.
  0
VERTEX
 8
L7
 10
95
 20
-157
 30
0.
  0
VERTEX
 8
L7
 10
89
 20
-149
 30
0.
  0
VERTEX
 8
L7
 10
83
 20
-139
 30
0.
  0
VERTEX
 8
L7
 10
78
 20
-132
 30
0.
  0
VERTEX
 8
L7
 10
72
 20
-127
 30
0.
  0
VERTEX
 8
L7
 10
63
 20
-124
 30
0.
  0
VERTEX
 8
L7
 10
54
 20
-120
 30
0.
  0
VERTEX
 8
L7
 10
47
 20
-115
 30
0.
  0
VERTEX
 8
L7
 10
42
 20
-107
 30
0.
  0
VERTEX
 8
L7
 10
38
 20
-98
 30
0.
  0
VERTEX
 8
L7
 10
36
 20
-94
 30
0.
  0
VERTEX
 8
L7
 10
33
 20
-90
 30
0.
  0
VERTEX
 8
L7
 10
30
 20
-87
 30
0.
  0
VERTEX
 8
L7
 10
26
 20
-85
 30
0.
  0
VERTEX
 8
L7
 10
22
 20
-84
 30
0.
  0
VERTEX
 8
L7
 10
21
 20
-82
 30
0.
  0
VERTEX
 8
L7
 10
19
 20
-79
 30
0.
  0
VERTEX
 8
L7
 10
17
 20
-76
 30
0.
  0
VERTEX
 8
L7
 10
11
 20
-74
 30
0.
  0
VERTEX
 8
L7
 10
6
 20
-72
 30
0.
  0
VERTEX
 8
L7
 10
1
 20
-64
 30
0.
  0
VERTEX
 8
L7
 10
2
 20
-57
 30
0.
  0
VERTEX
 8
L7
 10
13
 20
-44
 30
0.
  0
VERTEX
 8
L7
 10
26
 20
-30
 30
0.
  0
VERTEX
 8
L7
 10
39
 20
-16
 30
0.
  0
VERTEX
 8
L7
 10
46
 20
-11
 30
0.
  0
VERTEX
 8
L7
 10
55
 20
-10
 30
0.
  0
VERTEX
 8
L7
 10
60
 20
-11
 30
0.
  0
VERTEX
 8
L7
 10
65
 20
-11
 30
0.
  0
VERTEX
 8
L7
 10
69
 20
-11
 30
0.
  0
VERTEX
 8
L7
 10
73
 20
-10
 30
0.
  0
VERTEX
 8
L7
 10
81
 20
-8
 30
0.
  0
VERTEX
 8
L7
 10
89
 20
-5
 30
0.
  0
VERTEX
 8
L7
 10
97
 20
-5
 30
0.
  0
VERTEX
 8
L7
 10
104
 20
-5
 30
0.
  0
VERTEX
 8
L7
 10
108
 20
-5
 30
0.
  0
VERTEX
 8
L7
 10
112
 20
-6
 30
0.
  0
VERTEX
 8
L7
 10
115
 20
-6
 30
0.
  0
VERTEX
 8
L7
 10
118
 20
-5
 30
0.
  0
VERTEX
 8
L7
 10
127
 20
-5
 30
0.
  0
VERTEX
 8
L7
 10
135
 20
-8
 30
0.
  0
SEQEND
 8
L7
 999
********** Spline **********
  0
POLYLINE
 8
L4
 66
1
 70
17
 39
0
 40
0
 41
0
  0
VERTEX
 8
L4
 10
212
 20
-27
 30
0.
  0
VERTEX
 8
L4
 10
214
 20
-30
 30
0.
  0
VERTEX
 8
L4
 10
216
 20
-34
 30
0.
  0
VERTEX
 8
L4
 10
222
 20
-38
 30
0.
  0
VERTEX
 8
L4
 10
225
 20
-37
 30
0.
  0
VERTEX
 8
L4
 10
228
 20
-35
 30
0.
  0
VERTEX
 8
L4
 10
237
 20
-25
 30
0.
  0
VERTEX
 8
L4
 10
242
 20
-22
 30
0.
  0
VERTEX
 8
L4
 10
248
 20
-21
 30
0.
  0
VERTEX
 8
L4
 10
244
 20
-26
 30
0.
  0
VERTEX
 8
L4
 10
241
 20
-31
 30
0.
  0
VERTEX
 8
L4
 10
247
 20
-32
 30
0.
  0
VERTEX
 8
L4
 10
254
 20
-34
 30
0.
  0
VERTEX
 8
L4
 10
245
 20
-38
 30
0.
  0
VERTEX
 8
L4
 10
241
 20
-40
 30
0.
  0
VERTEX
 8
L4
 10
239
 20
-44
 30
0.
  0
VERTEX
 8
L4
 10
241
 20
-48
 30
0.
  0
VERTEX
 8
L4
 10
246
 20
-50
 30
0.
  0
VERTEX
 8
L4
 10
257
 20
-52
 30
0.
  0
VERTEX
 8
L4
 10
261
 20
-54
 30
0.
  0
VERTEX
 8
L4
 10
264
 20
-58
 30
0.
  0
VERTEX
 8
L4
 10
269
 20
-66
 30
0.
  0
VERTEX
 8
L4
 10
272
 20
-70
 30
0.
  0
VERTEX
 8
L4
 10
269
 20
-72
 30
0.
  0
VERTEX
 8
L4
 10
259
 20
-72
 30
0.
  0
VERTEX
 8
L4
 10
253
 20
-71
 30
0.
  0
VERTEX
 8
L4
 10
250
 20
-71
 30
0.
  0
VERTEX
 8
L4
 10
248
 20
-72
 30
0.
  0
VERTEX
 8
L4
 10
251
 20
-75
 30
0.
  0
VERTEX
 8
L4
 10
256
 20
-78
 30
0.
  0
VERTEX
 8
L4
 10
257
 20
-82
 30
0.
  0
VERTEX
 8
L4
 10
254
 20
-86
 30
0.
  0
VERTEX
 8
L4
 10
254
 20
-88
 30
0.
  0
VERTEX
 8
L4
 10
256
 20
-88
 30
0.
  0
VERTEX
 8
L4
 10
261
 20
-85
 30
0.
  0
VERTEX
 8
L4
 10
271
 20
-82
 30
0.
  0
VERTEX
 8
L4
 10
280
 20
-78
 30
0.
  0
VERTEX
 8
L4
 10
285
 20
-78
 30
0.
  0
VERTEX
 8
L4
 10
289
 20
-76
 30
0.
  0
VERTEX
 8
L4
 10
288
 20
-71
 30
0.
  0
VERTEX
 8
L4
 10
288
 20
-69
 30
0.
  0
VERTEX
 8
L4
 10
289
 20
-67
 30
0.
  0
VERTEX
 8
L4
 10
295
 20
-73
 30
0.
  0
VERTEX
 8
L4
 10
299
 20
-73
 30
0.
  0
VERTEX
 8
L4
 10
303
 20
-72
 30
0.
  0
VERTEX
 8
L4
 10
310
 20
-68
 30
0.
  0
VERTEX
 8
L4
 10
317
 20
-63
 30
0.
  0
VERTEX
 8
L4
 10
323
 20
-58
 30
0.
  0
VERTEX
 8
L4
 10
324
 20
-55
 30
0.
  0
VERTEX
 8
L4
 10
323
 20
-50
 30
0.
  0
VERTEX
 8
L4
 10
317
 20
-42
 30
0.
  0
VERTEX
 8
L4
 10
314
 20
-38
 30
0.
  0
VERTEX
 8
L4
 10
312
 20
-34
 30
0.
  0
VERTEX
 8
L4
 10
319
 20
-41
 30
0.
  0
VERTEX
 8
L4
 10
325
 20
-47
 30
0.
  0
VERTEX
 8
L4
 10
330
 20
-55
 30
0.
  0
VERTEX
 8
L4
 10
335
 20
-62
 30
0.
  0
VERTEX
 8
L4
 10
335
 20
-65
 30
0.
  0
VERTEX
 8
L4
 10
332
 20
-67
 30
0.
  0
VERTEX
 8
L4
 10
324
 20
-69
 30
0.
  0
VERTEX
 8
L4
 10
318
 20
-72
 30
0.
  0
VERTEX
 8
L4
 10
312
 20
-77
 30
0.
  0
VERTEX
 8
L4
 10
305
 20
-81
 30
0.
  0
VERTEX
 8
L4
 10
297
 20
-84
 30
0.
  0
VERTEX
 8
L4
 10
290
 20
-90
 30
0.
  0
VERTEX
 8
L4
 10
283
 20
-96
 30
0.
  0
VERTEX
 8
L4
 10
276
 20
-101
 30
0.
  0
VERTEX
 8
L4
 10
267
 20
-106
 30
0.
  0
VERTEX
 8
L4
 10
258
 20
-108
 30
0.
  0
VERTEX
 8
L4
 10
249
 20
-109
 30
0.
  0
VERTEX
 8
L4
 10
241
 20
-107
 30
0.
  0
VERTEX
 8
L4
 10
234
 20
-103
 30
0.
  0
VERTEX
 8
L4
 10
228
 20
-97
 30
0.
  0
VERTEX
 8
L4
 10
223
 20
-90
 30
0.
  0
VERTEX
 8
L4
 10
222
 20
-76
 30
0.
  0
VERTEX
 8
L4
 10
222
 20
-68
 30
0.
  0
VERTEX
 8
L4
 10
221
 20
-61
 30
0.
  0
VERTEX
 8
L4
 10
218
 20
-55
 30
0.
  0
VERTEX
 8
L4
 10
217
 20
-48
 30
0.
  0
VERTEX
 8
L4
 10
213
 20
-43
 30
0.
  0
VERTEX
 8
L4
 10
208
 20
-38
 30
0.
  0
VERTEX
 8
L4
 10
206
 20
-34
 30
0.
  0
VERTEX
 8
L4
 10
204
 20
-30
 30
0.
  0
VERTEX
 8
L4
 10
201
 20
-27
 30
0.
  0
VERTEX
 8
L4
 10
197
 20
-25
 30
0.
  0
VERTEX
 8
L4
 10
193
 20
-23
 30
0.
  0
VERTEX
 8
L4
 10
192
 20
-21
 30
0.
  0
VERTEX
 8
L4
 10
192
 20
-20
 30
0.
  0
VERTEX
 8
L4
 10
193
 20
-17
 30
0.
  0
VERTEX
 8
L4
 10
191
 20
-14
 30
0.
  0
VERTEX
 8
L4
 10
197
 20
-18
 30
0.
  0
VERTEX
 8
L4
 10
202
 20
-23
 30
0.
  0
VERTEX
 8
L4
 10
202
 20
-19
 30
0.
  0
VERTEX
 8
L4
 10
202
 20
-16
 30
0.
  0
VERTEX
 8
L4
 10
208
 20
-22
 30
0.
  0
VERTEX
 8
L4
 10
210
 20
-25
 30
0.
  0
VERTEX
 8
L4
 10
210
 20
-28
 30
0.
  0
VERTEX
 8
L4
 10
211
 20
-28
 30
0.
  0
VERTEX
 8
L4
 10
212
 20
-27
 30
0.
  0
VERTEX
 8
L4
 10
212
 20
-27
 30
0.
  0
SEQEND
 8
L4
 999
********** Spline **********
  0
POLYLINE
 8
L8
 66
1
 70
17
 39
0
 40
0
 41
0
  0
VERTEX
 8
L8
 10
217
 20
-118
 30
0.
  0
VERTEX
 8
L8
 10
223
 20
-125
 30
0.
  0
VERTEX
 8
L8
 10
228
 20
-131
 30
0.
  0
VERTEX
 8
L8
 10
232
 20
-139
 30
0.
  0
VERTEX
 8
L8
 10
235
 20
-143
 30
0.
  0
VERTEX
 8
L8
 10
238
 20
-143
 30
0.
  0
VERTEX
 8
L8
 10
244
 20
-138
 30
0.
  0
VERTEX
 8
L8
 10
249
 20
-132
 30
0.
  0
VERTEX
 8
L8
 10
253
 20
-126
 30
0.
  0
VERTEX
 8
L8
 10
260
 20
-122
 30
0.
  0
VERTEX
 8
L8
 10
268
 20
-119
 30
0.
  0
VERTEX
 8
L8
 10
275
 20
-114
 30
0.
  0
VERTEX
 8
L8
 10
281
 20
-108
 30
0.
  0
VERTEX
 8
L8
 10
285
 20
-100
 30
0.
  0
VERTEX
 8
L8
 10
288
 20
-94
 30
0.
  0
VERTEX
 8
L8
 10
293
 20
-89
 30
0.
  0
VERTEX
 8
L8
 10
306
 20
-80
 30
0.
  0
VERTEX
 8
L8
 10
310
 20
-80
 30
0.
  0
VERTEX
 8
L8
 10
313
 20
-80
 30
0.
  0
VERTEX
 8
L8
 10
317
 20
-78
 30
0.
  0
VERTEX
 8
L8
 10
320
 20
-74
 30
0.
  0
VERTEX
 8
L8
 10
328
 20
-70
 30
0.
  0
VERTEX
 8
L8
 10
335
 20
-66
 30
0.
  0
VERTEX
 8
L8
 10
334
 20
-58
 30
0.
  0
VERTEX
 8
L8
 10
332
 20
-57
 30
0.
  0
VERTEX
 8
L8
 10
331
 20
-59
 30
0.
  0
VERTEX
 8
L8
 10
330
 20
-63
 30
0.
  0
VERTEX
 8
L8
 10
328
 20
-65
 30
0.
  0
VERTEX
 8
L8
 10
321
 20
-68
 30
0.
  0
VERTEX
 8
L8
 10
313
 20
-71
 30
0.
  0
VERTEX
 8
L8
 10
306
 20
-75
 30
0.
  0
VERTEX
 8
L8
 10
303
 20
-77
 30
0.
  0
VERTEX
 8
L8
 10
299
 20
-78
 30
0.
  0
VERTEX
 8
L8
 10
296
 20
-80
 30
0.
  0
VERTEX
 8
L8
 10
293
 20
-82
 30
0.
  0
VERTEX
 8
L8
 10
288
 20
-88
 30
0.
  0
VERTEX
 8
L8
 10
283
 20
-93
 30
0.
  0
VERTEX
 8
L8
 10
276
 20
-96
 30
0.
  0
VERTEX
 8
L8
 10
268
 20
-96
 30
0.
  0
VERTEX
 8
L8
 10
276
 20
-91
 30
0.
  0
VERTEX
 8
L8
 10
283
 20
-85
 30
0.
  0
VERTEX
 8
L8
 10
263
 20
-93
 30
0.
  0
VERTEX
 8
L8
 10
254
 20
-96
 30
0.
  0
VERTEX
 8
L8
 10
250
 20
-95
 30
0.
  0
VERTEX
 8
L8
 10
246
 20
-91
 30
0.
  0
VERTEX
 8
L8
 10
242
 20
-80
 30
0.
  0
VERTEX
 8
L8
 10
241
 20
-69
 30
0.
  0
VERTEX
 8
L8
 10
243
 20
-65
 30
0.
  0
VERTEX
 8
L8
 10
246
 20
-64
 30
0.
  0
VERTEX
 8
L8
 10
256
 20
-65
 30
0.
  0
VERTEX
 8
L8
 10
248
 20
-57
 30
0.
  0
VERTEX
 8
L8
 10
240
 20
-51
 30
0.
  0
VERTEX
 8
L8
 10
237
 20
-47
 30
0.
  0
VERTEX
 8
L8
 10
238
 20
-43
 30
0.
  0
VERTEX
 8
L8
 10
245
 20
-38
 30
0.
  0
VERTEX
 8
L8
 10
240
 20
-35
 30
0.
  0
VERTEX
 8
L8
 10
235
 20
-34
 30
0.
  0
VERTEX
 8
L8
 10
229
 20
-39
 30
0.
  0
VERTEX
 8
L8
 10
226
 20
-42
 30
0.
  0
VERTEX
 8
L8
 10
222
 20
-43
 30
0.
  0
VERTEX
 8
L8
 10
218
 20
-42
 30
0.
  0
VERTEX
 8
L8
 10
216
 20
-39
 30
0.
  0
VERTEX
 8
L8
 10
213
 20
-31
 30
0.
  0
VERTEX
 8
L8
 10
211
 20
-30
 30
0.
  0
VERTEX
 8
L8
 10
208
 20
-28
 30
0.
  0
VERTEX
 8
L8
 10
206
 20
-25
 30
0.
  0
VERTEX
 8
L8
 10
204
 20
-21
 30
0.
  0
VERTEX
 8
L8
 10
203
 20
-25
 30
0.
  0
VERTEX
 8
L8
 10
200
 20
-26
 30
0.
  0
VERTEX
 8
L8
 10
193
 20
-21
 30
0.
  0
VERTEX
 8
L8
 10
203
 20
-30
 30
0.
  0
VERTEX
 8
L8
 10
212
 20
-40
 30
0.
  0
VERTEX
 8
L8
 10
216
 20
-46
 30
0.
  0
VERTEX
 8
L8
 10
217
 20
-51
 30
0.
  0
VERTEX
 8
L8
 10
218
 20
-59
 30
0.
  0
VERTEX
 8
L8
 10
219
 20
-66
 30
0.
  0
VERTEX
 8
L8
 10
221
 20
-80
 30
0.
  0
VERTEX
 8
L8
 10
221
 20
-87
 30
0.
  0
VERTEX
 8
L8
 10
220
 20
-93
 30
0.
  0
VERTEX
 8
L8
 10
215
 20
-106
 30
0.
  0
VERTEX
 8
L8
 10
215
 20
-113
 30
0.
  0
VERTEX
 8
L8
 10
217
 20
-118
 30
0.
  0
VERTEX
 8
L8
 10
217
 20
-118
 30
0.
  0
SEQEND
 8
L8
 999
********** Spline **********
  0
POLYLINE
 8
L9
 66
1
 70
17
 39
0
 40
0
 41
0
  0
VERTEX
 8
L9
 10
171
 20
-208
 30
0.
  0
VERTEX
 8
L9
 10
167
 20
-209
 30
0.
  0
VERTEX
 8
L9
 10
165
 20
-208
 30
0.
  0
VERTEX
 8
L9
 10
164
 20
-206
 30
0.
  0
VERTEX
 8
L9
 10
165
 20
-204
 30
0.
  0
VERTEX
 8
L9
 10
167
 20
-204
 30
0.
  0
VERTEX
 8
L9
 10
168
 20
-203
 30
0.
  0
VERTEX
 8
L9
 10
166
 20
-203
 30
0.
  0
VERTEX
 8
L9
 10
164
 20
-202
 30
0.
  0
VERTEX
 8
L9
 10
164
 20
-201
 30
0.
  0
VERTEX
 8
L9
 10
165
 20
-200
 30
0.
  0
VERTEX
 8
L9
 10
168
 20
-199
 30
0.
  0
VERTEX
 8
L9
 10
171
 20
-197
 30
0.
  0
VERTEX
 8
L9
 10
177
 20
-195
 30
0.
  0
VERTEX
 8
L9
 10
180
 20
-194
 30
0.
  0
VERTEX
 8
L9
 10
180
 20
-193
 30
0.
  0
VERTEX
 8
L9
 10
174
 20
-193
 30
0.
  0
VERTEX
 8
L9
 10
168
 20
-195
 30
0.
  0
VERTEX
 8
L9
 10
163
 20
-195
 30
0.
  0
VERTEX
 8
L9
 10
162
 20
-190
 30
0.
  0
VERTEX
 8
L9
 10
160
 20
-185
 30
0.
  0
VERTEX
 8
L9
 10
160
 20
-182
 30
0.
  0
VERTEX
 8
L9
 10
161
 20
-180
 30
0.
  0
VERTEX
 8
L9
 10
167
 20
-176
 30
0.
  0
VERTEX
 8
L9
 10
173
 20
-175
 30
0.
  0
VERTEX
 8
L9
 10
168
 20
-175
 30
0.
  0
VERTEX
 8
L9
 10
162
 20
-175
 30
0.
  0
VERTEX
 8
L9
 10
161
 20
-173
 30
0.
  0
VERTEX
 8
L9
 10
162
 20
-171
 30
0.
  0
VERTEX
 8
L9
 10
168
 20
-168
 30
0.
  0
VERTEX
 8
L9
 10
163
 20
-168
 30
0.
  0
VERTEX
 8
L9
 10
158
 20
-171
 30
0.
  0
VERTEX
 8
L9
 10
159
 20
-167
 30
0.
  0
VERTEX
 8
L9
 10
163
 20
-164
 30
0.
  0
VERTEX
 8
L9
 10
167
 20
-163
 30
0.
  0
VERTEX
 8
L9
 10
169
 20
-160
 30
0.
  0
VERTEX
 8
L9
 10
164
 20
-163
 30
0.
  0
VERTEX
 8
L9
 10
158
 20
-166
 30
0.
  0
VERTEX
 8
L9
 10
164
 20
-161
 30
0.
  0
VERTEX
 8
L9
 10
166
 20
-159
 30
0.
  0
VERTEX
 8
L9
 10
169
 20
-159
 30
0.
  0
VERTEX
 8
L9
 10
167
 20
-157
 30
0.
  0
VERTEX
 8
L9
 10
164
 20
-155
 30
0.
  0
VERTEX
 8
L9
 10
166
 20
-155
 30
0.
  0
VERTEX
 8
L9
 10
168
 20
-155
 30
0.
  0
VERTEX
 8
L9
 10
162
 20
-155
 30
0.
  0
VERTEX
 8
L9
 10
159
 20
-156
 30
0.
  0
VERTEX
 8
L9
 10
158
 20
-158
 30
0.
  0
VERTEX
 8
L9
 10
157
 20
-159
 30
0.
  0
VERTEX
 8
L9
 10
156
 20
-158
 30
0.
  0
VERTEX
 8
L9
 10
153
 20
-153
 30
0.
  0
VERTEX
 8
L9
 10
156
 20
-149
 30
0.
  0
VERTEX
 8
L9
 10
160
 20
-148
 30
0.
  0
VERTEX
 8
L9
 10
164
 20
-146
 30
0.
  0
VERTEX
 8
L9
 10
168
 20
-144
 30
0.
  0
VERTEX
 8
L9
 10
160
 20
-144
 30
0.
  0
VERTEX
 8
L9
 10
153
 20
-144
 30
0.
  0
VERTEX
 8
L9
 10
151
 20
-140
 30
0.
  0
VERTEX
 8
L9
 10
153
 20
-136
 30
0.
  0
VERTEX
 8
L9
 10
156
 20
-134
 30
0.
  0
VERTEX
 8
L9
 10
160
 20
-133
 30
0.
  0
VERTEX
 8
L9
 10
157
 20
-133
 30
0.
  0
VERTEX
 8
L9
 10
153
 20
-135
 30
0.
  0
VERTEX
 8
L9
 10
155
 20
-132
 30
0.
  0
VERTEX
 8
L9
 10
158
 20
-131
 30
0.
  0
VERTEX
 8
L9
 10
156
 20
-131
 30
0.
  0
VERTEX
 8
L9
 10
153
 20
-131
 30
0.
  0
VERTEX
 8
L9
 10
156
 20
-130
 30
0.
  0
VERTEX
 8
L9
 10
158
 20
-128
 30
0.
  0
VERTEX
 8
L9
 10
155
 20
-127
 30
0.
  0
VERTEX
 8
L9
 10
151
 20
-126
 30
0.
  0
VERTEX
 8
L9
 10
157
 20
-123
 30
0.
  0
VERTEX
 8
L9
 10
159
 20
-122
 30
0.
  0
VERTEX
 8
L9
 10
154
 20
-122
 30
0.
  0
VERTEX
 8
L9
 10
149
 20
-122
 30
0.
  0
VERTEX
 8
L9
 10
149
 20
-118
 30
0.
  0
VERTEX
 8
L9
 10
148
 20
-115
 30
0.
  0
VERTEX
 8
L9
 10
155
 20
-112
 30
0.
  0
VERTEX
 8
L9
 10
164
 20
-109
 30
0.
  0
VERTEX
 8
L9
 10
158
 20
-109
 30
0.
  0
VERTEX
 8
L9
 10
152
 20
-110
 30
0.
  0
VERTEX
 8
L9
 10
149
 20
-110
 30
0.
  0
VERTEX
 8
L9
 10
147
 20
-108
 30
0.
  0
VERTEX
 8
L9
 10
147
 20
-106
 30
0.
  0
VERTEX
 8
L9
 10
145
 20
-105
 30
0.
  0
VERTEX
 8
L9
 10
145
 20
-114
 30
0.
  0
VERTEX
 8
L9
 10
146
 20
-120
 30
0.
  0
VERTEX
 8
L9
 10
148
 20
-124
 30
0.
  0
VERTEX
 8
L9
 10
146
 20
-128
 30
0.
  0
VERTEX
 8
L9
 10
146
 20
-134
 30
0.
  0
VERTEX
 8
L9
 10
145
 20
-135
 30
0.
  0
VERTEX
 8
L9
 10
144
 20
-132
 30
0.
  0
VERTEX
 8
L9
 10
143
 20
-129
 30
0.
  0
VERTEX
 8
L9
 10
142
 20
-126
 30
0.
  0
VERTEX
 8
L9
 10
142
 20
-131
 30
0.
  0
VERTEX
 8
L9
 10
142
 20
-137
 30
0.
  0
VERTEX
 8
L9
 10
140
 20
-134
 30
0.
  0
VERTEX
 8
L9
 10
138
 20
-131
 30
0.
  0
VERTEX
 8
L9
 10
138
 20
-133
 30
0.
  0
VERTEX
 8
L9
 10
138
 20
-135
 30
0.
  0
VERTEX
 8
L9
 10
133
 20
-132
 30
0.
  0
VERTEX
 8
L9
 10
129
 20
-129
 30
0.
  0
VERTEX
 8
L9
 10
130
 20
-136
 30
0.
  0
VERTEX
 8
L9
 10
132
 20
-139
 30
0.
  0
VERTEX
 8
L9
 10
136
 20
-140
 30
0.
  0
VERTEX
 8
L9
 10
140
 20
-141
 30
0.
  0
VERTEX
 8
L9
 10
142
 20
-144
 30
0.
  0
VERTEX
 8
L9
 10
146
 20
-151
 30
0.
  0
VERTEX
 8
L9
 10
148
 20
-153
 30
0.
  0
VERTEX
 8
L9
 10
149
 20
-155
 30
0.
  0
VERTEX
 8
L9
 10
151
 20
-158
 30
0.
  0
VERTEX
 8
L9
 10
152
 20
-161
 30
0.
  0
VERTEX
 8
L9
 10
155
 20
-163
 30
0.
  0
VERTEX
 8
L9
 10
155
 20
-167
 30
0.
  0
VERTEX
 8
L9
 10
155
 20
-172
 30
0.
  0
VERTEX
 8
L9
 10
155
 20
-176
 30
0.
  0
VERTEX
 8
L9
 10
158
 20
-184
 30
0.
  0
VERTEX
 8
L9
 10
159
 20
-192
 30
0.
  0
VERTEX
 8
L9
 10
161
 20
-201
 30
0.
  0
VERTEX
 8
L9
 10
162
 20
-209
 30
0.
  0
VERTEX
 8
L9
 10
163
 20
-212
 30
0.
  0
VERTEX
 8
L9
 10
164
 20
-215
 30
0.
  0
VERTEX
 8
L9
 10
164
 20
-219
 30
0.
  0
VERTEX
 8
L9
 10
164
 20
-223
 30
0.
  0
VERTEX
 8
L9
 10
167
 20
-233
 30
0.
  0
VERTEX
 8
L9
 10
168
 20
-242
 30
0.
  0
VERTEX
 8
L9
 10
170
 20
-258
 30
0.
  0
VERTEX
 8
L9
 10
171
 20
-273
 30
0.
  0
VERTEX
 8
L9
 10
170
 20
-281
 30
0.
  0
VERTEX
 8
L9
 10
169
 20
-289
 30
0.
  0
VERTEX
 8
L9
 10
167
 20
-296
 30
0.
  0
VERTEX
 8
L9
 10
165
 20
-298
 30
0.
  0
VERTEX
 8
L9
 10
164
 20
-302
 30
0.
  0
VERTEX
 8
L9
 10
160
 20
-307
 30
0.
  0
VERTEX
 8
L9
 10
154
 20
-309
 30
0.
  0
VERTEX
 8
L9
 10
150
 20
-310
 30
0.
  0
VERTEX
 8
L9
 10
148
 20
-312
 30
0.
  0
VERTEX
 8
L9
 10
147
 20
-320
 30
0.
  0
VERTEX
 8
L9
 10
145
 20
-328
 30
0.
  0
VERTEX
 8
L9
 10
144
 20
-331
 30
0.
  0
VERTEX
 8
L9
 10
146
 20
-333
 30
0.
  0
VERTEX
 8
L9
 10
154
 20
-330
 30
0.
  0
VERTEX
 8
L9
 10
161
 20
-327
 30
0.
  0
VERTEX
 8
L9
 10
167
 20
-326
 30
0.
  0
VERTEX
 8
L9
 10
172
 20
-325
 30
0.
  0
VERTEX
 8
L9
 10
176
 20
-324
 30
0.
  0
VERTEX
 8
L9
 10
180
 20
-322
 30
0.
  0
VERTEX
 8
L9
 10
169
 20
-322
 30
0.
  0
VERTEX
 8
L9
 10
163
 20
-321
 30
0.
  0
VERTEX
 8
L9
 10
158
 20
-318
 30
0.
  0
VERTEX
 8
L9
 10
160
 20
-321
 30
0.
  0
VERTEX
 8
L9
 10
162
 20
-322
 30
0.
  0
VERTEX
 8
L9
 10
157
 20
-319
 30
0.
  0
VERTEX
 8
L9
 10
155
 20
-317
 30
0.
  0
VERTEX
 8
L9
 10
156
 20
-315
 30
0.
  0
VERTEX
 8
L9
 10
161
 20
-315
 30
0.
  0
VERTEX
 8
L9
 10
166
 20
-318
 30
0.
  0
VERTEX
 8
L9
 10
165
 20
-314
 30
0.
  0
VERTEX
 8
L9
 10
167
 20
-314
 30
0.
  0
VERTEX
 8
L9
 10
168
 20
-316
 30
0.
  0
VERTEX
 8
L9
 10
165
 20
-313
 30
0.
  0
VERTEX
 8
L9
 10
162
 20
-311
 30
0.
  0
VERTEX
 8
L9
 10
164
 20
-309
 30
0.
  0
VERTEX
 8
L9
 10
166
 20
-307
 30
0.
  0
VERTEX
 8
L9
 10
168
 20
-308
 30
0.
  0
VERTEX
 8
L9
 10
168
 20
-309
 30
0.
  0
VERTEX
 8
L9
 10
173
 20
-309
 30
0.
  0
VERTEX
 8
L9
 10
177
 20
-308
 30
0.
  0
VERTEX
 8
L9
 10
173
 20
-306
 30
0.
  0
VERTEX
 8
L9
 10
169
 20
-304
 30
0.
  0
VERTEX
 8
L9
 10
169
 20
-301
 30
0.
  0
VERTEX
 8
L9
 10
171
 20
-298
 30
0.
  0
VERTEX
 8
L9
 10
178
 20
-299
 30
0.
  0
VERTEX
 8
L9
 10
184
 20
-296
 30
0.
  0
VERTEX
 8
L9
 10
177
 20
-295
 30
0.
  0
VERTEX
 8
L9
 10
171
 20
-296
 30
0.
  0
VERTEX
 8
L9
 10
171
 20
-292
 30
0.
  0
VERTEX
 8
L9
 10
172
 20
-291
 30
0.
  0
VERTEX
 8
L9
 10
174
 20
-291
 30
0.
  0
VERTEX
 8
L9
 10
181
 20
-292
 30
0.
  0
VERTEX
 8
L9
 10
188
 20
-290
 30
0.
  0
VERTEX
 8
L9
 10
180
 20
-290
 30
0.
  0
VERTEX
 8
L9
 10
173
 20
-289
 30
0.
  0
VERTEX
 8
L9
 10
178
 20
-289
 30
0.
  0
VERTEX
 8
L9
 10
180
 20
-289
 30
0.
  0
VERTEX
 8
L9
 10
176
 20
-288
 30
0.
  0
VERTEX
 8
L9
 10
176
 20
-286
 30
0.
  0
VERTEX
 8
L9
 10
180
 20
-281
 30
0.
  0
VERTEX
 8
L9
 10
179
 20
-285
 30
0.
  0
VERTEX
 8
L9
 10
175
 20
-287
 30
0.
  0
VERTEX
 8
L9
 10
175
 20
-283
 30
0.
  0
VERTEX
 8
L9
 10
177
 20
-281
 30
0.
  0
VERTEX
 8
L9
 10
180
 20
-281
 30
0.
  0
VERTEX
 8
L9
 10
184
 20
-279
 30
0.
  0
VERTEX
 8
L9
 10
178
 20
-279
 30
0.
  0
VERTEX
 8
L9
 10
176
 20
-279
 30
0.
  0
VERTEX
 8
L9
 10
175
 20
-276
 30
0.
  0
VERTEX
 8
L9
 10
179
 20
-276
 30
0.
  0
VERTEX
 8
L9
 10
182
 20
-274
 30
0.
  0
VERTEX
 8
L9
 10
177
 20
-273
 30
0.
  0
VERTEX
 8
L9
 10
175
 20
-268
 30
0.
  0
VERTEX
 8
L9
 10
177
 20
-264
 30
0.
  0
VERTEX
 8
L9
 10
183
 20
-263
 30
0.
  0
VERTEX
 8
L9
 10
181
 20
-262
 30
0.
  0
VERTEX
 8
L9
 10
175
 20
-261
 30
0.
  0
VERTEX
 8
L9
 10
173
 20
-258
 30
0.
  0
VERTEX
 8
L9
 10
173
 20
-255
 30
0.
  0
VERTEX
 8
L9
 10
174
 20
-251
 30
0.
  0
VERTEX
 8
L9
 10
177
 20
-250
 30
0.
  0
VERTEX
 8
L9
 10
172
 20
-248
 30
0.
  0
VERTEX
 8
L9
 10
171
 20
-246
 30
0.
  0
VERTEX
 8
L9
 10
172
 20
-244
 30
0.
  0
VERTEX
 8
L9
 10
176
 20
-242
 30
0.
  0
VERTEX
 8
L9
 10
180
 20
-241
 30
0.
  0
VERTEX
 8
L9
 10
174
 20
-240
 30
0.
  0
VERTEX
 8
L9
 10
172
 20
-240
 30
0.
  0
VERTEX
 8
L9
 10
171
 20
-235
 30
0.
  0
VERTEX
 8
L9
 10
169
 20
-232
 30
0.
  0
VERTEX
 8
L9
 10
168
 20
-231
 30
0.
  0
VERTEX
 8
L9
 10
168
 20
-230
 30
0.
  0
VERTEX
 8
L9
 10
172
 20
-227
 30
0.
  0
VERTEX
 8
L9
 10
176
 20
-226
 30
0.
  0
VERTEX
 8
L9
 10
180
 20
-225
 30
0.
  0
VERTEX
 8
L9
 10
181
 20
-223
 30
0.
  0
VERTEX
 8
L9
 10
180
 20
-223
 30
0.
  0
VERTEX
 8
L9
 10
176
 20
-224
 30
0.
  0
VERTEX
 8
L9
 10
171
 20
-225
 30
0.
  0
VERTEX
 8
L9
 10
167
 20
-224
 30
0.
  0
VERTEX
 8
L9
 10
170
 20
-222
 30
0.
  0
VERTEX
 8
L9
 10
177
 20
-219
 30
0.
  0
VERTEX
 8
L9
 10
174
 20
-220
 30
0.
  0
VERTEX
 8
L9
 10
171
 20
-221
 30
0.
  0
VERTEX
 8
L9
 10
175
 20
-217
 30
0.
  0
VERTEX
 8
L9
 10
180
 20
-215
 30
0.
  0
VERTEX
 8
L9
 10
173
 20
-216
 30
0.
  0
VERTEX
 8
L9
 10
168
 20
-219
 30
0.
  0
VERTEX
 8
L9
 10
169
 20
-215
 30
0.
  0
VERTEX
 8
L9
 10
172
 20
-212
 30
0.
  0
VERTEX
 8
L9
 10
179
 20
-206
 30
0.
  0
VERTEX
 8
L9
 10
175
 20
-207
 30
0.
  0
VERTEX
 8
L9
 10
171
 20
-208
 30
0.
  0
VERTEX
 8
L9
 10
171
 20
-208
 30
0.
  0
SEQEND
 8
L9
 999
********** Spline **********
  0
POLYLINE
 8
L4
 66
1
 70
17
 39
0
 40
0
 41
0
  0
VERTEX
 8
L4
 10
204
 20
-12
 30
0.
  0
VERTEX
 8
L4
 10
204
 20
-19
 30
0.
  0
VERTEX
 8
L4
 10
206
 20
-21
 30
0.
  0
VERTEX
 8
L4
 10
209
 20
-23
 30
0.
  0
VERTEX
 8
L4
 10
213
 20
-28
 30
0.
  0
VERTEX
 8
L4
 10
217
 20
-34
 30
0.
  0
VERTEX
 8
L4
 10
218
 20
-28
 30
0.
  0
VERTEX
 8
L4
 10
216
 20
-20
 30
0.
  0
VERTEX
 8
L4
 10
216
 20
-14
 30
0.
  0
VERTEX
 8
L4
 10
217
 20
-11
 30
0.
  0
VERTEX
 8
L4
 10
221
 20
-10
 30
0.
  0
VERTEX
 8
L4
 10
236
 20
-13
 30
0.
  0
VERTEX
 8
L4
 10
244
 20
-16
 30
0.
  0
VERTEX
 8
L4
 10
251
 20
-17
 30
0.
  0
VERTEX
 8
L4
 10
264
 20
-19
 30
0.
  0
VERTEX
 8
L4
 10
277
 20
-21
 30
0.
  0
VERTEX
 8
L4
 10
284
 20
-21
 30
0.
  0
VERTEX
 8
L4
 10
291
 20
-22
 30
0.
  0
VERTEX
 8
L4
 10
298
 20
-26
 30
0.
  0
VERTEX
 8
L4
 10
305
 20
-30
 30
0.
  0
VERTEX
 8
L4
 10
302
 20
-25
 30
0.
  0
VERTEX
 8
L4
 10
295
 20
-21
 30
0.
  0
VERTEX
 8
L4
 10
286
 20
-18
 30
0.
  0
VERTEX
 8
L4
 10
280
 20
-18
 30
0.
  0
VERTEX
 8
L4
 10
269
 20
-18
 30
0.
  0
VERTEX
 8
L4
 10
257
 20
-14
 30
0.
  0
VERTEX
 8
L4
 10
255
 20
-15
 30
0.
  0
VERTEX
 8
L4
 10
252
 20
-16
 30
0.
  0
VERTEX
 8
L4
 10
249
 20
-15
 30
0.
  0
VERTEX
 8
L4
 10
246
 20
-14
 30
0.
  0
VERTEX
 8
L4
 10
243
 20
-14
 30
0.
  0
VERTEX
 8
L4
 10
240
 20
-14
 30
0.
  0
VERTEX
 8
L4
 10
237
 20
-13
 30
0.
  0
VERTEX
 8
L4
 10
234
 20
-10
 30
0.
  0
VERTEX
 8
L4
 10
227
 20
-8
 30
0.
  0
VERTEX
 8
L4
 10
219
 20
-6
 30
0.
  0
VERTEX
 8
L4
 10
212
 20
-10
 30
0.
  0
VERTEX
 8
L4
 10
206
 20
-14
 30
0.
  0
VERTEX
 8
L4
 10
202
 20
-9
 30
0.
  0
VERTEX
 8
L4
 10
197
 20
-6
 30
0.
  0
VERTEX
 8
L4
 10
200
 20
-10
 30
0.
  0
VERTEX
 8
L4
 10
204
 20
-12
 30
0.
  0
VERTEX
 8
L4
 10
204
 20
-12
 30
0.
  0
SEQEND
 8
L4
 999
********** Spline **********
  0
POLYLINE
 8
L10
 66
1
 70
17
 39
0
 40
0
 41
0
  0
VERTEX
 8
L10
 10
215
 20
-138
 30
0.
  0
VERTEX
 8
L10
 10
218
 20
-140
 30
0.
  0
VERTEX
 8
L10
 10
221
 20
-142
 30
0.
  0
VERTEX
 8
L10
 10
216
 20
-144
 30
0.
  0
VERTEX
 8
L10
 10
210
 20
-146
 30
0.
  0
VERTEX
 8
L10
 10
207
 20
-150
 30
0.
  0
VERTEX
 8
L10
 10
206
 20
-156
 30
0.
  0
VERTEX
 8
L10
 10
204
 20
-163
 30
0.
  0
VERTEX
 8
L10
 10
204
 20
-171
 30
0.
  0
VERTEX
 8
L10
 10
203
 20
-178
 30
0.
  0
VERTEX
 8
L10
 10
201
 20
-184
 30
0.
  0
VERTEX
 8
L10
 10
200
 20
-191
 30
0.
  0
VERTEX
 8
L10
 10
201
 20
-197
 30
0.
  0
VERTEX
 8
L10
 10
201
 20
-204
 30
0.
  0
VERTEX
 8
L10
 10
201
 20
-212
 30
0.
  0
VERTEX
 8
L10
 10
201
 20
-225
 30
0.
  0
VERTEX
 8
L10
 10
201
 20
-238
 30
0.
  0
VERTEX
 8
L10
 10
200
 20
-252
 30
0.
  0
VERTEX
 8
L10
 10
199
 20
-266
 30
0.
  0
VERTEX
 8
L10
 10
198
 20
-273
 30
0.
  0
VERTEX
 8
L10
 10
197
 20
-279
 30
0.
  0
VERTEX
 8
L10
 10
197
 20
-285
 30
0.
  0
VERTEX
 8
L10
 10
197
 20
-291
 30
0.
  0
VERTEX
 8
L10
 10
195
 20
-294
 30
0.
  0
VERTEX
 8
L10
 10
193
 20
-297
 30
0.
  0
VERTEX
 8
L10
 10
193
 20
-300
 30
0.
  0
VERTEX
 8
L10
 10
192
 20
-302
 30
0.
  0
VERTEX
 8
L10
 10
190
 20
-307
 30
0.
  0
VERTEX
 8
L10
 10
188
 20
-310
 30
0.
  0
VERTEX
 8
L10
 10
185
 20
-315
 30
0.
  0
VERTEX
 8
L10
 10
181
 20
-319
 30
0.
  0
VERTEX
 8
L10
 10
178
 20
-323
 30
0.
  0
VERTEX
 8
L10
 10
171
 20
-323
 30
0.
  0
VERTEX
 8
L10
 10
174
 20
-322
 30
0.
  0
VERTEX
 8
L10
 10
177
 20
-320
 30
0.
  0
VERTEX
 8
L10
 10
174
 20
-318
 30
0.
  0
VERTEX
 8
L10
 10
171
 20
-318
 30
0.
  0
VERTEX
 8
L10
 10
175
 20
-318
 30
0.
  0
VERTEX
 8
L10
 10
179
 20
-316
 30
0.
  0
VERTEX
 8
L10
 10
177
 20
-315
 30
0.
  0
VERTEX
 8
L10
 10
175
 20
-314
 30
0.
  0
VERTEX
 8
L10
 10
179
 20
-313
 30
0.
  0
VERTEX
 8
L10
 10
182
 20
-312
 30
0.
  0
VERTEX
 8
L10
 10
184
 20
-310
 30
0.
  0
VERTEX
 8
L10
 10
182
 20
-309
 30
0.
  0
VERTEX
 8
L10
 10
181
 20
-309
 30
0.
  0
VERTEX
 8
L10
 10
180
 20
-308
 30
0.
  0
VERTEX
 8
L10
 10
182
 20
-307
 30
0.
  0
VERTEX
 8
L10
 10
184
 20
-307
 30
0.
  0
VERTEX
 8
L10
 10
186
 20
-307
 30
0.
  0
VERTEX
 8
L10
 10
188
 20
-306
 30
0.
  0
VERTEX
 8
L10
 10
187
 20
-305
 30
0.
  0
VERTEX
 8
L10
 10
184
 20
-305
 30
0.
  0
VERTEX
 8
L10
 10
188
 20
-303
 30
0.
  0
VERTEX
 8
L10
 10
187
 20
-302
 30
0.
  0
VERTEX
 8
L10
 10
184
 20
-301
 30
0.
  0
VERTEX
 8
L10
 10
189
 20
-302
 30
0.
  0
VERTEX
 8
L10
 10
190
 20
-301
 30
0.
  0
VERTEX
 8
L10
 10
191
 20
-299
 30
0.
  0
VERTEX
 8
L10
 10
188
 20
-298
 30
0.
  0
VERTEX
 8
L10
 10
186
 20
-296
 30
0.
  0
VERTEX
 8
L10
 10
187
 20
-296
 30
0.
  0
VERTEX
 8
L10
 10
192
 20
-294
 30
0.
  0
VERTEX
 8
L10
 10
194
 20
-290
 30
0.
  0
VERTEX
 8
L10
 10
194
 20
-285
 30
0.
  0
VERTEX
 8
L10
 10
197
 20
-279
 30
0.
  0
VERTEX
 8
L10
 10
193
 20
-279
 30
0.
  0
VERTEX
 8
L10
 10
188
 20
-279
 30
0.
  0
VERTEX
 8
L10
 10
192
 20
-277
 30
0.
  0
VERTEX
 8
L10
 10
196
 20
-274
 30
0.
  0
VERTEX
 8
L10
 10
197
 20
-269
 30
0.
  0
VERTEX
 8
L10
 10
196
 20
-264
 30
0.
  0
VERTEX
 8
L10
 10
191
 20
-263
 30
0.
  0
VERTEX
 8
L10
 10
188
 20
-262
 30
0.
  0
VERTEX
 8
L10
 10
192
 20
-261
 30
0.
  0
VERTEX
 8
L10
 10
197
 20
-259
 30
0.
  0
VERTEX
 8
L10
 10
194
 20
-254
 30
0.
  0
VERTEX
 8
L10
 10
193
 20
-252
 30
0.
  0
VERTEX
 8
L10
 10
190
 20
-250
 30
0.
  0
VERTEX
 8
L10
 10
195
 20
-247
 30
0.
  0
VERTEX
 8
L10
 10
197
 20
-245
 30
0.
  0
VERTEX
 8
L10
 10
197
 20
-242
 30
0.
  0
VERTEX
 8
L10
 10
192
 20
-237
 30
0.
  0
VERTEX
 8
L10
 10
184
 20
-236
 30
0.
  0
VERTEX
 8
L10
 10
193
 20
-234
 30
0.
  0
VERTEX
 8
L10
 10
196
 20
-233
 30
0.
  0
VERTEX
 8
L10
 10
197
 20
-229
 30
0.
  0
VERTEX
 8
L10
 10
197
 20
-225
 30
0.
  0
VERTEX
 8
L10
 10
193
 20
-223
 30
0.
  0
VERTEX
 8
L10
 10
189
 20
-222
 30
0.
  0
VERTEX
 8
L10
 10
188
 20
-221
 30
0.
  0
VERTEX
 8
L10
 10
189
 20
-221
 30
0.
  0
VERTEX
 8
L10
 10
193
 20
-221
 30
0.
  0
VERTEX
 8
L10
 10
197
 20
-221
 30
0.
  0
VERTEX
 8
L10
 10
198
 20
-219
 30
0.
  0
VERTEX
 8
L10
 10
196
 20
-217
 30
0.
  0
VERTEX
 8
L10
 10
194
 20
-216
 30
0.
  0
VERTEX
 8
L10
 10
194
 20
-214
 30
0.
  0
VERTEX
 8
L10
 10
196
 20
-210
 30
0.
  0
VERTEX
 8
L10
 10
196
 20
-208
 30
0.
  0
VERTEX
 8
L10
 10
193
 20
-206
 30
0.
  0
VERTEX
 8
L10
 10
189
 20
-206
 30
0.
  0
VERTEX
 8
L10
 10
184
 20
-206
 30
0.
  0
VERTEX
 8
L10
 10
191
 20
-205
 30
0.
  0
VERTEX
 8
L10
 10
197
 20
-204
 30
0.
  0
VERTEX
 8
L10
 10
198
 20
-201
 30
0.
  0
VERTEX
 8
L10
 10
196
 20
-199
 30
0.
  0
VERTEX
 8
L10
 10
191
 20
-195
 30
0.
  0
VERTEX
 8
L10
 10
189
 20
-195
 30
0.
  0
VERTEX
 8
L10
 10
188
 20
-195
 30
0.
  0
VERTEX
 8
L10
 10
188
 20
-193
 30
0.
  0
VERTEX
 8
L10
 10
191
 20
-193
 30
0.
  0
VERTEX
 8
L10
 10
194
 20
-193
 30
0.
  0
VERTEX
 8
L10
 10
196
 20
-192
 30
0.
  0
VERTEX
 8
L10
 10
196
 20
-189
 30
0.
  0
VERTEX
 8
L10
 10
194
 20
-185
 30
0.
  0
VERTEX
 8
L10
 10
191
 20
-184
 30
0.
  0
VERTEX
 8
L10
 10
194
 20
-183
 30
0.
  0
VERTEX
 8
L10
 10
197
 20
-182
 30
0.
  0
VERTEX
 8
L10
 10
197
 20
-179
 30
0.
  0
VERTEX
 8
L10
 10
197
 20
-176
 30
0.
  0
VERTEX
 8
L10
 10
191
 20
-173
 30
0.
  0
VERTEX
 8
L10
 10
182
 20
-173
 30
0.
  0
VERTEX
 8
L10
 10
194
 20
-171
 30
0.
  0
VERTEX
 8
L10
 10
199
 20
-169
 30
0.
  0
VERTEX
 8
L10
 10
200
 20
-167
 30
0.
  0
VERTEX
 8
L10
 10
199
 20
-164
 30
0.
  0
VERTEX
 8
L10
 10
193
 20
-162
 30
0.
  0
VERTEX
 8
L10
 10
188
 20
-161
 30
0.
  0
VERTEX
 8
L10
 10
193
 20
-160
 30
0.
  0
VERTEX
 8
L10
 10
199
 20
-160
 30
0.
  0
VERTEX
 8
L10
 10
195
 20
-160
 30
0.
  0
VERTEX
 8
L10
 10
191
 20
-159
 30
0.
  0
VERTEX
 8
L10
 10
196
 20
-159
 30
0.
  0
VERTEX
 8
L10
 10
200
 20
-159
 30
0.
  0
VERTEX
 8
L10
 10
201
 20
-158
 30
0.
  0
VERTEX
 8
L10
 10
201
 20
-156
 30
0.
  0
VERTEX
 8
L10
 10
199
 20
-155
 30
0.
  0
VERTEX
 8
L10
 10
196
 20
-155
 30
0.
  0
VERTEX
 8
L10
 10
188
 20
-152
 30
0.
  0
VERTEX
 8
L10
 10
183
 20
-151
 30
0.
  0
VERTEX
 8
L10
 10
179
 20
-153
 30
0.
  0
VERTEX
 8
L10
 10
178
 20
-152
 30
0.
  0
VERTEX
 8
L10
 10
177
 20
-151
 30
0.
  0
VERTEX
 8
L10
 10
187
 20
-151
 30
0.
  0
VERTEX
 8
L10
 10
197
 20
-151
 30
0.
  0
VERTEX
 8
L10
 10
186
 20
-149
 30
0.
  0
VERTEX
 8
L10
 10
175
 20
-149
 30
0.
  0
VERTEX
 8
L10
 10
181
 20
-145
 30
0.
  0
VERTEX
 8
L10
 10
189
 20
-144
 30
0.
  0
VERTEX
 8
L10
 10
196
 20
-144
 30
0.
  0
VERTEX
 8
L10
 10
202
 20
-144
 30
0.
  0
VERTEX
 8
L10
 10
203
 20
-141
 30
0.
  0
VERTEX
 8
L10
 10
202
 20
-138
 30
0.
  0
VERTEX
 8
L10
 10
200
 20
-136
 30
0.
  0
VERTEX
 8
L10
 10
197
 20
-135
 30
0.
  0
VERTEX
 8
L10
 10
195
 20
-134
 30
0.
  0
VERTEX
 8
L10
 10
196
 20
-132
 30
0.
  0
VERTEX
 8
L10
 10
199
 20
-131
 30
0.
  0
VERTEX
 8
L10
 10
202
 20
-131
 30
0.
  0
VERTEX
 8
L10
 10
201
 20
-126
 30
0.
  0
VERTEX
 8
L10
 10
200
 20
-124
 30
0.
  0
VERTEX
 8
L10
 10
198
 20
-122
 30
0.
  0
VERTEX
 8
L10
 10
193
 20
-121
 30
0.
  0
VERTEX
 8
L10
 10
191
 20
-120
 30
0.
  0
VERTEX
 8
L10
 10
192
 20
-120
 30
0.
  0
VERTEX
 8
L10
 10
198
 20
-119
 30
0.
  0
VERTEX
 8
L10
 10
202
 20
-117
 30
0.
  0
VERTEX
 8
L10
 10
204
 20
-113
 30
0.
  0
VERTEX
 8
L10
 10
204
 20
-107
 30
0.
  0
VERTEX
 8
L10
 10
205
 20
-123
 30
0.
  0
VERTEX
 8
L10
 10
206
 20
-138
 30
0.
  0
VERTEX
 8
L10
 10
209
 20
-132
 30
0.
  0
VERTEX
 8
L10
 10
210
 20
-129
 30
0.
  0
VERTEX
 8
L10
 10
212
 20
-126
 30
0.
  0
VERTEX
 8
L10
 10
213
 20
-132
 30
0.
  0
VERTEX
 8
L10
 10
210
 20
-138
 30
0.
  0
VERTEX
 8
L10
 10
212
 20
-137
 30
0.
  0
VERTEX
 8
L10
 10
213
 20
-135
 30
0.
  0
VERTEX
 8
L10
 10
213
 20
-138
 30
0.
  0
VERTEX
 8
L10
 10
213
 20
-140
 30
0.
  0
VERTEX
 8
L10
 10
214
 20
-139
 30
0.
  0
VERTEX
 8
L10
 10
215
 20
-138
 30
0.
  0
VERTEX
 8
L10
 10
215
 20
-138
 30
0.
  0
SEQEND
 8
L10
 999
********** Spline **********
  0
POLYLINE
 8
L4
 66
1
 70
17
 39
0
 40
0
 41
0
  0
VERTEX
 8
L4
 10
131
 20
-334
 30
0.
  0
VERTEX
 8
L4
 10
130
 20
-335
 30
0.
  0
VERTEX
 8
L4
 10
129
 20
-336
 30
0.
  0
VERTEX
 8
L4
 10
129
 20
-329
 30
0.
  0
VERTEX
 8
L4
 10
130
 20
-325
 30
0.
  0
VERTEX
 8
L4
 10
133
 20
-322
 30
0.
  0
VERTEX
 8
L4
 10
129
 20
-325
 30
0.
  0
VERTEX
 8
L4
 10
127
 20
-325
 30
0.
  0
VERTEX
 8
L4
 10
127
 20
-320
 30
0.
  0
VERTEX
 8
L4
 10
130
 20
-311
 30
0.
  0
VERTEX
 8
L4
 10
135
 20
-303
 30
0.
  0
VERTEX
 8
L4
 10
130
 20
-308
 30
0.
  0
VERTEX
 8
L4
 10
128
 20
-311
 30
0.
  0
VERTEX
 8
L4
 10
126
 20
-312
 30
0.
  0
VERTEX
 8
L4
 10
126
 20
-307
 30
0.
  0
VERTEX
 8
L4
 10
129
 20
-301
 30
0.
  0
VERTEX
 8
L4
 10
128
 20
-303
 30
0.
  0
VERTEX
 8
L4
 10
126
 20
-305
 30
0.
  0
VERTEX
 8
L4
 10
128
 20
-297
 30
0.
  0
VERTEX
 8
L4
 10
129
 20
-294
 30
0.
  0
VERTEX
 8
L4
 10
129
 20
-290
 30
0.
  0
VERTEX
 8
L4
 10
124
 20
-295
 30
0.
  0
VERTEX
 8
L4
 10
122
 20
-295
 30
0.
  0
VERTEX
 8
L4
 10
123
 20
-291
 30
0.
  0
VERTEX
 8
L4
 10
125
 20
-285
 30
0.
  0
VERTEX
 8
L4
 10
127
 20
-279
 30
0.
  0
VERTEX
 8
L4
 10
125
 20
-282
 30
0.
  0
VERTEX
 8
L4
 10
122
 20
-285
 30
0.
  0
VERTEX
 8
L4
 10
123
 20
-279
 30
0.
  0
VERTEX
 8
L4
 10
126
 20
-274
 30
0.
  0
VERTEX
 8
L4
 10
124
 20
-276
 30
0.
  0
VERTEX
 8
L4
 10
122
 20
-276
 30
0.
  0
VERTEX
 8
L4
 10
121
 20
-271
 30
0.
  0
VERTEX
 8
L4
 10
124
 20
-267
 30
0.
  0
VERTEX
 8
L4
 10
126
 20
-263
 30
0.
  0
VERTEX
 8
L4
 10
120
 20
-265
 30
0.
  0
VERTEX
 8
L4
 10
118
 20
-262
 30
0.
  0
VERTEX
 8
L4
 10
117
 20
-256
 30
0.
  0
VERTEX
 8
L4
 10
115
 20
-250
 30
0.
  0
VERTEX
 8
L4
 10
111
 20
-246
 30
0.
  0
VERTEX
 8
L4
 10
110
 20
-244
 30
0.
  0
VERTEX
 8
L4
 10
111
 20
-241
 30
0.
  0
VERTEX
 8
L4
 10
116
 20
-236
 30
0.
  0
VERTEX
 8
L4
 10
122
 20
-234
 30
0.
  0
VERTEX
 8
L4
 10
115
 20
-235
 30
0.
  0
VERTEX
 8
L4
 10
109
 20
-239
 30
0.
  0
VERTEX
 8
L4
 10
110
 20
-230
 30
0.
  0
VERTEX
 8
L4
 10
113
 20
-221
 30
0.
  0
VERTEX
 8
L4
 10
109
 20
-227
 30
0.
  0
VERTEX
 8
L4
 10
105
 20
-232
 30
0.
  0
VERTEX
 8
L4
 10
105
 20
-226
 30
0.
  0
VERTEX
 8
L4
 10
106
 20
-220
 30
0.
  0
VERTEX
 8
L4
 10
109
 20
-215
 30
0.
  0
VERTEX
 8
L4
 10
110
 20
-213
 30
0.
  0
VERTEX
 8
L4
 10
113
 20
-212
 30
0.
  0
VERTEX
 8
L4
 10
107
 20
-216
 30
0.
  0
VERTEX
 8
L4
 10
102
 20
-223
 30
0.
  0
VERTEX
 8
L4
 10
100
 20
-218
 30
0.
  0
VERTEX
 8
L4
 10
98
 20
-212
 30
0.
  0
VERTEX
 8
L4
 10
98
 20
-205
 30
0.
  0
VERTEX
 8
L4
 10
98
 20
-198
 30
0.
  0
VERTEX
 8
L4
 10
96
 20
-194
 30
0.
  0
VERTEX
 8
L4
 10
94
 20
-192
 30
0.
  0
VERTEX
 8
L4
 10
95
 20
-186
 30
0.
  0
VERTEX
 8
L4
 10
96
 20
-179
 30
0.
  0
VERTEX
 8
L4
 10
96
 20
-174
 30
0.
  0
VERTEX
 8
L4
 10
93
 20
-170
 30
0.
  0
VERTEX
 8
L4
 10
89
 20
-173
 30
0.
  0
VERTEX
 8
L4
 10
86
 20
-179
 30
0.
  0
VERTEX
 8
L4
 10
83
 20
-193
 30
0.
  0
VERTEX
 8
L4
 10
80
 20
-201
 30
0.
  0
VERTEX
 8
L4
 10
76
 20
-204
 30
0.
  0
VERTEX
 8
L4
 10
77
 20
-188
 30
0.
  0
VERTEX
 8
L4
 10
80
 20
-171
 30
0.
  0
VERTEX
 8
L4
 10
76
 20
-173
 30
0.
  0
VERTEX
 8
L4
 10
72
 20
-179
 30
0.
  0
VERTEX
 8
L4
 10
67
 20
-190
 30
0.
  0
VERTEX
 8
L4
 10
64
 20
-205
 30
0.
  0
VERTEX
 8
L4
 10
63
 20
-219
 30
0.
  0
VERTEX
 8
L4
 10
59
 20
-215
 30
0.
  0
VERTEX
 8
L4
 10
58
 20
-209
 30
0.
  0
VERTEX
 8
L4
 10
59
 20
-194
 30
0.
  0
VERTEX
 8
L4
 10
67
 20
-168
 30
0.
  0
VERTEX
 8
L4
 10
61
 20
-172
 30
0.
  0
VERTEX
 8
L4
 10
56
 20
-180
 30
0.
  0
VERTEX
 8
L4
 10
48
 20
-197
 30
0.
  0
VERTEX
 8
L4
 10
44
 20
-213
 30
0.
  0
VERTEX
 8
L4
 10
43
 20
-229
 30
0.
  0
VERTEX
 8
L4
 10
45
 20
-237
 30
0.
  0
VERTEX
 8
L4
 10
49
 20
-245
 30
0.
  0
VERTEX
 8
L4
 10
60
 20
-259
 30
0.
  0
VERTEX
 8
L4
 10
64
 20
-267
 30
0.
  0
VERTEX
 8
L4
 10
67
 20
-275
 30
0.
  0
VERTEX
 8
L4
 10
67
 20
-283
 30
0.
  0
VERTEX
 8
L4
 10
67
 20
-291
 30
0.
  0
VERTEX
 8
L4
 10
68
 20
-300
 30
0.
  0
VERTEX
 8
L4
 10
69
 20
-308
 30
0.
  0
VERTEX
 8
L4
 10
72
 20
-316
 30
0.
  0
VERTEX
 8
L4
 10
76
 20
-323
 30
0.
  0
VERTEX
 8
L4
 10
79
 20
-338
 30
0.
  0
VERTEX
 8
L4
 10
80
 20
-353
 30
0.
  0
VERTEX
 8
L4
 10
81
 20
-362
 30
0.
  0
VERTEX
 8
L4
 10
81
 20
-372
 30
0.
  0
VERTEX
 8
L4
 10
79
 20
-381
 30
0.
  0
VERTEX
 8
L4
 10
80
 20
-389
 30
0.
  0
VERTEX
 8
L4
 10
82
 20
-393
 30
0.
  0
VERTEX
 8
L4
 10
85
 20
-396
 30
0.
  0
VERTEX
 8
L4
 10
93
 20
-399
 30
0.
  0
VERTEX
 8
L4
 10
99
 20
-401
 30
0.
  0
VERTEX
 8
L4
 10
101
 20
-400
 30
0.
  0
VERTEX
 8
L4
 10
104
 20
-399
 30
0.
  0
VERTEX
 8
L4
 10
99
 20
-391
 30
0.
  0
VERTEX
 8
L4
 10
96
 20
-388
 30
0.
  0
VERTEX
 8
L4
 10
94
 20
-388
 30
0.
  0
VERTEX
 8
L4
 10
92
 20
-390
 30
0.
  0
VERTEX
 8
L4
 10
89
 20
-393
 30
0.
  0
VERTEX
 8
L4
 10
88
 20
-393
 30
0.
  0
VERTEX
 8
L4
 10
87
 20
-392
 30
0.
  0
VERTEX
 8
L4
 10
85
 20
-389
 30
0.
  0
VERTEX
 8
L4
 10
83
 20
-387
 30
0.
  0
VERTEX
 8
L4
 10
85
 20
-380
 30
0.
  0
VERTEX
 8
L4
 10
88
 20
-378
 30
0.
  0
VERTEX
 8
L4
 10
92
 20
-377
 30
0.
  0
VERTEX
 8
L4
 10
92
 20
-376
 30
0.
  0
VERTEX
 8
L4
 10
88
 20
-376
 30
0.
  0
VERTEX
 8
L4
 10
84
 20
-375
 30
0.
  0
VERTEX
 8
L4
 10
87
 20
-371
 30
0.
  0
VERTEX
 8
L4
 10
85
 20
-369
 30
0.
  0
VERTEX
 8
L4
 10
87
 20
-366
 30
0.
  0
VERTEX
 8
L4
 10
94
 20
-360
 30
0.
  0
VERTEX
 8
L4
 10
89
 20
-361
 30
0.
  0
VERTEX
 8
L4
 10
87
 20
-361
 30
0.
  0
VERTEX
 8
L4
 10
85
 20
-360
 30
0.
  0
VERTEX
 8
L4
 10
84
 20
-358
 30
0.
  0
VERTEX
 8
L4
 10
86
 20
-356
 30
0.
  0
VERTEX
 8
L4
 10
88
 20
-354
 30
0.
  0
VERTEX
 8
L4
 10
89
 20
-352
 30
0.
  0
VERTEX
 8
L4
 10
86
 20
-351
 30
0.
  0
VERTEX
 8
L4
 10
85
 20
-349
 30
0.
  0
VERTEX
 8
L4
 10
86
 20
-346
 30
0.
  0
VERTEX
 8
L4
 10
89
 20
-343
 30
0.
  0
VERTEX
 8
L4
 10
93
 20
-340
 30
0.
  0
VERTEX
 8
L4
 10
88
 20
-341
 30
0.
  0
VERTEX
 8
L4
 10
83
 20
-344
 30
0.
  0
VERTEX
 8
L4
 10
85
 20
-335
 30
0.
  0
VERTEX
 8
L4
 10
89
 20
-327
 30
0.
  0
VERTEX
 8
L4
 10
84
 20
-332
 30
0.
  0
VERTEX
 8
L4
 10
82
 20
-332
 30
0.
  0
VERTEX
 8
L4
 10
80
 20
-330
 30
0.
  0
VERTEX
 8
L4
 10
82
 20
-324
 30
0.
  0
VERTEX
 8
L4
 10
83
 20
-321
 30
0.
  0
VERTEX
 8
L4
 10
80
 20
-323
 30
0.
  0
VERTEX
 8
L4
 10
78
 20
-319
 30
0.
  0
VERTEX
 8
L4
 10
81
 20
-315
 30
0.
  0
VERTEX
 8
L4
 10
81
 20
-313
 30
0.
  0
VERTEX
 8
L4
 10
80
 20
-313
 30
0.
  0
VERTEX
 8
L4
 10
80
 20
-314
 30
0.
  0
VERTEX
 8
L4
 10
78
 20
-313
 30
0.
  0
VERTEX
 8
L4
 10
78
 20
-309
 30
0.
  0
VERTEX
 8
L4
 10
79
 20
-304
 30
0.
  0
VERTEX
 8
L4
 10
83
 20
-300
 30
0.
  0
VERTEX
 8
L4
 10
79
 20
-302
 30
0.
  0
VERTEX
 8
L4
 10
77
 20
-303
 30
0.
  0
VERTEX
 8
L4
 10
76
 20
-301
 30
0.
  0
VERTEX
 8
L4
 10
76
 20
-298
 30
0.
  0
VERTEX
 8
L4
 10
78
 20
-296
 30
0.
  0
VERTEX
 8
L4
 10
81
 20
-294
 30
0.
  0
VERTEX
 8
L4
 10
82
 20
-290
 30
0.
  0
VERTEX
 8
L4
 10
79
 20
-292
 30
0.
  0
VERTEX
 8
L4
 10
76
 20
-294
 30
0.
  0
VERTEX
 8
L4
 10
80
 20
-286
 30
0.
  0
VERTEX
 8
L4
 10
85
 20
-278
 30
0.
  0
VERTEX
 8
L4
 10
82
 20
-281
 30
0.
  0
VERTEX
 8
L4
 10
80
 20
-285
 30
0.
  0
VERTEX
 8
L4
 10
77
 20
-282
 30
0.
  0
VERTEX
 8
L4
 10
76
 20
-277
 30
0.
  0
VERTEX
 8
L4
 10
76
 20
-268
 30
0.
  0
VERTEX
 8
L4
 10
77
 20
-266
 30
0.
  0
VERTEX
 8
L4
 10
80
 20
-267
 30
0.
  0
VERTEX
 8
L4
 10
84
 20
-270
 30
0.
  0
VERTEX
 8
L4
 10
89
 20
-272
 30
0.
  0
VERTEX
 8
L4
 10
94
 20
-270
 30
0.
  0
VERTEX
 8
L4
 10
95
 20
-277
 30
0.
  0
VERTEX
 8
L4
 10
98
 20
-283
 30
0.
  0
VERTEX
 8
L4
 10
97
 20
-285
 30
0.
  0
VERTEX
 8
L4
 10
97
 20
-288
 30
0.
  0
VERTEX
 8
L4
 10
102
 20
-292
 30
0.
  0
VERTEX
 8
L4
 10
99
 20
-293
 30
0.
  0
VERTEX
 8
L4
 10
99
 20
-296
 30
0.
  0
VERTEX
 8
L4
 10
100
 20
-303
 30
0.
  0
VERTEX
 8
L4
 10
99
 20
-302
 30
0.
  0
VERTEX
 8
L4
 10
98
 20
-301
 30
0.
  0
VERTEX
 8
L4
 10
97
 20
-302
 30
0.
  0
VERTEX
 8
L4
 10
96
 20
-303
 30
0.
  0
VERTEX
 8
L4
 10
99
 20
-308
 30
0.
  0
VERTEX
 8
L4
 10
102
 20
-312
 30
0.
  0
VERTEX
 8
L4
 10
99
 20
-312
 30
0.
  0
VERTEX
 8
L4
 10
96
 20
-311
 30
0.
  0
VERTEX
 8
L4
 10
101
 20
-319
 30
0.
  0
VERTEX
 8
L4
 10
101
 20
-322
 30
0.
  0
VERTEX
 8
L4
 10
98
 20
-325
 30
0.
  0
VERTEX
 8
L4
 10
103
 20
-329
 30
0.
  0
VERTEX
 8
L4
 10
105
 20
-336
 30
0.
  0
VERTEX
 8
L4
 10
103
 20
-339
 30
0.
  0
VERTEX
 8
L4
 10
98
 20
-342
 30
0.
  0
VERTEX
 8
L4
 10
103
 20
-344
 30
0.
  0
VERTEX
 8
L4
 10
107
 20
-350
 30
0.
  0
VERTEX
 8
L4
 10
107
 20
-356
 30
0.
  0
VERTEX
 8
L4
 10
105
 20
-358
 30
0.
  0
VERTEX
 8
L4
 10
102
 20
-358
 30
0.
  0
VERTEX
 8
L4
 10
107
 20
-361
 30
0.
  0
VERTEX
 8
L4
 10
108
 20
-366
 30
0.
  0
VERTEX
 8
L4
 10
109
 20
-372
 30
0.
  0
VERTEX
 8
L4
 10
111
 20
-377
 30
0.
  0
VERTEX
 8
L4
 10
108
 20
-377
 30
0.
  0
VERTEX
 8
L4
 10
105
 20
-377
 30
0.
  0
VERTEX
 8
L4
 10
110
 20
-379
 30
0.
  0
VERTEX
 8
L4
 10
113
 20
-382
 30
0.
  0
VERTEX
 8
L4
 10
114
 20
-385
 30
0.
  0
VERTEX
 8
L4
 10
112
 20
-389
 30
0.
  0
VERTEX
 8
L4
 10
110
 20
-393
 30
0.
  0
VERTEX
 8
L4
 10
107
 20
-397
 30
0.
  0
VERTEX
 8
L4
 10
103
 20
-397
 30
0.
  0
VERTEX
 8
L4
 10
102
 20
-397
 30
0.
  0
VERTEX
 8
L4
 10
102
 20
-399
 30
0.
  0
VERTEX
 8
L4
 10
106
 20
-400
 30
0.
  0
VERTEX
 8
L4
 10
111
 20
-399
 30
0.
  0
VERTEX
 8
L4
 10
120
 20
-394
 30
0.
  0
VERTEX
 8
L4
 10
121
 20
-390
 30
0.
  0
VERTEX
 8
L4
 10
119
 20
-383
 30
0.
  0
VERTEX
 8
L4
 10
115
 20
-372
 30
0.
  0
VERTEX
 8
L4
 10
113
 20
-361
 30
0.
  0
VERTEX
 8
L4
 10
113
 20
-350
 30
0.
  0
VERTEX
 8
L4
 10
111
 20
-339
 30
0.
  0
VERTEX
 8
L4
 10
109
 20
-328
 30
0.
  0
VERTEX
 8
L4
 10
112
 20
-305
 30
0.
  0
VERTEX
 8
L4
 10
114
 20
-293
 30
0.
  0
VERTEX
 8
L4
 10
115
 20
-281
 30
0.
  0
VERTEX
 8
L4
 10
122
 20
-312
 30
0.
  0
VERTEX
 8
L4
 10
125
 20
-343
 30
0.
  0
VERTEX
 8
L4
 10
126
 20
-359
 30
0.
  0
VERTEX
 8
L4
 10
127
 20
-375
 30
0.
  0
VERTEX
 8
L4
 10
127
 20
-388
 30
0.
  0
VERTEX
 8
L4
 10
126
 20
-400
 30
0.
  0
VERTEX
 8
L4
 10
128
 20
-395
 30
0.
  0
VERTEX
 8
L4
 10
129
 20
-390
 30
0.
  0
VERTEX
 8
L4
 10
132
 20
-386
 30
0.
  0
VERTEX
 8
L4
 10
134
 20
-384
 30
0.
  0
VERTEX
 8
L4
 10
135
 20
-380
 30
0.
  0
VERTEX
 8
L4
 10
132
 20
-382
 30
0.
  0
VERTEX
 8
L4
 10
130
 20
-380
 30
0.
  0
VERTEX
 8
L4
 10
131
 20
-373
 30
0.
  0
VERTEX
 8
L4
 10
130
 20
-373
 30
0.
  0
VERTEX
 8
L4
 10
129
 20
-372
 30
0.
  0
VERTEX
 8
L4
 10
130
 20
-371
 30
0.
  0
VERTEX
 8
L4
 10
131
 20
-369
 30
0.
  0
VERTEX
 8
L4
 10
133
 20
-365
 30
0.
  0
VERTEX
 8
L4
 10
135
 20
-360
 30
0.
  0
VERTEX
 8
L4
 10
133
 20
-362
 30
0.
  0
VERTEX
 8
L4
 10
131
 20
-364
 30
0.
  0
VERTEX
 8
L4
 10
129
 20
-359
 30
0.
  0
VERTEX
 8
L4
 10
131
 20
-354
 30
0.
  0
VERTEX
 8
L4
 10
134
 20
-349
 30
0.
  0
VERTEX
 8
L4
 10
135
 20
-345
 30
0.
  0
VERTEX
 8
L4
 10
131
 20
-347
 30
0.
  0
VERTEX
 8
L4
 10
129
 20
-351
 30
0.
  0
VERTEX
 8
L4
 10
130
 20
-343
 30
0.
  0
VERTEX
 8
L4
 10
133
 20
-334
 30
0.
  0
VERTEX
 8
L4
 10
132
 20
-334
 30
0.
  0
VERTEX
 8
L4
 10
131
 20
-334
 30
0.
  0
VERTEX
 8
L4
 10
131
 20
-334
 30
0.
  0
SEQEND
 8
L4
 999
********** Spline **********
  0
POLYLINE
 8
L11
 66
1
 70
17
 39
0
 40
0
 41
0
  0
VERTEX
 8
L11
 10
115
 20
-281
 30
0.
  0
VERTEX
 8
L11
 10
115
 20
-273
 30
0.
  0
VERTEX
 8
L11
 10
113
 20
-264
 30
0.
  0
VERTEX
 8
L11
 10
112
 20
-260
 30
0.
  0
VERTEX
 8
L11
 10
110
 20
-255
 30
0.
  0
VERTEX
 8
L11
 10
107
 20
-251
 30
0.
  0
VERTEX
 8
L11
 10
105
 20
-247
 30
0.
  0
VERTEX
 8
L11
 10
105
 20
-242
 30
0.
  0
VERTEX
 8
L11
 10
105
 20
-237
 30
0.
  0
VERTEX
 8
L11
 10
103
 20
-234
 30
0.
  0
VERTEX
 8
L11
 10
102
 20
-229
 30
0.
  0
VERTEX
 8
L11
 10
100
 20
-219
 30
0.
  0
VERTEX
 8
L11
 10
94
 20
-210
 30
0.
  0
VERTEX
 8
L11
 10
94
 20
-222
 30
0.
  0
VERTEX
 8
L11
 10
96
 20
-234
 30
0.
  0
VERTEX
 8
L11
 10
97
 20
-239
 30
0.
  0
VERTEX
 8
L11
 10
92
 20
-238
 30
0.
  0
VERTEX
 8
L11
 10
87
 20
-236
 30
0.
  0
VERTEX
 8
L11
 10
83
 20
-232
 30
0.
  0
VERTEX
 8
L11
 10
82
 20
-236
 30
0.
  0
VERTEX
 8
L11
 10
85
 20
-240
 30
0.
  0
VERTEX
 8
L11
 10
92
 20
-248
 30
0.
  0
VERTEX
 8
L11
 10
92
 20
-251
 30
0.
  0
VERTEX
 8
L11
 10
90
 20
-255
 30
0.
  0
VERTEX
 8
L11
 10
87
 20
-260
 30
0.
  0
VERTEX
 8
L11
 10
85
 20
-264
 30
0.
  0
VERTEX
 8
L11
 10
91
 20
-263
 30
0.
  0
VERTEX
 8
L11
 10
96
 20
-262
 30
0.
  0
VERTEX
 8
L11
 10
100
 20
-263
 30
0.
  0
VERTEX
 8
L11
 10
99
 20
-268
 30
0.
  0
VERTEX
 8
L11
 10
98
 20
-272
 30
0.
  0
VERTEX
 8
L11
 10
98
 20
-277
 30
0.
  0
VERTEX
 8
L11
 10
98
 20
-281
 30
0.
  0
VERTEX
 8
L11
 10
101
 20
-275
 30
0.
  0
VERTEX
 8
L11
 10
102
 20
-273
 30
0.
  0
VERTEX
 8
L11
 10
104
 20
-272
 30
0.
  0
VERTEX
 8
L11
 10
104
 20
-277
 30
0.
  0
VERTEX
 8
L11
 10
104
 20
-283
 30
0.
  0
VERTEX
 8
L11
 10
105
 20
-289
 30
0.
  0
VERTEX
 8
L11
 10
105
 20
-295
 30
0.
  0
VERTEX
 8
L11
 10
106
 20
-298
 30
0.
  0
VERTEX
 8
L11
 10
107
 20
-301
 30
0.
  0
VERTEX
 8
L11
 10
106
 20
-304
 30
0.
  0
VERTEX
 8
L11
 10
107
 20
-307
 30
0.
  0
VERTEX
 8
L11
 10
105
 20
-309
 30
0.
  0
VERTEX
 8
L11
 10
107
 20
-312
 30
0.
  0
VERTEX
 8
L11
 10
105
 20
-315
 30
0.
  0
VERTEX
 8
L11
 10
105
 20
-322
 30
0.
  0
VERTEX
 8
L11
 10
109
 20
-334
 30
0.
  0
VERTEX
 8
L11
 10
109
 20
-323
 30
0.
  0
VERTEX
 8
L11
 10
110
 20
-311
 30
0.
  0
VERTEX
 8
L11
 10
113
 20
-296
 30
0.
  0
VERTEX
 8
L11
 10
115
 20
-281
 30
0.
  0
VERTEX
 8
L11
 10
115
 20
-281
 30
0.
  0
SEQEND
 8
L11
 999
********** Spline **********
  0
POLYLINE
 8
L12
 66
1
 70
17
 39
0
 40
0
 41
0
  0
VERTEX
 8
L12
 10
131
 20
-140
 30
0.
  0
VERTEX
 8
L12
 10
126
 20
-168
 30
0.
  0
VERTEX
 8
L12
 10
126
 20
-182
 30
0.
  0
VERTEX
 8
L12
 10
128
 20
-196
 30
0.
  0
VERTEX
 8
L12
 10
132
 20
-207
 30
0.
  0
VERTEX
 8
L12
 10
139
 20
-218
 30
0.
  0
VERTEX
 8
L12
 10
147
 20
-226
 30
0.
  0
VERTEX
 8
L12
 10
153
 20
-228
 30
0.
  0
VERTEX
 8
L12
 10
158
 20
-228
 30
0.
  0
VERTEX
 8
L12
 10
153
 20
-224
 30
0.
  0
VERTEX
 8
L12
 10
149
 20
-220
 30
0.
  0
VERTEX
 8
L12
 10
146
 20
-213
 30
0.
  0
VERTEX
 8
L12
 10
143
 20
-205
 30
0.
  0
VERTEX
 8
L12
 10
138
 20
-192
 30
0.
  0
VERTEX
 8
L12
 10
138
 20
-185
 30
0.
  0
VERTEX
 8
L12
 10
139
 20
-178
 30
0.
  0
VERTEX
 8
L12
 10
141
 20
-172
 30
0.
  0
VERTEX
 8
L12
 10
142
 20
-165
 30
0.
  0
VERTEX
 8
L12
 10
144
 20
-158
 30
0.
  0
VERTEX
 8
L12
 10
146
 20
-151
 30
0.
  0
VERTEX
 8
L12
 10
144
 20
-145
 30
0.
  0
VERTEX
 8
L12
 10
139
 20
-141
 30
0.
  0
VERTEX
 8
L12
 10
133
 20
-138
 30
0.
  0
VERTEX
 8
L12
 10
132
 20
-138
 30
0.
  0
VERTEX
 8
L12
 10
131
 20
-140
 30
0.
  0
VERTEX
 8
L12
 10
131
 20
-140
 30
0.
  0
SEQEND
 8
L12
 999
********** Spline **********
  0
POLYLINE
 8
L13
 66
1
 39
0
 40
0
 41
0
  0
VERTEX
 8
L13
 10
131
 20
-140
 30
0.
  0
VERTEX
 8
L13
 10
126
 20
-168
 30
0.
  0
VERTEX
 8
L13
 10
126
 20
-182
 30
0.
  0
VERTEX
 8
L13
 10
128
 20
-196
 30
0.
  0
VERTEX
 8
L13
 10
132
 20
-207
 30
0.
  0
VERTEX
 8
L13
 10
139
 20
-218
 30
0.
  0
VERTEX
 8
L13
 10
147
 20
-226
 30
0.
  0
VERTEX
 8
L13
 10
153
 20
-228
 30
0.
  0
VERTEX
 8
L13
 10
158
 20
-228
 30
0.
  0
VERTEX
 8
L13
 10
153
 20
-224
 30
0.
  0
VERTEX
 8
L13
 10
149
 20
-220
 30
0.
  0
VERTEX
 8
L13
 10
146
 20
-213
 30
0.
  0
VERTEX
 8
L13
 10
143
 20
-205
 30
0.
  0
VERTEX
 8
L13
 10
138
 20
-192
 30
0.
  0
VERTEX
 8
L13
 10
138
 20
-185
 30
0.
  0
VERTEX
 8
L13
 10
139
 20
-178
 30
0.
  0
VERTEX
 8
L13
 10
141
 20
-172
 30
0.
  0
VERTEX
 8
L13
 10
142
 20
-165
 30
0.
  0
VERTEX
 8
L13
 10
144
 20
-158
 30
0.
  0
VERTEX
 8
L13
 10
146
 20
-151
 30
0.
  0
VERTEX
 8
L13
 10
144
 20
-145
 30
0.
  0
VERTEX
 8
L13
 10
139
 20
-141
 30
0.
  0
VERTEX
 8
L13
 10
133
 20
-138
 30
0.
  0
VERTEX
 8
L13
 10
132
 20
-138
 30
0.
  0
VERTEX
 8
L13
 10
131
 20
-140
 30
0.
  0
SEQEND
 8
L13
 999
********** Spline **********
  0
POLYLINE
 8
L14
 66
1
 70
17
 39
0
 40
0
 41
0
  0
VERTEX
 8
L14
 10
39
 20
-96
 30
0.
  0
VERTEX
 8
L14
 10
39
 20
-107
 30
0.
  0
VERTEX
 8
L14
 10
38
 20
-117
 30
0.
  0
VERTEX
 8
L14
 10
36
 20
-128
 30
0.
  0
VERTEX
 8
L14
 10
34
 20
-139
 30
0.
  0
VERTEX
 8
L14
 10
32
 20
-162
 30
0.
  0
VERTEX
 8
L14
 10
31
 20
-173
 30
0.
  0
VERTEX
 8
L14
 10
32
 20
-184
 30
0.
  0
VERTEX
 8
L14
 10
34
 20
-168
 30
0.
  0
VERTEX
 8
L14
 10
36
 20
-160
 30
0.
  0
VERTEX
 8
L14
 10
39
 20
-155
 30
0.
  0
VERTEX
 8
L14
 10
42
 20
-155
 30
0.
  0
VERTEX
 8
L14
 10
45
 20
-155
 30
0.
  0
VERTEX
 8
L14
 10
46
 20
-152
 30
0.
  0
VERTEX
 8
L14
 10
47
 20
-148
 30
0.
  0
VERTEX
 8
L14
 10
50
 20
-141
 30
0.
  0
VERTEX
 8
L14
 10
54
 20
-135
 30
0.
  0
VERTEX
 8
L14
 10
57
 20
-129
 30
0.
  0
VERTEX
 8
L14
 10
61
 20
-123
 30
0.
  0
VERTEX
 8
L14
 10
64
 20
-119
 30
0.
  0
VERTEX
 8
L14
 10
61
 20
-115
 30
0.
  0
VERTEX
 8
L14
 10
50
 20
-106
 30
0.
  0
VERTEX
 8
L14
 10
39
 20
-96
 30
0.
  0
VERTEX
 8
L14
 10
39
 20
-96
 30
0.
  0
SEQEND
 8
L14
 999
********** Spline **********
  0
POLYLINE
 8
L4
 66
1
 70
17
 39
0
 40
0
 41
0
  0
VERTEX
 8
L4
 10
126
 20
-52
 30
0.
  0
VERTEX
 8
L4
 10
130
 20
-42
 30
0.
  0
VERTEX
 8
L4
 10
135
 20
-32
 30
0.
  0
VERTEX
 8
L4
 10
139
 20
-29
 30
0.
  0
VERTEX
 8
L4
 10
142
 20
-25
 30
0.
  0
VERTEX
 8
L4
 10
144
 20
-19
 30
0.
  0
VERTEX
 8
L4
 10
146
 20
-14
 30
0.
  0
VERTEX
 8
L4
 10
142
 20
-15
 30
0.
  0
VERTEX
 8
L4
 10
138
 20
-18
 30
0.
  0
VERTEX
 8
L4
 10
133
 20
-25
 30
0.
  0
VERTEX
 8
L4
 10
129
 20
-34
 30
0.
  0
VERTEX
 8
L4
 10
128
 20
-39
 30
0.
  0
VERTEX
 8
L4
 10
126
 20
-43
 30
0.
  0
VERTEX
 8
L4
 10
125
 20
-42
 30
0.
  0
VERTEX
 8
L4
 10
124
 20
-41
 30
0.
  0
VERTEX
 8
L4
 10
123
 20
-45
 30
0.
  0
VERTEX
 8
L4
 10
122
 20
-49
 30
0.
  0
VERTEX
 8
L4
 10
120
 20
-44
 30
0.
  0
VERTEX
 8
L4
 10
120
 20
-39
 30
0.
  0
VERTEX
 8
L4
 10
124
 20
-36
 30
0.
  0
VERTEX
 8
L4
 10
125
 20
-34
 30
0.
  0
VERTEX
 8
L4
 10
124
 20
-31
 30
0.
  0
VERTEX
 8
L4
 10
122
 20
-27
 30
0.
  0
VERTEX
 8
L4
 10
121
 20
-25
 30
0.
  0
VERTEX
 8
L4
 10
120
 20
-25
 30
0.
  0
VERTEX
 8
L4
 10
120
 20
-30
 30
0.
  0
VERTEX
 8
L4
 10
120
 20
-36
 30
0.
  0
VERTEX
 8
L4
 10
115
 20
-30
 30
0.
  0
VERTEX
 8
L4
 10
113
 20
-22
 30
0.
  0
VERTEX
 8
L4
 10
112
 20
-17
 30
0.
  0
VERTEX
 8
L4
 10
110
 20
-14
 30
0.
  0
VERTEX
 8
L4
 10
103
 20
-8
 30
0.
  0
VERTEX
 8
L4
 10
99
 20
-7
 30
0.
  0
VERTEX
 8
L4
 10
95
 20
-8
 30
0.
  0
VERTEX
 8
L4
 10
88
 20
-10
 30
0.
  0
VERTEX
 8
L4
 10
85
 20
-12
 30
0.
  0
VERTEX
 8
L4
 10
82
 20
-14
 30
0.
  0
VERTEX
 8
L4
 10
78
 20
-14
 30
0.
  0
VERTEX
 8
L4
 10
73
 20
-14
 30
0.
  0
VERTEX
 8
L4
 10
57
 20
-16
 30
0.
  0
VERTEX
 8
L4
 10
40
 20
-18
 30
0.
  0
VERTEX
 8
L4
 10
33
 20
-24
 30
0.
  0
VERTEX
 8
L4
 10
27
 20
-32
 30
0.
  0
VERTEX
 8
L4
 10
25
 20
-36
 30
0.
  0
VERTEX
 8
L4
 10
27
 20
-38
 30
0.
  0
VERTEX
 8
L4
 10
34
 20
-41
 30
0.
  0
VERTEX
 8
L4
 10
27
 20
-53
 30
0.
  0
VERTEX
 8
L4
 10
24
 20
-60
 30
0.
  0
VERTEX
 8
L4
 10
25
 20
-61
 30
0.
  0
VERTEX
 8
L4
 10
27
 20
-61
 30
0.
  0
VERTEX
 8
L4
 10
34
 20
-58
 30
0.
  0
VERTEX
 8
L4
 10
40
 20
-56
 30
0.
  0
VERTEX
 8
L4
 10
44
 20
-57
 30
0.
  0
VERTEX
 8
L4
 10
44
 20
-59
 30
0.
  0
VERTEX
 8
L4
 10
44
 20
-61
 30
0.
  0
VERTEX
 8
L4
 10
45
 20
-63
 30
0.
  0
VERTEX
 8
L4
 10
47
 20
-63
 30
0.
  0
VERTEX
 8
L4
 10
49
 20
-61
 30
0.
  0
VERTEX
 8
L4
 10
52
 20
-61
 30
0.
  0
VERTEX
 8
L4
 10
52
 20
-61
 30
0.
  0
VERTEX
 8
L4
 10
54
 20
-61
 30
0.
  0
VERTEX
 8
L4
 10
58
 20
-57
 30
0.
  0
VERTEX
 8
L4
 10
60
 20
-52
 30
0.
  0
VERTEX
 8
L4
 10
62
 20
-45
 30
0.
  0
VERTEX
 8
L4
 10
65
 20
-42
 30
0.
  0
VERTEX
 8
L4
 10
67
 20
-44
 30
0.
  0
VERTEX
 8
L4
 10
67
 20
-50
 30
0.
  0
VERTEX
 8
L4
 10
67
 20
-56
 30
0.
  0
VERTEX
 8
L4
 10
75
 20
-50
 30
0.
  0
VERTEX
 8
L4
 10
82
 20
-43
 30
0.
  0
VERTEX
 8
L4
 10
83
 20
-48
 30
0.
  0
VERTEX
 8
L4
 10
82
 20
-50
 30
0.
  0
VERTEX
 8
L4
 10
83
 20
-52
 30
0.
  0
VERTEX
 8
L4
 10
89
 20
-52
 30
0.
  0
VERTEX
 8
L4
 10
94
 20
-52
 30
0.
  0
VERTEX
 8
L4
 10
89
 20
-55
 30
0.
  0
VERTEX
 8
L4
 10
88
 20
-57
 30
0.
  0
VERTEX
 8
L4
 10
91
 20
-64
 30
0.
  0
VERTEX
 8
L4
 10
106
 20
-74
 30
0.
  0
VERTEX
 8
L4
 10
114
 20
-76
 30
0.
  0
VERTEX
 8
L4
 10
117
 20
-75
 30
0.
  0
VERTEX
 8
L4
 10
118
 20
-72
 30
0.
  0
VERTEX
 8
L4
 10
121
 20
-62
 30
0.
  0
VERTEX
 8
L4
 10
126
 20
-52
 30
0.
  0
VERTEX
 8
L4
 10
126
 20
-52
 30
0.
  0
SEQEND
 8
L4
 999
********** Spline **********
  0
POLYLINE
 8
L8
 66
1
 70
17
 39
0
 40
0
 41
0
  0
VERTEX
 8
L8
 10
122
 20
-100
 30
0.
  0
VERTEX
 8
L8
 10
118
 20
-90
 30
0.
  0
VERTEX
 8
L8
 10
116
 20
-79
 30
0.
  0
VERTEX
 8
L8
 10
117
 20
-75
 30
0.
  0
VERTEX
 8
L8
 10
118
 20
-70
 30
0.
  0
VERTEX
 8
L8
 10
120
 20
-63
 30
0.
  0
VERTEX
 8
L8
 10
122
 20
-57
 30
0.
  0
VERTEX
 8
L8
 10
122
 20
-52
 30
0.
  0
VERTEX
 8
L8
 10
122
 20
-47
 30
0.
  0
VERTEX
 8
L8
 10
119
 20
-44
 30
0.
  0
VERTEX
 8
L8
 10
116
 20
-41
 30
0.
  0
VERTEX
 8
L8
 10
112
 20
-37
 30
0.
  0
VERTEX
 8
L8
 10
109
 20
-33
 30
0.
  0
VERTEX
 8
L8
 10
107
 20
-27
 30
0.
  0
VERTEX
 8
L8
 10
103
 20
-21
 30
0.
  0
VERTEX
 8
L8
 10
99
 20
-15
 30
0.
  0
VERTEX
 8
L8
 10
97
 20
-13
 30
0.
  0
VERTEX
 8
L8
 10
94
 20
-12
 30
0.
  0
VERTEX
 8
L8
 10
92
 20
-16
 30
0.
  0
VERTEX
 8
L8
 10
89
 20
-21
 30
0.
  0
VERTEX
 8
L8
 10
84
 20
-21
 30
0.
  0
VERTEX
 8
L8
 10
79
 20
-19
 30
0.
  0
VERTEX
 8
L8
 10
73
 20
-19
 30
0.
  0
VERTEX
 8
L8
 10
69
 20
-21
 30
0.
  0
VERTEX
 8
L8
 10
64
 20
-21
 30
0.
  0
VERTEX
 8
L8
 10
60
 20
-21
 30
0.
  0
VERTEX
 8
L8
 10
54
 20
-21
 30
0.
  0
VERTEX
 8
L8
 10
48
 20
-22
 30
0.
  0
VERTEX
 8
L8
 10
43
 20
-24
 30
0.
  0
VERTEX
 8
L8
 10
38
 20
-25
 30
0.
  0
VERTEX
 8
L8
 10
33
 20
-30
 30
0.
  0
VERTEX
 8
L8
 10
30
 20
-36
 30
0.
  0
VERTEX
 8
L8
 10
36
 20
-35
 30
0.
  0
VERTEX
 8
L8
 10
42
 20
-33
 30
0.
  0
VERTEX
 8
L8
 10
48
 20
-36
 30
0.
  0
VERTEX
 8
L8
 10
50
 20
-38
 30
0.
  0
VERTEX
 8
L8
 10
50
 20
-41
 30
0.
  0
VERTEX
 8
L8
 10
47
 20
-43
 30
0.
  0
VERTEX
 8
L8
 10
44
 20
-44
 30
0.
  0
VERTEX
 8
L8
 10
41
 20
-47
 30
0.
  0
VERTEX
 8
L8
 10
39
 20
-49
 30
0.
  0
VERTEX
 8
L8
 10
33
 20
-53
 30
0.
  0
VERTEX
 8
L8
 10
27
 20
-56
 30
0.
  0
VERTEX
 8
L8
 10
41
 20
-52
 30
0.
  0
VERTEX
 8
L8
 10
48
 20
-51
 30
0.
  0
VERTEX
 8
L8
 10
50
 20
-53
 30
0.
  0
VERTEX
 8
L8
 10
50
 20
-56
 30
0.
  0
VERTEX
 8
L8
 10
54
 20
-47
 30
0.
  0
VERTEX
 8
L8
 10
56
 20
-43
 30
0.
  0
VERTEX
 8
L8
 10
60
 20
-39
 30
0.
  0
VERTEX
 8
L8
 10
72
 20
-34
 30
0.
  0
VERTEX
 8
L8
 10
84
 20
-32
 30
0.
  0
VERTEX
 8
L8
 10
87
 20
-33
 30
0.
  0
VERTEX
 8
L8
 10
87
 20
-35
 30
0.
  0
VERTEX
 8
L8
 10
86
 20
-40
 30
0.
  0
VERTEX
 8
L8
 10
85
 20
-43
 30
0.
  0
VERTEX
 8
L8
 10
86
 20
-45
 30
0.
  0
VERTEX
 8
L8
 10
92
 20
-45
 30
0.
  0
VERTEX
 8
L8
 10
97
 20
-47
 30
0.
  0
VERTEX
 8
L8
 10
103
 20
-50
 30
0.
  0
VERTEX
 8
L8
 10
108
 20
-55
 30
0.
  0
VERTEX
 8
L8
 10
111
 20
-60
 30
0.
  0
VERTEX
 8
L8
 10
103
 20
-59
 30
0.
  0
VERTEX
 8
L8
 10
94
 20
-58
 30
0.
  0
VERTEX
 8
L8
 10
84
 20
-60
 30
0.
  0
VERTEX
 8
L8
 10
76
 20
-63
 30
0.
  0
VERTEX
 8
L8
 10
68
 20
-64
 30
0.
  0
VERTEX
 8
L8
 10
64
 20
-65
 30
0.
  0
VERTEX
 8
L8
 10
63
 20
-70
 30
0.
  0
VERTEX
 8
L8
 10
62
 20
-74
 30
0.
  0
VERTEX
 8
L8
 10
59
 20
-77
 30
0.
  0
VERTEX
 8
L8
 10
52
 20
-83
 30
0.
  0
VERTEX
 8
L8
 10
62
 20
-78
 30
0.
  0
VERTEX
 8
L8
 10
66
 20
-74
 30
0.
  0
VERTEX
 8
L8
 10
70
 20
-72
 30
0.
  0
VERTEX
 8
L8
 10
75
 20
-72
 30
0.
  0
VERTEX
 8
L8
 10
79
 20
-75
 30
0.
  0
VERTEX
 8
L8
 10
84
 20
-76
 30
0.
  0
VERTEX
 8
L8
 10
89
 20
-76
 30
0.
  0
VERTEX
 8
L8
 10
84
 20
-86
 30
0.
  0
VERTEX
 8
L8
 10
77
 20
-94
 30
0.
  0
VERTEX
 8
L8
 10
67
 20
-98
 30
0.
  0
VERTEX
 8
L8
 10
56
 20
-102
 30
0.
  0
VERTEX
 8
L8
 10
62
 20
-103
 30
0.
  0
VERTEX
 8
L8
 10
69
 20
-102
 30
0.
  0
VERTEX
 8
L8
 10
72
 20
-101
 30
0.
  0
VERTEX
 8
L8
 10
74
 20
-102
 30
0.
  0
VERTEX
 8
L8
 10
75
 20
-105
 30
0.
  0
VERTEX
 8
L8
 10
76
 20
-107
 30
0.
  0
VERTEX
 8
L8
 10
81
 20
-101
 30
0.
  0
VERTEX
 8
L8
 10
85
 20
-94
 30
0.
  0
VERTEX
 8
L8
 10
88
 20
-93
 30
0.
  0
VERTEX
 8
L8
 10
89
 20
-94
 30
0.
  0
VERTEX
 8
L8
 10
89
 20
-99
 30
0.
  0
VERTEX
 8
L8
 10
87
 20
-105
 30
0.
  0
VERTEX
 8
L8
 10
86
 20
-107
 30
0.
  0
VERTEX
 8
L8
 10
88
 20
-110
 30
0.
  0
VERTEX
 8
L8
 10
91
 20
-116
 30
0.
  0
VERTEX
 8
L8
 10
93
 20
-123
 30
0.
  0
VERTEX
 8
L8
 10
94
 20
-129
 30
0.
  0
VERTEX
 8
L8
 10
97
 20
-135
 30
0.
  0
VERTEX
 8
L8
 10
101
 20
-137
 30
0.
  0
VERTEX
 8
L8
 10
104
 20
-138
 30
0.
  0
VERTEX
 8
L8
 10
108
 20
-138
 30
0.
  0
VERTEX
 8
L8
 10
112
 20
-139
 30
0.
  0
VERTEX
 8
L8
 10
114
 20
-139
 30
0.
  0
VERTEX
 8
L8
 10
116
 20
-138
 30
0.
  0
VERTEX
 8
L8
 10
120
 20
-132
 30
0.
  0
VERTEX
 8
L8
 10
127
 20
-122
 30
0.
  0
VERTEX
 8
L8
 10
124
 20
-111
 30
0.
  0
VERTEX
 8
L8
 10
122
 20
-105
 30
0.
  0
VERTEX
 8
L8
 10
122
 20
-100
 30
0.
  0
VERTEX
 8
L8
 10
122
 20
-100
 30
0.
  0
SEQEND
 8
L8
 999
********** Spline **********
  0
POLYLINE
 8
L15
 66
1
 70
17
 39
0
 40
0
 41
0
  0
VERTEX
 8
L15
 10
215
 20
-107
 30
0.
  0
VERTEX
 8
L15
 10
216
 20
-118
 30
0.
  0
VERTEX
 8
L15
 10
219
 20
-129
 30
0.
  0
VERTEX
 8
L15
 10
216
 20
-124
 30
0.
  0
VERTEX
 8
L15
 10
213
 20
-119
 30
0.
  0
VERTEX
 8
L15
 10
211
 20
-113
 30
0.
  0
VERTEX
 8
L15
 10
208
 20
-107
 30
0.
  0
VERTEX
 8
L15
 10
206
 20
-102
 30
0.
  0
VERTEX
 8
L15
 10
204
 20
-96
 30
0.
  0
VERTEX
 8
L15
 10
202
 20
-90
 30
0.
  0
VERTEX
 8
L15
 10
200
 20
-84
 30
0.
  0
VERTEX
 8
L15
 10
197
 20
-78
 30
0.
  0
VERTEX
 8
L15
 10
196
 20
-72
 30
0.
  0
VERTEX
 8
L15
 10
197
 20
-66
 30
0.
  0
VERTEX
 8
L15
 10
203
 20
-61
 30
0.
  0
VERTEX
 8
L15
 10
209
 20
-59
 30
0.
  0
VERTEX
 8
L15
 10
215
 20
-56
 30
0.
  0
VERTEX
 8
L15
 10
216
 20
-51
 30
0.
  0
VERTEX
 8
L15
 10
215
 20
-45
 30
0.
  0
VERTEX
 8
L15
 10
218
 20
-53
 30
0.
  0
VERTEX
 8
L15
 10
219
 20
-61
 30
0.
  0
VERTEX
 8
L15
 10
217
 20
-70
 30
0.
  0
VERTEX
 8
L15
 10
217
 20
-74
 30
0.
  0
VERTEX
 8
L15
 10
218
 20
-79
 30
0.
  0
VERTEX
 8
L15
 10
221
 20
-86
 30
0.
  0
VERTEX
 8
L15
 10
221
 20
-93
 30
0.
  0
VERTEX
 8
L15
 10
217
 20
-100
 30
0.
  0
VERTEX
 8
L15
 10
215
 20
-104
 30
0.
  0
VERTEX
 8
L15
 10
215
 20
-107
 30
0.
  0
VERTEX
 8
L15
 10
215
 20
-107
 30
0.
  0
SEQEND
 8
L15
 999
********** Spline **********
  0
POLYLINE
 8
L15
 66
1
 70
17
 39
0
 40
0
 41
0
  0
VERTEX
 8
L15
 10
118
 20
-67
 30
0.
  0
VERTEX
 8
L15
 10
121
 20
-61
 30
0.
  0
VERTEX
 8
L15
 10
123
 20
-59
 30
0.
  0
VERTEX
 8
L15
 10
126
 20
-58
 30
0.
  0
VERTEX
 8
L15
 10
128
 20
-59
 30
0.
  0
VERTEX
 8
L15
 10
130
 20
-61
 30
0.
  0
VERTEX
 8
L15
 10
132
 20
-63
 30
0.
  0
VERTEX
 8
L15
 10
135
 20
-63
 30
0.
  0
VERTEX
 8
L15
 10
141
 20
-66
 30
0.
  0
VERTEX
 8
L15
 10
143
 20
-72
 30
0.
  0
VERTEX
 8
L15
 10
145
 20
-78
 30
0.
  0
VERTEX
 8
L15
 10
145
 20
-84
 30
0.
  0
VERTEX
 8
L15
 10
143
 20
-89
 30
0.
  0
VERTEX
 8
L15
 10
140
 20
-93
 30
0.
  0
VERTEX
 8
L15
 10
137
 20
-98
 30
0.
  0
VERTEX
 8
L15
 10
137
 20
-105
 30
0.
  0
VERTEX
 8
L15
 10
135
 20
-110
 30
0.
  0
VERTEX
 8
L15
 10
133
 20
-115
 30
0.
  0
VERTEX
 8
L15
 10
133
 20
-121
 30
0.
  0
VERTEX
 8
L15
 10
132
 20
-124
 30
0.
  0
VERTEX
 8
L15
 10
129
 20
-126
 30
0.
  0
VERTEX
 8
L15
 10
124
 20
-109
 30
0.
  0
VERTEX
 8
L15
 10
121
 20
-101
 30
0.
  0
VERTEX
 8
L15
 10
115
 20
-95
 30
0.
  0
VERTEX
 8
L15
 10
116
 20
-82
 30
0.
  0
VERTEX
 8
L15
 10
118
 20
-67
 30
0.
  0
VERTEX
 8
L15
 10
118
 20
-67
 30
0.
  0
SEQEND
 8
L15
 999
********** Spline **********
  0
POLYLINE
 8
L16
 66
1
 70
17
 39
0
 40
0
 41
0
  0
VERTEX
 8
L16
 10
135
 20
-10
 30
0.
  0
VERTEX
 8
L16
 10
131
 20
-12
 30
0.
  0
VERTEX
 8
L16
 10
127
 20
-16
 30
0.
  0
VERTEX
 8
L16
 10
127
 20
-11
 30
0.
  0
VERTEX
 8
L16
 10
124
 20
-9
 30
0.
  0
VERTEX
 8
L16
 10
115
 20
-8
 30
0.
  0
VERTEX
 8
L16
 10
106
 20
-7
 30
0.
  0
VERTEX
 8
L16
 10
96
 20
-5
 30
0.
  0
VERTEX
 8
L16
 10
105
 20
-6
 30
0.
  0
VERTEX
 8
L16
 10
114
 20
-6
 30
0.
  0
VERTEX
 8
L16
 10
119
 20
-6
 30
0.
  0
VERTEX
 8
L16
 10
124
 20
-6
 30
0.
  0
VERTEX
 8
L16
 10
130
 20
-7
 30
0.
  0
VERTEX
 8
L16
 10
135
 20
-10
 30
0.
  0
VERTEX
 8
L16
 10
135
 20
-10
 30
0.
  0
SEQEND
 8
L16
 999
********** Spline **********
  0
POLYLINE
 8
L17
 66
1
 70
17
 39
0
 40
0
 41
0
  0
VERTEX
 8
L17
 10
131
 20
-43
 30
0.
  0
VERTEX
 8
L17
 10
126
 20
-52
 30
0.
  0
VERTEX
 8
L17
 10
122
 20
-60
 30
0.
  0
VERTEX
 8
L17
 10
126
 20
-56
 30
0.
  0
VERTEX
 8
L17
 10
129
 20
-52
 30
0.
  0
VERTEX
 8
L17
 10
131
 20
-50
 30
0.
  0
VERTEX
 8
L17
 10
135
 20
-47
 30
0.
  0
VERTEX
 8
L17
 10
136
 20
-50
 30
0.
  0
VERTEX
 8
L17
 10
138
 20
-49
 30
0.
  0
VERTEX
 8
L17
 10
139
 20
-44
 30
0.
  0
VERTEX
 8
L17
 10
142
 20
-39
 30
0.
  0
VERTEX
 8
L17
 10
139
 20
-37
 30
0.
  0
VERTEX
 8
L17
 10
139
 20
-36
 30
0.
  0
VERTEX
 8
L17
 10
143
 20
-31
 30
0.
  0
VERTEX
 8
L17
 10
148
 20
-25
 30
0.
  0
VERTEX
 8
L17
 10
151
 20
-18
 30
0.
  0
VERTEX
 8
L17
 10
150
 20
-12
 30
0.
  0
VERTEX
 8
L17
 10
148
 20
-6
 30
0.
  0
VERTEX
 8
L17
 10
145
 20
-7
 30
0.
  0
VERTEX
 8
L17
 10
144
 20
-10
 30
0.
  0
VERTEX
 8
L17
 10
145
 20
-12
 30
0.
  0
VERTEX
 8
L17
 10
148
 20
-10
 30
0.
  0
VERTEX
 8
L17
 10
148
 20
-13
 30
0.
  0
VERTEX
 8
L17
 10
148
 20
-16
 30
0.
  0
VERTEX
 8
L17
 10
146
 20
-21
 30
0.
  0
VERTEX
 8
L17
 10
143
 20
-24
 30
0.
  0
VERTEX
 8
L17
 10
137
 20
-34
 30
0.
  0
VERTEX
 8
L17
 10
131
 20
-43
 30
0.
  0
VERTEX
 8
L17
 10
131
 20
-43
 30
0.
  0
SEQEND
 8
L17
 999
********** Spline **********
  0
POLYLINE
 8
L18
 66
1
 70
17
 39
0
 40
0
 41
0
  0
VERTEX
 8
L18
 10
126
 20
-80
 30
0.
  0
VERTEX
 8
L18
 10
124
 20
-80
 30
0.
  0
VERTEX
 8
L18
 10
122
 20
-82
 30
0.
  0
VERTEX
 8
L18
 10
128
 20
-85
 30
0.
  0
VERTEX
 8
L18
 10
131
 20
-86
 30
0.
  0
VERTEX
 8
L18
 10
135
 20
-83
 30
0.
  0
VERTEX
 8
L18
 10
136
 20
-81
 30
0.
  0
VERTEX
 8
L18
 10
133
 20
-78
 30
0.
  0
VERTEX
 8
L18
 10
129
 20
-76
 30
0.
  0
VERTEX
 8
L18
 10
126
 20
-80
 30
0.
  0
VERTEX
 8
L18
 10
126
 20
-80
 30
0.
  0
SEQEND
 8
L18
 999
********** Spline **********
  0
POLYLINE
 8
L19
 66
1
 70
17
 39
0
 40
0
 41
0
  0
VERTEX
 8
L19
 10
135
 20
-85
 30
0.
  0
VERTEX
 8
L19
 10
129
 20
-88
 30
0.
  0
VERTEX
 8
L19
 10
122
 20
-85
 30
0.
  0
VERTEX
 8
L19
 10
124
 20
-87
 30
0.
  0
VERTEX
 8
L19
 10
126
 20
-89
 30
0.
  0
VERTEX
 8
L19
 10
128
 20
-89
 30
0.
  0
VERTEX
 8
L19
 10
130
 20
-89
 30
0.
  0
VERTEX
 8
L19
 10
134
 20
-87
 30
0.
  0
VERTEX
 8
L19
 10
138
 20
-85
 30
0.
  0
VERTEX
 8
L19
 10
137
 20
-85
 30
0.
  0
VERTEX
 8
L19
 10
135
 20
-85
 30
0.
  0
VERTEX
 8
L19
 10
135
 20
-85
 30
0.
  0
SEQEND
 8
L19
 999
********** Spline **********
  0
POLYLINE
 8
L20
 66
1
 39
0
 40
0
 41
0
  0
VERTEX
 8
L20
 10
135
 20
-85
 30
0.
  0
VERTEX
 8
L20
 10
129
 20
-88
 30
0.
  0
VERTEX
 8
L20
 10
122
 20
-85
 30
0.
  0
VERTEX
 8
L20
 10
124
 20
-87
 30
0.
  0
VERTEX
 8
L20
 10
126
 20
-89
 30
0.
  0
VERTEX
 8
L20
 10
128
 20
-89
 30
0.
  0
VERTEX
 8
L20
 10
130
 20
-89
 30
0.
  0
VERTEX
 8
L20
 10
134
 20
-87
 30
0.
  0
VERTEX
 8
L20
 10
138
 20
-85
 30
0.
  0
VERTEX
 8
L20
 10
137
 20
-85
 30
0.
  0
VERTEX
 8
L20
 10
135
 20
-85
 30
0.
  0
SEQEND
 8
L20
 999
********** Spline **********
  0
POLYLINE
 8
L19
 66
1
 70
17
 39
0
 40
0
 41
0
  0
VERTEX
 8
L19
 10
137
 20
-76
 30
0.
  0
VERTEX
 8
L19
 10
130
 20
-73
 30
0.
  0
VERTEX
 8
L19
 10
126
 20
-74
 30
0.
  0
VERTEX
 8
L19
 10
122
 20
-78
 30
0.
  0
VERTEX
 8
L19
 10
120
 20
-77
 30
0.
  0
VERTEX
 8
L19
 10
118
 20
-76
 30
0.
  0
VERTEX
 8
L19
 10
124
 20
-73
 30
0.
  0
VERTEX
 8
L19
 10
129
 20
-69
 30
0.
  0
VERTEX
 8
L19
 10
133
 20
-69
 30
0.
  0
VERTEX
 8
L19
 10
135
 20
-72
 30
0.
  0
VERTEX
 8
L19
 10
138
 20
-78
 30
0.
  0
VERTEX
 8
L19
 10
138
 20
-77
 30
0.
  0
VERTEX
 8
L19
 10
137
 20
-76
 30
0.
  0
VERTEX
 8
L19
 10
137
 20
-76
 30
0.
  0
SEQEND
 8
L19
 999
********** Spline **********
  0
POLYLINE
 8
L20
 66
1
 39
0
 40
0
 41
0
  0
VERTEX
 8
L20
 10
137
 20
-76
 30
0.
  0
VERTEX
 8
L20
 10
130
 20
-73
 30
0.
  0
VERTEX
 8
L20
 10
126
 20
-74
 30
0.
  0
VERTEX
 8
L20
 10
122
 20
-78
 30
0.
  0
VERTEX
 8
L20
 10
120
 20
-77
 30
0.
  0
VERTEX
 8
L20
 10
118
 20
-76
 30
0.
  0
VERTEX
 8
L20
 10
124
 20
-73
 30
0.
  0
VERTEX
 8
L20
 10
129
 20
-69
 30
0.
  0
VERTEX
 8
L20
 10
133
 20
-69
 30
0.
  0
VERTEX
 8
L20
 10
135
 20
-72
 30
0.
  0
VERTEX
 8
L20
 10
138
 20
-78
 30
0.
  0
VERTEX
 8
L20
 10
138
 20
-77
 30
0.
  0
VERTEX
 8
L20
 10
137
 20
-76
 30
0.
  0
SEQEND
 8
L20
 999
********** Spline **********
  0
POLYLINE
 8
L21
 66
1
 70
17
 39
0
 40
0
 41
0
  0
VERTEX
 8
L21
 10
131
 20
-80
 30
0.
  0
VERTEX
 8
L21
 10
131
 20
-83
 30
0.
  0
VERTEX
 8
L21
 10
129
 20
-83
 30
0.
  0
VERTEX
 8
L21
 10
127
 20
-82
 30
0.
  0
VERTEX
 8
L21
 10
128
 20
-85
 30
0.
  0
VERTEX
 8
L21
 10
131
 20
-85
 30
0.
  0
VERTEX
 8
L21
 10
133
 20
-83
 30
0.
  0
VERTEX
 8
L21
 10
131
 20
-80
 30
0.
  0
VERTEX
 8
L21
 10
131
 20
-80
 30
0.
  0
SEQEND
 8
L21
 999
********** Spline **********
  0
POLYLINE
 8
L22
 66
1
 70
17
 39
0
 40
0
 41
0
  0
VERTEX
 8
L22
 10
126
 20
-83
 30
0.
  0
VERTEX
 8
L22
 10
123
 20
-82
 30
0.
  0
VERTEX
 8
L22
 10
122
 20
-81
 30
0.
  0
VERTEX
 8
L22
 10
122
 20
-80
 30
0.
  0
VERTEX
 8
L22
 10
125
 20
-79
 30
0.
  0
VERTEX
 8
L22
 10
127
 20
-78
 30
0.
  0
VERTEX
 8
L22
 10
131
 20
-77
 30
0.
  0
VERTEX
 8
L22
 10
135
 20
-80
 30
0.
  0
VERTEX
 8
L22
 10
136
 20
-83
 30
0.
  0
VERTEX
 8
L22
 10
133
 20
-85
 30
0.
  0
VERTEX
 8
L22
 10
135
 20
-82
 30
0.
  0
VERTEX
 8
L22
 10
134
 20
-80
 30
0.
  0
VERTEX
 8
L22
 10
131
 20
-78
 30
0.
  0
VERTEX
 8
L22
 10
127
 20
-80
 30
0.
  0
VERTEX
 8
L22
 10
126
 20
-81
 30
0.
  0
VERTEX
 8
L22
 10
126
 20
-83
 30
0.
  0
VERTEX
 8
L22
 10
126
 20
-83
 30
0.
  0
SEQEND
 8
L22
 999
********** Spline **********
  0
POLYLINE
 8
L23
 66
1
 70
17
 39
0
 40
0
 41
0
  0
VERTEX
 8
L23
 10
131
 20
-144
 30
0.
  0
VERTEX
 8
L23
 10
128
 20
-160
 30
0.
  0
VERTEX
 8
L23
 10
127
 20
-179
 30
0.
  0
VERTEX
 8
L23
 10
128
 20
-197
 30
0.
  0
VERTEX
 8
L23
 10
132
 20
-204
 30
0.
  0
VERTEX
 8
L23
 10
137
 20
-210
 30
0.
  0
VERTEX
 8
L23
 10
133
 20
-202
 30
0.
  0
VERTEX
 8
L23
 10
130
 20
-192
 30
0.
  0
VERTEX
 8
L23
 10
129
 20
-182
 30
0.
  0
VERTEX
 8
L23
 10
130
 20
-172
 30
0.
  0
VERTEX
 8
L23
 10
131
 20
-164
 30
0.
  0
VERTEX
 8
L23
 10
132
 20
-156
 30
0.
  0
VERTEX
 8
L23
 10
135
 20
-148
 30
0.
  0
VERTEX
 8
L23
 10
134
 20
-145
 30
0.
  0
VERTEX
 8
L23
 10
131
 20
-144
 30
0.
  0
VERTEX
 8
L23
 10
131
 20
-144
 30
0.
  0
SEQEND
 8
L23
 999
********** Spline **********
  0
POLYLINE
 8
L24
 66
1
 70
17
 39
0
 40
0
 41
0
  0
VERTEX
 8
L24
 10
217
 20
-118
 30
0.
  0
VERTEX
 8
L24
 10
224
 20
-124
 30
0.
  0
VERTEX
 8
L24
 10
229
 20
-133
 30
0.
  0
VERTEX
 8
L24
 10
231
 20
-138
 30
0.
  0
VERTEX
 8
L24
 10
233
 20
-132
 30
0.
  0
VERTEX
 8
L24
 10
235
 20
-129
 30
0.
  0
VERTEX
 8
L24
 10
237
 20
-126
 30
0.
  0
VERTEX
 8
L24
 10
236
 20
-123
 30
0.
  0
VERTEX
 8
L24
 10
234
 20
-119
 30
0.
  0
VERTEX
 8
L24
 10
234
 20
-118
 30
0.
  0
VERTEX
 8
L24
 10
235
 20
-116
 30
0.
  0
VERTEX
 8
L24
 10
235
 20
-114
 30
0.
  0
VERTEX
 8
L24
 10
234
 20
-113
 30
0.
  0
VERTEX
 8
L24
 10
233
 20
-110
 30
0.
  0
VERTEX
 8
L24
 10
235
 20
-106
 30
0.
  0
VERTEX
 8
L24
 10
236
 20
-103
 30
0.
  0
VERTEX
 8
L24
 10
233
 20
-100
 30
0.
  0
VERTEX
 8
L24
 10
226
 20
-94
 30
0.
  0
VERTEX
 8
L24
 10
225
 20
-91
 30
0.
  0
VERTEX
 8
L24
 10
227
 20
-88
 30
0.
  0
VERTEX
 8
L24
 10
230
 20
-85
 30
0.
  0
VERTEX
 8
L24
 10
231
 20
-82
 30
0.
  0
VERTEX
 8
L24
 10
226
 20
-77
 30
0.
  0
VERTEX
 8
L24
 10
224
 20
-71
 30
0.
  0
VERTEX
 8
L24
 10
222
 20
-62
 30
0.
  0
VERTEX
 8
L24
 10
217
 20
-54
 30
0.
  0
VERTEX
 8
L24
 10
219
 20
-62
 30
0.
  0
VERTEX
 8
L24
 10
219
 20
-69
 30
0.
  0
VERTEX
 8
L24
 10
218
 20
-73
 30
0.
  0
VERTEX
 8
L24
 10
218
 20
-77
 30
0.
  0
VERTEX
 8
L24
 10
220
 20
-81
 30
0.
  0
VERTEX
 8
L24
 10
221
 20
-84
 30
0.
  0
VERTEX
 8
L24
 10
220
 20
-93
 30
0.
  0
VERTEX
 8
L24
 10
217
 20
-102
 30
0.
  0
VERTEX
 8
L24
 10
215
 20
-110
 30
0.
  0
VERTEX
 8
L24
 10
217
 20
-118
 30
0.
  0
VERTEX
 8
L24
 10
217
 20
-118
 30
0.
  0
SEQEND
 8
L24
 999
********** Spline **********
  0
POLYLINE
 8
L24
 66
1
 70
17
 39
0
 40
0
 41
0
  0
VERTEX
 8
L24
 10
127
 20
-118
 30
0.
  0
VERTEX
 8
L24
 10
124
 20
-126
 30
0.
  0
VERTEX
 8
L24
 10
120
 20
-130
 30
0.
  0
VERTEX
 8
L24
 10
117
 20
-131
 30
0.
  0
VERTEX
 8
L24
 10
113
 20
-127
 30
0.
  0
VERTEX
 8
L24
 10
113
 20
-122
 30
0.
  0
VERTEX
 8
L24
 10
114
 20
-118
 30
0.
  0
VERTEX
 8
L24
 10
113
 20
-113
 30
0.
  0
VERTEX
 8
L24
 10
109
 20
-111
 30
0.
  0
VERTEX
 8
L24
 10
105
 20
-109
 30
0.
  0
VERTEX
 8
L24
 10
107
 20
-104
 30
0.
  0
VERTEX
 8
L24
 10
109
 20
-99
 30
0.
  0
VERTEX
 8
L24
 10
109
 20
-94
 30
0.
  0
VERTEX
 8
L24
 10
105
 20
-91
 30
0.
  0
VERTEX
 8
L24
 10
101
 20
-92
 30
0.
  0
VERTEX
 8
L24
 10
96
 20
-94
 30
0.
  0
VERTEX
 8
L24
 10
98
 20
-90
 30
0.
  0
VERTEX
 8
L24
 10
102
 20
-88
 30
0.
  0
VERTEX
 8
L24
 10
111
 20
-85
 30
0.
  0
VERTEX
 8
L24
 10
107
 20
-81
 30
0.
  0
VERTEX
 8
L24
 10
103
 20
-77
 30
0.
  0
VERTEX
 8
L24
 10
98
 20
-73
 30
0.
  0
VERTEX
 8
L24
 10
93
 20
-72
 30
0.
  0
VERTEX
 8
L24
 10
98
 20
-71
 30
0.
  0
VERTEX
 8
L24
 10
104
 20
-72
 30
0.
  0
VERTEX
 8
L24
 10
110
 20
-73
 30
0.
  0
VERTEX
 8
L24
 10
114
 20
-70
 30
0.
  0
VERTEX
 8
L24
 10
114
 20
-67
 30
0.
  0
VERTEX
 8
L24
 10
113
 20
-64
 30
0.
  0
VERTEX
 8
L24
 10
107
 20
-60
 30
0.
  0
VERTEX
 8
L24
 10
94
 20
-56
 30
0.
  0
VERTEX
 8
L24
 10
99
 20
-53
 30
0.
  0
VERTEX
 8
L24
 10
103
 20
-50
 30
0.
  0
VERTEX
 8
L24
 10
103
 20
-44
 30
0.
  0
VERTEX
 8
L24
 10
102
 20
-38
 30
0.
  0
VERTEX
 8
L24
 10
105
 20
-43
 30
0.
  0
VERTEX
 8
L24
 10
107
 20
-49
 30
0.
  0
VERTEX
 8
L24
 10
112
 20
-52
 30
0.
  0
VERTEX
 8
L24
 10
117
 20
-54
 30
0.
  0
VERTEX
 8
L24
 10
121
 20
-59
 30
0.
  0
VERTEX
 8
L24
 10
120
 20
-64
 30
0.
  0
VERTEX
 8
L24
 10
118
 20
-70
 30
0.
  0
VERTEX
 8
L24
 10
116
 20
-77
 30
0.
  0
VERTEX
 8
L24
 10
116
 20
-83
 30
0.
  0
VERTEX
 8
L24
 10
116
 20
-89
 30
0.
  0
VERTEX
 8
L24
 10
115
 20
-94
 30
0.
  0
VERTEX
 8
L24
 10
115
 20
-96
 30
0.
  0
VERTEX
 8
L24
 10
117
 20
-98
 30
0.
  0
VERTEX
 8
L24
 10
121
 20
-102
 30
0.
  0
VERTEX
 8
L24
 10
122
 20
-108
 30
0.
  0
VERTEX
 8
L24
 10
124
 20
-114
 30
0.
  0
VERTEX
 8
L24
 10
127
 20
-118
 30
0.
  0
VERTEX
 8
L24
 10
127
 20
-118
 30
0.
  0
SEQEND
 8
L24
 999
********** Spline **********
  0
POLYLINE
 8
L25
 66
1
 70
17
 39
0
 40
0
 41
0
  0
VERTEX
 8
L25
 10
131
 20
-138
 30
0.
  0
VERTEX
 8
L25
 10
135
 20
-140
 30
0.
  0
VERTEX
 8
L25
 10
138
 20
-142
 30
0.
  0
VERTEX
 8
L25
 10
142
 20
-146
 30
0.
  0
VERTEX
 8
L25
 10
144
 20
-149
 30
0.
  0
VERTEX
 8
L25
 10
149
 20
-156
 30
0.
  0
VERTEX
 8
L25
 10
153
 20
-160
 30
0.
  0
VERTEX
 8
L25
 10
151
 20
-157
 30
0.
  0
VERTEX
 8
L25
 10
151
 20
-153
 30
0.
  0
VERTEX
 8
L25
 10
152
 20
-149
 30
0.
  0
VERTEX
 8
L25
 10
155
 20
-148
 30
0.
  0
VERTEX
 8
L25
 10
151
 20
-147
 30
0.
  0
VERTEX
 8
L25
 10
150
 20
-144
 30
0.
  0
VERTEX
 8
L25
 10
150
 20
-140
 30
0.
  0
VERTEX
 8
L25
 10
148
 20
-138
 30
0.
  0
VERTEX
 8
L25
 10
150
 20
-137
 30
0.
  0
VERTEX
 8
L25
 10
151
 20
-135
 30
0.
  0
VERTEX
 8
L25
 10
149
 20
-134
 30
0.
  0
VERTEX
 8
L25
 10
150
 20
-132
 30
0.
  0
VERTEX
 8
L25
 10
153
 20
-129
 30
0.
  0
VERTEX
 8
L25
 10
150
 20
-128
 30
0.
  0
VERTEX
 8
L25
 10
149
 20
-126
 30
0.
  0
VERTEX
 8
L25
 10
151
 20
-123
 30
0.
  0
VERTEX
 8
L25
 10
150
 20
-122
 30
0.
  0
VERTEX
 8
L25
 10
148
 20
-121
 30
0.
  0
VERTEX
 8
L25
 10
148
 20
-119
 30
0.
  0
VERTEX
 8
L25
 10
148
 20
-116
 30
0.
  0
VERTEX
 8
L25
 10
148
 20
-113
 30
0.
  0
VERTEX
 8
L25
 10
148
 20
-122
 30
0.
  0
VERTEX
 8
L25
 10
148
 20
-130
 30
0.
  0
VERTEX
 8
L25
 10
148
 20
-135
 30
0.
  0
VERTEX
 8
L25
 10
147
 20
-137
 30
0.
  0
VERTEX
 8
L25
 10
145
 20
-138
 30
0.
  0
VERTEX
 8
L25
 10
143
 20
-135
 30
0.
  0
VERTEX
 8
L25
 10
142
 20
-131
 30
0.
  0
VERTEX
 8
L25
 10
141
 20
-137
 30
0.
  0
VERTEX
 8
L25
 10
140
 20
-139
 30
0.
  0
VERTEX
 8
L25
 10
140
 20
-136
 30
0.
  0
VERTEX
 8
L25
 10
139
 20
-135
 30
0.
  0
VERTEX
 8
L25
 10
137
 20
-137
 30
0.
  0
VERTEX
 8
L25
 10
133
 20
-139
 30
0.
  0
VERTEX
 8
L25
 10
129
 20
-137
 30
0.
  0
VERTEX
 8
L25
 10
130
 20
-138
 30
0.
  0
VERTEX
 8
L25
 10
131
 20
-138
 30
0.
  0
VERTEX
 8
L25
 10
131
 20
-138
 30
0.
  0
SEQEND
 8
L25
 999
********** Spline **********
  0
POLYLINE
 8
L25
 66
1
 70
17
 39
0
 40
0
 41
0
  0
VERTEX
 8
L25
 10
204
 20
-166
 30
0.
  0
VERTEX
 8
L25
 10
202
 20
-163
 30
0.
  0
VERTEX
 8
L25
 10
203
 20
-159
 30
0.
  0
VERTEX
 8
L25
 10
204
 20
-156
 30
0.
  0
VERTEX
 8
L25
 10
202
 20
-155
 30
0.
  0
VERTEX
 8
L25
 10
201
 20
-154
 30
0.
  0
VERTEX
 8
L25
 10
202
 20
-151
 30
0.
  0
VERTEX
 8
L25
 10
199
 20
-149
 30
0.
  0
VERTEX
 8
L25
 10
195
 20
-148
 30
0.
  0
VERTEX
 8
L25
 10
201
 20
-148
 30
0.
  0
VERTEX
 8
L25
 10
204
 20
-146
 30
0.
  0
VERTEX
 8
L25
 10
205
 20
-139
 30
0.
  0
VERTEX
 8
L25
 10
204
 20
-136
 30
0.
  0
VERTEX
 8
L25
 10
202
 20
-135
 30
0.
  0
VERTEX
 8
L25
 10
204
 20
-131
 30
0.
  0
VERTEX
 8
L25
 10
204
 20
-126
 30
0.
  0
VERTEX
 8
L25
 10
205
 20
-133
 30
0.
  0
VERTEX
 8
L25
 10
206
 20
-140
 30
0.
  0
VERTEX
 8
L25
 10
209
 20
-139
 30
0.
  0
VERTEX
 8
L25
 10
210
 20
-137
 30
0.
  0
VERTEX
 8
L25
 10
210
 20
-139
 30
0.
  0
VERTEX
 8
L25
 10
210
 20
-140
 30
0.
  0
VERTEX
 8
L25
 10
211
 20
-139
 30
0.
  0
VERTEX
 8
L25
 10
212
 20
-138
 30
0.
  0
VERTEX
 8
L25
 10
211
 20
-141
 30
0.
  0
VERTEX
 8
L25
 10
210
 20
-142
 30
0.
  0
VERTEX
 8
L25
 10
216
 20
-142
 30
0.
  0
VERTEX
 8
L25
 10
221
 20
-144
 30
0.
  0
VERTEX
 8
L25
 10
214
 20
-144
 30
0.
  0
VERTEX
 8
L25
 10
211
 20
-145
 30
0.
  0
VERTEX
 8
L25
 10
208
 20
-148
 30
0.
  0
VERTEX
 8
L25
 10
205
 20
-156
 30
0.
  0
VERTEX
 8
L25
 10
204
 20
-166
 30
0.
  0
VERTEX
 8
L25
 10
204
 20
-166
 30
0.
  0
SEQEND
 8
L25
 999
********** Spline **********
  0
POLYLINE
 8
L16
 66
1
 70
17
 39
0
 40
0
 41
0
  0
VERTEX
 8
L16
 10
210
 20
-38
 30
0.
  0
VERTEX
 8
L16
 10
197
 20
-27
 30
0.
  0
VERTEX
 8
L16
 10
191
 20
-21
 30
0.
  0
VERTEX
 8
L16
 10
186
 20
-14
 30
0.
  0
VERTEX
 8
L16
 10
188
 20
-16
 30
0.
  0
VERTEX
 8
L16
 10
189
 20
-17
 30
0.
  0
VERTEX
 8
L16
 10
191
 20
-16
 30
0.
  0
VERTEX
 8
L16
 10
190
 20
-14
 30
0.
  0
VERTEX
 8
L16
 10
188
 20
-12
 30
0.
  0
VERTEX
 8
L16
 10
188
 20
-10
 30
0.
  0
VERTEX
 8
L16
 10
190
 20
-10
 30
0.
  0
VERTEX
 8
L16
 10
193
 20
-13
 30
0.
  0
VERTEX
 8
L16
 10
197
 20
-16
 30
0.
  0
VERTEX
 8
L16
 10
197
 20
-14
 30
0.
  0
VERTEX
 8
L16
 10
197
 20
-12
 30
0.
  0
VERTEX
 8
L16
 10
201
 20
-15
 30
0.
  0
VERTEX
 8
L16
 10
206
 20
-17
 30
0.
  0
VERTEX
 8
L16
 10
203
 20
-11
 30
0.
  0
VERTEX
 8
L16
 10
199
 20
-7
 30
0.
  0
VERTEX
 8
L16
 10
187
 20
-3
 30
0.
  0
VERTEX
 8
L16
 10
162
 20
-1
 30
0.
  0
VERTEX
 8
L16
 10
168
 20
-2
 30
0.
  0
VERTEX
 8
L16
 10
174
 20
-4
 30
0.
  0
VERTEX
 8
L16
 10
180
 20
-5
 30
0.
  0
VERTEX
 8
L16
 10
183
 20
-5
 30
0.
  0
VERTEX
 8
L16
 10
186
 20
-6
 30
0.
  0
VERTEX
 8
L16
 10
184
 20
-11
 30
0.
  0
VERTEX
 8
L16
 10
184
 20
-17
 30
0.
  0
VERTEX
 8
L16
 10
190
 20
-24
 30
0.
  0
VERTEX
 8
L16
 10
196
 20
-29
 30
0.
  0
VERTEX
 8
L16
 10
201
 20
-36
 30
0.
  0
VERTEX
 8
L16
 10
206
 20
-42
 30
0.
  0
VERTEX
 8
L16
 10
208
 20
-45
 30
0.
  0
VERTEX
 8
L16
 10
211
 20
-44
 30
0.
  0
VERTEX
 8
L16
 10
211
 20
-42
 30
0.
  0
VERTEX
 8
L16
 10
210
 20
-38
 30
0.
  0
VERTEX
 8
L16
 10
210
 20
-38
 30
0.
  0
SEQEND
 8
L16
 999
********** Spline **********
  0
POLYLINE
 8
L18
 66
1
 70
17
 39
0
 40
0
 41
0
  0
VERTEX
 8
L18
 10
206
 20
-82
 30
0.
  0
VERTEX
 8
L18
 10
204
 20
-80
 30
0.
  0
VERTEX
 8
L18
 10
205
 20
-78
 30
0.
  0
VERTEX
 8
L18
 10
210
 20
-74
 30
0.
  0
VERTEX
 8
L18
 10
211
 20
-76
 30
0.
  0
VERTEX
 8
L18
 10
213
 20
-76
 30
0.
  0
VERTEX
 8
L18
 10
210
 20
-83
 30
0.
  0
VERTEX
 8
L18
 10
208
 20
-85
 30
0.
  0
VERTEX
 8
L18
 10
206
 20
-82
 30
0.
  0
VERTEX
 8
L18
 10
206
 20
-82
 30
0.
  0
SEQEND
 8
L18
 999
********** Spline **********
  0
POLYLINE
 8
L19
 66
1
 70
17
 39
0
 40
0
 41
0
  0
VERTEX
 8
L19
 10
204
 20
-76
 30
0.
  0
VERTEX
 8
L19
 10
211
 20
-72
 30
0.
  0
VERTEX
 8
L19
 10
213
 20
-69
 30
0.
  0
VERTEX
 8
L19
 10
213
 20
-65
 30
0.
  0
VERTEX
 8
L19
 10
211
 20
-68
 30
0.
  0
VERTEX
 8
L19
 10
207
 20
-70
 30
0.
  0
VERTEX
 8
L19
 10
203
 20
-74
 30
0.
  0
VERTEX
 8
L19
 10
201
 20
-80
 30
0.
  0
VERTEX
 8
L19
 10
203
 20
-79
 30
0.
  0
VERTEX
 8
L19
 10
204
 20
-76
 30
0.
  0
VERTEX
 8
L19
 10
204
 20
-76
 30
0.
  0
SEQEND
 8
L19
 999
********** Spline **********
  0
POLYLINE
 8
L20
 66
1
 39
0
 40
0
 41
0
  0
VERTEX
 8
L20
 10
204
 20
-76
 30
0.
  0
VERTEX
 8
L20
 10
211
 20
-72
 30
0.
  0
VERTEX
 8
L20
 10
213
 20
-69
 30
0.
  0
VERTEX
 8
L20
 10
213
 20
-65
 30
0.
  0
VERTEX
 8
L20
 10
211
 20
-68
 30
0.
  0
VERTEX
 8
L20
 10
207
 20
-70
 30
0.
  0
VERTEX
 8
L20
 10
203
 20
-74
 30
0.
  0
VERTEX
 8
L20
 10
201
 20
-80
 30
0.
  0
VERTEX
 8
L20
 10
203
 20
-79
 30
0.
  0
VERTEX
 8
L20
 10
204
 20
-76
 30
0.
  0
SEQEND
 8
L20
 999
********** Spline **********
  0
POLYLINE
 8
L19
 66
1
 70
17
 39
0
 40
0
 41
0
  0
VERTEX
 8
L19
 10
204
 20
-82
 30
0.
  0
VERTEX
 8
L19
 10
207
 20
-84
 30
0.
  0
VERTEX
 8
L19
 10
210
 20
-86
 30
0.
  0
VERTEX
 8
L19
 10
207
 20
-87
 30
0.
  0
VERTEX
 8
L19
 10
204
 20
-85
 30
0.
  0
VERTEX
 8
L19
 10
205
 20
-87
 30
0.
  0
VERTEX
 8
L19
 10
206
 20
-89
 30
0.
  0
VERTEX
 8
L19
 10
205
 20
-86
 30
0.
  0
VERTEX
 8
L19
 10
204
 20
-82
 30
0.
  0
VERTEX
 8
L19
 10
204
 20
-82
 30
0.
  0
SEQEND
 8
L19
 999
********** Spline **********
  0
POLYLINE
 8
L20
 66
1
 39
0
 40
0
 41
0
  0
VERTEX
 8
L20
 10
204
 20
-82
 30
0.
  0
VERTEX
 8
L20
 10
207
 20
-84
 30
0.
  0
VERTEX
 8
L20
 10
210
 20
-86
 30
0.
  0
VERTEX
 8
L20
 10
207
 20
-87
 30
0.
  0
VERTEX
 8
L20
 10
204
 20
-85
 30
0.
  0
VERTEX
 8
L20
 10
205
 20
-87
 30
0.
  0
VERTEX
 8
L20
 10
206
 20
-89
 30
0.
  0
VERTEX
 8
L20
 10
205
 20
-86
 30
0.
  0
VERTEX
 8
L20
 10
204
 20
-82
 30
0.
  0
SEQEND
 8
L20
 999
********** Spline **********
  0
POLYLINE
 8
L21
 66
1
 70
17
 39
0
 40
0
 41
0
  0
VERTEX
 8
L21
 10
208
 20
-80
 30
0.
  0
VERTEX
 8
L21
 10
209
 20
-81
 30
0.
  0
VERTEX
 8
L21
 10
210
 20
-78
 30
0.
  0
VERTEX
 8
L21
 10
210
 20
-82
 30
0.
  0
VERTEX
 8
L21
 10
208
 20
-82
 30
0.
  0
VERTEX
 8
L21
 10
207
 20
-81
 30
0.
  0
VERTEX
 8
L21
 10
208
 20
-80
 30
0.
  0
VERTEX
 8
L21
 10
208
 20
-80
 30
0.
  0
SEQEND
 8
L21
 999
********** Spline **********
  0
POLYLINE
 8
L22
 66
1
 70
17
 39
0
 40
0
 41
0
  0
VERTEX
 8
L22
 10
206
 20
-83
 30
0.
  0
VERTEX
 8
L22
 10
204
 20
-80
 30
0.
  0
VERTEX
 8
L22
 10
206
 20
-78
 30
0.
  0
VERTEX
 8
L22
 10
213
 20
-76
 30
0.
  0
VERTEX
 8
L22
 10
207
 20
-78
 30
0.
  0
VERTEX
 8
L22
 10
206
 20
-83
 30
0.
  0
VERTEX
 8
L22
 10
206
 20
-83
 30
0.
  0
SEQEND
 8
L22
 999
********** Spline **********
  0
POLYLINE
 8
L17
 66
1
 70
17
 39
0
 40
0
 41
0
  0
VERTEX
 8
L17
 10
149
 20
-93
 30
0.
  0
VERTEX
 8
L17
 10
147
 20
-87
 30
0.
  0
VERTEX
 8
L17
 10
149
 20
-82
 30
0.
  0
VERTEX
 8
L17
 10
155
 20
-78
 30
0.
  0
VERTEX
 8
L17
 10
161
 20
-76
 30
0.
  0
VERTEX
 8
L17
 10
176
 20
-76
 30
0.
  0
VERTEX
 8
L17
 10
184
 20
-77
 30
0.
  0
VERTEX
 8
L17
 10
189
 20
-80
 30
0.
  0
VERTEX
 8
L17
 10
193
 20
-86
 30
0.
  0
VERTEX
 8
L17
 10
195
 20
-89
 30
0.
  0
VERTEX
 8
L17
 10
194
 20
-91
 30
0.
  0
VERTEX
 8
L17
 10
187
 20
-92
 30
0.
  0
VERTEX
 8
L17
 10
180
 20
-89
 30
0.
  0
VERTEX
 8
L17
 10
165
 20
-89
 30
0.
  0
VERTEX
 8
L17
 10
149
 20
-93
 30
0.
  0
VERTEX
 8
L17
 10
149
 20
-93
 30
0.
  0
SEQEND
 8
L17
 999
********** Spline **********
  0
POLYLINE
 8
L17
 66
1
 70
17
 39
0
 40
0
 41
0
  0
VERTEX
 8
L17
 10
148
 20
-58
 30
0.
  0
VERTEX
 8
L17
 10
152
 20
-56
 30
0.
  0
VERTEX
 8
L17
 10
156
 20
-56
 30
0.
  0
VERTEX
 8
L17
 10
159
 20
-53
 30
0.
  0
VERTEX
 8
L17
 10
161
 20
-50
 30
0.
  0
VERTEX
 8
L17
 10
170
 20
-48
 30
0.
  0
VERTEX
 8
L17
 10
178
 20
-49
 30
0.
  0
VERTEX
 8
L17
 10
186
 20
-54
 30
0.
  0
VERTEX
 8
L17
 10
194
 20
-56
 30
0.
  0
VERTEX
 8
L17
 10
199
 20
-56
 30
0.
  0
VERTEX
 8
L17
 10
200
 20
-54
 30
0.
  0
VERTEX
 8
L17
 10
192
 20
-51
 30
0.
  0
VERTEX
 8
L17
 10
189
 20
-51
 30
0.
  0
VERTEX
 8
L17
 10
185
 20
-50
 30
0.
  0
VERTEX
 8
L17
 10
182
 20
-47
 30
0.
  0
VERTEX
 8
L17
 10
179
 20
-43
 30
0.
  0
VERTEX
 8
L17
 10
171
 20
-38
 30
0.
  0
VERTEX
 8
L17
 10
167
 20
-37
 30
0.
  0
VERTEX
 8
L17
 10
164
 20
-40
 30
0.
  0
VERTEX
 8
L17
 10
159
 20
-47
 30
0.
  0
VERTEX
 8
L17
 10
152
 20
-53
 30
0.
  0
VERTEX
 8
L17
 10
148
 20
-55
 30
0.
  0
VERTEX
 8
L17
 10
143
 20
-56
 30
0.
  0
VERTEX
 8
L17
 10
142
 20
-57
 30
0.
  0
VERTEX
 8
L17
 10
143
 20
-57
 30
0.
  0
VERTEX
 8
L17
 10
148
 20
-58
 30
0.
  0
VERTEX
 8
L17
 10
148
 20
-58
 30
0.
  0
SEQEND
 8
L17
 999
********** Spline **********
  0
POLYLINE
 8
L17
 66
1
 70
17
 39
0
 40
0
 41
0
  0
VERTEX
 8
L17
 10
151
 20
-67
 30
0.
  0
VERTEX
 8
L17
 10
163
 20
-62
 30
0.
  0
VERTEX
 8
L17
 10
170
 20
-60
 30
0.
  0
VERTEX
 8
L17
 10
177
 20
-60
 30
0.
  0
VERTEX
 8
L17
 10
184
 20
-61
 30
0.
  0
VERTEX
 8
L17
 10
190
 20
-63
 30
0.
  0
VERTEX
 8
L17
 10
193
 20
-68
 30
0.
  0
VERTEX
 8
L17
 10
194
 20
-71
 30
0.
  0
VERTEX
 8
L17
 10
192
 20
-72
 30
0.
  0
VERTEX
 8
L17
 10
179
 20
-70
 30
0.
  0
VERTEX
 8
L17
 10
173
 20
-69
 30
0.
  0
VERTEX
 8
L17
 10
166
 20
-69
 30
0.
  0
VERTEX
 8
L17
 10
160
 20
-71
 30
0.
  0
VERTEX
 8
L17
 10
154
 20
-72
 30
0.
  0
VERTEX
 8
L17
 10
148
 20
-71
 30
0.
  0
VERTEX
 8
L17
 10
148
 20
-69
 30
0.
  0
VERTEX
 8
L17
 10
151
 20
-67
 30
0.
  0
VERTEX
 8
L17
 10
151
 20
-67
 30
0.
  0
SEQEND
 8
L17
 999
********** Spline **********
  0
POLYLINE
 8
L26
 66
1
 70
17
 39
0
 40
0
 41
0
  0
VERTEX
 8
L26
 10
129
 20
-83
 30
0.
  0
VERTEX
 8
L26
 10
128
 20
-82
 30
0.
  0
VERTEX
 8
L26
 10
129
 20
-83
 30
0.
  0
VERTEX
 8
L26
 10
129
 20
-83
 30
0.
  0
SEQEND
 8
L26
 999
********** Spline **********
  0
POLYLINE
 8
L26
 66
1
 70
17
 39
0
 40
0
 41
0
  0
VERTEX
 8
L26
 10
206
 20
-80
 30
0.
  0
VERTEX
 8
L26
 10
207
 20
-80
 30
0.
  0
VERTEX
 8
L26
 10
208
 20
-80
 30
0.
  0
VERTEX
 8
L26
 10
207
 20
-80
 30
0.
  0
VERTEX
 8
L26
 10
206
 20
-80
 30
0.
  0
VERTEX
 8
L26
 10
206
 20
-80
 30
0.
  0
SEQEND
 8
L26
 999
********** Spline **********
  0
POLYLINE
 8
L27
 66
1
 39
0
 40
0
 41
0
  0
VERTEX
 8
L27
 10
30
 20
-175
 30
0.
  0
VERTEX
 8
L27
 10
31
 20
-184
 30
0.
  0
VERTEX
 8
L27
 10
32
 20
-193
 30
0.
  0
SEQEND
 8
L27
 999
********** Spline **********
  0
POLYLINE
 8
L12
 66
1
 70
17
 39
0
 40
0
 41
0
  0
VERTEX
 8
L12
 10
219
 20
-144
 30
0.
  0
VERTEX
 8
L12
 10
225
 20
-167
 30
0.
  0
VERTEX
 8
L12
 10
228
 20
-189
 30
0.
  0
VERTEX
 8
L12
 10
227
 20
-198
 30
0.
  0
VERTEX
 8
L12
 10
223
 20
-210
 30
0.
  0
VERTEX
 8
L12
 10
216
 20
-220
 30
0.
  0
VERTEX
 8
L12
 10
212
 20
-222
 30
0.
  0
VERTEX
 8
L12
 10
208
 20
-223
 30
0.
  0
VERTEX
 8
L12
 10
212
 20
-213
 30
0.
  0
VERTEX
 8
L12
 10
216
 20
-202
 30
0.
  0
VERTEX
 8
L12
 10
216
 20
-190
 30
0.
  0
VERTEX
 8
L12
 10
214
 20
-178
 30
0.
  0
VERTEX
 8
L12
 10
210
 20
-167
 30
0.
  0
VERTEX
 8
L12
 10
207
 20
-161
 30
0.
  0
VERTEX
 8
L12
 10
206
 20
-156
 30
0.
  0
VERTEX
 8
L12
 10
207
 20
-151
 30
0.
  0
VERTEX
 8
L12
 10
210
 20
-146
 30
0.
  0
VERTEX
 8
L12
 10
214
 20
-142
 30
0.
  0
VERTEX
 8
L12
 10
216
 20
-142
 30
0.
  0
VERTEX
 8
L12
 10
219
 20
-144
 30
0.
  0
VERTEX
 8
L12
 10
219
 20
-144
 30
0.
  0
SEQEND
 8
L12
 999
********** Spline **********
  0
POLYLINE
 8
L13
 66
1
 39
0
 40
0
 41
0
  0
VERTEX
 8
L13
 10
219
 20
-144
 30
0.
  0
VERTEX
 8
L13
 10
225
 20
-167
 30
0.
  0
VERTEX
 8
L13
 10
228
 20
-189
 30
0.
  0
VERTEX
 8
L13
 10
227
 20
-198
 30
0.
  0
VERTEX
 8
L13
 10
223
 20
-210
 30
0.
  0
VERTEX
 8
L13
 10
216
 20
-220
 30
0.
  0
VERTEX
 8
L13
 10
212
 20
-222
 30
0.
  0
VERTEX
 8
L13
 10
208
 20
-223
 30
0.
  0
VERTEX
 8
L13
 10
212
 20
-213
 30
0.
  0
VERTEX
 8
L13
 10
216
 20
-202
 30
0.
  0
VERTEX
 8
L13
 10
216
 20
-190
 30
0.
  0
VERTEX
 8
L13
 10
214
 20
-178
 30
0.
  0
VERTEX
 8
L13
 10
210
 20
-167
 30
0.
  0
VERTEX
 8
L13
 10
207
 20
-161
 30
0.
  0
VERTEX
 8
L13
 10
206
 20
-156
 30
0.
  0
VERTEX
 8
L13
 10
207
 20
-151
 30
0.
  0
VERTEX
 8
L13
 10
210
 20
-146
 30
0.
  0
VERTEX
 8
L13
 10
214
 20
-142
 30
0.
  0
VERTEX
 8
L13
 10
216
 20
-142
 30
0.
  0
VERTEX
 8
L13
 10
219
 20
-144
 30
0.
  0
SEQEND
 8
L13
 999
********** Spline **********
  0
POLYLINE
 8
L28
 66
1
 70
17
 39
0
 40
0
 41
0
  0
VERTEX
 8
L28
 10
206
 20
-155
 30
0.
  0
VERTEX
 8
L28
 10
211
 20
-164
 30
0.
  0
VERTEX
 8
L28
 10
215
 20
-174
 30
0.
  0
VERTEX
 8
L28
 10
217
 20
-195
 30
0.
  0
VERTEX
 8
L28
 10
215
 20
-205
 30
0.
  0
VERTEX
 8
L28
 10
212
 20
-214
 30
0.
  0
VERTEX
 8
L28
 10
211
 20
-220
 30
0.
  0
VERTEX
 8
L28
 10
215
 20
-213
 30
0.
  0
VERTEX
 8
L28
 10
219
 20
-202
 30
0.
  0
VERTEX
 8
L28
 10
221
 20
-192
 30
0.
  0
VERTEX
 8
L28
 10
220
 20
-182
 30
0.
  0
VERTEX
 8
L28
 10
217
 20
-171
 30
0.
  0
VERTEX
 8
L28
 10
213
 20
-162
 30
0.
  0
VERTEX
 8
L28
 10
210
 20
-153
 30
0.
  0
VERTEX
 8
L28
 10
210
 20
-148
 30
0.
  0
VERTEX
 8
L28
 10
212
 20
-147
 30
0.
  0
VERTEX
 8
L28
 10
219
 20
-148
 30
0.
  0
VERTEX
 8
L28
 10
218
 20
-145
 30
0.
  0
VERTEX
 8
L28
 10
217
 20
-142
 30
0.
  0
VERTEX
 8
L28
 10
212
 20
-144
 30
0.
  0
VERTEX
 8
L28
 10
209
 20
-146
 30
0.
  0
VERTEX
 8
L28
 10
207
 20
-150
 30
0.
  0
VERTEX
 8
L28
 10
206
 20
-155
 30
0.
  0
VERTEX
 8
L28
 10
206
 20
-155
 30
0.
  0
SEQEND
 8
L28
 999
********** Spline **********
  0
POLYLINE
 8
L28
 66
1
 70
17
 39
0
 40
0
 41
0
  0
VERTEX
 8
L28
 10
144
 20
-151
 30
0.
  0
VERTEX
 8
L28
 10
143
 20
-159
 30
0.
  0
VERTEX
 8
L28
 10
140
 20
-167
 30
0.
  0
VERTEX
 8
L28
 10
138
 20
-177
 30
0.
  0
VERTEX
 8
L28
 10
138
 20
-187
 30
0.
  0
VERTEX
 8
L28
 10
139
 20
-196
 30
0.
  0
VERTEX
 8
L28
 10
143
 20
-206
 30
0.
  0
VERTEX
 8
L28
 10
151
 20
-223
 30
0.
  0
VERTEX
 8
L28
 10
142
 20
-210
 30
0.
  0
VERTEX
 8
L28
 10
137
 20
-195
 30
0.
  0
VERTEX
 8
L28
 10
135
 20
-180
 30
0.
  0
VERTEX
 8
L28
 10
136
 20
-164
 30
0.
  0
VERTEX
 8
L28
 10
139
 20
-150
 30
0.
  0
VERTEX
 8
L28
 10
138
 20
-144
 30
0.
  0
VERTEX
 8
L28
 10
136
 20
-143
 30
0.
  0
VERTEX
 8
L28
 10
132
 20
-142
 30
0.
  0
VERTEX
 8
L28
 10
131
 20
-140
 30
0.
  0
VERTEX
 8
L28
 10
131
 20
-138
 30
0.
  0
VERTEX
 8
L28
 10
134
 20
-139
 30
0.
  0
VERTEX
 8
L28
 10
137
 20
-140
 30
0.
  0
VERTEX
 8
L28
 10
143
 20
-144
 30
0.
  0
VERTEX
 8
L28
 10
144
 20
-151
 30
0.
  0
VERTEX
 8
L28
 10
144
 20
-151
 30
0.
  0
SEQEND
 8
L28
 999
********** Spline **********
  0
POLYLINE
 8
L23
 66
1
 70
17
 39
0
 40
0
 41
0
  0
VERTEX
 8
L23
 10
223
 20
-157
 30
0.
  0
VERTEX
 8
L23
 10
226
 20
-170
 30
0.
  0
VERTEX
 8
L23
 10
228
 20
-184
 30
0.
  0
VERTEX
 8
L23
 10
227
 20
-196
 30
0.
  0
VERTEX
 8
L23
 10
226
 20
-202
 30
0.
  0
VERTEX
 8
L23
 10
223
 20
-206
 30
0.
  0
VERTEX
 8
L23
 10
226
 20
-194
 30
0.
  0
VERTEX
 8
L23
 10
226
 20
-180
 30
0.
  0
VERTEX
 8
L23
 10
224
 20
-166
 30
0.
  0
VERTEX
 8
L23
 10
219
 20
-155
 30
0.
  0
VERTEX
 8
L23
 10
221
 20
-156
 30
0.
  0
VERTEX
 8
L23
 10
223
 20
-157
 30
0.
  0
VERTEX
 8
L23
 10
223
 20
-157
 30
0.
  0
SEQEND
 8
L23
 999
********** Spline **********
  0
POLYLINE
 8
L4
 66
1
 70
17
 39
0
 40
0
 41
0
  0
VERTEX
 8
L4
 10
298
 20
-38
 30
0.
  0
VERTEX
 8
L4
 10
289
 20
-41
 30
0.
  0
VERTEX
 8
L4
 10
280
 20
-43
 30
0.
  0
VERTEX
 8
L4
 10
272
 20
-43
 30
0.
  0
VERTEX
 8
L4
 10
263
 20
-43
 30
0.
  0
VERTEX
 8
L4
 10
270
 20
-46
 30
0.
  0
VERTEX
 8
L4
 10
277
 20
-48
 30
0.
  0
VERTEX
 8
L4
 10
283
 20
-52
 30
0.
  0
VERTEX
 8
L4
 10
289
 20
-57
 30
0.
  0
VERTEX
 8
L4
 10
294
 20
-59
 30
0.
  0
VERTEX
 8
L4
 10
301
 20
-58
 30
0.
  0
VERTEX
 8
L4
 10
302
 20
-56
 30
0.
  0
VERTEX
 8
L4
 10
300
 20
-54
 30
0.
  0
VERTEX
 8
L4
 10
294
 20
-50
 30
0.
  0
VERTEX
 8
L4
 10
301
 20
-47
 30
0.
  0
VERTEX
 8
L4
 10
308
 20
-44
 30
0.
  0
VERTEX
 8
L4
 10
308
 20
-41
 30
0.
  0
VERTEX
 8
L4
 10
307
 20
-38
 30
0.
  0
VERTEX
 8
L4
 10
303
 20
-38
 30
0.
  0
VERTEX
 8
L4
 10
298
 20
-38
 30
0.
  0
VERTEX
 8
L4
 10
298
 20
-38
 30
0.
  0
SEQEND
 8
L4
 999
********** Spline **********
  0
POLYLINE
 8
L4
 66
1
 70
17
 39
0
 40
0
 41
0
  0
VERTEX
 8
L4
 10
126
 20
-397
 30
0.
  0
VERTEX
 8
L4
 10
126
 20
-399
 30
0.
  0
VERTEX
 8
L4
 10
126
 20
-400
 30
0.
  0
VERTEX
 8
L4
 10
128
 20
-400
 30
0.
  0
VERTEX
 8
L4
 10
129
 20
-399
 30
0.
  0
VERTEX
 8
L4
 10
131
 20
-405
 30
0.
  0
VERTEX
 8
L4
 10
133
 20
-407
 30
0.
  0
VERTEX
 8
L4
 10
135
 20
-408
 30
0.
  0
VERTEX
 8
L4
 10
136
 20
-403
 30
0.
  0
VERTEX
 8
L4
 10
138
 20
-400
 30
0.
  0
VERTEX
 8
L4
 10
142
 20
-400
 30
0.
  0
VERTEX
 8
L4
 10
146
 20
-406
 30
0.
  0
VERTEX
 8
L4
 10
147
 20
-409
 30
0.
  0
VERTEX
 8
L4
 10
150
 20
-410
 30
0.
  0
VERTEX
 8
L4
 10
153
 20
-405
 30
0.
  0
VERTEX
 8
L4
 10
155
 20
-401
 30
0.
  0
VERTEX
 8
L4
 10
158
 20
-399
 30
0.
  0
VERTEX
 8
L4
 10
163
 20
-402
 30
0.
  0
VERTEX
 8
L4
 10
164
 20
-405
 30
0.
  0
VERTEX
 8
L4
 10
164
 20
-408
 30
0.
  0
VERTEX
 8
L4
 10
157
 20
-410
 30
0.
  0
VERTEX
 8
L4
 10
149
 20
-411
 30
0.
  0
VERTEX
 8
L4
 10
140
 20
-411
 30
0.
  0
VERTEX
 8
L4
 10
131
 20
-410
 30
0.
  0
VERTEX
 8
L4
 10
127
 20
-408
 30
0.
  0
VERTEX
 8
L4
 10
125
 20
-405
 30
0.
  0
VERTEX
 8
L4
 10
126
 20
-397
 30
0.
  0
VERTEX
 8
L4
 10
126
 20
-397
 30
0.
  0
SEQEND
 8
L4
 999
********** Spline **********
  0
POLYLINE
 8
L29
 66
1
 70
17
 39
0
 40
0
 41
0
  0
VERTEX
 8
L29
 10
137
 20
-410
 30
0.
  0
VERTEX
 8
L29
 10
138
 20
-405
 30
0.
  0
VERTEX
 8
L29
 10
142
 20
-400
 30
0.
  0
VERTEX
 8
L29
 10
145
 20
-405
 30
0.
  0
VERTEX
 8
L29
 10
146
 20
-411
 30
0.
  0
VERTEX
 8
L29
 10
142
 20
-412
 30
0.
  0
VERTEX
 8
L29
 10
137
 20
-410
 30
0.
  0
VERTEX
 8
L29
 10
137
 20
-410
 30
0.
  0
SEQEND
 8
L29
 999
********** Spline **********
  0
POLYLINE
 8
L29
 66
1
 70
17
 39
0
 40
0
 41
0
  0
VERTEX
 8
L29
 10
155
 20
-410
 30
0.
  0
VERTEX
 8
L29
 10
155
 20
-405
 30
0.
  0
VERTEX
 8
L29
 10
158
 20
-400
 30
0.
  0
VERTEX
 8
L29
 10
161
 20
-404
 30
0.
  0
VERTEX
 8
L29
 10
164
 20
-408
 30
0.
  0
VERTEX
 8
L29
 10
160
 20
-410
 30
0.
  0
VERTEX
 8
L29
 10
155
 20
-410
 30
0.
  0
VERTEX
 8
L29
 10
155
 20
-410
 30
0.
  0
SEQEND
 8
L29
 999
********** Spline **********
  0
POLYLINE
 8
L29
 66
1
 70
17
 39
0
 40
0
 41
0
  0
VERTEX
 8
L29
 10
204
 20
-410
 30
0.
  0
VERTEX
 8
L29
 10
206
 20
-404
 30
0.
  0
VERTEX
 8
L29
 10
210
 20
-400
 30
0.
  0
VERTEX
 8
L29
 10
213
 20
-404
 30
0.
  0
VERTEX
 8
L29
 10
212
 20
-407
 30
0.
  0
VERTEX
 8
L29
 10
204
 20
-410
 30
0.
  0
VERTEX
 8
L29
 10
204
 20
-410
 30
0.
  0
SEQEND
 8
L29
 999
********** Spline **********
  0
POLYLINE
 8
L29
 66
1
 70
17
 39
0
 40
0
 41
0
  0
VERTEX
 8
L29
 10
191
 20
-410
 30
0.
  0
VERTEX
 8
L29
 10
194
 20
-403
 30
0.
  0
VERTEX
 8
L29
 10
196
 20
-403
 30
0.
  0
VERTEX
 8
L29
 10
199
 20
-405
 30
0.
  0
VERTEX
 8
L29
 10
200
 20
-409
 30
0.
  0
VERTEX
 8
L29
 10
199
 20
-410
 30
0.
  0
VERTEX
 8
L29
 10
191
 20
-410
 30
0.
  0
VERTEX
 8
L29
 10
191
 20
-410
 30
0.
  0
SEQEND
 8
L29
 999
********** Spline **********
  0
POLYLINE
 8
L29
 66
1
 70
17
 39
0
 40
0
 41
0
  0
VERTEX
 8
L29
 10
180
 20
-406
 30
0.
  0
VERTEX
 8
L29
 10
181
 20
-402
 30
0.
  0
VERTEX
 8
L29
 10
184
 20
-400
 30
0.
  0
VERTEX
 8
L29
 10
186
 20
-405
 30
0.
  0
VERTEX
 8
L29
 10
188
 20
-409
 30
0.
  0
VERTEX
 8
L29
 10
184
 20
-409
 30
0.
  0
VERTEX
 8
L29
 10
180
 20
-406
 30
0.
  0
VERTEX
 8
L29
 10
180
 20
-406
 30
0.
  0
SEQEND
 8
L29
 999
********** Spline **********
  0
POLYLINE
 8
L29
 66
1
 70
17
 39
0
 40
0
 41
0
  0
VERTEX
 8
L29
 10
126
 20
-406
 30
0.
  0
VERTEX
 8
L29
 10
126
 20
-402
 30
0.
  0
VERTEX
 8
L29
 10
129
 20
-400
 30
0.
  0
VERTEX
 8
L29
 10
131
 20
-408
 30
0.
  0
VERTEX
 8
L29
 10
129
 20
-409
 30
0.
  0
VERTEX
 8
L29
 10
126
 20
-406
 30
0.
  0
VERTEX
 8
L29
 10
126
 20
-406
 30
0.
  0
SEQEND
 8
L29
 999
********** Spline **********
  0
POLYLINE
 8
L29
 66
1
 70
17
 39
0
 40
0
 41
0
  0
VERTEX
 8
L29
 10
93
 20
-399
 30
0.
  0
VERTEX
 8
L29
 10
94
 20
-391
 30
0.
  0
VERTEX
 8
L29
 10
96
 20
-390
 30
0.
  0
VERTEX
 8
L29
 10
99
 20
-392
 30
0.
  0
VERTEX
 8
L29
 10
102
 20
-396
 30
0.
  0
VERTEX
 8
L29
 10
102
 20
-398
 30
0.
  0
VERTEX
 8
L29
 10
101
 20
-399
 30
0.
  0
VERTEX
 8
L29
 10
97
 20
-401
 30
0.
  0
VERTEX
 8
L29
 10
93
 20
-399
 30
0.
  0
VERTEX
 8
L29
 10
93
 20
-399
 30
0.
  0
SEQEND
 8
L29
 999
********** Spline **********
  0
POLYLINE
 8
L29
 66
1
 70
17
 39
0
 40
0
 41
0
  0
VERTEX
 8
L29
 10
109
 20
-397
 30
0.
  0
VERTEX
 8
L29
 10
112
 20
-389
 30
0.
  0
VERTEX
 8
L29
 10
114
 20
-388
 30
0.
  0
VERTEX
 8
L29
 10
117
 20
-390
 30
0.
  0
VERTEX
 8
L29
 10
118
 20
-394
 30
0.
  0
VERTEX
 8
L29
 10
116
 20
-396
 30
0.
  0
VERTEX
 8
L29
 10
109
 20
-397
 30
0.
  0
VERTEX
 8
L29
 10
109
 20
-397
 30
0.
  0
SEQEND
 8
L29
 999
********** Spline **********
  0
POLYLINE
 8
L29
 66
1
 70
17
 39
0
 40
0
 41
0
  0
VERTEX
 8
L29
 10
80
 20
-393
 30
0.
  0
VERTEX
 8
L29
 10
81
 20
-390
 30
0.
  0
VERTEX
 8
L29
 10
83
 20
-388
 30
0.
  0
VERTEX
 8
L29
 10
85
 20
-391
 30
0.
  0
VERTEX
 8
L29
 10
86
 20
-395
 30
0.
  0
VERTEX
 8
L29
 10
84
 20
-396
 30
0.
  0
VERTEX
 8
L29
 10
80
 20
-393
 30
0.
  0
VERTEX
 8
L29
 10
80
 20
-393
 30
0.
  0
SEQEND
 8
L29
 999
********** Spline **********
  0
POLYLINE
 8
L27
 66
1
 39
0
 40
0
 41
0
  0
VERTEX
 8
L27
 10
171
 20
-327
 30
0.
  0
VERTEX
 8
L27
 10
163
 20
-328
 30
0.
  0
VERTEX
 8
L27
 10
155
 20
-331
 30
0.
  0
VERTEX
 8
L27
 10
147
 20
-333
 30
0.
  0
VERTEX
 8
L27
 10
144
 20
-332
 30
0.
  0
VERTEX
 8
L27
 10
145
 20
-328
 30
0.
  0
VERTEX
 8
L27
 10
147
 20
-320
 30
0.
  0
VERTEX
 8
L27
 10
148
 20
-312
 30
0.
  0
VERTEX
 8
L27
 10
150
 20
-309
 30
0.
  0
VERTEX
 8
L27
 10
154
 20
-309
 30
0.
  0
VERTEX
 8
L27
 10
158
 20
-308
 30
0.
  0
VERTEX
 8
L27
 10
162
 20
-305
 30
0.
  0
SEQEND
 8
L27
  0
ENDSEC
  0
EOF
