/* XPM */
static char *albottom_xpm[] = {
/* columns rows colors chars-per-pixel */
"16 16 5 1",
"o c Black",
". c #FFFFFF",
"  c None",
"O c #000288",
"X c #868986",
/* pixels */
"                ",
"                ",
"                ",
"  ...           ",
"  .Xo           ",
"  .Xo           ",
"  .Xo       ... ",
"  .Xo       .Xo ",
"  .Xo       .Xo ",
"  .Xo  ...  .Xo ",
"  .Xo  .Xo  .Xo ",
"  .Xo  .Xo  .Xo ",
"  .Xo  .Xo  .Xo ",
"  .oo  .oo  .oo ",
" OOOOOOOOOOOOOOO",
"                "
};
