#define icdlnm_width 16
#define icdlnm_height 16
static unsigned char icdlnm_bits[] = {
   0x00, 0x78, 0x00, 0x48, 0x00, 0x48, 0x00, 0x78, 0x00, 0x10, 0x00, 0x10,
   0x00, 0x10, 0xfc, 0x1f, 0x04, 0x00, 0x04, 0x00, 0x04, 0x00, 0x04, 0x00,
   0x0f, 0x00, 0x09, 0x00, 0x09, 0x00, 0x0f, 0x00};


