#define icdslnm_width 16
#define icdslnm_height 16
static unsigned char icdslnm_bits[] = {
   0x00, 0x78, 0x00, 0x48, 0x00, 0x48, 0x00, 0x78, 0x00, 0x10, 0x00, 0x08,
   0x00, 0x04, 0xe0, 0x03, 0x10, 0x00, 0x08, 0x00, 0x06, 0x00, 0x02, 0x00,
   0x0f, 0x00, 0x09, 0x00, 0x09, 0x00, 0x0f, 0x00};

