#define iclink_width 16
#define iclink_height 16
static unsigned char iclink_bits[] = {
   0x00, 0x78, 0x00, 0x48, 0x00, 0x48, 0x00, 0x78, 0x00, 0x0c, 0x00, 0x06,
   0x00, 0x03, 0x80, 0x01, 0xc0, 0x00, 0x60, 0x00, 0x30, 0x00, 0x18, 0x00,
   0x0f, 0x00, 0x09, 0x00, 0x09, 0x00, 0x0f, 0x00};
