#define icmknode_width 16
#define icmknode_height 16
static unsigned char icmknode_bits[] = {
   0x00, 0x00, 0x00, 0x40, 0x00, 0x20, 0x00, 0x10, 0xf0, 0x0f, 0x10, 0x04,
   0x10, 0x04, 0x10, 0x04, 0x10, 0x04, 0x10, 0x04, 0xf0, 0x07, 0x10, 0x00,
   0x08, 0x00, 0x04, 0x00, 0x02, 0x00, 0x00, 0x00};
