/* XPM */
static char *randsrc_xpm[] = {
/* columns rows colors chars-per-pixel */
"32 32 3 1",
". c Black",
"X c #FFFFFF",
"  c None",
/* pixels */
"                                ",
"                                ",
"                                ",
"                                ",
"                                ",
"                                ",
"             ..............     ",
"            .XXXXXXXXXXXX..     ",
"           .XX...XX...XX.X.     ",
"          .XX...XX...XX.XX.     ",
"         .XX...XX...XX.XXX.     ",
"        .XXXXXXXXXXXX.XXXX.     ",
"        .............XXX.X.     ",
"        .XXXXXXXXXXX.XX..X.     ",
"        .X...XXXXXXX.X...X.     ",
"        .X...XXXXXXX.X...X.     ",
"        .X...XXXXXXX.X..XX.     ",
"        .XXXX...XXXX.X.XXX.     ",
"        .XXXX...XXXX.XXXXX.     ",
"        .XXXX...XXXX.XXXX.      ",
"        .XXXXXXX...X.XXX.       ",
"        .XXXXXXX...X.XX.        ",
"        .XXXXXXX...X.X.         ",
"        .XXXXXXXXXXX..          ",
"        .............           ",
"                                ",
"                                ",
"                                ",
"                                ",
"                                ",
"                                ",
"                                "
};
