/* XPM */
static char *field_xpm[] = {
/* columns rows colors chars-per-pixel */
"14 14 44 1",
"= c #C0BFBF",
"@ c #DEDDDD",
"9 c #13844E",
"$ c #2E9560",
"; c #5FAA74",
"# c #75B790",
"t c #64AE85",
"d c #97BD88",
"% c #258E58",
"5 c #82BD82",
"p c #89B881",
"w c #71B175",
"q c #71B176",
"- c #4A9B65",
"< c #508C73",
"8 c #9D9C9C",
", c #B4B3B3",
"u c #88B981",
"y c #3F9760",
"O c #B7B7B7",
"7 c #84BF84",
"  c None",
"3 c #ABCF98",
"2 c #ABCF99",
"0 c #62AA70",
"X c #B5B4B4",
"a c #418268",
"> c #98C690",
"o c #9F9E9E",
"+ c #C5C4C4",
"* c #D4D3D3",
"e c #13854E",
": c #B4D29D",
"i c #88B881",
"s c #058048",
"6 c #84BE84",
"1 c #56A770",
"g c #4D866F",
"4 c #9A9999",
"r c #A9A8A8",
"f c #82B57F",
". c #E0E0E0",
"& c #558E76",
"h c #218954",
/* pixels */
"              ",
"    .XooX.    ",
"   O+....+O   ",
"  O@.#$%&.@O  ",
" *=.-;:>;-.=* ",
" ,.<122231#., ",
" 4.$566675$.4 ",
" 8.90qqwq0e.o ",
" r.tyuipuya.r ",
" *=.s-df-s.=* ",
"  O@.gshg.@O  ",
"   O+....+O   ",
"    .XooX.    ",
"              "
};
