/* XPM */
static char *cascade_xpm[] = {
/* columns rows colors chars-per-pixel */
"16 16 52 1",
"O c #5180B1",
", c #90C6E8",
"q c #5B85B5",
"v c #99823B",
"p c #A38738",
"% c #688EBC",
"o c #4D7DAF",
"5 c #D3E5F4",
"t c #6B92BD",
"  c #4476AA",
"k c #A28838",
"l c #F2FBFF",
"u c #D5F3FF",
"2 c #B7D8EF",
"d c #EBFAFF",
"0 c #5683B3",
"> c #84C0E6",
"* c #6F94BF",
"g c #EEFBFF",
"y c #B28F34",
"$ c #638CB9",
"8 c #4D7CAE",
"= c None",
"x c #F1FCFF",
"7 c #4678AB",
"@ c #5A85B5",
"w c #5F89B7",
"- c #68B3E1",
"b c #8E7D3E",
"< c #9ECCEA",
"a c #98823B",
"X c #4979AC",
"i c #AC8C35",
"f c #EBF9FF",
"+ c #5682B3",
"1 c #ABD2ED",
"6 c #6F93BF",
": c #78BAE4",
"h c #EEFAFF",
"r c #688FBC",
"9 c #527FB0",
"c c #F1FBFF",
"4 c #CCE2F3",
"; c #6FB6E2",
". c #4677AB",
"j c #EFFBFF",
"# c #5F88B7",
"e c #648CB9",
"s c #8E7C3E",
"3 c #C3DEF1",
"z c #F2FCFF",
"& c #6C91BE",
/* pixels */
" .XoO+@#$%&*====",
"-;:>,<123456====",
" 7X890qwert6====",
"yuuuuuuuuuuy====",
"iu .XoO+@#$%&*==",
"pu-;:>,<123456==",
"au 7X890qwert6==",
"ssyuuuuuuuuuuy==",
"==iu .XoO+@#$%&*",
"==pu-;:>,<123456",
"==au 7X890qwert6",
"==ssyuuuuuuuuuuy",
"====iudfddfddddi",
"====pughgghghhjk",
"====aulzxczcxzzv",
"====sssssssssssb"
};
