/* XPM */
static char *compile_xpm[] = {
/* columns rows colors chars-per-pixel */
"16 16 63 1",
"y c #7389B2",
"e c #879CC0",
"z c #17325D",
"x c #919EB5",
"d c #A08644",
"4 c #AA8B40",
". c #B4903D",
"n c #8A7C4B",
": c #8095BB",
"9 c #F5F7FC",
"S c #B2BDCF",
"> c #748AB3",
"& c #D5B269",
"b c #E7EFF8",
"M c #86794B",
"u c #6D83AD",
"r c #8196BB",
"< c #F6F8FB",
"= c #F6F8FC",
"h c #9A8345",
"0 c #A48842",
"* c #AE8D3F",
"k c #EAF0F9",
"t c #7A8FB7",
"Z c #DEE8F7",
"A c #DEE8F8",
"C c #7D754E",
"q c #F2F5FB",
"@ c #F7F9FC",
"p c #A58942",
"i c #677DA9",
"  c None",
"5 c #F3F6FB",
"$ c #F8FAFC",
"B c #81774D",
"g c #ECF2FA",
"j c #958147",
"a c #9F8643",
"V c #E0EAF8",
"3 c #AE8C3F",
"s c #EFF3FA",
"6 c #F4F7FB",
"- c #91A5C7",
"2 c #D4B268",
"o c #D4B269",
"D c #7B744F",
"l c #AFB7C9",
"c c #C8CEDD",
"v c #8F7E49",
"; c #8A9EC2",
"w c #8DA2C4",
", c #6A80AB",
"% c #DABD7C",
"# c #F8F9FB",
"+ c #F8F9FC",
"N c #E2ECF7",
"f c #9A8445",
"m c #E5EDF9",
"1 c #E0C88F",
"8 c #F4F6FB",
"X c #F9FAFC",
"7 c #F4F6FC",
"O c #B18F3E",
/* pixels */
"                ",
"  .........     ",
"  .XXXXXXXo.    ",
"  O++@##$@%&O   ",
"  *=-;:>,<1%23  ",
"  456667689664  ",
"  0q-wertyuiqp  ",
"  assssssssssd  ",
"  fggggggggggh  ",
"  jklzxkxzcklzx ",
"  vbzczbczcbzcz ",
"  nmzczmczcmzcz ",
"  MNzczNczcNzcz ",
"  BVxzxVczcVxzx ",
"  CZZZZZZZZZAS  ",
"  DDDDDDDDDDDD  "
};
