/* XPM */
static char *cut_xpm[] = {
/* columns rows colors chars-per-pixel */
"16 16 14 1",
"% c #A0C1F0",
"o c #CFD9E8",
"* c #3A59A1",
"+ c #ADBBD3",
"  c None",
"# c #8696AD",
"= c #BDCBE0",
"O c #61656C",
"@ c #627BA9",
"X c #C8C8C8",
"$ c #868986",
"- c #007F81",
"& c #052862",
". c #9DA9BA",
/* pixels */
"                ",
"          .X    ",
"         oO+    ",
"         X@     ",
"         @#   + ",
"        oO. +$O ",
"  ###   .O.O@+o ",
" @% %@ $&*O+    ",
" @  +@#@O.o     ",
" *%+=*+.O+      ",
"  -*-  +O       ",
"       +@##     ",
"       @= %@    ",
"       @  +@    ",
"       *+=%*    ",
"        -*-     "
};
