/* XPM */
static char *exit_xpm[] = {
/* columns rows colors chars-per-pixel */
"16 16 50 1",
"w c #E5363E",
", c #E0615B",
"6 c #F3646B",
"x c #E02C34",
"4 c #D46574",
"u c #E53039",
"= c #CE6E5E",
"h c #C51827",
"p c #F24858",
"2 c #F47174",
"* c #F5817D",
"@ c #C95846",
"j c #F03F51",
"f c #C61928",
"y c #C72930",
"1 c #F37274",
"d c #C5202B",
"8 c #F3636A",
"7 c #F3636B",
"> c #F47374",
"0 c #C73D39",
"5 c #C73D3A",
"& c #F5807E",
"  c None",
"t c #E6363E",
"; c #C8473F",
"+ c #E3524F",
"c c #DF2C33",
"o c #D5887C",
"l c #DF9CA8",
"i c #F14858",
"O c #CA5846",
"e c #F25560",
"s c #F13F52",
"$ c #DCA6A0",
"k c #C51927",
"z c #C51325",
"a c #C6202C",
"q c #C73335",
"9 c #F4636B",
". c #E3C4C4",
"% c #C95043",
": c #F37375",
"g c #D82A2F",
"X c #CA5D49",
"< c #C9473E",
"3 c #C9473F",
"- c #F4807E",
"# c #CA5746",
"r c #F25460",
/* pixels */
"                ",
"                ",
"   .Xo     oX.  ",
"  .O+Oo   o@+#. ",
"  $%&*%=$=%-*%$ ",
"   o;:>,<,123o  ",
"    456789804   ",
"     qweertq    ",
"     yuippuy    ",
"    4asssssd4   ",
"   4fssghgsjk4  ",
"  lzsjz4l4zsjzl ",
"  .zxz4   4zcz. ",
"   .z4     4z.  ",
"                ",
"                "
};
