/* XPM */
static char *down_xpm[] = {
/* columns rows colors chars-per-pixel */
"12 12 13 1",
"X c #3C3C3C",
"& c #262626",
"@ c #444444",
"% c #535353",
"+ c #878687",
"  c None",
". c #747474",
"o c #4F4F4F",
"O c #6B6A6B",
"# c #A09FA0",
"= c #3A3A3A",
"* c #7E7E7E",
"$ c #C7C6C7",
/* pixels */
"            ",
"            ",
"     .XoO+  ",
"    .@#$    ",
"    X%      ",
"    &X      ",
"    &&      ",
" *X&&&&X*   ",
"  *X&&X*    ",
"   *==*     ",
"    **      ",
"            "
};
