/* XPM */
static char *file_xpm[] = {
/* columns rows colors chars-per-pixel */
"16 16 67 1",
"J c #7A84A8",
"D c #7A84A9",
"% c #D1A761",
"2 c #AAA388",
"= c #8799C1",
"l c #8C919B",
"- c #788AB5",
", c #DCBF85",
"q c #7B8EB8",
"b c #8092BA",
"> c #F5F4FA",
"y c #EEF0FA",
"S c #7E86A6",
"x c #DDE4F7",
"m c #687CA9",
"+ c #F6F5FA",
"p c #ECEDF9",
"6 c #F1F1FA",
"z c #868E9F",
"s c #989893",
"A c #D9E1F6",
"g c #E3E9F8",
"0 c #8294BD",
"w c #7385B1",
"C c #7D87A6",
"Z c #D7E1F6",
"5 c #F0F2FA",
"  c None",
"B c #DAE2F6",
"V c #DAE2F7",
"f c #929598",
"H c #7984A8",
"< c #D0A760",
"o c #D0A761",
"d c #E7EBF8",
"j c #8B919B",
"c c #8189A3",
"v c #DBE3F7",
"k c #E0E7F8",
"* c #F4F4FA",
"G c #7A85A8",
"F c #7A85A9",
"7 c #AAA488",
"O c #B4A981",
"; c #6478A5",
"8 c #A5A08B",
"# c #F7F5FA",
"@ c #F7F5FC",
"u c #9E9C8E",
"a c #9E9C8F",
"i c #EBEDF9",
"3 c #F0F1FA",
"h c #E4E9F8",
"9 c #EEF1FA",
"1 c #B0A684",
": c #566A9A",
"& c #B0A685",
"e c #6A7DAA",
"t c #5B6E9E",
"$ c #D5B373",
"X c #F8F6FC",
"M c #5E729F",
". c #B8AB7F",
"4 c #F1F2FA",
"N c #DBE2F6",
"r c #6176A4",
"n c #7586B3",
/* pixels */
"                ",
" ........       ",
" .XXXXXXo.      ",
" O+@#+@@$%.     ",
" &*=-;:>,$<1    ",
" 23454644447    ",
" 89=0qwerty8    ",
" uiipiiiiiia    ",
" sd=0qwertds    ",
" fghhhhhhghf    ",
" jk=0qwertkl    ",
" zxxxxxxxxxz    ",
" cv=bnmMNBVc    ",
" CZZAZAZAAZS    ",
" DFGHFGGHGDJ    ",
"                "
};
