/* XPM */
static char *folder_xpm[] = {
/* columns rows colors chars-per-pixel */
"16 16 30 1",
"$ c #D9B271",
"3 c #B87E32",
"o c #FFFFFF",
"q c #FFD274",
"% c #FFF5CC",
"4 c #B37930",
"< c #B87D32",
"7 c #FFDA87",
"6 c #FFDA88",
"5 c #FFDA89",
"0 c #FFD175",
"X c #B37026",
"  c None",
"+ c #F6DF96",
"@ c #ECD18B",
"* c #C38936",
"# c #E3C17D",
"& c #FFF1C2",
"= c #FFEBB3",
"- c #FFEBB4",
", c #BD8334",
": c #FFE5A4",
"> c #FFE5A5",
". c #C78B37",
"2 c #FFDF95",
"1 c #FFDF96",
"; c #BE8434",
"9 c #AF752F",
"8 c #B27930",
"O c #FAE99E",
/* pixels */
"                ",
"                ",
"                ",
"   ....         ",
"  XooooX        ",
" .OO+@#$.....   ",
" .%%%%%%%%%%%.  ",
" .&&&&&&&&&&&.  ",
" *=========-=*  ",
" ;:::::::::>:,  ",
" <111111111123  ",
" 4555555555678  ",
" 9000000000qq9  ",
"  99999999999   ",
"                ",
"                "
};
