/* XPM */
static char *tileh_xpm[] = {
/* columns rows colors chars-per-pixel */
"16 16 52 1",
"+ c #5180B1",
", c #90C6E8",
"q c #5B85B5",
"c c #99823B",
"s c #A38738",
"& c #688EBC",
"O c #4D7DAF",
"5 c #D3E5F4",
"t c #6B92BD",
". c #4476AA",
"h c #A28838",
"k c #F2FBFF",
"u c #D5F3FF",
"2 c #B7D8EF",
"p c #EBFAFF",
"0 c #5683B3",
"> c #84C0E6",
"= c #6F94BF",
"d c #EEFBFF",
"y c #B28F34",
"% c #638CB9",
"8 c #4D7CAE",
"  c None",
"z c #F1FCFF",
"7 c #4678AB",
"# c #5A85B5",
"w c #5F89B7",
"- c #68B3E1",
"b c #8E7D3E",
"< c #9ECCEA",
"j c #98823B",
"o c #4979AC",
"i c #AC8C35",
"a c #EBF9FF",
"@ c #5682B3",
"1 c #ABD2ED",
"6 c #6F93BF",
": c #78BAE4",
"f c #EEFAFF",
"r c #688FBC",
"9 c #527FB0",
"x c #F1FBFF",
"4 c #CCE2F3",
"; c #6FB6E2",
"X c #4677AB",
"g c #EFFBFF",
"$ c #5F88B7",
"e c #648CB9",
"v c #8E7C3E",
"3 c #C3DEF1",
"l c #F2FCFF",
"* c #6C91BE",
/* pixels */
"                ",
"  .XoO+@#$%&*=  ",
"  -;:>,<123456  ",
"  .7o890qwert6  ",
"  yuuuuuuuuuuy  ",
"  iupappappppi  ",
"  sudfddfdffgh  ",
"  .XoO+@#$%&*=  ",
"  -;:>,<123456  ",
"  .7o890qwert6  ",
"  yuuuuuuuuuuy  ",
"  iupappappppi  ",
"  sudfddfdffgh  ",
"  juklzxlxzllc  ",
"  vbbbbbbbbbbb  ",
"                "
};
