/* XPM */
static char * insbroth_xpm[] = {
"16 16 28 1",
" 	c None",
".	c #BFCBE2",
"+	c #7593C1",
"@	c #E3EBF2",
"#	c #6482B3",
"$	c #B2CED8",
"%	c #B2CFD8",
"&	c #B3CED8",
"*	c #6482B4",
"=	c #5D7BAE",
"-	c #309858",
";	c #E0E060",
">	c #289050",
",	c #207840",
"'	c #C0D060",
")	c #106838",
"!	c #A0B858",
"~	c #085828",
"{	c #80B050",
"]	c #005020",
"^	c #BFD0CD",
"/	c #94AB27",
"(	c #6E9530",
"_	c #E6E9A0",
":	c #447D34",
"<	c #B0C994",
"[	c #A1C3BD",
"}	c #004D18",
".+++++++.       ",
"+@@@@@@@+       ",
"#$%$$$&$*       ",
".=======.       ",
"           ---  ",
"           -;-  ",
" = = = = >>>;>>>",
" = = = = ,''''',",
" = = = = )))!)))",
"           ~{~  ",
"           ]]]  ",
"^///////^       ",
"(_______(       ",
":<<<<<<<:       ",
"[}}}}}}}[       ",
"                "};
