/* XPM */
static char * prepend_xpm[] = {
"16 16 34 1",
" 	c None",
".	c #309858",
"+	c #E0E060",
"@	c #289050",
"#	c #207840",
"$	c #C0D060",
"%	c #BFCBE2",
"&	c #7593C1",
"*	c #106838",
"=	c #A0B858",
"-	c #E3EBF2",
";	c #085828",
">	c #80B050",
",	c #6482B3",
"'	c #B2CED8",
")	c #B2CFD8",
"!	c #B3CED8",
"~	c #6482B4",
"{	c #005020",
"]	c #5D7BAE",
"^	c #BFD0CD",
"/	c #94AB27",
"(	c #6E9530",
"_	c #E6E9A0",
":	c #447D34",
"<	c #B0C994",
"[	c #A1C3BD",
"}	c #004D18",
"|	c #EAD7B6",
"1	c #BB9826",
"2	c #FEF5DA",
"3	c #AD861F",
"4	c #F9D268",
"5	c #A77E1C",
"           ...  ",
"           .+.  ",
"         @@@+@@@",
"         #$$$$$#",
"%&&&&&&&%***=***",
"&-------&  ;>;  ",
",')'''!'~  {{{  ",
"%]]]]]]]%       ",
"^///////^       ",
"(_______(       ",
":<<<<<<<:       ",
"[}}}}}}}[       ",
"|1111111|       ",
"122222221       ",
"344444443       ",
"|5555555|       "};
