/* XPM */
static char * inschi16_xpm[] = {
"16 16 31 1",
" 	c None",
".	c #B09047",
"+	c #FEFCDC",
"@	c #9C9672",
"#	c #FEFCCF",
"$	c #7387AE",
"%	c #687DA3",
"&	c #FEFCD0",
"*	c #F9FAFC",
"=	c #A2ADBE",
"-	c #17325D",
";	c #254373",
">	c #FEFCBD",
",	c #FEFCBE",
"'	c #AD8D46",
")	c #7F94BA",
"!	c #7288B1",
"~	c #FEFCAA",
"{	c #FEFCA9",
"]	c #FEFC98",
"^	c #FEFC97",
"/	c #309858",
"(	c #E0E060",
"_	c #289050",
":	c #207840",
"<	c #C0D060",
"[	c #106838",
"}	c #A0B858",
"|	c #085828",
"1	c #80B050",
"2	c #005020",
"          ......",
"          .++++.",
" @@@@@@   .#$%&.",
" @****@ =-;>,,,'",
" @*)!*@ - '~$%{'",
" @****;-- ']^^]'",
" @*)!*@ - ''''''",
" @****@ -       ",
" @@@@@@ - ......",
"        ///++++.",
"        /(/#$%&.",
"      ___(___,,'",
"      :<<<<<:%{'",
"      [[[}[[[^]'",
"        |1|'''''",
"        222     "};
