/* XPM */
static char *landscape_xpm[] = {
/* columns rows colors chars-per-pixel */
"32 32 122 2",
"(  c #F2F6FB",
"u  c #F7FAFC",
"i  c #F7FAFD",
"&  c #FCFEFE",
"-. c #8C7C4A",
"]  c #A9A5C0",
"[  c #968147",
"f  c #D9D9E4",
",. c #EBF2F8",
">. c #EBF2F9",
".. c #F0F6FA",
"B  c #42336E",
".  c #B4903D",
"|  c #B6B4CB",
"5  c #FAFBFD",
"H  c #241257",
"w  c #9D97B5",
"+  c #B2903E",
")  c #F3F7FA",
"q  c #F8FBFC",
"t  c #F8FBFD",
"8. c #7E744F",
"@. c #978246",
"~  c #D5D6E4",
"m  c #A18744",
"K  c #8C85A9",
"7  c #AB8C40",
"T  c #6E6491",
"o. c #E2E5EE",
"b  c #F6F8FC",
",  c #FBFCFD",
"<  c #FBFCFE",
"W  c #9A8346",
"d  c #A48842",
"R  c #50437A",
"%. c #EFF4F9",
"$. c #EFF4FA",
"D  c #F4F8FB",
"I  c #F4F8FC",
"#. c #937F48",
"V  c #8D86A9",
"q. c #7D754E",
"9. c #7D754F",
"C  c #6F6591",
"Z  c #6F6592",
"1  c #E3CE9E",
";  c #FCFDFD",
"#  c #FCFDFE",
"/  c #9A95B5",
"j  c #51447A",
"3. c #EBF1F8",
"_  c #7C749D",
"+. c #F0F5FA",
"n  c #F5F9FB",
"{  c #F0F5FB",
"z  c #F5F9FC",
"g  c #332363",
"S  c #9E8545",
"e  c #15024B",
"8  c #A88A41",
"X  c #B28F3E",
"   c None",
"s  c #F8FAFC",
"r  c #706692",
"o  c #FDFEFE",
"c  c #9B96B5",
"k  c #A18643",
"^  c #C6C6D8",
"=  c #B08F3E",
"2  c #AB8B40",
"<. c #ECF2F8",
";. c #ECF2F9",
"}  c #F1F6FA",
"O. c #F1F6FB",
"1. c #8B7C4A",
"J  c #5F5486",
"'  c #41336E",
"F  c #F4F7FB",
"0  c #F9FBFC",
"9  c #F9FBFD",
"!  c #F2F7FA",
"Q  c #F2F7FB",
"0. c #7D744E",
"O  c #D4B269",
"p  c #605586",
":. c #EBF3F9",
" . c #E1E5EE",
"4  c #FAFCFD",
"N  c #E6E9F0",
"3  c #FAFCFE",
"a  c #241357",
"U  c #9E8445",
"-  c #AD8D3F",
"h  c #8E86A9",
"6. c #7E754E",
"7. c #7E754F",
"P  c #B9B6CC",
"E  c #B9B6CD",
"2. c #887A4B",
"*  c #DABD7C",
"$  c #FDFDFD",
"%  c #FDFDFE",
"Y  c #9B95B5",
"@  c #B08E3E",
"X. c #F1F5FA",
"L  c #7D749E",
"x  c #F6F9FB",
"l  c #F6F9FC",
">  c #FBFDFD",
":  c #FBFDFE",
"y  c #A48942",
"v  c #D8D8E4",
"5. c #EAF1F8",
"*. c #EFF5F9",
"4. c #EAF1F9",
"&. c #EFF5FA",
"`  c #322362",
"M  c #BAB7CC",
"6  c #E0C88F",
"=. c #938047",
"G  c #E5E7EF",
"A  c #9C96B5",
/* pixels */
"    . . . . . . . . . . . . . . . . . . . . . . . . . .         ",
"    X o o o o o o o o o o o o o o o o o o o o o o o o O +       ",
"    @ # # # # # $ $ $ % % % & & & o o o & & & & & & & * O =     ",
"    - ; ; : : : > > > , , , > > > < < < : : : , , , # 1 * O -   ",
"    2 3 3 4 4 4 4 4 4 , , , 5 5 5 4 4 4 4 4 4 3 3 3 4 6 6 * O 7 ",
"    8 9 9 9 9 9 9 9 9 0 0 0 q w e e r 9 0 0 0 t t t 9 9 9 t q 8 ",
"    y u u u u u u u u i i i u p e e a u u u u u u u i s s u u d ",
"    y u u u u u u u u i i i f e e g e w u u u u u u i s s u u d ",
"    y u u u u u u u u i i i h e j h e j u u u u u u i s s u u d ",
"    k l l z z z l l l x x x g e c v e e v l l l l l l b n x x m ",
"    k l l z z z l l l x x M e e N l B e V l l l l l l b n x x m ",
"    k l l z z z l l l x x C e Z z l A e g l l l l l l b n x x m ",
"    S D D D D D D D D F G H e J K K L e e P F F F F F I I D D U ",
"    S D D D D D D D D F Y e e e e e e e e T F F F F F I I D D U ",
"    S D D D D D D D D F R e J E E E E K e H G F F F F I I D D U ",
"    W Q Q ! ! ! Q Q Q ~ e e ^ Q Q Q Q Q H e / Q Q Q Q Q ( Q ) W ",
"    W Q Q ! ! ! Q Q Q _ e ` Q Q Q Q Q Q T e ' Q Q Q Q Q ( Q ) W ",
"    W Q Q ! ! ! Q Q Q ` e _ Q Q Q Q Q Q ] e e ~ Q Q Q Q ( Q ) W ",
"    [ { { } } } { { { | |  .......X.X.X.X.| | o.X.X.O.+...} ..@.",
"    #.$.$.$.$.$.$.$.$.%.%.%.%.%.%.$.$.$.&.&.&.$.$.$.%.*.%.$.&.=.",
"    -.;.;.;.;.;.:.:.:.>.>.>.:.:.:.;.;.;.>.>.>.;.;.;.,.;.;.;.<.1.",
"    2.3.3.4.4.4.4.4.4.5.5.5.5.5.5.5.5.5.4.4.4.5.5.5.5.3.5.3.3.2.",
"    6.7.7.8.8.8.6.6.6.7.7.7.7.7.7.9.9.9.8.8.8.9.9.9.6.0.6.q.q.6.",
"                                                                ",
"                                                                ",
"                                                                ",
"                                                                ",
"                                                                ",
"                                                                ",
"                                                                ",
"                                                                ",
"                                                                "
};
