/* XPM */
static char *margins_xpm[] = {
/* columns rows colors chars-per-pixel */
"92 126 57 1",
"m c #7A84A9",
"3 c #AAA388",
"# c #8799C1",
"$ c #788AB5",
"; c #7B8EB8",
"8 c #8092BA",
"1 c #F5F4FA",
"r c #EEF0FA",
"j c #DDE4F7",
"0 c #687CA9",
"O c #F6F5FA",
"u c #ECEDF9",
"7 c #F1F1FA",
"h c #868E9F",
"i c #989893",
"n c #D9E1F6",
"s c #E3E9F8",
"- c #8294BD",
": c #7385B1",
"v c #7D87A6",
"b c #D7E1F6",
"6 c #F0F2FA",
"c c #DAE2F6",
"z c #DAE2F7",
"a c #929598",
"B c #7984A8",
"p c #E7EBF8",
"f c #8B919B",
"k c #8189A3",
"l c #DBE3F7",
"g c #E0E7F8",
"= c #F4F4FA",
"N c #7A85A8",
"M c #7A85A9",
"o c #B4A981",
"% c #6478A5",
"w c #A5A08B",
"@ c #F7F5FA",
"+ c #F7F5FC",
"t c #9E9C8E",
"y c #EBEDF9",
"4 c #F0F1FA",
"d c #E4E9F8",
"e c #EEF1FA",
"& c #566A9A",
"* c #B0A685",
"> c #6A7DAA",
"< c #5B6E9E",
". c #F8F6FC",
"q c #5E729F",
"  c #B8AB7F",
"5 c #F1F2FA",
"X c #BDBEC2",
"x c #DBE2F6",
", c #6176A4",
"2 c #F4F3FA",
"9 c #7586B3",
/* pixels */
"                                                                                            ",
"                                                                                            ",
"  .......X........................................................................X.......  ",
"  .......X........................................................................X.......  ",
"  .......X........................................................................X.......  ",
"  .......X........................................................................X.......  ",
"  .......X........................................................................X.......  ",
"  .......X........................................................................X.......  ",
"  .......X........................................................................X.......  ",
"  XXXXXXXXXXXXXXXXXXXXXXXXXXXXXXXXXXXXXXXXXXXXXXXXXXXXXXXXXXXXXXXXXXXXXXXXXXXXXXXXXXXXXXXX  ",
"  .......X........................................................................X.......  ",
"  .......X........................................................................X.......  ",
"ooOOOOOOOXOOOOOOOO++++++++@@@@@@@@OOOOOOOO++++++++++++++++++++++++++++++++++++++++X+++++++oo",
"ooOOOOOOOXOOOOOOOO++++++++@@@@@@@@OOOOOOOO++++++++++++++++++++++++++++++++++++++++X+++++++oo",
"ooOOOOOOOXOOOOOOOO++++++++@@@@@@@@OOOOOOOO++++++++++++++++++++++++++++++++++++++++X+++++++oo",
"ooOOOOOOOXOOOOOOOO++++++++@@@@@@@@OOOOOOOO++++++++++++++++++++++++++++++++++++++++X+++++++oo",
"ooOOOOOOOXOOOOOOOO++++++++@@@@@@@@OOOOOOOO++++++++++++++++++++++++++++++++++++++++X+++++++oo",
"ooOOOOOOOXOOOOOOOO++++++++@@@@@@@@OOOOOOOO++++++++++++++++++++++++++++++++++++++++X+++++++oo",
"ooOOOOOOOXOOOOOOOO########$$$$$$$$%%%%%%%%&&&&&&&&++++++++++++++++++++++++++++++++X+++++++oo",
"ooOOOOOOOXOOOOOOOO########$$$$$$$$%%%%%%%%&&&&&&&&++++++++++++++++++++++++++++++++X+++++++oo",
"ooOOOOOOOXOOOOOOOO++++++++@@@@@@@@OOOOOOOO++++++++++++++++++++++++++++++++++++++++X+++++++oo",
"ooOOOOOOOXOOOOOOOO++++++++@@@@@@@@OOOOOOOO++++++++++++++++++++++++++++++++++++++++X+++++++oo",
"**=======X========########--------;;;;;;;;::::::::>>>>>>>>,,,,,,,,<<<<<<<<11111111X1111111**",
"**=======X========########--------;;;;;;;;::::::::>>>>>>>>,,,,,,,,<<<<<<<<11111111X1111111**",
"**=======X========1111111111111112111111111111111111111111111111111111111111111111X1111111**",
"**=======X========1111111111111112111111111111111111111111111111111111111111111111X1111111**",
"**=======X========########--------;;;;;;;;::::::::>>>>>>>>,,,,,,,,<<<<<<<<11111111X1111111**",
"**=======X========########--------;;;;;;;;::::::::>>>>>>>>,,,,,,,,<<<<<<<<11111111X1111111**",
"**=======X========1111111111111112111111111111111111111111111111111111111111111111X1111111**",
"**=======X========1111111111111112111111111111111111111111111111111111111111111111X1111111**",
"**=======X========########--------;;;;;;;;::::::::>>>>>>>>,,,,,,,,<<<<<<<<11111111X1111111**",
"**=======X========########--------;;;;;;;;::::::::>>>>>>>>,,,,,,,,<<<<<<<<11111111X1111111**",
"334444444X444444445555555566666666555555557777777755555555555555555555555555555555X555555533",
"334444444X444444445555555566666666555555557777777755555555555555555555555555555555X555555533",
"334444444X44444444########888888889999999900000000qqqqqqqq555555555555555555555555X555555533",
"334444444X44444444########888888889999999900000000qqqqqqqq555555555555555555555555X555555533",
"334444444X444444445555555566666666555555557777777755555555555555555555555555555555X555555533",
"334444444X444444445555555566666666555555557777777755555555555555555555555555555555X555555533",
"334444444X444444445555555566666666555555557777777755555555555555555555555555555555X555555533",
"334444444X444444445555555566666666555555557777777755555555555555555555555555555555X555555533",
"334444444X444444445555555566666666555555557777777755555555555555555555555555555555X555555533",
"334444444X444444445555555566666666555555557777777755555555555555555555555555555555X555555533",
"wweeeeeeeXeeeeeeee########$$$$$$$$%%%%%%%%&&&&&&&&rrrrrrrrrrrrrrrrrrrrrrrrrrrrrrrrXrrrrrrrww",
"wweeeeeeeXeeeeeeee########$$$$$$$$%%%%%%%%&&&&&&&&rrrrrrrrrrrrrrrrrrrrrrrrrrrrrrrrXrrrrrrrww",
"wweeeeeeeXeeeeeeeerrrrrrrrrrrrrrrrrrrrrrrrrrrrrrrrrrrrrrrrrrrrrrrrrrrrrrrrrrrrrrrrXrrrrrrrww",
"wweeeeeeeXeeeeeeeerrrrrrrrrrrrrrrrrrrrrrrrrrrrrrrrrrrrrrrrrrrrrrrrrrrrrrrrrrrrrrrrXrrrrrrrww",
"wweeeeeeeXeeeeeeee########--------;;;;;;;;::::::::>>>>>>>>,,,,,,,,<<<<<<<<rrrrrrrrXrrrrrrrww",
"wweeeeeeeXeeeeeeee########--------;;;;;;;;::::::::>>>>>>>>,,,,,,,,<<<<<<<<rrrrrrrrXrrrrrrrww",
"wweeeeeeeXeeeeeeeerrrrrrrrrrrrrrrrrrrrrrrrrrrrrrrrrrrrrrrrrrrrrrrrrrrrrrrrrrrrrrrrXrrrrrrrww",
"wweeeeeeeXeeeeeeeerrrrrrrrrrrrrrrrrrrrrrrrrrrrrrrrrrrrrrrrrrrrrrrrrrrrrrrrrrrrrrrrXrrrrrrrww",
"wweeeeeeeXeeeeeeee########--------;;;;;;;;::::::::>>>>>>>>,,,,,,,,<<<<<<<<rrrrrrrrXrrrrrrrww",
"wweeeeeeeXeeeeeeee########--------;;;;;;;;::::::::>>>>>>>>,,,,,,,,<<<<<<<<rrrrrrrrXrrrrrrrww",
"ttyyyyyyyXyyyyyyyyyyyyyyyyuuuuuuuuyyyyyyyyyyyyyyyyyyyyyyyyyyyyyyyyyyyyyyyyyyyyyyyyXyyyyyyytt",
"ttyyyyyyyXyyyyyyyyyyyyyyyyuuuuuuuuyyyyyyyyyyyyyyyyyyyyyyyyyyyyyyyyyyyyyyyyyyyyyyyyXyyyyyyytt",
"ttyyyyyyyXyyyyyyyy########--------;;;;;;;;::::::::>>>>>>>>,,,,,,,,<<<<<<<<yyyyyyyyXyyyyyyytt",
"ttyyyyyyyXyyyyyyyy########--------;;;;;;;;::::::::>>>>>>>>,,,,,,,,<<<<<<<<yyyyyyyyXyyyyyyytt",
"ttyyyyyyyXyyyyyyyyyyyyyyyyuuuuuuuuyyyyyyyyyyyyyyyyyyyyyyyyyyyyyyyyyyyyyyyyyyyyyyyyXyyyyyyytt",
"ttyyyyyyyXyyyyyyyyyyyyyyyyuuuuuuuuyyyyyyyyyyyyyyyyyyyyyyyyyyyyyyyyyyyyyyyyyyyyyyyyXyyyyyyytt",
"ttyyyyyyyXyyyyyyyy########888888889999999900000000qqqqqqqqyyyyyyyyyyyyyyyyyyyyyyyyXyyyyyyytt",
"ttyyyyyyyXyyyyyyyy########888888889999999900000000qqqqqqqqyyyyyyyyyyyyyyyyyyyyyyyyXyyyyyyytt",
"ttyyyyyyyXyyyyyyyyyyyyyyyyuuuuuuuuyyyyyyyyyyyyyyyyyyyyyyyyyyyyyyyyyyyyyyyyyyyyyyyyXyyyyyyytt",
"ttyyyyyyyXyyyyyyyyyyyyyyyyuuuuuuuuyyyyyyyyyyyyyyyyyyyyyyyyyyyyyyyyyyyyyyyyyyyyyyyyXyyyyyyytt",
"iipppppppXppppppppppppppppppppppppppppppppppppppppppppppppppppppppppppppppppppppppXpppppppii",
"iipppppppXppppppppppppppppppppppppppppppppppppppppppppppppppppppppppppppppppppppppXpppppppii",
"iipppppppXppppppppppppppppppppppppppppppppppppppppppppppppppppppppppppppppppppppppXpppppppii",
"iipppppppXppppppppppppppppppppppppppppppppppppppppppppppppppppppppppppppppppppppppXpppppppii",
"iipppppppXpppppppp########$$$$$$$$%%%%%%%%&&&&&&&&ppppppppppppppppppppppppppppppppXpppppppii",
"iipppppppXpppppppp########$$$$$$$$%%%%%%%%&&&&&&&&ppppppppppppppppppppppppppppppppXpppppppii",
"iipppppppXppppppppppppppppppppppppppppppppppppppppppppppppppppppppppppppppppppppppXpppppppii",
"iipppppppXppppppppppppppppppppppppppppppppppppppppppppppppppppppppppppppppppppppppXpppppppii",
"iipppppppXpppppppp########--------;;;;;;;;::::::::>>>>>>>>,,,,,,,,<<<<<<<<ppppppppXpppppppii",
"iipppppppXpppppppp########--------;;;;;;;;::::::::>>>>>>>>,,,,,,,,<<<<<<<<ppppppppXpppppppii",
"aasssssssXssssssssddddddddddddddddddddddddddddddddddddddddddddddddssssssssddddddddXdddddddaa",
"aasssssssXssssssssddddddddddddddddddddddddddddddddddddddddddddddddssssssssddddddddXdddddddaa",
"aasssssssXssssssss########--------;;;;;;;;::::::::>>>>>>>>,,,,,,,,<<<<<<<<ddddddddXdddddddaa",
"aasssssssXssssssss########--------;;;;;;;;::::::::>>>>>>>>,,,,,,,,<<<<<<<<ddddddddXdddddddaa",
"aasssssssXssssssssddddddddddddddddddddddddddddddddddddddddddddddddssssssssddddddddXdddddddaa",
"aasssssssXssssssssddddddddddddddddddddddddddddddddddddddddddddddddssssssssddddddddXdddddddaa",
"aasssssssXssssssss########--------;;;;;;;;::::::::>>>>>>>>,,,,,,,,<<<<<<<<ddddddddXdddddddaa",
"aasssssssXssssssss########--------;;;;;;;;::::::::>>>>>>>>,,,,,,,,<<<<<<<<ddddddddXdddddddaa",
"aasssssssXssssssssddddddddddddddddddddddddddddddddddddddddddddddddssssssssddddddddXdddddddaa",
"aasssssssXssssssssddddddddddddddddddddddddddddddddddddddddddddddddssssssssddddddddXdddddddaa",
"ffgggggggXgggggggg########888888889999999900000000qqqqqqqqggggggggggggggggggggggggXgggggggff",
"ffgggggggXgggggggg########888888889999999900000000qqqqqqqqggggggggggggggggggggggggXgggggggff",
"ffgggggggXggggggggggggggggggggggggggggggggggggggggggggggggggggggggggggggggggggggggXgggggggff",
"ffgggggggXggggggggggggggggggggggggggggggggggggggggggggggggggggggggggggggggggggggggXgggggggff",
"ffgggggggXggggggggggggggggggggggggggggggggggggggggggggggggggggggggggggggggggggggggXgggggggff",
"ffgggggggXggggggggggggggggggggggggggggggggggggggggggggggggggggggggggggggggggggggggXgggggggff",
"ffgggggggXggggggggggggggggggggggggggggggggggggggggggggggggggggggggggggggggggggggggXgggggggff",
"ffgggggggXggggggggggggggggggggggggggggggggggggggggggggggggggggggggggggggggggggggggXgggggggff",
"ffgggggggXgggggggg########$$$$$$$$%%%%%%%%&&&&&&&&ggggggggggggggggggggggggggggggggXgggggggff",
"ffgggggggXgggggggg########$$$$$$$$%%%%%%%%&&&&&&&&ggggggggggggggggggggggggggggggggXgggggggff",
"hhjjjjjjjXjjjjjjjjjjjjjjjjjjjjjjjjjjjjjjjjjjjjjjjjjjjjjjjjjjjjjjjjjjjjjjjjjjjjjjjjXjjjjjjjhh",
"hhjjjjjjjXjjjjjjjjjjjjjjjjjjjjjjjjjjjjjjjjjjjjjjjjjjjjjjjjjjjjjjjjjjjjjjjjjjjjjjjjXjjjjjjjhh",
"hhjjjjjjjXjjjjjjjj########--------;;;;;;;;::::::::>>>>>>>>,,,,,,,,<<<<<<<<jjjjjjjjXjjjjjjjhh",
"hhjjjjjjjXjjjjjjjj########--------;;;;;;;;::::::::>>>>>>>>,,,,,,,,<<<<<<<<jjjjjjjjXjjjjjjjhh",
"hhjjjjjjjXjjjjjjjjjjjjjjjjjjjjjjjjjjjjjjjjjjjjjjjjjjjjjjjjjjjjjjjjjjjjjjjjjjjjjjjjXjjjjjjjhh",
"hhjjjjjjjXjjjjjjjjjjjjjjjjjjjjjjjjjjjjjjjjjjjjjjjjjjjjjjjjjjjjjjjjjjjjjjjjjjjjjjjjXjjjjjjjhh",
"hhjjjjjjjXjjjjjjjj########--------;;;;;;;;::::::::>>>>>>>>,,,,,,,,<<<<<<<<jjjjjjjjXjjjjjjjhh",
"hhjjjjjjjXjjjjjjjj########--------;;;;;;;;::::::::>>>>>>>>,,,,,,,,<<<<<<<<jjjjjjjjXjjjjjjjhh",
"hhjjjjjjjXjjjjjjjjjjjjjjjjjjjjjjjjjjjjjjjjjjjjjjjjjjjjjjjjjjjjjjjjjjjjjjjjjjjjjjjjXjjjjjjjhh",
"hhjjjjjjjXjjjjjjjjjjjjjjjjjjjjjjjjjjjjjjjjjjjjjjjjjjjjjjjjjjjjjjjjjjjjjjjjjjjjjjjjXjjjjjjjhh",
"kklllllllXllllllll########--------;;;;;;;;::::::::>>>>>>>>,,,,,,,,<<<<<<<<zzzzzzzzXzzzzzzzkk",
"kklllllllXllllllll########--------;;;;;;;;::::::::>>>>>>>>,,,,,,,,<<<<<<<<zzzzzzzzXzzzzzzzkk",
"kklllllllXlllllllllllllllllllllllzllllllllllllllllllllllllxxxxxxxxcccccccczzzzzzzzXzzzzzzzkk",
"kklllllllXlllllllllllllllllllllllzllllllllllllllllllllllllxxxxxxxxcccccccczzzzzzzzXzzzzzzzkk",
"kklllllllXllllllll########888888889999999900000000qqqqqqqqxxxxxxxxcccccccczzzzzzzzXzzzzzzzkk",
"kklllllllXllllllll########888888889999999900000000qqqqqqqqxxxxxxxxcccccccczzzzzzzzXzzzzzzzkk",
"kklllllllXlllllllllllllllllllllllzllllllllllllllllllllllllxxxxxxxxcccccccczzzzzzzzXzzzzzzzkk",
"kklllllllXlllllllllllllllllllllllzllllllllllllllllllllllllxxxxxxxxcccccccczzzzzzzzXzzzzzzzkk",
"kklllllllXlllllllllllllllllllllllzllllllllllllllllllllllllxxxxxxxxcccccccczzzzzzzzXzzzzzzzkk",
"kklllllllXlllllllllllllllllllllllzllllllllllllllllllllllllxxxxxxxxcccccccczzzzzzzzXzzzzzzzkk",
"vvbbbbbbbXbbbbbbbbbbbbbbbbnnnnnnnnbbbbbbbbnnnnnnnnbbbbbbbbnnnnnnnnnnnnnnnnbbbbbbbbXbbbbbbbvv",
"vvbbbbbbbXbbbbbbbbbbbbbbbbnnnnnnnnbbbbbbbbnnnnnnnnbbbbbbbbnnnnnnnnnnnnnnnnbbbbbbbbXbbbbbbbvv",
"vvbbbbbbbXbbbbbbbbbbbbbbbbnnnnnnnnbbbbbbbbnnnnnnnnbbbbbbbbnnnnnnnnnnnnnnnnbbbbbbbbXbbbbbbbvv",
"vvbbbbbbbXbbbbbbbbbbbbbbbbnnnnnnnnbbbbbbbbnnnnnnnnbbbbbbbbnnnnnnnnnnnnnnnnbbbbbbbbXbbbbbbbvv",
"vvXXXXXXXXXXXXXXXXXXXXXXXXXXXXXXXXXXXXXXXXXXXXXXXXXXXXXXXXXXXXXXXXXXXXXXXXXXXXXXXXXXXXXXXXvv",
"vvbbbbbbbXbbbbbbbbbbbbbbbbnnnnnnnnbbbbbbbbnnnnnnnnbbbbbbbbnnnnnnnnnnnnnnnnbbbbbbbbXbbbbbbbvv",
"vvbbbbbbbXbbbbbbbbbbbbbbbbnnnnnnnnbbbbbbbbnnnnnnnnbbbbbbbbnnnnnnnnnnnnnnnnbbbbbbbbXbbbbbbbvv",
"vvbbbbbbbXbbbbbbbbbbbbbbbbnnnnnnnnbbbbbbbbnnnnnnnnbbbbbbbbnnnnnnnnnnnnnnnnbbbbbbbbXbbbbbbbvv",
"vvbbbbbbbXbbbbbbbbbbbbbbbbnnnnnnnnbbbbbbbbnnnnnnnnbbbbbbbbnnnnnnnnnnnnnnnnbbbbbbbbXbbbbbbbvv",
"vvbbbbbbbXbbbbbbbbbbbbbbbbnnnnnnnnbbbbbbbbnnnnnnnnbbbbbbbbnnnnnnnnnnnnnnnnbbbbbbbbXbbbbbbbvv",
"vvbbbbbbbXbbbbbbbbbbbbbbbbnnnnnnnnbbbbbbbbnnnnnnnnbbbbbbbbnnnnnnnnnnnnnnnnbbbbbbbbXbbbbbbbvv",
"vvbbbbbbbXbbbbbbbbbbbbbbbbnnnnnnnnbbbbbbbbnnnnnnnnbbbbbbbbnnnnnnnnnnnnnnnnbbbbbbbbXbbbbbbbvv",
"mmMMMMMMMMMMMMMMMMNNNNNNNNBBBBBBBBMMMMMMMMNNNNNNNNNNNNNNNNBBBBBBBBNNNNNNNNmmmmmmmmmmmmmmmmmm",
"mmMMMMMMMMMMMMMMMMNNNNNNNNBBBBBBBBMMMMMMMMNNNNNNNNNNNNNNNNBBBBBBBBNNNNNNNNmmmmmmmmmmmmmmmmmm"
};
