/* XPM */
static char * menu_xpm[] = {
"16 16 39 1",
" 	c None",
".	c #5B6C89",
"+	c #5D6E8B",
"@	c #60708C",
"#	c #63748F",
"$	c #677792",
"%	c #6B7B95",
"&	c #6F7F99",
"*	c #73829B",
"=	c #77879F",
"-	c #7B8AA2",
";	c #7E8EA4",
">	c #8392A8",
",	c #90A0B0",
"'	c #FFFFFF",
")	c #8B9AAE",
"!	c #8797AC",
"~	c #C7D0DC",
"{	c #C7CFDC",
"]	c #8896AB",
"^	c #8392A7",
"/	c #7D8CA3",
"(	c #C2CBD8",
"_	c #C1CBD8",
":	c #76869E",
"<	c #77869E",
"[	c #707F99",
"}	c #BDC6D4",
"|	c #BDC5D4",
"1	c #BCC6D4",
"2	c #6F8098",
"3	c #6A7994",
"4	c #697A94",
"5	c #637490",
"6	c #B8C1D0",
"7	c #B8C1D1",
"8	c #B8C2D1",
"9	c #5F6F8C",
"0	c #5F708C",
"                ",
" ..+@#$%&*=-;>  ",
" ,'''''''''''>  ",
" ,,,,,,,,,,,,>  ",
"         )''')  ",
"         !~{~]  ",
"         ^'''^  ",
"         /(_(/  ",
"         :'''<  ",
"         [}|12  ",
"         3'''4  ",
"         5678#  ",
"         9'''0  ",
"         .....  ",
"                ",
"                "};
