/* XPM */
static char *new_xpm[] = {
/* columns rows colors chars-per-pixel */
"16 16 92 1",
"m c #F2F6FB",
"r c #F7FAFC",
"t c #F7FAFD",
"& c #FCFEFE",
"E c #8C7C4A",
"N c #968147",
"~ c #EBF2F8",
"! c #EBF2F9",
"Z c #F0F6FA",
". c #B4903D",
"5 c #FAFBFD",
"R c #8F7D49",
"+ c #B2903E",
"Y c #EEF3F9",
"M c #F3F7FA",
"T c #EEF3FA",
"n c #F3F7FB",
"q c #F8FBFC",
"w c #F8FBFD",
"[ c #7E744F",
"D c #978246",
"g c #A18744",
"7 c #AB8C40",
"d c #F6F8FC",
", c #FBFCFD",
"< c #FBFCFE",
"c c #9A8346",
"u c #A48842",
"H c #EFF4F9",
"G c #EFF4FA",
"j c #F4F8FB",
"l c #F4F8FC",
"F c #937F48",
"| c #7D754E",
"{ c #7D754F",
"1 c #E3CE9E",
"; c #FCFDFD",
"# c #FCFDFE",
") c #EBF1F8",
"C c #F0F5FA",
"f c #F5F9FB",
"B c #F0F5FB",
"a c #F5F9FC",
"h c #9E8545",
"8 c #A88A41",
"X c #B28F3E",
"  c None",
"y c #F8FAFC",
"o c #FDFEFE",
"i c #A18643",
"= c #B08F3E",
"2 c #AB8B40",
"^ c #ECF2F8",
"W c #ECF2F9",
"V c #F1F6FA",
"S c #F1F6FB",
"/ c #8B7C4A",
"k c #F4F7FB",
"0 c #F9FBFC",
"z c #F4F7FC",
"9 c #F9FBFD",
"I c #EDF3F9",
"b c #F2F7FA",
"U c #EDF3FA",
"v c #F2F7FB",
"} c #7D744E",
"O c #D4B269",
"Q c #EBF3F9",
"4 c #FAFCFD",
"3 c #FAFCFE",
"P c #8F7E49",
"x c #9E8445",
"- c #AD8D3F",
"' c #7E754E",
"] c #7E754F",
"( c #887A4B",
"* c #DABD7C",
"$ c #FDFDFD",
"% c #FDFDFE",
"@ c #B08E3E",
"A c #F1F5FA",
"s c #F6F9FB",
"p c #F6F9FC",
"> c #FBFDFD",
": c #FBFDFE",
"e c #A48942",
"` c #EAF1F8",
"K c #EFF5F9",
"_ c #EAF1F9",
"J c #EFF5FA",
"6 c #E0C88F",
"L c #938047",
/* pixels */
" ...........    ",
" XoooooooooO+   ",
" @##$%&o&&&*O=  ",
" -;:>,><:,#1*O- ",
" 2344,5443466*O7",
" 89990q90w999wq8",
" errrtrrrrtyyrru",
" ipapsappppdfssg",
" hjjjklzkkklljjx",
" cvbvvvvnvvvmvMc",
" NBVBCZAAASCZVZD",
" FGGGHHGJGHKHGJL",
" PIIUIIYIIITYIIR",
" EWWQ!QW!W~WWW^/",
" ()__```_``)`))(",
" '][']]{[{'}'||'"
};
