/* XPM */
static char * newbar_xpm[] = {
"16 16 20 1",
" 	c None",
".	c #5B6C89",
"+	c #5D6E8B",
"@	c #60708C",
"#	c #63748F",
"$	c #677792",
"%	c #6B7B95",
"&	c #90A0B0",
"*	c #FFFFFF",
"=	c #F6F7F9",
"-	c #309858",
";	c #E0E060",
">	c #289050",
",	c #207840",
"'	c #C0D060",
")	c #106838",
"!	c #A0B858",
"~	c #085828",
"{	c #80B050",
"]	c #005020",
"                ",
"..+@#$%..+@#$%..",
"&*****%&*****%&*",
"&**.**%&**.**%&*",
"&=.---%&*...*%&*",
"&**-;-%&**.**%&*",
"&>>>;>>>*****%&*",
"&,''''',&&&&&&&&",
" )))!)))        ",
"   ~{~          ",
"   ]]]          ",
"                ",
"                ",
"                ",
"                ",
"                "};
