/* XPM */
static char * newitm_xpm[] = {
"16 16 12 1",
" 	c None",
".	c #309858",
"+	c #E0E060",
"@	c #289050",
"#	c #000000",
"$	c #207840",
"%	c #C0D060",
"&	c #106838",
"*	c #A0B858",
"=	c #085828",
"-	c #80B050",
";	c #005020",
"  ...           ",
"  .+.           ",
"@@@+@@@ # # # # ",
"$%%%%%$         ",
"&&&*&&&       # ",
"  =-=           ",
"  ;;;         # ",
"                ",
"  #           # ",
"                ",
"  #           # ",
"                ",
"  #           # ",
"                ",
"  # # # # # # # ",
"                "};
