/* XPM */
static char * addbuf_xpm[] = {
"16 16 56 1",
" 	c None",
".	c #309858",
"+	c #4476AA",
"@	c #E0E060",
"#	c #5180B1",
"$	c #5682B3",
"%	c #5A85B5",
"&	c #5F88B7",
"*	c #638CB9",
"=	c #688EBC",
"-	c #6C91BE",
";	c #6F94BF",
">	c #289050",
",	c #ABD2ED",
"'	c #B7D8EF",
")	c #C3DEF1",
"!	c #CCE2F3",
"~	c #D3E5F4",
"{	c #6F93BF",
"]	c #207840",
"^	c #C0D060",
"/	c #5B85B5",
"(	c #5F89B7",
"_	c #648CB9",
":	c #688FBC",
"<	c #6B92BD",
"[	c #106838",
"}	c #A0B858",
"|	c #D5F3FF",
"1	c #B28F34",
"2	c #AC8C35",
"3	c #085828",
"4	c #80B050",
"5	c #EBFAFF",
"6	c #EBF9FF",
"7	c #A38738",
"8	c #005020",
"9	c #EEFBFF",
"0	c #EEFAFF",
"a	c #EFFBFF",
"b	c #A28838",
"c	c #98823B",
"d	c #F2FBFF",
"e	c #F2FCFF",
"f	c #F1FCFF",
"g	c #F1FBFF",
"h	c #99823B",
"i	c #8E7C3E",
"j	c #F5FDFF",
"k	c #F5FCFF",
"l	c #8E7D3E",
"m	c #857840",
"n	c #F8FEFF",
"o	c #F7FEFF",
"p	c #F8FDFF",
"q	c #7F7542",
"  ...           ",
" +.@.#$%&*=----;",
">>>@>>>,')!~~~~{",
"]^^^^^]/(_:<<<<{",
"[[[}[[[||||||||1",
" 234355655555552",
" 7888990900aaaab",
" c|defgegfeeeeeh",
" i|jkjkkjkkkkkkl",
" m|nonpnppnppppm",
" m|nonpnppnppppm",
" m|nonpnppnppppm",
" m|nonpnppnppppm",
" m|nonpnppnppppm",
" m|nonpnppnppppm",
" qqqqqqqqqqqqqqm"};
