/* XPM */
static char *nextwnd_xpm[] = {
/* columns rows colors chars-per-pixel */
"16 16 102 2",
"O  c #5180B1",
",  c #90C6E8",
"q  c #5B85B5",
"Z  c #F5FDFF",
"I  c #857840",
"V  c #99823B",
"f  c #A38738",
"A  c #A76C10",
"E  c #FDF6D5",
")  c #FDF0C2",
".. c #FDEAAF",
"N  c #FDF0C3",
"{  c #F8FEFF",
"M  c #FDEAB0",
"%  c #688EBC",
"o  c #4D7DAF",
"5  c #D3E5F4",
"$. c #B97F15",
"#. c #B47B14",
"!  c #FBE18E",
"D  c #AA7011",
"R  c #FBE49D",
"t  c #6B92BD",
"X. c #BC8316",
"@. c #7F7542",
"`  c #FEFAE4",
"[  c #FEFAE5",
"^  c #FEFDEF",
"   c #4476AA",
"x  c #A28838",
"'  c #FCE59D",
"v  c #F2FBFF",
"Q  c #BD8416",
"u  c #D5F3FF",
"2  c #B7D8EF",
"p  c #EBFAFF",
"0  c #5683B3",
"}  c #A96E10",
"S  c #A96E11",
">  c #84C0E6",
"*  c #6F94BF",
"d  c #B67D14",
"+. c #BB8116",
"g  c #EEFBFF",
"y  c #B28F34",
"$  c #638CB9",
"]  c #FDF5D4",
"O. c #F8FDFF",
"8  c #4D7CAE",
"=  c None",
"j  c #B47A13",
"s  c #B47A14",
"n  c #F1FCFF",
"Y  c #FBDD83",
"/  c #FBE08E",
"7  c #4678AB",
"L  c #BC8216",
"@  c #5A85B5",
"w  c #5F89B7",
"-  c #68B3E1",
"P  c #8E7D3E",
"<  c #9ECCEA",
"W  c #FEF9E5",
"c  c #98823B",
"X  c #4979AC",
"i  c #AC8C35",
"|  c #AB7011",
"~  c #FCF0C3",
"J  c #FCEAAF",
"o. c #F7FEFF",
"k  c #FCEAB0",
"l  c #B87F15",
"a  c #EBF9FF",
"+  c #5682B3",
"1  c #ABD2ED",
"6  c #6F93BF",
"%. c #B67C14",
"H  c #B17813",
":  c #78BAE4",
"h  c #EEFAFF",
"r  c #688FBC",
"9  c #527FB0",
" . c #AF7512",
"G  c #AF7513",
"(  c #FBE59D",
"m  c #F1FBFF",
"4  c #CCE2F3",
";  c #6FB6E2",
".  c #4677AB",
"z  c #EFFBFF",
"F  c #AD7212",
"#  c #5F88B7",
"e  c #648CB9",
"K  c #FEF5D4",
"_  c #FEF5D5",
"C  c #8E7C3E",
"B  c #BA8116",
"3  c #C3DEF1",
"b  c #F2FCFF",
"T  c #FCE08E",
"U  c #A66B10",
"&  c #6C91BE",
/* pixels */
"  . X o O + @ # $ % & & & & * = ",
"- ; : > , < 1 2 3 4 5 5 5 5 6 = ",
"  7 X 8 9 0 q w e r t t t t 6 = ",
"y u u u u u u u u u u u u u y = ",
"i u p a p p a p p s d p p p i = ",
"f u g h g g h g h j k l z z x = ",
"c u v b n m b m n j M N B b V = ",
"C u Z A S D F G H s J N K L P = ",
"I u U Y Y Y Y Y T R M N E W Q = ",
"I u U Y Y Y Y Y ! R k ~ E W ^ Q ",
"I u U Y Y Y Y Y / ( M ) _ ` ^ Q ",
"I u U Y Y Y Y Y T ' k ) ] [ Q = ",
"I u { A } | F  .H j ..N ] X.I = ",
"I u { o.{ O.{ O.O.s k N +.O.I = ",
"@.@.@.@.@.@.@.@.@.#...$.@.@.I = ",
"= = = = = = = = = s %.= = = = = "
};
