/* XPM */
static char *open_xpm[] = {
/* columns rows colors chars-per-pixel */
"16 16 28 1",
"@ c #F0D890",
"o c #FFFFFF",
"2 c #F8E098",
"> c #F8E0A0",
"3 c #A56C24",
"% c #D8B070",
"5 c #9E5F1D",
"; c #9E5F20",
"+ c #F8E898",
"- c #F8E8B0",
"  c None",
"6 c #F8D078",
"7 c #F8D080",
"& c #BC8532",
"$ c #E0C078",
"= c #BC7F32",
"8 c #8F5219",
"* c #F8F0C8",
"4 c #F8D888",
"1 c #F8D890",
": c #B47F32",
". c #C38B36",
"O c #C38536",
"9 c #9E6627",
"< c #AD722B",
"# c #E8D088",
", c #AD722F",
"X c #AD6C24",
/* pixels */
"                ",
"                ",
"                ",
"                ",
"  ....          ",
" XooooX         ",
"O++@#$%OOOOOO   ",
"&***********&   ",
"&***********&   ",
"=-----------;   ",
":>>>>,,,,,,,,,,,",
"<111,222222222#,",
"344,444444444#, ",
"56,777777777#,  ",
"8,666666666#,   ",
" 99999999999    "
};
