/* XPM */
static char *pasteu_xpm[] = {
/* columns rows colors chars-per-pixel */
"16 16 63 1",
"q c #F7F7F7",
"o c #969696",
"9 c #D2D2D2",
"w c #808080",
"s c #9E9E9E",
"e c #F8F8F8",
"# c #888888",
"z c #979797",
"< c #A6A6A6",
"b c #B5B5B5",
"j c #F1F1F1",
". c #9F9F9F",
"O c #BDBDBD",
"y c #CCCCCC",
"2 c #DBDBDB",
"V c #EAEAEA",
"7 c #F9F9F9",
": c #7A7A7A",
"h c #989898",
"* c #A7A7A7",
"D c #828282",
", c #A0A0A0",
"t c #CDCDCD",
"1 c #DCDCDC",
"B c #EBEBEB",
"- c #7B7B7B",
"p c #999999",
"r c #B7B7B7",
"i c #C6C6C6",
"+ c #D5D5D5",
"  c None",
"f c #F3F3F3",
"X c #BFBFBF",
"n c #ECECEC",
"A c #8B8B8B",
"; c #9A9A9A",
"a c #F4F4F4",
"@ c #939393",
"8 c #A2A2A2",
"M c #B1B1B1",
"g c #C0C0C0",
"m c #EDEDED",
"0 c #9B9B9B",
"5 c #D7D7D7",
"v c #949494",
"> c #A3A3A3",
"C c #C1C1C1",
"= c #DFDFDF",
"c c #EEEEEE",
"d c #8D8D8D",
"3 c #9C9C9C",
"% c #ABABAB",
"k c #BABABA",
"6 c #D8D8D8",
"u c #F6F6F6",
"S c #868686",
"N c #959595",
"4 c #A4A4A4",
"x c #EFEFEF",
"& c #7F7F7F",
"Z c #8E8E8E",
"$ c #ACACAC",
"l c #BBBBBB",
/* pixels */
"                ",
"      .XX.      ",
"     oOOOOo     ",
"  +@@#$%%$#&@+  ",
"  *=-;;;;;;:=>  ",
"  *==========,  ",
"  <1121333333@  ",
"  4556537777%3  ",
"  899990q$wer%0 ",
"  .tyyy0quuuuu; ",
"  3iiiipa$sdwfp ",
"  pgggghjjjjjjh ",
"  okkllzx$sdwcz ",
"  vbbbbonnmmnmo ",
"  @8MMMNBBBVVVN ",
"  CZASDvvvvvvvv "
};
