/* XPM */
static char *pgsetup_xpm[] = {
/* columns rows colors chars-per-pixel */
"16 16 74 1",
"; c #F7FAFC",
"Y c #5371A5",
"f c #D7E2F5",
". c #B4903D",
"# c #7B91BA",
"@ c #F0F3FA",
"9 c #C6C1A7",
"m c #D5E2F4",
"K c #DAE3ED",
"p c #E9EFF9",
"& c #6A82AD",
"8 c #F3F7FC",
"A c #657EB0",
"4 c #C9BF94",
"= c #ECF3F8",
"w c #DDC380",
"q c #F6F8F9",
"D c #5C7AAC",
"> c #EAF0F8",
"a c #EAF0F9",
"1 c #988346",
"P c #C5D4E6",
"G c #8E9CBA",
"X c #B18E3E",
"v c #556D9A",
", c #F7F9FC",
"6 c #917F48",
"e c #C8C3A9",
"H c #96A4BF",
"j c #D7E1F1",
"2 c #E6EDF8",
"y c #F0F5FB",
"M c #6583B4",
"T c #7492C4",
"  c None",
"0 c #F8FAFD",
"c c #889CC0",
"k c #6D8BBB",
"7 c #E2EAF7",
"r c #8B7C4A",
": c #9F8644",
"s c #BDBCB0",
"C c #D6E2F5",
"F c #EAEFF3",
"u c #BBB9AC",
"I c #9DADD0",
"+ c #AC8C40",
"b c #DEE7F7",
"- c #EDF3FA",
"$ c #738AB5",
"U c #5876A9",
"V c #D7E3F6",
"5 c #D2C192",
"l c #304D89",
"d c #85794C",
"3 c #F5F8FC",
"x c #DFE8F8",
"% c #6F87B1",
"o c #F3F5FA",
"z c #ABB1B5",
"B c #A6B0C1",
"L c #5977A9",
"* c #A68942",
"O c #B08E3E",
"Z c #9AB4DD",
"i c #ECF1F9",
"n c #81764E",
"g c #D6E4F4",
"h c #D6E4F5",
"< c #9F8544",
"N c #EFF2F4",
"t c #D9E5F5",
"J c #5A78AB",
"S c #7893C1",
/* pixels */
" ........       ",
" XooooooO       ",
" +@#$%&@+       ",
" *====-;*       ",
" :>#$%&,<       ",
" 122222344454   ",
" 67#$%&8900qwe  ",
" rttttyyui>pas  ",
" dfghjklzxcvbzlk",
" nmmmmMNBVCCCBNM",
"  ZASSDFGGGGGHFD",
"      JKKKKKKKKJ",
"      LPPPPPPPPL",
"      IUUUUUUUUI",
"       YTTTTTTY ",
"                "
};
