/* XPM */
static char *portrait_xpm[] = {
/* columns rows colors chars-per-pixel */
"32 32 128 2",
"H  c #F2F6FB",
"e  c #F7FAFC",
"I  c #E3E7EF",
"w  c #F7FAFD",
"$  c #FCFEFE",
"1. c #8C7C4A",
"T  c #968147",
"j  c #605486",
"5. c #EBF2F8",
"2. c #EBF2F9",
"E  c #F0F6FA",
".  c #B4903D",
")  c #B6B4CB",
"Q  c #6D6391",
"1  c #FAFBFD",
"&. c #D2D5E2",
"<. c #8F7D49",
"k  c #241257",
"+  c #B2903E",
">. c #EEF3F9",
"J  c #F3F7FA",
",. c #EEF3FA",
"D  c #F3F7FB",
"8  c #F8FBFC",
"0  c #F8FBFD",
"t. c #7E744F",
"^  c #978246",
"d  c #A18744",
"N  c #8C85A9",
"5  c #AB8C40",
"a  c #F6F8FC",
"=  c #FBFCFD",
";  c #FBFCFE",
"{  c #9994B5",
"C  c #9A8346",
"t  c #A48842",
"B  c #50437A",
" . c #7B739C",
"$. c #7B739D",
"|  c #EFF4F9",
"-. c #E0E5ED",
"X. c #EFF4FA",
"m  c #F4F8FB",
"x  c #F4F8FC",
".. c #322262",
"%. c #A6A3C0",
"}  c #937F48",
"u. c #7D754E",
"r. c #7D754F",
"h  c #6F6592",
",  c #E3CE9E",
">  c #FCFDFE",
"L  c #9A95B5",
"q. c #EBF1F8",
"R  c #F0F5FA",
"s  c #F5F9FB",
"i  c #F5F9FC",
"b  c #332362",
"V  c #332363",
"(  c #5E5385",
"l  c #9E8545",
"g  c #15024B",
"6  c #A88A41",
"X  c #B28F3E",
"   c None",
"r  c #F8FAFC",
"S  c #E4E7EF",
"o  c #FDFEFE",
"y  c #A18643",
"&  c #B08F3E",
"<  c #AB8B40",
"6. c #ECF2F8",
"4. c #ECF2F9",
"~  c #F1F6FA",
"!  c #F1F6FB",
"7. c #8B7C4A",
"U  c #5F5486",
"'  c #D3D5E3",
"_  c #8A84A8",
"F  c #41336E",
"O. c #6C6391",
"z  c #F4F7FB",
"7  c #F9FBFC",
"=. c #E0E4EE",
"c  c #F4F7FC",
"9  c #F9FBFD",
"v  c #D6D6E4",
":. c #EDF3F9",
"Z  c #F2F7FB",
"y. c #7D744E",
"O  c #D4B269",
"G  c #8B85A9",
"3. c #EBF3F9",
"]  c #C5C4D7",
"K  c #6D6491",
"2  c #FAFCFD",
"3  c #FAFCFE",
";. c #8F7E49",
"W  c #9894B4",
"/  c #4F437A",
"M  c #9E8445",
"*  c #AD8D3F",
"w. c #7E754E",
"e. c #7E754F",
"8. c #887A4B",
"%  c #DABD7C",
"#  c #FDFDFE",
"n  c #9B95B5",
"A  c #B7B6CC",
"@  c #B08E3E",
"Y  c #7D749D",
"[  c #F1F5FA",
"u  c #F6F9FB",
"p  c #F6F9FC",
"-  c #FBFDFD",
"`  c #E2E6EF",
":  c #FBFDFE",
"q  c #A48942",
"9. c #EAF1F8",
"@. c #EFF5F9",
"0. c #EAF1F9",
"o. c #EFF5FA",
"+. c #41326E",
"*. c #B5B3CB",
"P  c #322362",
"4  c #E0C88F",
"#. c #938047",
"f  c #9C96B5",
/* pixels */
"                    . . . . . . . . . . . . . . . . . .         ",
"                    X o o o o o o o o o o o o o o o o O +       ",
"                    @ # # # $ $ $ o o o $ $ $ $ $ $ $ % O &     ",
"                    * = = = - - - ; ; ; : : : = = = > , % O *   ",
"                    < = = = 1 1 1 2 2 2 2 2 2 3 3 3 2 4 4 % O 5 ",
"                    6 7 7 7 8 8 8 9 9 9 7 7 7 0 0 0 9 9 9 0 8 6 ",
"                    q w w w e e e e e e e e e e e e w r r e e t ",
"                    q w w w e e e e e e e e e e e e w r r e e t ",
"                    q w w w e e e e e e e e e e e e w r r e e t ",
"                    y u u u i i i p p p p p p p p p p a s u u d ",
"                    y u u u i i i p p f g g h p p p p a s u u d ",
"                    y u u u i i i p p j g g k p p p p a s u u d ",
"                    l z z z x x x c v g g b g n z z z x x m m M ",
"                    l z z z x x x c N g B N g B z z z x x m m M ",
"                    l z z z x x x c V g n v g g v z z x x m m M ",
"                    C Z Z Z Z Z Z A g g S D F g G Z Z Z H Z J C ",
"                    C Z Z Z Z Z Z K g K D D L g P Z Z Z H Z J C ",
"                    C Z Z Z Z Z I k g U G G Y g g A Z Z H Z J C ",
"                    T R R R E E W g g g g g g g g Q ! R E ~ E ^ ",
"                    T R R R E E / g ( ) ) ) ) _ g k ` R E ~ E ^ ",
"                    T R R R E ' g g ] [ [ [ [ [ k g { R E ~ E ^ ",
"                    } | | | |  .g ..X.X.o.o.o.X.O.g +.@.| X.o.#.",
"                    } | | | | ..g $.X.X.o.o.o.X.%.g g &.| X.o.#.",
"                    } | | | | *.*.=.X.X.o.o.o.X.X.*.*.-.| X.o.#.",
"                    ;.:.:.:.:.:.:.>.>.>.:.:.:.:.:.:.:.,.>.:.:.<.",
"                    ;.:.:.:.:.:.:.>.>.>.:.:.:.:.:.:.:.,.>.:.:.<.",
"                    ;.:.:.:.:.:.:.>.>.>.:.:.:.:.:.:.:.,.>.:.:.<.",
"                    1.2.2.2.3.3.3.4.4.4.2.2.2.4.4.4.5.4.4.4.6.7.",
"                    1.2.2.2.3.3.3.4.4.4.2.2.2.4.4.4.5.4.4.4.6.7.",
"                    1.2.2.2.3.3.3.4.4.4.2.2.2.4.4.4.5.4.4.4.6.7.",
"                    8.9.9.9.9.9.9.9.9.9.0.0.0.9.9.9.9.q.9.q.q.8.",
"                    w.e.e.e.e.e.e.r.r.r.t.t.t.r.r.r.w.y.w.u.u.w."
};
