/* XPM */
static char *postscript_xpm[] = {
/* columns rows colors chars-per-pixel */
"16 16 66 1",
": c #AFA781",
"8 c #DCE6F8",
"4 c #E1EAF9",
"q c #EBEFF3",
"w c #EBEFF4",
"m c #B7CAE3",
"# c #F5F7FC",
"% c #DAC27C",
"A c #7E9BCA",
"D c #7E9BCB",
"O c #D0AB5B",
"d c #9C9B8F",
"< c #A6B5D5",
"e c #ECF0F3",
"u c #E0E8F0",
"t c #708DBC",
"k c #C5D4E7",
"j c #C5D4E8",
"f c #989891",
"9 c #7391BF",
"c c #6482B3",
"r c #7391C0",
"x c #6986B6",
"p c #6C8ABA",
"> c #E6EDF9",
"- c #EBF1FA",
"= c #B7AB7C",
"b c #B7C9E3",
"2 c #A8A286",
"n c #B7C9E4",
"N c #607FB0",
"C c #607FB1",
"  c None",
"$ c #E4CF9D",
"X c #F8FAFC",
"H c #5978AA",
"h c #6887B7",
"F c #5978AB",
"g c #D3DEEC",
". c #C7B571",
"1 c #7593C1",
"3 c #E0EAF9",
"y c #E0E7F0",
"@ c #F4F7FB",
"z c #C5D3E7",
"l c #C5D3E8",
"+ c #C3B273",
"7 c #DCE7F8",
"0 c #EBF0F3",
"* c #F0F4FB",
"S c #7E9CCA",
"V c #607EB0",
"5 c #F3F5F6",
"6 c #A19D8A",
"a c #D3DDEC",
"; c #365592",
"& c #BDAF77",
"Z c #5C7BAD",
"i c #708EBD",
", c #E5EDF9",
"v c #B6C9E3",
"o c #F9FAFC",
"B c #5F7FB0",
"M c #6483B4",
"G c #5A78AB",
"s c #D4DEEC",
/* pixels */
"   .......      ",
"   .XooooO..    ",
"   +@@@@#$%O+   ",
"   &********&   ",
"   =-;;;-;;-=   ",
"   :>;,;,;,,:   ",
"<1;23;;;4;;42;1<",
"15567;8888;86551",
"90q67;888;;86wer",
"tyu6788888886uui",
"pasdffffffffdggp",
"hjklkjjjjllzlkzx",
"cvbvvvvvbnvbmbvM",
"NNBNVVNNNCBVVNNN",
"<ZASSASSDASDASZ<",
" <FGFFFFFHFHFF< "
};
