/* XPM */
static char *prevwnd_xpm[] = {
/* columns rows colors chars-per-pixel */
"16 16 100 2",
"+  c #5180B1",
",  c #90C6E8",
"q  c #5B85B5",
"Q  c #857840",
"B  c #99823B",
"f  c #A38738",
"J  c #A76C10",
"U  c #FDF6D5",
")  c #FDF0C2",
"}  c #FDEAAF",
"b  c #FDF0C3",
"o. c #F8FEFF",
"n  c #FDEAB0",
"&  c #688EBC",
"O  c #4D7DAF",
"5  c #D3E5F4",
"@. c #B47B14",
"+. c #B97F15",
"^  c #FBE18E",
"G  c #AA7011",
"Y  c #FBE49D",
"t  c #6B92BD",
"{  c #BC8316",
"O. c #7F7542",
"/  c #FEFAE4",
"'  c #FEFAE5",
"!  c #FEFDEF",
".  c #4476AA",
"x  c #A28838",
"[  c #FCE59D",
"P  c #BD8416",
"u  c #D5F3FF",
"2  c #B7D8EF",
"p  c #EBFAFF",
"0  c #5683B3",
".. c #A96E10",
"H  c #A96E11",
"K  c #F5FCFF",
">  c #84C0E6",
"=  c #6F94BF",
"s  c #B67D14",
"X. c #BB8116",
"g  c #EEFBFF",
"y  c #B28F34",
"%  c #638CB9",
"]  c #FDF5D4",
"W  c #F8FDFF",
"8  c #4D7CAE",
"   c None",
"k  c #B47A13",
"d  c #B47A14",
"N  c #F1FCFF",
"R  c #FBDD83",
"`  c #FBE08E",
"7  c #4678AB",
"C  c #BC8216",
"#  c #5A85B5",
"w  c #5F89B7",
"-  c #68B3E1",
"L  c #8E7D3E",
"<  c #9ECCEA",
"I  c #FEF9E5",
"c  c #98823B",
"o  c #4979AC",
"i  c #AC8C35",
" . c #AB7011",
"~  c #FCF0C3",
"A  c #FCEAAF",
"j  c #FCEAB0",
"h  c #B87F15",
"a  c #EBF9FF",
"@  c #5682B3",
"1  c #ABD2ED",
"6  c #6F93BF",
"#. c #B67C14",
"S  c #B17813",
":  c #78BAE4",
"l  c #EEFAFF",
"r  c #688FBC",
"9  c #527FB0",
"|  c #AF7512",
"D  c #AF7513",
"_  c #FBE59D",
"M  c #F1FBFF",
"4  c #CCE2F3",
";  c #6FB6E2",
"X  c #4677AB",
"z  c #EFFBFF",
"F  c #AD7212",
"$  c #5F88B7",
"e  c #648CB9",
"Z  c #FEF5D4",
"(  c #FEF5D5",
"V  c #8E7C3E",
"v  c #BA8116",
"3  c #C3DEF1",
"m  c #F2FCFF",
"E  c #A66B10",
"T  c #FCE08E",
"*  c #6C91BE",
/* pixels */
"  . X o O + @ # $ % & * * * * = ",
"  - ; : > , < 1 2 3 4 5 5 5 5 6 ",
"  . 7 o 8 9 0 q w e r t t t t 6 ",
"  y u u u u u u u u u u u u u y ",
"  i u p a s d a p p p p p p p i ",
"  f u g h j k l g l l z z z z x ",
"  c u v b n k m M N m m m m m B ",
"  V C Z b A d S D F G H J K K L ",
"  P I U b n Y T R R R R R E W Q ",
"P ! I U ~ j Y ^ R R R R R E W Q ",
"P ! / ( ) n _ ` R R R R R E W Q ",
"  P ' ] ) j [ T R R R R R E W Q ",
"  Q { ] b } k S | F  ...J W W Q ",
"  Q u X.b j d o.W W o.W W W W Q ",
"  O.O.O.+.} @.O.O.O.O.O.O.O.O.Q ",
"          #.d                   "
};
