/* XPM */
static char *prnsetup_xpm[] = {
/* columns rows colors chars-per-pixel */
"16 16 72 1",
"6 c #AFA781",
"d c #BC814D",
"u c #DCE6F8",
"w c #E1EAF9",
"p c #EBEFF4",
"Z c #B7CAE3",
"< c #FFFFFF",
"$ c #DAC27C",
"J c #7E9BCA",
"L c #7E9BCB",
"3 c #E6B863",
"% c #D0AB5B",
". c #9A6C5E",
"g c #9C9B8F",
"; c #888888",
"9 c #A6B5D5",
"a c #ECF0F3",
"h c #E0E8F0",
"t c #DC9B4D",
"b c #C5D4E7",
"v c #C5D4E8",
"* c #F5E183",
"f c #989891",
"N c #6482B3",
"s c #7391C0",
"M c #6986B6",
"k c #6C8ABA",
"1 c #EBF1FA",
"2 c #B7AB7C",
"V c #B7C9E3",
"e c #A8A286",
"C c #B7C9E4",
"S c #607FB0",
"G c #607FB1",
"  c None",
"U c #5978AA",
"c c #6887B7",
"P c #5978AB",
"x c #D3DEEC",
"# c #C7B571",
"q c #5E76A3",
"X c #5D4842",
"0 c #E1A756",
"= c #A19BA1",
"8 c #7593C1",
"y c #DBE6F7",
"m c #C5D3E7",
"n c #C5D3E8",
", c #EDCC73",
"& c #C3B273",
"O c #FBF192",
": c #F0F4FB",
"K c #7E9CCA",
"F c #607EB0",
"4 c #AFA8AF",
"r c #F3F5F6",
"i c #A19D8A",
"- c #606060",
"+ c #FFFF9C",
"l c #D3DDEC",
"7 c #365592",
"> c #BDAF77",
"H c #5C7BAD",
"j c #708EBD",
"5 c #E5EDF9",
"B c #B6C9E3",
"D c #5F7FB0",
"A c #6483B4",
"o c #B8AB9E",
"I c #5A78AB",
"z c #D4DEEC",
"@ c #72583B",
/* pixels */
"    .X.         ",
" .Xo.O.oX.      ",
" X+@XOX@+X##    ",
" o@OOOOO@o$%&   ",
"..X*=-;*X..:>   ",
"X,,,-<-,,,X12   ",
"..X34-43X..56789",
" o@00000@oqwerr8",
" Xt@XtX@tXyuipas",
" .Xo.d.oX.ffghhj",
" klz.X.xxllxxxxk",
" cvbnbvvvnnmnbmM",
" NBVBBBBVCBVZVBA",
" SSDSFFSSGDFFSSS",
" 9HJKKJKLJKLJKH9",
"  9PIPPPPUPUPP9 "
};
