/* XPM */
static char * project_xpm[] = {
"16 16 80 1",
" 	c None",
".	c #4476AA",
"+	c #4677AB",
"@	c #4979AC",
"#	c #4D7DAF",
"$	c #5180B1",
"%	c #5682B3",
"&	c #5A85B5",
"*	c #5F88B7",
"=	c #638CB9",
"-	c #688EBC",
";	c #6C91BE",
">	c #6F94BF",
",	c #68B3E1",
"'	c #6FB6E2",
")	c #78BAE4",
"!	c #84C0E6",
"~	c #90C6E8",
"{	c #9ECCEA",
"]	c #ABD2ED",
"^	c #B7D8EF",
"/	c #C3DEF1",
"(	c #CCE2F3",
"_	c #D3E5F4",
":	c #6F93BF",
"<	c #4678AB",
"[	c #4D7CAE",
"}	c #527FB0",
"|	c #5683B3",
"1	c #5B85B5",
"2	c #5F89B7",
"3	c #648CB9",
"4	c #688FBC",
"5	c #6B92BD",
"6	c #B28F34",
"7	c #D5F3FF",
"8	c #AC8C35",
"9	c #EBFAFF",
"0	c #A28838",
"a	c #EFFBFF",
"b	c #5C7AAC",
"c	c #B4903D",
"d	c #F2FCFF",
"e	c #99823B",
"f	c #B18E3E",
"g	c #F3F5FA",
"h	c #F5FCFF",
"i	c #8E7D3E",
"j	c #AC8C40",
"k	c #F0F3FA",
"l	c #7B91BA",
"m	c #738AB5",
"n	c #6F87B1",
"o	c #6A82AD",
"p	c #F8FDFF",
"q	c #857840",
"r	c #A68942",
"s	c #ECF3F8",
"t	c #EDF3FA",
"u	c #F7FAFC",
"v	c #9F8644",
"w	c #EAF0F8",
"x	c #F7F9FC",
"y	c #988346",
"z	c #E6EDF8",
"A	c #F5F8FC",
"B	c #917F48",
"C	c #E2EAF7",
"D	c #F3F7FC",
"E	c #8B7C4A",
"F	c #D9E5F5",
"G	c #D5E2F4",
"H	c #85794C",
"I	c #D7E2F5",
"J	c #D6E4F4",
"K	c #D6E4F5",
"L	c #D7E1F1",
"M	c #7F7542",
"N	c #9AB4DD",
"O	c #7893C1",
" .+@#$%&*=-;;;;>",
" ,')!~{]^/(____:",
" .<@[}|12345555:",
" 677777777777776",
" 879999999999998",
" 07aaaaaababbba0",
"ccccccccdbdbdbde",
"fggggggfhbhbbbhi",
"jklmnokjpppppppq",
"rssssturpbbbpbpq",
"vwlmnoxvpbpbpbpq",
"yzzzzzAypbbbpbpq",
"BClmnoDBpppppppq",
"EFFFFGGEpppppppq",
"HIJKLGGHMMMMMMMq",
"NNNOObbb        "};
