/* XPM */
static char *propert_xpm[] = {
/* columns rows colors chars-per-pixel */
"16 16 63 1",
"k c #EDEFFA",
"h c #EDEFFB",
"S c #877E68",
"@ c #035497",
"& c #FAF8FC",
"$ c #FAF8FD",
"N c #F0F0FC",
"o c #B9975B",
"= c #03457D",
"V c #E9ECF9",
"r c #F3F4FB",
", c #98C2E7",
"C c #E9ECFA",
"c c #928465",
"i c #F6F5FC",
"- c #FBF9FE",
"0 c #AE935E",
"< c #E5E6EB",
"v c #EAEDF9",
"b c #EAEDFA",
"d c #EFF1FB",
"s c #F4F5FC",
"1 c #F9F9FE",
"O c #EFEEF2",
"p c #F2F2FB",
"9 c #F7F6FC",
". c #C39E46",
"a c #A08B61",
"M c #8F8266",
"  c None",
"g c #EEEFFA",
"; c #F8F7FC",
"j c #EEEFFB",
"y c #F3F3FC",
": c #F8F7FD",
"D c #887E68",
"6 c #8D9AB9",
"X c #E2E4E9",
"q c #0388F8",
"x c #ECEFFB",
"* c #B5965C",
"# c #FBF8FD",
"f c #9A8862",
"t c #F4F4FB",
"% c #F9F8FC",
"B c #E8ECFA",
"8 c #8794B3",
"2 c #F7F5FC",
"4 c #9BA7C6",
"u c #A58E60",
"w c #F5F5FC",
"> c #B2945C",
"+ c #D3E3F8",
"A c #888068",
"7 c #8895B4",
"Z c #8B815B",
"z c #ECEEFA",
"5 c #95A1C1",
"e c #A9905F",
"n c #EAEEF9",
"m c #EAEEFA",
"3 c #9DA9C8",
"l c #988764",
/* pixels */
"                ",
"   .X.ooooooooo ",
"   O+@########o ",
" + +@+$$$%&$$$* ",
" =+=+-;;;;;;;:> ",
" ,=,<1234567890 ",
"  qO+@wwwwwwwwe ",
" + +@+rrtyyrrtu ",
" =+=+ip345678pa ",
" ,=q<sddddddddf ",
"  qO+@gghjjkkhl ",
" + +@+z345678xc ",
" =+=+vvvbnmvvmM ",
" ,=q<NBBVCVVVCM ",
"  qXXZAAAASAADD ",
"                "
};
