/* XPM */
static char *redou_xpm[] = {
/* columns rows colors chars-per-pixel */
"16 16 41 1",
"p c #696969",
"4 c #626262",
"1 c #BCBCBC",
"d c #CBCBCB",
". c #5B5B5B",
"& c #C4C4C4",
"e c #F1F1F1",
"< c #636363",
"3 c #CCCCCC",
"9 c #EAEAEA",
"X c #5C5C5C",
"y c #F2F2F2",
"7 c #646464",
"2 c #CDCDCD",
"0 c #EBEBEB",
"O c #5D5D5D",
"- c #999999",
"* c #B7B7B7",
"; c #C6C6C6",
"  c None",
"q c #656565",
"t c #A1A1A1",
"@ c #B0B0B0",
"% c #5E5E5E",
"5 c #9A9A9A",
"o c #C0C0C0",
"w c #CFCFCF",
"$ c #5F5F5F",
"> c #C8C8C8",
"6 c #D7D7D7",
"r c #676767",
"a c #949494",
"= c #606060",
", c #C9C9C9",
"i c #F6F6F6",
"u c #686868",
"8 c #B3B3B3",
"+ c #C2C2C2",
": c #616161",
"# c #7F7F7F",
"s c #ACACAC",
/* pixels */
"                ",
"        ..      ",
"        XoO     ",
"        O++O    ",
"     @#$%&&&$   ",
"   *=-;;;;;;;=  ",
"  *:>>>>>,,,>,: ",
"  <1223332232234",
" *5666666666667 ",
" 589091100999q  ",
" 5we8rrtryyer   ",
" uiwu   uiiu    ",
" pip    uip     ",
" pwa    pp      ",
" spd            ",
"                "
};
