/* XPM */
static char *redo_xpm[] = {
/* columns rows colors chars-per-pixel */
"16 16 62 1",
"> c #D7C798",
"M c #BB8216",
"a c #C3AB72",
"9 c #EED88B",
"f c #FDF9D9",
"k c #FDFCE6",
". c #A76C10",
"u c #FBF0B3",
"y c #FBF0B4",
"z c #B97F15",
"- c #FBE18D",
"3 c #AF7412",
"+ c #AA7011",
"o c #FBDE85",
"V c #BC8315",
"B c #BC8316",
"r c #B27813",
": c #AD7112",
"Z c #C2A966",
"n c #FEFDEF",
"p c #B57C14",
"g c #FCFAD9",
"< c #D4B65F",
"C c #BD8416",
"8 c #B37913",
"s c #DCCA8B",
"x c #CDB875",
"A c #D2BF86",
"O c #A96E11",
"m c #BB8115",
"* c #AC7212",
"v c #FDFBE6",
"e c #FBE99E",
"q c #FBE99F",
"  c None",
"1 c #FBE391",
"2 c #FBE392",
"@ c #FBE089",
"$ c #AA6F11",
"N c #BC8216",
"% c #CEBC93",
"d c #FCF9D9",
"S c #DED5B9",
", c #AE7412",
"= c #AC7111",
"i c #FBF1B4",
"l c #B98015",
"w c #FBE89E",
"0 c #FBE89F",
"5 c #FBE596",
"6 c #FBE597",
"; c #FBE28D",
"# c #FBDF89",
"h c #B77D14",
"X c #A86E11",
"j c #EADFB4",
"c c #FEFBE6",
"t c #C7AE6D",
"b c #BA8116",
"4 c #B07612",
"7 c #B07613",
"& c #B69649",
/* pixels */
"                ",
"        ..      ",
"        XoO     ",
"        +@#$    ",
"     %&*=--;:   ",
"   >,<11112213  ",
"  >455555666567 ",
"  890qwwwqqe0qwr",
" >tyyuiuyuiyyyp ",
" asdfg99ffdddh  ",
" ajkslzxlccvl   ",
" bnjm   mnnM    ",
" NnB    VnB     ",
" CjZ    CC      ",
" ACS            ",
"                "
};
