/* XPM */
static char * removbar_xpm[] = {
"16 16 58 1",
" 	c None",
".	c #5B6C89",
"+	c #5D6E8B",
"@	c #60708C",
"#	c #63748F",
"$	c #677792",
"%	c #6B7B95",
"&	c #90A0B0",
"*	c #FFFFFF",
"=	c #E3C4C4",
"-	c #CA5D49",
";	c #D5887C",
">	c #CA5846",
",	c #E3524F",
"'	c #C95846",
")	c #CA5746",
"!	c #DCA6A0",
"~	c #C95043",
"{	c #F5807E",
"]	c #F5817D",
"^	c #CE6E5E",
"/	c #F4807E",
"(	c #C8473F",
"_	c #F37375",
":	c #F47374",
"<	c #E0615B",
"[	c #C9473E",
"}	c #F37274",
"|	c #F47174",
"1	c #C9473F",
"2	c #D46574",
"3	c #C73D3A",
"4	c #F3646B",
"5	c #F3636B",
"6	c #F3636A",
"7	c #F4636B",
"8	c #C73D39",
"9	c #C73335",
"0	c #E5363E",
"a	c #F25560",
"b	c #F25460",
"c	c #E6363E",
"d	c #C72930",
"e	c #E53039",
"f	c #F14858",
"g	c #F24858",
"h	c #C6202C",
"i	c #F13F52",
"j	c #C5202B",
"k	c #C61928",
"l	c #D82A2F",
"m	c #C51827",
"n	c #F03F51",
"o	c #C51927",
"p	c #DF9CA8",
"q	c #C51325",
"r	c #E02C34",
"s	c #DF2C33",
"                ",
"..+@#$%..+@#$%..",
"&*****%&*****%&*",
"&**.**%&**.**%&*",
"&*..=-;&*...;-=*",
"&**=>,>;**.;',)=",
"&**!~{]~^!^~/]~!",
"&&&&;(_:<[<}|1;&",
"     234567682  ",
"      90aabc9   ",
"      defgged   ",
"     2hiiiiij2  ",
"    2kiilmlino2 ",
"   pqinq2p2qinqp",
"   =qrq2   2qsq=",
"    =q2     2q= "};
