/* XPM */
static char *clean_xpm[] = {
/* columns rows colors chars-per-pixel */
"14 12 70 1",
", c #C1D5D1",
"t c #C9DDC1",
"b c #A1C6D8",
"- c #C1D5D8",
"k c #2B7791",
"; c #C9DDC9",
"G c #81AEC9",
"3 c #6A8EB9",
"J c #0B5F99",
"o c #7296C1",
"l c #B9D5C1",
"% c #3A77A9",
"c c #1B6F91",
"< c #B9D5D8",
"O c #628EB9",
"4 c #6A96B9",
"u c #327791",
"& c #6A96C1",
"L c #6A96C9",
". c #4A7EB1",
"# c #3277A9",
"D c #729EC9",
"K c #5286B1",
"H c #7AA6B9",
"v c #7AA6C1",
"+ c #5286B9",
"Z c #7AA6C9",
"= c #B1D5E0",
"  c None",
"2 c #5A8EB9",
"r c #B1C6C1",
"5 c #6296B9",
"m c #B9CEC1",
"q c #99B6A9",
"@ c #427EB1",
"X c #D1D5E8",
"i c #99B6C1",
"6 c #4A86B1",
"z c #99B6C9",
"1 c #4A86B9",
"e c #A1BEB9",
"9 c #81A6A1",
"0 c #89AEA1",
"w c #3A7E91",
"p c #A9C6C9",
"g c #2B6F91",
"> c #D1DDB9",
"C c #B1CEC1",
"S c #3A7EA9",
": c #D1DDC1",
"h c #89AEC1",
"7 c #3A7EB1",
"$ c #2B6FA9",
"M c #89AEC9",
"P c #0B5799",
"* c #B1CEE8",
"N c #91B6D1",
"F c #135F99",
"f c #99BEC1",
"A c #91B6D8",
"x c #99BEC9",
"s c #C1D5B9",
"B c #1B6799",
"V c #99BED8",
"d c #A1C6C9",
"n c #236F91",
"a c #C1D5C9",
"y c #C9DDB9",
"8 c #3A8691",
"j c #A1C6D1",
/* pixels */
"     ....     ",
" XoO+@#$$%.OX ",
" &*=-;:>;,<*& ",
" X1123452671X ",
"  8908qq8098  ",
"  werwtywrew  ",
"  uipuasudfu  ",
"  ghjk,lgzxk  ",
"  cvbn<mnMNn  ",
"  B&VB<CBZAB  ",
"  S.DFGHJKLS  ",
"   SPPPPPPS   "
};
