/* XPM */
static char * repeat_xpm[] = {
"16 16 6 1",
" 	c None",
".	c #D7E1F1",
"+	c #9FA6B2",
"@	c #59739D",
"#	c #C5CEDD",
"$	c #4D5A5D",
"                ",
"                ",
"    .+@         ",
"   +@+#         ",
"  +@.           ",
" .@.        $   ",
" ++        $@$  ",
" @#       $@@@$ ",
" @#        #@   ",
" ++        ++   ",
" .@.      .@#   ",
"  +@.    .@+    ",
"   +@+##+@+     ",
"    .+@@+.      ",
"                ",
"                "};
