/* XPM */
static char *saveall_xpm[] = {
/* columns rows colors chars-per-pixel */
"16 16 65 1",
"o c #718386",
"M c #C8DCFA",
"k c #CDDAEA",
"g c #627DA9",
"2 c #F0F6F9",
"i c #B2C3DB",
"* c #8396A0",
"y c #6A85A7",
"b c #6581A8",
"a c #6581A9",
"d c #D5DFEC",
"4 c #D5DFED",
"v c #F8F8FC",
"6 c #84979F",
"- c #7F93A1",
"t c #C7D4E8",
"# c #FEFDFA",
"f c #BBCCE4",
"V c #A5B3AE",
"m c #C0D0E6",
"8 c #DEEBF6",
". c #CFD3D8",
"u c #7B90A2",
"D c #5D7BAA",
"F c #5D7BAB",
"q c #CDD9EA",
"< c #F0F5F9",
"1 c #F0F5FA",
"@ c #B7C3C6",
"0 c #DFECF5",
"7 c #DFECF6",
"% c #88999E",
"> c #88999F",
"h c #6F88A5",
"= c #E4EAF1",
"  c None",
"r c #E4CF9D",
"N c #C9DCF9",
"j c #CEDAEA",
"C c #617DAA",
"3 c #EFF6F9",
"O c #B1BDBF",
"Z c #BBCBE4",
"n c #C0CFE6",
"X c #8A9B9E",
"S c #B9C5D3",
"p c #C1D0E6",
"c c #C6D4E8",
"e c #E4E9F1",
"+ c #F3F5F6",
"B c #C9DBFA",
"z c #5E7BAA",
"G c #5E7BAB",
"; c #DDE5EF",
": c #7A90A3",
"5 c #758CA3",
"s c #758CA4",
"w c #7088A5",
"x c #6B84A7",
", c #EFF5FA",
"& c #EAEEF3",
"$ c #EFF2F5",
"9 c #DEECF6",
"l c #6480A8",
"A c #587591",
/* pixels */
"    .XXoOOOOoXX.",
"    X+@######@+X",
"  .XXoOOOOoXX.$%",
"  X+@######@+X&*",
".XXoOOOOoXX.$%=-",
"X+@######@+X&*;:",
">$X,<1231X$%=-45",
"6&X787790X&*;:qw",
"-eXrrrrrrX=-45ty",
"u;iXXXXXXi;:qwpa",
"sd4ddd44d445tyfg",
"hjkkllllqjqwpazz",
"xtclvvvrlctyfg  ",
"bnmlMNBVlnpazz  ",
"CfZlrrArlffg    ",
"SzDzFGzzzFzz    "
};
