/* XPM */
static char *save_xpm[] = {
/* columns rows colors chars-per-pixel */
"16 16 89 1",
"o c #718386",
"y c #DCE9F2",
"L c #BECEE5",
"F c #C3D2E6",
"0 c #E1EDF6",
"G c #C3D2E7",
"C c #C8D6E8",
"8 c #E1EDF7",
"Z c #C8D6E9",
"M c #6C85A6",
"s c #DCE3EF",
"= c #F0F3F5",
"k c #B2C3DA",
"l c #B2C3DB",
"> c #8396A0",
"` c #5B79AA",
"] c #5B79AB",
"j c #D5DFEC",
"h c #D5DFED",
"I c #97B2D9",
"f c #778EA3",
"R c #BACBE4",
"P c #BFCFE5",
"H c #F8F8FC",
"S c #6882A7",
"2 c #ECF3F8",
"1 c #ECF3F9",
"w c #E2E8F0",
"7 c #E7ECF2",
", c #ECF0F4",
"5 c #7F93A1",
"p c #DBE4EE",
"$ c #FEFDFA",
"! c #BBCCE4",
"Q c #A5B3AE",
"g c #738BA4",
"K c #647FA8",
". c #CFD3D8",
"- c #F7F9F9",
"J c #6783A7",
"q c #7B90A2",
"# c #B7C3C6",
"* c #F0F2F5",
"/ c #B7C9E3",
"+ c #88999E",
"% c #88999F",
"  c None",
"a c #E4CF9D",
"i c #778DA3",
"D c #C4D2E7",
"N c #C9D6E8",
"9 c #E2EDF7",
"B c #C9D6E9",
"b c #CEDAEA",
"n c #CEDAEB",
"< c #ECEFF4",
"r c #DBE9F2",
"A c #6B85A6",
"T c #617DA9",
"d c #DBE3EE",
"O c #B1BDBF",
"x c #CFDBEA",
"[ c #5A79AB",
"m c #CFDBEB",
"U c #8A9B9C",
"X c #8A9B9E",
"Y c #BECFE6",
"& c #85979F",
") c #B9C5D3",
"3 c #EBF3F8",
"e c #E1E8F0",
"6 c #E6ECF3",
"~ c #607EA9",
"' c #5B7AAA",
"_ c #5B7AAB",
"W c #B5CEF2",
"@ c #F3F5F6",
"E c #BACCE4",
": c #86989F",
"u c #7C90A2",
"^ c #5E7BAA",
"; c #F6F9F9",
"t c #DBE8F2",
"z c #7088A5",
"4 c #8295A0",
"V c #6480A8",
"v c #CFDAEA",
"c c #CFDAEB",
"( c #587591",
/* pixels */
"                ",
" .XXXoOOOOOoXXX.",
" +@@#$$$$$$$#@@%",
" &*=X----;--X*=:",
" >,<X1112311X,,4",
" 567X8888900X775",
" qweXrtrytyrXeeu",
" ippXaaaaaaaXsdf",
" ghjkXXXXXXXljhg",
" zxccxvbccccnmbz",
" MNBNBVVVVVNCZNA",
" SDFGVHHHHaVGGGJ",
" KLLPVIIIUUVPYLV",
" TRREVWWWQQVRR!~",
" ^///Vaaa(aV///^",
" )_`']]`[]''`]'`"
};
