/* XPM */
static char * stepout_xpm[] = {
"16 16 3 1",
" 	c None",
".	c #A26D15",
"+	c #010F48",
"                ",
"                ",
"                ",
"       .....    ",
"      .     .   ",
"     .       .  ",
" +++ . +++   .  ",
" ++  .  ++   .  ",
" ++  .  ++ .....",
" ++     ++  ... ",
"++       ++  .  ",
" ++     ++      ",
" ++     ++      ",
" ++     ++      ",
" +++   +++      ",
"                "};
