/* XPM */
static char * toolbar_xpm[] = {
"16 16 9 1",
" 	c None",
".	c #5B6C89",
"+	c #5D6E8B",
"@	c #60708C",
"#	c #63748F",
"$	c #677792",
"%	c #6B7B95",
"&	c #90A0B0",
"*	c #FFFFFF",
"                ",
"..+@#$%..+@#$%..",
"&*****%&*****%&*",
"&**.**%&**.**%&*",
"&*...*%&*...*%&*",
"&**.**%&**.**%&*",
"&*****%&*****%&*",
"&&&&&&&&&&&&&&&&",
"                ",
"                ",
"                ",
"                ",
"                ",
"                ",
"                ",
"                "};
