/* XPM */
static char *undou_xpm[] = {
/* columns rows colors chars-per-pixel */
"16 16 41 1",
"p c #696969",
"< c #626262",
"3 c #BCBCBC",
"s c #CBCBCB",
". c #5B5B5B",
"# c #C4C4C4",
"e c #F1F1F1",
"4 c #636363",
"1 c #CCCCCC",
"9 c #EAEAEA",
"O c #5C5C5C",
"r c #F2F2F2",
"5 c #646464",
"2 c #CDCDCD",
"0 c #EBEBEB",
"X c #5D5D5D",
"- c #999999",
"; c #B7B7B7",
"= c #C6C6C6",
"  c None",
"8 c #656565",
"t c #A1A1A1",
"& c #B0B0B0",
"$ c #5E5E5E",
"7 c #9A9A9A",
"o c #C0C0C0",
"y c #CFCFCF",
"@ c #5F5F5F",
", c #C8C8C8",
"6 c #D7D7D7",
"w c #676767",
"a c #949494",
"* c #606060",
"> c #C9C9C9",
"i c #F6F6F6",
"u c #686868",
"q c #B3B3B3",
"+ c #C2C2C2",
": c #616161",
"% c #7F7F7F",
"d c #ACACAC",
/* pixels */
"                ",
"      ..        ",
"     XoO        ",
"    X++X        ",
"   @###$@%&     ",
"  *=======-*;   ",
" :>,>>>,,,,,:;  ",
"<1221221112234  ",
" 5666666666667; ",
"  89990033909q7 ",
"   werrwtwwqey7 ",
"    uiiu   uyiu ",
"     piu    pip ",
"      pp    ayp ",
"            spd ",
"                "
};
