/* XPM */
static char *undo_xpm[] = {
/* columns rows colors chars-per-pixel */
"16 16 62 1",
"3 c #D7C798",
"b c #BB8216",
"h c #C3AB72",
"e c #EED88B",
"d c #FDF9D9",
"c c #FDFCE6",
". c #A76C10",
"i c #FBF0B3",
"y c #FBF0B4",
"x c #B97F15",
"* c #FBE18D",
"> c #AF7412",
"$ c #AA7011",
"o c #FBDE85",
"B c #BC8315",
"N c #BC8316",
"8 c #B27813",
"% c #AD7112",
"Z c #C2A966",
"n c #FEFDEF",
"t c #B57C14",
"f c #FCFAD9",
"1 c #D4B65F",
"C c #BD8416",
"r c #B37913",
"g c #DCCA8B",
"z c #CDB875",
"S c #D2BF86",
"X c #A96E11",
"m c #BB8115",
"- c #AC7212",
"k c #FDFBE6",
"w c #FBE99E",
"0 c #FBE99F",
"  c None",
", c #FBE391",
"< c #FBE392",
"# c #FBE089",
"+ c #AA6F11",
"V c #BC8216",
": c #CEBC93",
"s c #FCF9D9",
"A c #DED5B9",
"2 c #AE7412",
"= c #AC7111",
"u c #FBF1B4",
"j c #B98015",
"9 c #FBE89E",
"q c #FBE89F",
"6 c #FBE596",
"5 c #FBE597",
"& c #FBE28D",
"@ c #FBDF89",
"a c #B77D14",
"O c #A86E11",
"v c #EADFB4",
"l c #FEFBE6",
"p c #C7AE6D",
"M c #BA8116",
"7 c #B07612",
"4 c #B07613",
"; c #B69649",
/* pixels */
"                ",
"      ..        ",
"     XoO        ",
"    +@#$        ",
"   %&**=-;:     ",
"  >,<<,,,,123   ",
" 4565556666673  ",
"890qw009990qer  ",
" tyyyuiyiuiyyp3 ",
"  asssddeefdsgh ",
"   jklljzxjgcvh ",
"    bnnm   mvnM ",
"     NnB    NnV ",
"      CC    ZvC ",
"            ACS ",
"                "
};
