/* XPM */
static char *tilev_xpm[] = {
/* columns rows colors chars-per-pixel */
"16 16 44 1",
"+ c #5180B1",
"- c #90C6E8",
"3 c #5B85B5",
"p c #F5FDFF",
"s c #857840",
"0 c #A38738",
"d c #F8FEFF",
"O c #4D7DAF",
"h c #7F7542",
". c #4476AA",
"r c #F2FBFF",
"6 c #D5F3FF",
"8 c #EBFAFF",
"2 c #5683B3",
"a c #F5FCFF",
"= c #84C0E6",
"q c #EEFBFF",
"5 c #B28F34",
"$ c #638CB9",
"g c #F8FDFF",
"< c #4D7CAE",
"  c None",
"y c #F1FCFF",
", c #4678AB",
"# c #5A85B5",
"% c #68B3E1",
"; c #9ECCEA",
"e c #98823B",
"o c #4979AC",
"7 c #AC8C35",
"f c #F7FEFF",
"9 c #EBF9FF",
"@ c #5682B3",
": c #ABD2ED",
"* c #78BAE4",
"w c #EEFAFF",
"1 c #527FB0",
"u c #F1FBFF",
"& c #6FB6E2",
"X c #4677AB",
"4 c #648CB9",
"i c #8E7C3E",
"> c #C3DEF1",
"t c #F2FCFF",
/* pixels */
"                ",
"                ",
"                ",
".XoO+@#.XoO+@#$ ",
"%&*=-;:%&*=-;:> ",
".,o<123.,o<1234 ",
"566666656666665 ",
"768988976898897 ",
"06qwqqw06qwqqw0 ",
"e6rtyute6rtyute ",
"i6papaai6papaai ",
"s6dfdgds6dfdgds ",
"hhhhhhhhhhhhhhh ",
"                ",
"                ",
"                "
};
