/* XPM */
static char * workspac_xpm[] = {
"16 16 84 1",
" 	c None",
".	c #4476AA",
"+	c #4677AB",
"@	c #4979AC",
"#	c #4D7DAF",
"$	c #5180B1",
"%	c #5682B3",
"&	c #5A85B5",
"*	c #5F88B7",
"=	c #638CB9",
"-	c #688EBC",
";	c #6C91BE",
">	c #6F94BF",
",	c #68B3E1",
"'	c #6FB6E2",
")	c #78BAE4",
"!	c #84C0E6",
"~	c #90C6E8",
"{	c #9ECCEA",
"]	c #ABD2ED",
"^	c #B7D8EF",
"/	c #C3DEF1",
"(	c #CCE2F3",
"_	c #D3E5F4",
":	c #6F93BF",
"<	c #4678AB",
"[	c #4D7CAE",
"}	c #527FB0",
"|	c #5683B3",
"1	c #5B85B5",
"2	c #5F89B7",
"3	c #648CB9",
"4	c #688FBC",
"5	c #6B92BD",
"6	c #B4903D",
"7	c #D5F3FF",
"8	c #B28F34",
"9	c #B18E3E",
"0	c #F3F5FA",
"a	c #EBFAFF",
"b	c #AC8C35",
"c	c #AC8C40",
"d	c #F0F3FA",
"e	c #7B91BA",
"f	c #738AB5",
"g	c #6F87B1",
"h	c #6A82AD",
"i	c #EEFBFF",
"j	c #EEFAFF",
"k	c #EFFBFF",
"l	c #A28838",
"m	c #A68942",
"n	c #ECF3F8",
"o	c #F2FCFF",
"p	c #99823B",
"q	c #9F8644",
"r	c #EAF0F8",
"s	c #F5FCFF",
"t	c #8E7D3E",
"u	c #988346",
"v	c #E6EDF8",
"w	c #F8FDFF",
"x	c #857840",
"y	c #917F48",
"z	c #E2EAF7",
"A	c #EDF3FA",
"B	c #F7FAFC",
"C	c #8B7C4A",
"D	c #D9E5F5",
"E	c #F7F9FC",
"F	c #85794C",
"G	c #D7E2F5",
"H	c #D6E4F4",
"I	c #D6E4F5",
"J	c #F5F8FC",
"K	c #9AB4DD",
"L	c #7893C1",
"M	c #F3F7FC",
"N	c #867B47",
"O	c #F8FEFF",
"P	c #D5E2F4",
"Q	c #7F7542",
"R	c #D7E1F1",
"S	c #5C7AAC",
" .+@#$%&*=-;;;;>",
" ,')!~{]^/(____:",
" .<@[}|12345555:",
"6666666677777778",
"90000009aaaaaaab",
"cdefghdcijjkkkkl",
"mnnn66666666ooop",
"qref90000009ssst",
"uvvvcdefghdcwwwx",
"yzefmnnnnABmwwwx",
"CDDDqrefghEqwwwx",
"FGHIuvvvvvJuwwwx",
"KKKLyzefghMywwwx",
" N7OCDDDDPPCwwwx",
" QQQFGHIRPPFQQQx",
"    KKKLLSSS    "};
