/* XPM */
static char * compile_xpm[] = {
"32 32 62 1",
" 	c None",
".	c #B8AB7F",
"+	c #F8F6FC",
"@	c #D0A761",
"#	c #B4A981",
"$	c #F6F5FA",
"%	c #F7F5FC",
"&	c #F7F5FA",
"*	c #D5B373",
"=	c #D1A761",
"-	c #B0A685",
";	c #F4F4FA",
">	c #8799C1",
",	c #788AB5",
"'	c #6478A5",
")	c #566A9A",
"!	c #F5F4FA",
"~	c #DCBF85",
"{	c #D0A760",
"]	c #B0A684",
"^	c #AAA388",
"/	c #F0F1FA",
"(	c #F1F2FA",
"_	c #F0F2FA",
":	c #F1F1FA",
"<	c #AAA488",
"[	c #A5A08B",
"}	c #EEF1FA",
"|	c #8294BD",
"1	c #7B8EB8",
"2	c #7385B1",
"3	c #6A7DAA",
"4	c #6176A4",
"5	c #5B6E9E",
"6	c #EEF0FA",
"7	c #9E9C8E",
"8	c #EBEDF9",
"9	c #ECEDF9",
"0	c #9E9C8F",
"a	c #989893",
"b	c #E7EBF8",
"c	c #919EB5",
"d	c #17325D",
"e	c #929598",
"f	c #E3E9F8",
"g	c #E4E9F8",
"h	c #8B919B",
"i	c #E0E7F8",
"j	c #868E9F",
"k	c #DDE4F7",
"l	c #8189A3",
"m	c #DBE3F7",
"n	c #DAE2F7",
"o	c #7D87A6",
"p	c #D7E1F6",
"q	c #7E86A6",
"r	c #D9E1F6",
"s	c #7A84A9",
"t	c #7A85A9",
"u	c #7A85A8",
"v	c #7984A8",
"w	c #7A84A8",
"                                ",
"                                ",
" ................               ",
" ................               ",
" ..++++++++++++@@..             ",
" ..++++++++++++@@..             ",
" ##$$%%&&$$%%%%**==..           ",
" ##$$%%&&$$%%%%**==..           ",
" --;;>>,,''))!!~~**{{]]         ",
" --;;>>,,''))!!~~**{{]]         ",
" ^^//((__((::((((((((<<         ",
" ^^//((__((::((((((((<<         ",
" [[}}>>||112233445566[[         ",
" [[}}>>||112233445566[[         ",
" 7788889988888888888800         ",
" 7788889988888888888800         ",
" aabbbbbbbbbbbbbbbbbbaa         ",
" aabbccddccbccddbbbccddcc       ",
" eeffcddddcgcdddgggcddddc       ",
" eeffddggddgggddgggddggdd       ",
" hhiiddiiddiiiddiiiddiidd       ",
" hhiiddiiddiiiddiiiddiidd       ",
" jjkkddkkddkkkddkkkddkkdd       ",
" jjkkddkkddkkkddkkkddkkdd       ",
" llmmcddddcnnnddnnncddddc       ",
" llmmccddccnnnddnnnccddcc       ",
" ooppppppppppppppppppqq         ",
" ooppprrpprpprrpprrppqq         ",
" ssttuuvvttuuuuvvuussww         ",
" ssttuuvvttuuuuvvuussww         ",
"                                ",
"                                "};
