/* XPM */
static char *copy_xpm[] = {
/* columns rows colors chars-per-pixel */
"32 32 67 1",
"J c #7A84A8",
"S c #7A84A9",
"- c #D1A761",
"; c #AAA388",
"& c #8799C1",
"x c #8C919B",
"* c #788AB5",
"3 c #DCBF85",
"r c #7B8EB8",
"b c #8092BA",
"2 c #F5F4FA",
"p c #EEF0FA",
"H c #7E86A6",
"z c #DDE4F7",
"B c #687CA9",
"O c #F6F5FA",
"e c #ECEDF9",
"9 c #F1F1FA",
"l c #868E9F",
"a c #989893",
"M c #D9E1F6",
"g c #E3E9F8",
"8 c #8294BD",
"t c #7385B1",
"n c #7D87A6",
"m c #D7E1F6",
", c #F0F2FA",
"  c None",
"Z c #DAE2F6",
"A c #DAE2F7",
"f c #929598",
"G c #7984A8",
"4 c #D0A760",
"# c #D0A761",
"s c #E7EBF8",
"j c #8B919B",
"c c #8189A3",
"v c #DBE3F7",
"k c #E0E7F8",
"% c #F4F4FA",
"F c #7A85A8",
"D c #7A85A9",
"0 c #AAA488",
"o c #B4A981",
"< c #6478A5",
"6 c #A5A08B",
"@ c #F7F5FA",
"+ c #F7F5FC",
"q c #9E9C8E",
"d c #9E9C8F",
"w c #EBEDF9",
": c #F0F1FA",
"h c #E4E9F8",
"7 c #EEF1FA",
"5 c #B0A684",
"1 c #566A9A",
"$ c #B0A685",
"y c #6A7DAA",
"i c #5B6E9E",
"= c #D5B373",
"X c #F8F6FC",
"V c #5E729F",
". c #B8AB7F",
"> c #F1F2FA",
"C c #DBE2F6",
"u c #6176A4",
"N c #7586B3",
/* pixels */
"  ................              ",
"  ................              ",
"  ..XXXXXX................      ",
"  ..XXXXXX................      ",
"  ooOO++@@..XXXXXXXXXXXX##..    ",
"  ooOO++@@..XXXXXXXXXXXX##..    ",
"  $$%%&&**ooOO++@@OO++++==--..  ",
"  $$%%&&**ooOO++@@OO++++==--..  ",
"  ;;::>>,,$$%%&&**<<112233==4455",
"  ;;::>>,,$$%%&&**<<112233==4455",
"  6677&&88;;::>>,,>>99>>>>>>>>00",
"  6677&&88;;::>>,,>>99>>>>>>>>00",
"  qqwwwwee6677&&88rrttyyuuiipp66",
"  qqwwwwee6677&&88rrttyyuuiipp66",
"  aass&&88qqwwwweewwwwwwwwwwwwdd",
"  aass&&88qqwwwweewwwwwwwwwwwwdd",
"  ffgghhhhaass&&88rrttyyuuiissaa",
"  ffgghhhhaass&&88rrttyyuuiissaa",
"  jjkk&&88ffgghhhhhhhhhhhhgghhff",
"  jjkk&&88ffgghhhhhhhhhhhhgghhff",
"  llzzzzzzjjkk&&88rrttyyuuiikkxx",
"  llzzzzzzjjkk&&88rrttyyuuiikkxx",
"  ccvv&&bbllzzzzzzzzzzzzzzzzzzll",
"  ccvv&&bbllzzzzzzzzzzzzzzzzzzll",
"  nnmmmmMMccvv&&bbNNBBVVCCZZAAcc",
"  nnmmmmMMccvv&&bbNNBBVVCCZZAAcc",
"  SSDDFFGGnnmmmmMMmmMMmmMMMMmmHH",
"  SSDDFFGGnnmmmmMMmmMMmmMMMMmmHH",
"          SSDDFFGGDDFFFFGGFFSSJJ",
"          SSDDFFGGDDFFFFGGFFSSJJ",
"                                ",
"                                "
};
