/* XPM */
static char *cut_xpm[] = {
/* columns rows colors chars-per-pixel */
"32 32 14 1",
"% c #A0C1F0",
"o c #CFD9E8",
"* c #3A59A1",
"+ c #ADBBD3",
"  c None",
"# c #8696AD",
"= c #BDCBE0",
"O c #61656C",
"@ c #627BA9",
"X c #C8C8C8",
"$ c #868986",
"- c #007F81",
"& c #052862",
". c #9DA9BA",
/* pixels */
"                                ",
"                                ",
"                    ..XX        ",
"                    ..XX        ",
"                  ooOO++        ",
"                  ooOO++        ",
"                  XX@@          ",
"                  XX@@          ",
"                  @@##      ++  ",
"                  @@##      ++  ",
"                ooOO..  ++$$OO  ",
"                ooOO..  ++$$OO  ",
"    ######      ..OO..OO@@++oo  ",
"    ######      ..OO..OO@@++oo  ",
"  @@%%  %%@@  $$&&**OO++        ",
"  @@%%  %%@@  $$&&**OO++        ",
"  @@    ++@@##@@OO..oo          ",
"  @@    ++@@##@@OO..oo          ",
"  **%%++==**++..OO++            ",
"  **%%++==**++..OO++            ",
"    --**--    ++OO              ",
"    --**--    ++OO              ",
"              ++@@####          ",
"              ++@@####          ",
"              @@==  %%@@        ",
"              @@==  %%@@        ",
"              @@    ++@@        ",
"              @@    ++@@        ",
"              **++==%%**        ",
"              **++==%%**        ",
"                --**--          ",
"                --**--          "
};
