/* XPM */
static char *del_xpm[] = {
/* columns rows colors chars-per-pixel */
"32 32 84 1",
", c #C1D5D1",
"z c #C9DDC1",
"H c #A1C6D8",
"- c #C1D5D8",
"Z c #2B7791",
"; c #C9DDC9",
"! c #81AEC9",
"3 c #6A8EB9",
"p c #3A7781",
"^ c #0B5F99",
"o c #7296C1",
"A c #B9D5C1",
"% c #3A77A9",
"F c #1B6F91",
"< c #B9D5D8",
"O c #628EB9",
"r c #C1CEB1",
"y c #D8E5B1",
"4 c #6A96B9",
"c c #327791",
"& c #6A96C1",
"( c #6A96C9",
". c #4A7EB1",
"# c #3277A9",
"u c #A9BEA9",
"W c #729EC9",
"/ c #5286B1",
"~ c #7AA6B9",
"G c #7AA6C1",
"+ c #5286B9",
"e c #B1C6A9",
"T c #7AA6C9",
"= c #B1D5E0",
"  c None",
"i c #91AE99",
"2 c #5A8EB9",
"l c #B1C6C1",
"s c #B9CEB1",
"5 c #6296B9",
"K c #B9CEC1",
"q c #99B6A9",
"@ c #427EB1",
"X c #D1D5E8",
"v c #99B6C1",
"6 c #4A86B1",
"S c #99B6C9",
"1 c #4A86B9",
"k c #A1BEB9",
"9 c #81A6A1",
"a c #A9C6B1",
"g c #A9C6B9",
"0 c #89AEA1",
"j c #3A7E91",
"t c #D1DDB1",
"b c #A9C6C9",
"B c #2B6F91",
"h c #B1CEB9",
"> c #D1DDB9",
"f c #428691",
"Y c #B1CEC1",
"E c #3A7EA9",
": c #D1DDC1",
"w c #4A8E89",
"V c #89AEC1",
"7 c #3A7EB1",
"$ c #2B6FA9",
"d c #4A8E91",
"L c #89AEC9",
") c #0B5799",
"* c #B1CEE8",
"P c #91B6D1",
"Q c #135F99",
"N c #99BEC1",
"R c #91B6D8",
"D c #99BEC9",
"m c #C1D5B9",
"I c #1B6799",
"U c #99BED8",
"M c #A1C6C9",
"J c #236F91",
"n c #C1D5C9",
"x c #C9DDB9",
"8 c #3A8691",
"C c #A1C6D1",
/* pixels */
"            ........            ",
"            ........            ",
"    XXooOO++@@##$$$$%%..OOXX    ",
"    XoooOO++@@##$$$$%%..OOOX    ",
"    &&**==--;;::>>;;,,<<**&&    ",
"    &&**==--;;::>>;;,,<<**&&    ",
"    X1111122334455226677111X    ",
"    XX11112233445522667711XX    ",
"      88990088qqqq88009988      ",
"      88990088qqqq88009988      ",
"      wweerrwwttyywwuuiipp      ",
"      wweerrwwttyywwuuiipp      ",
"      wwaassww>>ttwwssaadd      ",
"      wwaassww>>ttwwssaadd      ",
"      ffgghhff::>>ffhhaaff      ",
"      ffgghhff::>>ffhhaaff      ",
"      jjkklljjzzxxjjllkkjj      ",
"      jjkklljjzzxxjjllkkjj      ",
"      ccvvbbccnnmmccMMNNcc      ",
"      ccvvbbccnnmmccMMNNcc      ",
"      BBVVCCZZ,,AABBSSDDZZ      ",
"      BBVVCCZZ,,AABBSSDDZZ      ",
"      FFGGHHJJ<<KKJJLLPPJJ      ",
"      FFGGHHJJ<<KKJJLLPPJJ      ",
"      II&&UUII<<YYIITTRRII      ",
"      II&&UUII<<YYIITTRRII      ",
"      EE..WWQQ!!~~^^//((EE      ",
"      EE..WWQQ!!~~^^//((EE      ",
"        EE))))))))))))EE        ",
"        EE))))))))))))EE        ",
"                                ",
"                                "
};
