/* XPM */
static char *gopgm_xpm[] = {
/* columns rows colors chars-per-pixel */
"32 32 67 1",
"J c #7A84A8",
"D c #7A84A9",
"& c #D1A761",
"3 c #AAA388",
"- c #8799C1",
"l c #8C919B",
"; c #788AB5",
"< c #DCBF85",
"w c #7B8EB8",
"b c #8092BA",
", c #F5F4FA",
"y c #EEF0FA",
"S c #7E86A6",
"x c #DDE4F7",
"m c #687CA9",
"@ c #F6F5FA",
"p c #ECEDF9",
"7 c #F1F1FA",
"z c #868E9F",
"s c #989893",
"A c #D9E1F6",
"g c #E3E9F8",
"q c #8294BD",
"e c #7385B1",
"C c #7D87A6",
"Z c #D7E1F6",
"6 c #F0F2FA",
"  c None",
"B c #DAE2F6",
"V c #DAE2F7",
"f c #929598",
"H c #7984A8",
"1 c #D0A760",
"O c #D0A761",
"d c #E7EBF8",
"j c #8B919B",
"c c #8189A3",
"v c #DBE3F7",
"k c #E0E7F8",
"= c #F4F4FA",
"G c #7A85A8",
"F c #7A85A9",
"8 c #AAA488",
"+ c #B4A981",
": c #6478A5",
"9 c #A5A08B",
"$ c #F7F5FA",
"# c #F7F5FC",
"u c #9E9C8E",
"a c #9E9C8F",
"i c #EBEDF9",
"4 c #F0F1FA",
"h c #E4E9F8",
"0 c #EEF1FA",
"2 c #B0A684",
"> c #566A9A",
"* c #B0A685",
"r c #6A7DAA",
"X c #5B6E9E",
"% c #D5B373",
"o c #F8F6FC",
"M c #5E729F",
". c #B8AB7F",
"5 c #F1F2FA",
"N c #DBE2F6",
"t c #6176A4",
"n c #7586B3",
/* pixels */
"                                ",
"                                ",
"................           XX   ",
"................           XX   ",
"..ooooooooooooOO..         XX   ",
"..ooooooooooooOO..         XX   ",
"++@@##$$@@####%%&&..       XX   ",
"++@@##$$@@####%%&&..       XX   ",
"**==--;;::>>,,<<%%1122     XX   ",
"**==--;;::>>,,<<%%1122     XX   ",
"3344556655775555555588     XX   ",
"3344556655775555555588     XX   ",
"9900--qqwweerrttXXyy99     XX   ",
"9900--qqwweerrttXXyy99     XX   ",
"uuiiiippiiiiiiiiiiiiaa     XX   ",
"uuiiiippiiiiiiiiiiiiaa     XX   ",
"ssdd--qqwweerrttXXddss     XX   ",
"ssdd--qqwweerrttXXddss     XX   ",
"ffgghhhhhhhhhhhhgghhff     XX   ",
"ffgghhhhhhhhhhhhgghhff     XX   ",
"jjkk--qqwweerrttXXkkll     XX   ",
"jjkk--qqwweerrttXXkkll     XX   ",
"zzxxxxxxxxxxxxxxxxxxzz     XX   ",
"zzxxxxxxxxxxxxxxxxxxzz     XX   ",
"ccvv--bbnnmmMMNNBBVVcc     XX   ",
"ccvv--bbnnmmMMNNBBVVcc     XX   ",
"CCZZZZAAZZAAZZAAAAZZSS  XXXXXXXX",
"CCZZZZAAZZAAZZAAAAZZSS   XXXXXX ",
"DDFFGGHHFFGGGGHHGGDDJJ    XXXX  ",
"DDFFGGHHFFGGGGHHGGDDJJ     XX   ",
"                                ",
"                                "
};
