/* XPM */
static char *htilewnd_xpm[] = {
/* columns rows colors chars-per-pixel */
"32 32 51 1",
"O c #5180B1",
"> c #90C6E8",
"0 c #5B85B5",
"x c #99823B",
"a c #A38738",
"% c #688EBC",
"o c #4D7DAF",
"4 c #D3E5F4",
"r c #6B92BD",
"  c #4476AA",
"g c #A28838",
"j c #F2FBFF",
"y c #D5F3FF",
"1 c #B7D8EF",
"i c #EBFAFF",
"9 c #5683B3",
": c #84C0E6",
"* c #6F94BF",
"s c #EEFBFF",
"t c #B28F34",
"$ c #638CB9",
"7 c #4D7CAE",
"l c #F1FCFF",
"6 c #4678AB",
"@ c #5A85B5",
"q c #5F89B7",
"= c #68B3E1",
"v c #8E7D3E",
", c #9ECCEA",
"h c #98823B",
"X c #4979AC",
"u c #AC8C35",
"p c #EBF9FF",
"+ c #5682B3",
"< c #ABD2ED",
"5 c #6F93BF",
"; c #78BAE4",
"d c #EEFAFF",
"e c #688FBC",
"8 c #527FB0",
"z c #F1FBFF",
"3 c #CCE2F3",
"- c #6FB6E2",
". c #4677AB",
"f c #EFFBFF",
"# c #5F88B7",
"w c #648CB9",
"c c #8E7C3E",
"2 c #C3DEF1",
"k c #F2FCFF",
"& c #6C91BE",
/* pixels */
" ..XXXoooOOO+++@@@###$$$%%%&&&&*",
"=--;;;:::>>>,,,<<<11122233344445",
"=--;;;:::>>>,,,<<<11122233344445",
" 66XXX777888999000qqqwwweeerrrr5",
"tyyyyyyyyyyyyyyyyyyyyyyyyyyyyyyt",
"uyyiiipppiiiiiipppiiiiiiiiiiiiiu",
"uyyiiipppiiiiiipppiiiiiiiiiiiiiu",
"uyyiiipppiiiiiipppiiiiiiiiiiiiiu",
"ayysssdddssssssdddsssddddddffffg",
"ayysssdddssssssdddsssddddddffffg",
"hyyjjjkkklllzzzkkkzzzlllkkkkkkkx",
"hyyjjjkkklllzzzkkkzzzlllkkkkkkkx",
"hyyjjjkkklllzzzkkkzzzlllkkkkkkkx",
"hyyjjjkkklllzzzkkkzzzlllkkkkkkkx",
"hyyjjjkkklllzzzkkkzzzlllkkkkkkkx",
"cccccccccccccccccccccccccccccccv",
" ..XXXoooOOO+++@@@###$$$%%%&&&&*",
"=--;;;:::>>>,,,<<<11122233344445",
"=--;;;:::>>>,,,<<<11122233344445",
" 66XXX777888999000qqqwwweeerrrr5",
"tyyyyyyyyyyyyyyyyyyyyyyyyyyyyyyt",
"uyyiiipppiiiiiipppiiiiiiiiiiiiiu",
"uyyiiipppiiiiiipppiiiiiiiiiiiiiu",
"uyyiiipppiiiiiipppiiiiiiiiiiiiiu",
"ayysssdddssssssdddsssddddddffffg",
"ayysssdddssssssdddsssddddddffffg",
"hyyjjjkkklllzzzkkkzzzlllkkkkkkkx",
"hyyjjjkkklllzzzkkkzzzlllkkkkkkkx",
"hyyjjjkkklllzzzkkkzzzlllkkkkkkkx",
"hyyjjjkkklllzzzkkkzzzlllkkkkkkkx",
"hyyjjjkkklllzzzkkkzzzlllkkkkkkkx",
"cccccccccccccccccccccccccccccccv"
};
