/* XPM */
static char *newwnd_xpm[] = {
/* columns rows colors chars-per-pixel */
"32 32 55 1",
"2 c #5B85B5",
"z c #F5FDFF",
"v c #857840",
"k c #99823B",
"y c #A38738",
"b c #F8FEFF",
"% c #688EBC",
"> c #D3E5F4",
"7 c #106838",
"6 c #6B92BD",
"M c #7F7542",
"o c #4476AA",
"s c #A28838",
"< c #207840",
"d c #F2FBFF",
"9 c #D5F3FF",
"- c #B7D8EF",
"w c #EBFAFF",
"x c #F5FCFF",
"* c #6F94BF",
"i c #EEFBFF",
"0 c #B28F34",
"$ c #638CB9",
"m c #F8FDFF",
"  c None",
"h c #F1FCFF",
"@ c #5A85B5",
"3 c #5F89B7",
"r c #80B050",
"c c #8E7D3E",
"g c #98823B",
"X c #E0E060",
"q c #AC8C35",
"n c #F7FEFF",
"t c #EBF9FF",
"+ c #5682B3",
"= c #ABD2ED",
"u c #005020",
", c #6F93BF",
"p c #EEFAFF",
"5 c #688FBC",
"e c #085828",
"j c #F1FBFF",
": c #CCE2F3",
"a c #EFFBFF",
"O c #289050",
"# c #5F88B7",
"4 c #648CB9",
"l c #8E7C3E",
"1 c #C0D060",
"; c #C3DEF1",
". c #309858",
"f c #F2FCFF",
"8 c #A0B858",
"& c #6C91BE",
/* pixels */
"    ....                        ",
"    .XX.                        ",
"    .XX.                        ",
"   oOXXO++++++@@##$$%%&&&&&&&&**",
"OOOOOXXOOOOO=====--;;::>>>>>>>>,",
"<1111111111<=====--;;::>>>>>>>>,",
"<1111111111<222233445566666666,,",
"77777887777799999999999999999990",
"   q7887wwwwwwwwwwwwwwwwwwwwwww0",
"   qerretwwwwwttwwwwwwwwwwwwwww0",
"   qerrewwwwwwttwwwwwwwwwwwwwwwq",
"   yuuuuiiiiwwttwwwwwwwwwwwwwwwq",
"   y9pppppppiippiippppaaaaaaaaas",
"   y9dddffiiiippiippppaaaaaaaaas",
"   g9dddffhhjjffjjhhfffffffffffk",
"   g9dddffhhjjffjjhhfffffffffffk",
"   l9zzzxxzzxxxxzzxxxxxxxxxxxxxc",
"   l9zzzxxzzxxxxzzxxxxxxxxxxxxxc",
"   v9bbbnnbbmmbbmmmmbbmmmmmmmmmv",
"   v9bbbnnbbmmbbmmmmbbmmmmmmmmmv",
"   v9bbbnnbbmmbbmmmmbbmmmmmmmmmv",
"   v9bbbnnbbmmbbmmmmbbmmmmmmmmmv",
"   v9bbbnnbbmmbbmmmmbbmmmmmmmmmv",
"   v9bbbnnbbmmbbmmmmbbmmmmmmmmmv",
"   v9bbbnnbbmmbbmmmmbbmmmmmmmmmv",
"   v9bbbnnbbmmbbmmmmbbmmmmmmmmmv",
"   v9bbbnnbbmmbbmmmmbbmmmmmmmmmv",
"   v9bbbnnbbmmbbmmmmbbmmmmmmmmmv",
"   v9bbbnnbbmmbbmmmmbbmmmmmmmmmv",
"   v9bbbnnbbmmbbmmmmbbmmmmmmmmmv",
"   M9bbbnnbbmmbbmmmmbbmmmmmmmmmv",
"   MMMMMMMMMMMMMMMMMMMMMMMMMMMvv"
};
