/* XPM */
static char *nextwnd_xpm[] = {
/* columns rows colors chars-per-pixel */
"32 32 106 2",
"O  c #5180B1",
",  c #90C6E8",
"q  c #5B85B5",
"Z  c #F5FDFF",
"U  c #857840",
"P  c #BB8216",
"b  c #99823B",
"S  c #A76C10",
"Q  c #FDF6D5",
"'  c #FDF0C2",
"o. c #FDEAAF",
"N  c #FDF0C3",
"Y  c #F8FEFF",
"M  c #FDEAB0",
"%  c #688EBC",
"o  c #4D7DAF",
"5  c #D3E5F4",
"&. c #B97F15",
"%. c #B47B14",
"/  c #FBE18E",
"F  c #AA7011",
"W  c #FBE49D",
"t  c #6B92BD",
"O. c #BC8316",
"$. c #7F7542",
"[  c #FEFAE4",
"|  c #FEFAE5",
")  c #FEFDEF",
"   c #4476AA",
"*. c #BA8015",
"f  c #A28838",
"{  c #FCE59D",
"k  c #F2FBFF",
"^  c #BD8416",
"u  c #D5F3FF",
"2  c #B7D8EF",
"i  c #EBFAFF",
"0  c #5683B3",
" . c #A96E10",
"D  c #A96E11",
"A  c #F5FCFF",
">  c #84C0E6",
"*  c #6F94BF",
"d  c #B67D14",
"#. c #BB8116",
"h  c #EEFBFF",
"y  c #B28F34",
"$  c #638CB9",
"}  c #FDF5D4",
"@. c #F8FDFF",
"8  c #4D7CAE",
"=  c None",
"z  c #B47A13",
"s  c #B47A14",
"n  c #F1FCFF",
"R  c #FBDD83",
"_  c #FBE08E",
"7  c #4678AB",
"c  c #B77E14",
"I  c #BC8216",
"@  c #5A85B5",
"w  c #5F89B7",
"-  c #68B3E1",
"C  c #8E7D3E",
"<  c #9ECCEA",
"!  c #FEF9E5",
"X  c #4979AC",
"a  c #AC8C35",
".. c #AB7011",
"(  c #FCF0C3",
"K  c #FCEAAF",
"+. c #F7FEFF",
"x  c #FCEAB0",
"~  c #BD8316",
"v  c #B87F15",
"p  c #EBF9FF",
"+  c #5682B3",
"1  c #ABD2ED",
"6  c #6F93BF",
"=. c #B67C14",
"J  c #B17813",
":  c #78BAE4",
"g  c #EEFAFF",
"r  c #688FBC",
"B  c #B98016",
"9  c #527FB0",
"X. c #AF7512",
"H  c #AF7513",
"`  c #FBE59D",
"m  c #F1FBFF",
"4  c #CCE2F3",
";  c #6FB6E2",
".  c #4677AB",
"-. c #B77D14",
"j  c #EFFBFF",
"G  c #AD7212",
"#  c #5F88B7",
"e  c #648CB9",
"L  c #FEF5D4",
"]  c #FEF5D5",
"V  c #BA8116",
"3  c #C3DEF1",
"l  c #F2FCFF",
"E  c #FCE08E",
"T  c #A66B10",
"&  c #6C91BE",
/* pixels */
"  . X X o o O O + + + @ @ # # $ $ % % & & & & & & & & * * = = = ",
"- ; : : > > , , < < 1 1 1 1 2 2 3 3 4 4 5 5 5 5 5 5 5 5 6 = = = ",
"- ; : : > > , , < < 1 1 1 1 2 2 3 3 4 4 5 5 5 5 5 5 5 5 6 = = = ",
"  7 X X 8 8 9 9 0 0 q q q w w e e r r t t t t t t t t 6 6 = = = ",
"y u u u u u u u u u u u u u u u u u u u u u u u u u u u y = = = ",
"y u i i i i i i i i i i i i i i i i i i i i i i i i i i y = = = ",
"y u i i p p i i i i i i p i i i i i i i i i i i i i i i y = = = ",
"a u i i p p i i i i i i p i i i i i i i i i i i i i i i a = = = ",
"a u i i p p i i i i i i p i i i i i s s d d i i i i i i a = = = ",
"f u g g g g g g g h h g g h h g g g s s d d d j j j j j f = = = ",
"f u k k k l l h h h h g g h h g g g z z x d c v j j j j f = = = ",
"b u k k k l l n n m m l l m m n n l z z x x v v v l l l b = = = ",
"b u k k k l l n n m m l l m m n n l z z M M N v B V l l b = = = ",
"C u Z Z Z A A Z Z A A A A Z Z A A A z z M M N N V V V A C = = = ",
"C u Z Z Z A S S D D F F G G H H J J s s K K N N L V P I C = = = ",
"U u Y Y Y S S S D D F F G G H H J J s s K K N N L L I I I = = = ",
"U u Y Y T T R R R R R R R R R R E E W W M M N N Q Q ! I ~ ^ = = ",
"U u Y Y T T R R R R R R R R R R E E W W M M N N Q Q ! ! ^ ^ ^ = ",
"U u Y Y T T R R R R R R R R R R / / W W x x ( ( Q Q ! ! ) ^ ^ ^ ",
"U u Y Y T T R R R R R R R R R R / / W W x x ( ( Q Q ! ! ) ) ^ ^ ",
"U u Y Y T T R R R R R R R R R R _ _ ` ` M M ' ' ] ] [ [ ) ) ^ ^ ",
"U u Y Y T T R R R R R R R R R R _ _ ` ` M M ' ' ] ] [ [ ) ^ ^ ^ ",
"U u Y Y T T R R R R R R R R R R E E { { x x ' ' } } | | ^ ^ ^ = ",
"U u Y Y T T R R R R R R R R R R E E { { x x ' ' } } | ^ ^ ^ = = ",
"U u Y Y Y S S S  . .....G G X.X.J J z z o.o.N N } } O.O.^ = = = ",
"U u Y Y Y +.S S  . .....G G X.X.J J z z o.o.N N } O.O.O.U = = = ",
"U u Y Y Y +.+.Y Y @.@.Y Y @.@.@.@.Y s s x x N N #.P O.@.U = = = ",
"U u Y Y Y +.+.Y Y @.@.Y Y @.@.@.@.Y s s x x N #.#.#.@.@.U = = = ",
"$.$.$.$.$.$.$.$.$.$.$.$.$.$.$.$.$.$.%.%.o.o.&.*.#.$.$.U U = = = ",
"= = = = = = = = = = = = = = = = = = %.%.o.&.&.&.= = = = = = = = ",
"= = = = = = = = = = = = = = = = = = s s =.-.&.= = = = = = = = = ",
"= = = = = = = = = = = = = = = = = = s s =.=.= = = = = = = = = = "
};
