/* XPM */
static char *open_xpm[] = {
/* columns rows colors chars-per-pixel */
"32 32 28 1",
"@ c #F0D890",
"o c #FFFFFF",
"2 c #F8E098",
"> c #F8E0A0",
"3 c #A56C24",
"% c #D8B070",
"5 c #9E5F1D",
"; c #9E5F20",
"+ c #F8E898",
"- c #F8E8B0",
"  c None",
"6 c #F8D078",
"7 c #F8D080",
"& c #BC8532",
"$ c #E0C078",
"= c #BC7F32",
"8 c #8F5219",
"* c #F8F0C8",
"4 c #F8D888",
"1 c #F8D890",
": c #B47F32",
". c #C38B36",
"O c #C38536",
"9 c #9E6627",
"< c #AD722B",
"# c #E8D088",
", c #AD722F",
"X c #AD6C24",
/* pixels */
"                                ",
"                                ",
"                                ",
"                                ",
"                                ",
"                                ",
"                                ",
"                                ",
"    ........                    ",
"    ........                    ",
"  XXooooooooXX                  ",
"  XXooooooooXX                  ",
"OO++++@@##$$%%OOOOOOOOOOOO      ",
"OO++++@@##$$%%OOOOOOOOOOOO      ",
"&&**********************&&      ",
"&&**********************&&      ",
"&&**********************&&      ",
"&&**********************&&      ",
"==----------------------;;      ",
"==----------------------;;      ",
"::>>>>>>>>,,,,,,,,,,,,,,,,,,,,,,",
"::>>>>>>>,,,,,,,,,,,,,,,,,,,,,,,",
"<<111111,,,22222222222222222##,,",
"<<11111,,,222222222222222222#,,,",
"334444,,,44444444444444444##,,, ",
"33444,,,444444444444444444#,,,  ",
"5566,,,77777777777777777##,,,   ",
"556,,,777777777777777777#,,,    ",
"88,,,66666666666666666##,,,     ",
"88,,666666666666666666#,,,      ",
"  999999999999999999999,,       ",
"  9999999999999999999999        "
};
