/* XPM */
static char *paste_xpm[] = {
/* columns rows colors chars-per-pixel */
"32 32 104 2",
"z  c #F2F6FA",
",  c #5F7396",
"L  c #AFA781",
"b  c #C7A272",
"~  c #F2C979",
"I  c #F2CC83",
"(  c #E1EAF8",
"}  c #F2C671",
"%. c #B1895C",
" . c #9C9B8E",
"Q  c #BE986B",
")  c #E2EBF7",
"@  c #E4D6C6",
"`  c #E2EBF8",
"H  c #F3D08E",
"O  c #AEBACC",
"-  c #F6E6C8",
"4  c #F6E3C2",
"K  c #EAF0F9",
"%  c #98A7C0",
"*. c #989891",
"r  c #F4DDB0",
"+. c #DEE8F7",
".. c #DEE8F8",
"N  c #F4D499",
"y  c #C3B374",
"l  c #F2F5FB",
"j  c #BEAF78",
"o  c #8291AA",
"1  c #CCA875",
"F  c #F2D18E",
"^  c #F2C879",
"R  c #E6EDF8",
">  c #8094B4",
"S  c #B7AB7C",
"$  c #7182A0",
"=  c #D4B07B",
"W  c #A8A286",
"d  c #CAA574",
"5  c #F5E4C2",
"9  c #F5E1BA",
"X  c #ABC1D4",
"X. c #DFE9F7",
"f  c #F5D8A5",
"   c None",
"A  c #EEF2F9",
"x  c #F3F6FA",
";  c #607396",
"k  c #F3F6FB",
"J  c #B0A781",
"/  c #A19E8B",
"n  c #F3D59A",
"Y  c #F3CC83",
"_  c #E2EAF8",
"6  c #C7B571",
"p  c #5E76A3",
"a  c #F6F7FA",
"P  c #C19B6C",
"|  c #F1C671",
"V  c #EFF3FA",
".  c #8E9BB0",
"2  c #D3AE7A",
"#. c #B59067",
"h  c #F4D9A5",
"i  c #91A5C7",
"+  c #AFBACC",
"$. c #B38D63",
"U  c #F2CD83",
"G  c #F2D08E",
"u  c #F5F8FA",
"@. c #D4C1AF",
"t  c #F5DDB0",
"#  c #C59A61",
"o. c #DFE8F8",
"w  c #DABD7C",
"c  c #F3F5FA",
"q  c #F8F9FB",
"&  c #97A7C0",
"7  c #C39A64",
"m  c #F3D49A",
"&. c #AF8456",
"Z  c #6D84AD",
"C  c #8197BC",
"v  c #BDAF78",
":  c #8194B4",
"8  c #D0AC78",
"T  c #A9A286",
"3  c #F6E4C2",
"0  c #F6E1BA",
"]  c #BC966A",
"!  c #F1C879",
"E  c #E5EDF8",
"{  c #F1C571",
"*  c #AD8152",
"B  c #B6AB7C",
"s  c #E0C88F",
"<  c #CEAC79",
"[  c #D8AE6C",
"'  c #A29E8A",
"e  c #CEA976",
"D  c #C49E6F",
"O. c #DEE9F7",
"M  c #F4D599",
"g  c #F4D8A5",
/* pixels */
"                                                                ",
"                                                                ",
"                        . . X X X X . .                         ",
"                        . . X X X X . .                         ",
"                    o o O O O O + + O O o o                     ",
"                    o o O O O O + + O O o o                     ",
"        @ @ # # # # $ $ % % & & & & % % $ $ * * # # @ @         ",
"        @ @ # # # # $ $ % % & & & & % % $ $ * * # # @ @         ",
"        = = - - ; ; : : : : > > : : : : : : , , - - < <         ",
"        = = - - ; ; : : : : > > : : : : : : , , - - < <         ",
"        = = - - - - - - - - - - - - - - - - - - - - 1 1         ",
"        = = - - - - - - - - - - - - - - - - - - - - 1 1         ",
"        2 2 3 3 4 4 5 5 3 3 6 6 6 6 6 6 6 6 6 6 6 6 7 7         ",
"        2 2 3 3 4 4 5 5 3 3 6 6 6 6 6 6 6 6 6 6 6 6 7 7         ",
"        8 8 9 9 9 9 0 0 9 9 6 6 q q q q q q q q w w 6 6         ",
"        8 8 9 9 9 9 0 0 9 9 6 6 q q q q q q q q w w 6 6         ",
"        e e r r t t r r t t y y u u i i p p a a s s w w y y     ",
"        e e r r t t r r t t y y u u i i p p a a s s w w y y     ",
"        d d f f g g h h h h j j k k l l z z x x x x c c v v     ",
"        d d f f g g h h h h j j k k l l z z x x x x c c v v     ",
"        b b n n m m M M N N B B V V i i C C Z Z p p A A S S     ",
"        b b n n m m M M N N B B V V i i C C Z Z p p A A S S     ",
"        D D F F G G H H H H J J K K K K K K K K K K K K L L     ",
"        D D F F G G H H H H J J K K K K K K K K K K K K L L     ",
"        P P I I U U Y Y Y Y T T R R i i C C Z Z p p E E W W     ",
"        P P I I U U Y Y Y Y T T R R i i C C Z Z p p E E W W     ",
"        Q Q ! ! ~ ~ ^ ^ ~ ~ / / ( ( ) ) _ _ ` ` ( ( _ _ ' '     ",
"        Q Q ! ! ~ ~ ^ ^ ~ ~ / / ( ( ) ) _ _ ` ` ( ( _ _ ' '     ",
"        ] ] [ [ { { } } | |  . .....X.X.o.o.O.O.O.O.+.+. . .    ",
"        ] ] [ [ { { } } | |  . .....X.X.o.o.O.O.O.O.+.+. . .    ",
"        @.@.#.#.$.$.%.%.&.&.*.*.*.*.*.*.*.*.*.*.*.*.*.*.*.*.    ",
"        @.@.#.#.$.$.%.%.&.&.*.*.*.*.*.*.*.*.*.*.*.*.*.*.*.*.    "
};
