/* XPM */
static char *prevwnd_xpm[] = {
/* columns rows colors chars-per-pixel */
"32 32 105 2",
"+  c #5180B1",
",  c #90C6E8",
"q  c #5B85B5",
"A  c #F5FDFF",
"Y  c #857840",
"D  c #BB8216",
"v  c #99823B",
"I  c #A76C10",
"W  c #FDF6D5",
"'  c #FDF0C2",
".. c #FDEAAF",
"B  c #FDF0C3",
"@. c #F8FEFF",
"V  c #FDEAB0",
"&  c #688EBC",
"O  c #4D7DAF",
"5  c #D3E5F4",
"&. c #B47B14",
"%. c #B97F15",
")  c #FBE18E",
"L  c #AA7011",
"Q  c #FBE49D",
"t  c #6B92BD",
" . c #BC8316",
"#. c #7F7542",
"_  c #FEFAE4",
"{  c #FEFAE5",
"/  c #FEFDEF",
".  c #4476AA",
"$. c #BA8015",
"f  c #A28838",
"|  c #FCE59D",
"k  c #F2FBFF",
"T  c #BD8416",
"u  c #D5F3FF",
"2  c #B7D8EF",
"i  c #EBFAFF",
"0  c #5683B3",
"O. c #A96E10",
"P  c #A96E11",
"Z  c #F5FCFF",
">  c #84C0E6",
"=  c #6F94BF",
"s  c #B67D14",
"+. c #BB8116",
"h  c #EEFBFF",
"y  c #B28F34",
"%  c #638CB9",
"}  c #FDF5D4",
"U  c #F8FDFF",
"8  c #4D7CAE",
"   c None",
"c  c #B47A13",
"d  c #B47A14",
"m  c #F1FCFF",
"~  c #FBDD83",
"[  c #FBE08E",
"7  c #4678AB",
"z  c #B77E14",
"S  c #BC8216",
"#  c #5A85B5",
"w  c #5F89B7",
"-  c #68B3E1",
"C  c #8E7D3E",
"<  c #9ECCEA",
"E  c #FEF9E5",
"o  c #4979AC",
"a  c #AC8C35",
"o. c #AB7011",
"(  c #FCF0C3",
"G  c #FCEAAF",
"x  c #FCEAB0",
"R  c #BD8316",
"l  c #B87F15",
"p  c #EBF9FF",
"@  c #5682B3",
"1  c #ABD2ED",
"6  c #6F93BF",
"=. c #B67C14",
"H  c #B17813",
":  c #78BAE4",
"g  c #EEFAFF",
"r  c #688FBC",
"N  c #B98016",
"9  c #527FB0",
"X. c #AF7512",
"J  c #AF7513",
"]  c #FBE59D",
"n  c #F1FBFF",
"4  c #CCE2F3",
";  c #6FB6E2",
"X  c #4677AB",
"*. c #B77D14",
"j  c #EFFBFF",
"K  c #AD7212",
"$  c #5F88B7",
"e  c #648CB9",
"F  c #FEF5D4",
"`  c #FEF5D5",
"M  c #BA8116",
"3  c #C3DEF1",
"b  c #F2FCFF",
"^  c #A66B10",
"!  c #FCE08E",
"*  c #6C91BE",
/* pixels */
"      . X o o O O + + @ @ @ # # $ $ % % & & * * * * * * * * = = ",
"      - ; : : > > , , < < 1 1 1 1 2 2 3 3 4 4 5 5 5 5 5 5 5 5 6 ",
"      - ; : : > > , , < < 1 1 1 1 2 2 3 3 4 4 5 5 5 5 5 5 5 5 6 ",
"      . 7 o o 8 8 9 9 0 0 q q q w w e e r r t t t t t t t t 6 6 ",
"      y u u u u u u u u u u u u u u u u u u u u u u u u u u u y ",
"      y u i i i i i i i i i i i i i i i i i i i i i i i i i i y ",
"      y u i i p p i i i i i i p i i i i i i i i i i i i i i i y ",
"      a u i i p p i i i i i i p i i i i i i i i i i i i i i i a ",
"      a u i i p p i s s d d i p i i i i i i i i i i i i i i i a ",
"      f u g g g g s s s d d g g h h g g g g j j j j j j j j j f ",
"      f u k k k l z s x c c g g h h g g g g j j j j j j j j j f ",
"      v u k k l l l x x c c b b n n m m b b b b b b b b b b b v ",
"      v u k M N l B V V c c b b n n m m b b b b b b b b b b b v ",
"      C u M M M B B V V c c Z Z A A Z Z Z Z Z Z Z Z Z Z Z Z Z C ",
"      C S D M F B B G G d d H H J J K K L L P P I I Z Z Z Z Z C ",
"      S S S F F B B G G d d H H J J K K L L P P I I I U U U U Y ",
"    T R S E W W B B V V Q Q ! ! ~ ~ ~ ~ ~ ~ ~ ~ ~ ~ ^ ^ U U U Y ",
"  T T T E E W W B B V V Q Q ! ! ~ ~ ~ ~ ~ ~ ~ ~ ~ ~ ^ ^ U U U Y ",
"T T T / E E W W ( ( x x Q Q ) ) ~ ~ ~ ~ ~ ~ ~ ~ ~ ~ ^ ^ U U U Y ",
"T T / / E E W W ( ( x x Q Q ) ) ~ ~ ~ ~ ~ ~ ~ ~ ~ ~ ^ ^ U U U Y ",
"T T / / _ _ ` ` ' ' V V ] ] [ [ ~ ~ ~ ~ ~ ~ ~ ~ ~ ~ ^ ^ U U U Y ",
"T T T / _ _ ` ` ' ' V V ] ] [ [ ~ ~ ~ ~ ~ ~ ~ ~ ~ ~ ^ ^ U U U Y ",
"  T T T { { } } ' ' x x | | ! ! ~ ~ ~ ~ ~ ~ ~ ~ ~ ~ ^ ^ U U U Y ",
"    T T T { } } ' ' x x | | ! ! ~ ~ ~ ~ ~ ~ ~ ~ ~ ~ ^ ^ U U U Y ",
"      T  . .} } B B ....c c H H X.X.K K o.o.O.O.I I I U U U U Y ",
"      Y  . . .} B B ....c c H H X.X.K K o.o.O.O.I I U U U U U Y ",
"      Y u  .D +.B B x x d d @.@.U U U U @.@.U U U U U U U U U Y ",
"      Y u @.+.+.+.B x x d d @.@.U U U U @.@.U U U U U U U U U Y ",
"      #.#.#.#.+.$.%.....&.&.#.#.#.#.#.#.#.#.#.#.#.#.#.#.#.#.Y Y ",
"                %.%.%...&.&.                                    ",
"                  %.*.=.d d                                     ",
"                    =.=.d d                                     "
};
