/* XPM */
static char *print_xpm[] = {
/* columns rows colors chars-per-pixel */
"32 32 78 1",
"7 c #AFA781",
"q c #E6EEF9",
"d c #DCE6F8",
"t c #E1EAF9",
"i c #EBEFF3",
"g c #EBEFF4",
"H c #B7CAE3",
"# c #F5F7FC",
"% c #DAC27C",
"Y c #7E9BCA",
"R c #7E9BCB",
"O c #D0AB5B",
"x c #9C9B8F",
"4 c #A6B5D5",
"h c #ECF0F3",
"s c #DBE7F8",
"z c #E0E8F0",
"k c #708DBC",
"; c #EFF4FB",
"V c #C5D4E7",
"B c #C5D4E8",
"c c #989891",
"y c #7391BF",
"S c #6482B3",
"j c #7391C0",
"A c #6986B6",
"b c #6C8ABA",
"8 c #E6EDF9",
"> c #EBF1FA",
"= c #F0F5FB",
": c #B7AB7C",
"F c #B7C9E3",
"e c #A8A286",
"G c #B7C9E4",
"K c #607FB0",
"I c #607FB1",
"  c None",
"$ c #E4CF9D",
"X c #F8FAFC",
"< c #889CC1",
"Q c #5978AA",
"N c #6887B7",
"E c #5978AB",
"M c #D3DEEC",
". c #C7B571",
"3 c #5E76A3",
"5 c #7593C1",
"f c #DBE6F7",
"0 c #E5EEF9",
"r c #E0EAF9",
"l c #E0E7F0",
"@ c #F4F7FB",
"Z c #C5D3E7",
"C c #C5D3E8",
"+ c #C3B273",
", c #91A5C7",
"a c #DCE7F8",
"u c #EBF0F3",
"2 c #6C83AC",
"- c #F0F4FA",
"* c #F0F4FB",
"T c #7E9CCA",
"P c #607EB0",
"w c #F3F5F6",
"p c #A19D8A",
"n c #D3DDEC",
"6 c #365592",
"& c #BDAF77",
"U c #5C7BAD",
"v c #708EBD",
"9 c #E5EDF9",
"1 c #7A90B8",
"D c #B6C9E3",
"o c #F9FAFC",
"L c #5F7FB0",
"J c #6483B4",
"W c #5A78AB",
"m c #D4DEEC",
/* pixels */
"        ............            ",
"        ............            ",
"        ..XXooooooOO....        ",
"        ..XXooooooOO....        ",
"        ++@@@@@@##$$%%OO++      ",
"        ++@@@@@@##$$%%OO++      ",
"        &&**==----**;;**&&      ",
"        &&**==----**;;**&&      ",
"        ::>>,,<<112233>>::      ",
"        ::>>,,<<112233>>::      ",
"  445566778899009988qq9977665544",
"  445566778899009988qq9977665544",
"  55wwwweerr,,<<112233tteewwww55",
"  55wwwweerr,,<<112233tteewwww55",
"  yyuuiippaassddddaaffddppgghhjj",
"  yyuuiippaassddddaaffddppgghhjj",
"  kkllzzxxccccccccccccccxxzzzzvv",
"  kkllzzxxccccccccccccccxxzzzzvv",
"  bbnnmmmmMMMMMMMMnnnnMMMMMMMMbb",
"  bbnnmmmmMMMMMMMMnnnnMMMMMMMMbb",
"  NNBBVVCCVVBBBBBBCCCCZZCCVVZZAA",
"  NNBBVVCCVVBBBBBBCCCCZZCCVVZZAA",
"  SSDDFFDDDDDDDDFFGGDDFFHHFFDDJJ",
"  SSDDFFDDDDDDDDFFGGDDFFHHFFDDJJ",
"  KKKKLLKKPPPPKKKKIILLPPPPKKKKKK",
"  KKKKLLKKPPPPKKKKIILLPPPPKKKKKK",
"  44UUYYTTTTYYTTRRYYTTRRYYTTUU44",
"  44UUYYTTTTYYTTRRYYTTRRYYTTUU44",
"    44EEWWEEEEEEEEQQEEQQEEEE44  ",
"    44EEWWEEEEEEEEQQEEQQEEEE44  ",
"                                ",
"                                "
};
