/* XPM */
static char *question_xpm[] = {
/* columns rows colors chars-per-pixel */
"40 59 279 2",
"#  c #BAB1D2",
"O  c #D6D2E3",
"5X c #2A2636",
"/. c #2F2A3B",
"+X c #CCC7DE",
" . c #978CB7",
"c  c #887DAA",
"F  c #635B7B",
"e  c #C2BCD4",
" o c #7E72A1",
"(  c #3E394D",
">  c #C7C0D8",
"pX c #8D81B1",
">X c #F2F0F6",
"}X c #9C90C0",
"N. c #8376A7",
"g. c #685F84",
"GX c #433D55",
"f. c #9285B7",
"!  c #AEA6C6",
"KX c #BDB5D4",
"W. c #9285B8",
"#. c #231F2C",
"<  c #B3AACC",
"E  c #DEDAE9",
"|. c #A99FC5",
"k  c #373244",
"h. c #373246",
"a  c #F5F4F8",
"QX c #CAC4DD",
"v. c #373247",
"eX c #867AAA",
"P. c #9589B8",
"m. c #867AAB",
"i  c #867AAC",
":X c #EBE9F2",
"FX c #8B7EB1",
"t  c #B6AECD",
"uX c #4B455F",
"_X c #262331",
"!. c #9082B6",
")  c #756B92",
"|X c #9082B8",
"|  c #D7D3E3",
"l. c #D7D3E4",
"WX c #D7D3E5",
"-X c #2B2737",
"w  c #CDC8DB",
"kX c #CDC8DD",
":. c #CDC8DE",
"w. c #302B3D",
"M  c #988DB9",
"tX c #C3BDD6",
"*X c #C8C1DA",
"0  c #E4E2EB",
"F. c #696085",
";X c #E9E6F0",
"c. c #443E57",
"2. c #24202D",
"YX c #49425E",
"5. c #24202E",
"1  c #B4ABCE",
"L  c #7D739C",
"fX c #D5D0E3",
"2  c #AAA0C7",
"`  c #9186B2",
"9X c #F6F5F9",
"~  c #877BA9",
"VX c #968AB8",
"&. c #877BAC",
"=  c #ECEAF2",
"TX c #ECEAF3",
"l  c #22202B",
"jX c #8C7FB1",
"sX c #E2DFEB",
"V  c #E2DFEC",
"{. c #9183B8",
"MX c #2C2838",
"s. c #7B709C",
"S  c #C4BED6",
"3X c #C4BED7",
"Y  c #8074A2",
"oX c #8074A4",
"A  c #F4F2F7",
"]. c #9E92C2",
"[X c #8578AB",
"1X c #EAE7F0",
".X c #BFB7D4",
"#X c #6A6188",
"-. c #453F58",
"j  c #6F6589",
"h  c #A69DBF",
"rX c #4A435D",
")X c #6F658E",
"$X c #E0DCEA",
"p. c #25212F",
"x  c #59526F",
"y  c #ABA1C7",
"U. c #796D98",
"SX c #CCC6DC",
"k. c #CCC6DD",
"C  c #F7F6F9",
"_. c #A196C2",
"6  c #F7F6FA",
"xX c #978BB8",
"9  c #EDEBF2",
"2X c #EDEBF3",
"{  c #3E384F",
"d. c #8D80B3",
",  c #B8B0CF",
"x. c #8D80B4",
"T  c #685E84",
"CX c #685E85",
"qX c #4D4761",
"{X c #9284B9",
"1. c #AEA5C8",
"BX c #D9D5E5",
".o c #6D628B",
"K  c #524B67",
"z  c #2D2938",
"a. c #2D2939",
"6. c #2D293A",
"^. c #574F6E",
"Y. c #7C719E",
"d  c #FFFEFF",
"y. c #C5BFD8",
"f  c #F0EFF5",
"r  c #BBB4CF",
"iX c #E6E4EE",
"bX c #E6E4EF",
"<. c #EBE8F1",
"gX c #E1DDEA",
"q. c #4B445F",
"/X c #E1DDEC",
"[  c #4B4460",
"   c None",
">. c #D7D2E4",
"(. c #7A6E9C",
"8  c #F8F7FA",
"u. c #988CB9",
"yX c #897DAD",
"z. c #988CBB",
"r. c #C3BCD7",
"'  c #897DAE",
"&  c #EEECF3",
"%  c #EEECF4",
"9. c #8E81B2",
"-  c #E4E1EC",
"cX c #695F85",
"@X c #8E81B5",
"n. c #695F86",
"X  c #E4E1EE",
"aX c #DAD6E6",
"}  c #DAD6E7",
"[. c #B4AACF",
"JX c #A59BC4",
"s  c #FBFBFC",
";. c #332E41",
".. c #8276A4",
"u  c #9B90BD",
"@  c #C6C0D9",
"0. c #8276A5",
"3  c #F1F0F6",
"A. c #8276A6",
"=X c #8276A7",
"5  c #F6F4F9",
"(X c #C1B9D7",
"J  c #221F2A",
"q  c #DDDAE6",
"/  c #221F2B",
"@. c #221F2C",
"7X c #4C4560",
"`. c #272331",
"lX c #D3CFE1",
"e. c #272332",
"D. c #514966",
"E. c #766B97",
"U  c #9E94BE",
"W  c #F9F8FB",
"D  c #8A7EAB",
"j. c #BFB9D4",
"_  c #8A7EAD",
"HX c #998DBB",
"wX c #8A7EAE",
"LX c #998DBC",
"6X c #8A7EAF",
"*  c #EFEDF4",
"'X c #C4BDD9",
"p  c #EFEDF5",
"I. c #8F82B3",
"V. c #B5AECE",
"M. c #8F82B4",
"H. c #8F82B5",
"&X c #E5E2EE",
"i. c #6A6086",
"<X c #6A6087",
"v  c #B0A7C8",
"'. c #9486BA",
"m  c #B0A7C9",
",X c #B0A7CA",
" X c #B0A7CB",
"o  c #DBD7E7",
"nX c #B0A7CC",
"ZX c #A69CC2",
"Z. c #C7C1DA",
"PX c #9C91BF",
"*. c #9286B3",
"N  c #8377A7",
"7. c #5E5578",
"R. c #63597E",
"^  c #48425A",
"). c #887BAF",
"H  c #23202B",
";  c #DEDBE7",
"S. c #48425C",
"O. c #23202C",
":  c #DEDBE8",
"+. c #23202D",
"Xo c #23202E",
"zX c #E3DFEB",
"Q. c #8D7FB4",
"EX c #E3DFED",
"X. c #4D4661",
"g  c #D4D0E0",
"}. c #282433",
"DX c #AEA4C8",
"vX c #D9D4E6",
"~X c #CFC9E0",
"!X c #A499C4",
"n  c #C0BAD3",
"7  c #FAF9FC",
"L. c #958AB8",
"hX c #C5BED8",
"dX c #F0EEF4",
"$  c #F0EEF5",
"T. c #665D82",
"NX c #BBB3D0",
",. c #E6E3EE",
"]X c #E6E3EF",
"UX c #9083B8",
"+  c #D2CDE1",
"R  c #5A5273",
"OX c #C8C2DB",
"4  c #F3F2F7",
"^X c #F3F2F8",
"mX c #8478A8",
"8X c #E9E7F0",
"G. c #897CAE",
"G  c #24212C",
"AX c #B4ACCD",
"o. c #24212D",
"3. c #24212E",
"4. c #24212F",
"%. c #736992",
"I  c #AAA1C5",
"~. c #2E293B",
"P  c #968BB5",
"t. c #D0CADF",
"`X c #A59AC4",
"0X c #C6BFD8",
"RX c #F1EFF6",
"$. c #423C54",
"b. c #47405B",
"IX c #B2A9CE",
"=. c #71668F",
"B  c #716690",
"Z  c #FEFEFE",
"J. c #363145",
"8. c #8579A9",
"b  c #BFB8D3",
"C. c #BFB8D4",
"B. c #3B354B",
".  c #EAE8F1",
"4X c #8A7DAF",
"]  c #655B80",
"XX c #8A7DB1",
"Q  c #E0DDEA",
"%X c #E0DDEB",
"K. c #25222F",
/* pixels */
"                                                                                ",
"                                                                                ",
"                                                                                ",
"                                                                                ",
"                                                                                ",
"                                                                                ",
"                          . X o O O O O O + @ #                                 ",
"                    $ % & * = - ; ; ; : : O > , < 1 2                           ",
"                  3 4 5 6 7 8 9 0 0 0 0 0 q w e r t y u i                       ",
"              p 3 a s d f g h j k l l l z x c v b n m M N B                     ",
"            V = C Z A S D F l l G G G H J G G K L P I U Y T R                   ",
"            E . W Q ! ~ ^ / l J J J J J J J J J ( ) _ ` ' ] [ {                 ",
"          } Q = |  ...X.o.o.o.O.+.        +.+.@.#.$.%.&.*.=.-.;.                ",
"        :.>.,.<.1...X.2.3.3.4.                5.+.6.7.8.9.0.q.w.e.              ",
"        r.t.,.y.u.i.3.3.3.4.                    p.a.q.s.d.f.g.h.p.              ",
"        j.k.l.z.x.c.3.3.3.                        v.b.n.m.M.N.B.+.2.            ",
"      V.C.t.Z.d.A.3.3.3.                          S.D.F.G.x.H.J.3.K.            ",
"      L.P.I.U.Y.T.3.3.3.                            R.E.W.Q.!.~.5.5.            ",
"      ^./.2.2.o.o.o.o.3.                            (.)._.Q.Q.`.5.5.            ",
"      3.3.3.3.3.3.3.3.                              '.].[.{.{.}.p.p.            ",
"            p.p.p.p.p.                              |. X.XXXoX+.+.+.            ",
"                                                    OX+Xk.@X#X3.3.3.            ",
"                                                  $X%X&X*X=X-X3.o.3.            ",
"                                                ;X:X>X:X,X<X3.3.3.              ",
"                                              1X2Xa a 3X4X5XO.3.+.              ",
"                                            1X2Xa a 3X6X7X+.+.3.                ",
"                                          8X2Xa 9X0X9.qXo.O.3.3.                ",
"                                        8X2Xa a S wX7XO.O.+.3.                  ",
"                                      8X2Xa a e eXrX/ O.+.3.                    ",
"                                    8X2Xa a tXyXuXO.O.+.3.                      ",
"                                  iX= a 9Xy.pXqXo.3.+.3.                        ",
"                                aXsXdX9Xy.pXqXo.O.3.3.                          ",
"                                fXgX$ hXjXX.2.2.3.3.                            ",
"                              kXlXzX>.xXcX2.2.3.5.                              ",
"                              :.vXbXnXmXMX3.3.p.                                ",
"                            NX0XBX>.VXCX+.+.5.                                  ",
"                            ZXAXSXDXFXGX+.+.3.                                  ",
"                            HXJXKXLX@X-X3.3.                                    ",
"                            W.PXIXUX{.p.p.p.                                    ",
"                            (.<XJ.5.5.5.5.5.                                    ",
"                            YX+.5.5.5.5.5.5.                                    ",
"                            3.3.3.3.3.3.3.3.                                    ",
"                                                                                ",
"                                                                                ",
"                                                                                ",
"                                                                                ",
"                            TXRXEXWXWXQX!XCX                                    ",
"                            ~X$ ^X/X/X(X)X_X                                    ",
"                            `X'XW ]X]X[X5.5.                                    ",
"                            {X}XIX|X|X}.p.p.                                    ",
"                             o.ov.p.p.p.p.p.                                    ",
"                            YXXoXoXoXoXoXoXo                                    ",
"                            3.4.4.4.4.4.4.3.                                    ",
"                                                                                ",
"                                                                                ",
"                                                                                ",
"                                                                                ",
"                                                                                ",
"                                                                                "
};
