/* XPM */
static char *redo_xpm[] = {
/* columns rows colors chars-per-pixel */
"32 32 37 1",
"r c #BB8216",
"4 c #FDF9D9",
"7 c #FDFCE6",
". c #A76C10",
", c #FBF0B3",
"1 c #FBF0B4",
"9 c #B97F15",
"* c #AF7412",
"+ c #AA7011",
"u c #BC8315",
"y c #BC8316",
": c #B27813",
"% c #AD7112",
"w c #FEFDEF",
"< c #B57C14",
"5 c #FCFAD9",
"i c #BD8416",
"; c #B37913",
"O c #A96E11",
"e c #BB8115",
"# c #AC7212",
"q c #FDFBE6",
"o c #FBE99F",
"  c None",
"@ c #AA6F11",
"t c #BC8216",
"3 c #FCF9D9",
"& c #AE7412",
"$ c #AC7111",
"2 c #FBF1B4",
"8 c #B98015",
"6 c #B77D14",
"X c #A86E11",
"0 c #FEFBE6",
"> c #BA8116",
"= c #B07612",
"- c #B07613",
/* pixels */
"                                ",
"                                ",
"               ....             ",
"               .....            ",
"               XXo.OO           ",
"               XXooOOO          ",
"               ++oooO@@         ",
"               ++oooo@@@        ",
"           ####$$ooooo@%%       ",
"         ######$$oooooo%%%      ",
"       &&##ooooooooooooo%**     ",
"      &&&oooooooooooooooo***    ",
"     ==&oooooooooooooooooo*--   ",
"    ===oooooooooooooooooooo---  ",
"   ;;=oooooooooooooooooooooo::: ",
"   ;;ooooooooooooooooooooooo::: ",
"  >>,,,,,,,,,,,,,,,,,,,,,,,<<:  ",
"  >>,1111,,22,,11,,2211111<<<   ",
" >>333344555555444433333366<    ",
" >>333344555555444433333666     ",
" >>777777889999880000qq886      ",
" >>777778889999880000q888       ",
" >>wwwwee8     eewwwwrr8        ",
" >>wwweee      eewwwrrr         ",
" ttwwwye       uuwwyyr          ",
" ttwwyy        uuwyyy           ",
" iiwwii        iiiiy            ",
" iiwwii        iiii             ",
"  iiii                          ",
"   ii                           ",
"                                ",
"                                "
};
