/* XPM */
static char *redou_xpm[] = {
/* columns rows colors chars-per-pixel */
"32 32 22 1",
"3 c #696969",
"& c #626262",
". c #5B5B5B",
", c #F1F1F1",
"% c #636363",
"; c #EAEAEA",
"X c #5C5C5C",
"1 c #F2F2F2",
"- c #646464",
"o c #CDCDCD",
": c #EBEBEB",
"O c #5D5D5D",
"  c None",
"> c #656565",
"@ c #5E5E5E",
"+ c #5F5F5F",
"= c #D7D7D7",
"< c #676767",
"# c #606060",
"2 c #F6F6F6",
"* c #686868",
"$ c #616161",
/* pixels */
"                                ",
"                                ",
"               ....             ",
"               .....            ",
"               XXo.OO           ",
"               XXooOOO          ",
"               OOoooOOO         ",
"               OOooooOOO        ",
"           ++++@@oooooO++       ",
"         ++++++@@oooooo+++      ",
"       ##++ooooooooooooo+##     ",
"      ###oooooooooooooooo###    ",
"     $$#oooooooooooooooooo#$$   ",
"    $$$oooooooooooooooooooo$$$  ",
"   %%$oooooooooooooooooooooo&&& ",
"   %%ooooooooooooooooooooooo&&& ",
"  **=======================--&  ",
"  **======================---   ",
" **;;;;::;;;;;;::::;;;;;;>>-    ",
" **;;;;::;;;;;;::::;;;;;>>>     ",
" **,,,,,,<<<<<<<<1111,,<<>      ",
" **,,,,,<<<<<<<<<1111,<<<       ",
" **2222**<     **2222**<        ",
" **222***      **222***         ",
" 332223*       **2233*          ",
" 332233        **2333           ",
" 332233        33333            ",
" 332233        3333             ",
"  3333                          ",
"   33                           ",
"                                ",
"                                "
};
