/* XPM */
static char * repeat_xpm[] = {
"32 32 125 2",
"  	c None",
". 	c #D0DAE9",
"+ 	c #D3DCEA",
"@ 	c #B5BBC5",
"# 	c #8994A7",
"$ 	c #677CA0",
"% 	c #526E9B",
"& 	c #B4C1D6",
"* 	c #B5C2D6",
"= 	c #6E84A7",
"- 	c #7B8DAC",
"; 	c #6D85AB",
"> 	c #A9ACB3",
", 	c #98A1B1",
"' 	c #7086A9",
") 	c #7085A8",
"! 	c #ACB6C9",
"~ 	c #AEBBD2",
"{ 	c #919BAA",
"] 	c #7F8FA9",
"^ 	c #6981A7",
"/ 	c #6F85A8",
"( 	c #8C97AA",
"_ 	c #B0B5BE",
": 	c #C7CED9",
"< 	c #D5DCE9",
"[ 	c #B9BEC4",
"} 	c #8D96A6",
"| 	c #627596",
"1 	c #A1B3D0",
"2 	c #B9C5D7",
"3 	c #A1ACBC",
"4 	c #7A89A3",
"5 	c #667DA3",
"6 	c #889FC2",
"7 	c #D0DDF0",
"8 	c #E0E6F0",
"9 	c #DDE7F8",
"0 	c #BECBE1",
"a 	c #748AAD",
"b 	c #677EA3",
"c 	c #9CAECA",
"d 	c #CBD8EB",
"e 	c #4C5857",
"f 	c #CDD5E3",
"g 	c #AFBCD1",
"h 	c #6A80A4",
"i 	c #7389AC",
"j 	c #C4D0E4",
"k 	c #F2F9FF",
"l 	c #4F5F69",
"m 	c #B3B9C2",
"n 	c #748AAC",
"o 	c #98A3B7",
"p 	c #4B5552",
"q 	c #4E5D64",
"r 	c #556B87",
"s 	c #7A8DAB",
"t 	c #BBC1CB",
"u 	c #4B5960",
"v 	c #4F647A",
"w 	c #58729D",
"x 	c #5A749D",
"y 	c #53677C",
"z 	c #4E5C62",
"A 	c #AAB4C7",
"B 	c #CAD1DD",
"C 	c #4D5958",
"D 	c #4C5C66",
"E 	c #4A5F7C",
"F 	c #4E6992",
"G 	c #56719D",
"H 	c #5A759F",
"I 	c #587299",
"J 	c #546882",
"K 	c #4F5E68",
"L 	c #4D5A5D",
"M 	c #4F6C9A",
"N 	c #6B84AB",
"O 	c #B0BDD4",
"P 	c #D5DDE9",
"Q 	c #444F4E",
"R 	c #53636E",
"S 	c #6D82A2",
"T 	c #728CB8",
"U 	c #5E79A4",
"V 	c #54709E",
"W 	c #5775A8",
"X 	c #556E94",
"Y 	c #50606E",
"Z 	c #A1ADBD",
"` 	c #A7B9D6",
" .	c #6B84AD",
"..	c #486698",
"+.	c #BFC5CC",
"@.	c #BEC7D7",
"#.	c #4B6899",
"$.	c #B8BDC6",
"%.	c #A9AFB9",
"&.	c #8293B1",
"*.	c #677C9F",
"=.	c #788CAF",
"-.	c #677DA0",
";.	c #A3AAB6",
">.	c #B6BBC3",
",.	c #F6FEFF",
"'.	c #C8D4E8",
").	c #768BAE",
"!.	c #A4B1C5",
"~.	c #C9D0DB",
"{.	c #9DAFCB",
"].	c #6980A6",
"^.	c #AEBCD1",
"/.	c #D3DCE9",
"(.	c #667EA3",
"_.	c #7C8BA5",
":.	c #9DA7B8",
"<.	c #627696",
"[.	c #8F98A8",
"}.	c #B5B9C0",
"|.	c #D7DFEB",
"1.	c #929CAB",
"2.	c #A8AEBA",
"3.	c #AEBCD2",
"4.	c #AAADB4",
"                                                                ",
"                                                                ",
"                                                                ",
"                                                                ",
"                . + @ # $ %                                     ",
"                & * = $ - ;                                     ",
"            > , ' = ) - ! ~                                     ",
"            { ] ^ / ( _ : <                                     ",
"        [ } | ^ 1 2                                             ",
"        3 4 5 6 7 8                                             ",
"    9 0 a b c d                               e e               ",
"    f g h i j k                               l l               ",
"    m h n o                               p q r r q p           ",
"    # $ s t                               u v w x y z           ",
"    $ s A B                           C D E F G H I J K L       ",
"    M N O P                           Q R S T U V W X Y L       ",
"    M N O P                               Z `  ...              ",
"    $ s A B                               +.@. .#.              ",
"    # $ s t                               $.%.&.*.              ",
"    m h n o                                 =.-.;.>.            ",
"    f g h i j k                         ,.'.).-.!.~.            ",
"    9 0 a b c d                         d {.].) ^./.            ",
"        3 4 5 6 7 8                 8 7 6 (._.:.                ",
"        [ } | ^ 1 2                 2 1 ^ <.[.}.                ",
"            { ] ^ / ( _ : |.|.: _ ( / ^ ] 1.                    ",
"            > , ' = ) 2.! 3.3.! 2.) = ' , 4.                    ",
"                & * = - N N N N - = * &                         ",
"                . + @ $ M M M M $ @ + .                         ",
"                                                                ",
"                                                                ",
"                                                                ",
"                                                                "};
