/* XPM */
static char *save_xpm[] = {
/* columns rows colors chars-per-pixel */
"32 32 84 1",
"X c #718386",
"t c #DCE9F2",
"D c #C3D2E6",
"9 c #E1EDF6",
"F c #C3D2E7",
"m c #C8D6E8",
"7 c #E1EDF7",
"C c #C8D6E9",
"M c #6C85A6",
"a c #DCE3EF",
"* c #F0F3F5",
"j c #B2C3DA",
"k c #B2C3DB",
": c #8396A0",
"^ c #5B79AA",
"( c #5B79AB",
"h c #D5DFEC",
"g c #D5DFED",
"P c #97B2D9",
"d c #778EA3",
"K c #BACBE4",
"G c #F8F8FC",
"A c #6882A7",
"1 c #ECF3F8",
"< c #ECF3F9",
"q c #E2E8F0",
"6 c #E7ECF2",
"> c #ECF0F4",
"4 c #7F93A1",
"i c #DBE4EE",
"# c #FEFDFA",
"R c #A5B3AE",
"f c #738BA4",
"L c #647FA8",
"  c #CFD3D8",
"= c #F7F9F9",
"H c #6783A7",
"0 c #7B90A2",
"@ c #B7C3C6",
"& c #F0F2F5",
"Y c #B7C9E3",
"O c #88999E",
"$ c #88999F",
"p c #E4CF9D",
"u c #778DA3",
"S c #C4D2E7",
"N c #C9D6E8",
"8 c #E2EDF7",
"B c #C9D6E9",
"v c #CEDAEA",
"b c #CEDAEB",
", c #ECEFF4",
"e c #DBE9F2",
"Z c #6B85A6",
"U c #617DA9",
"s c #DBE3EE",
"o c #B1BDBF",
"z c #CFDBEA",
") c #5A79AB",
"n c #CFDBEB",
"I c #8A9B9C",
". c #8A9B9E",
"J c #BECFE6",
"% c #85979F",
"! c #B9C5D3",
"2 c #EBF3F8",
"w c #E1E8F0",
"5 c #E6ECF3",
"E c #607EA9",
"/ c #5B7AAA",
"~ c #5B7AAB",
"T c #B5CEF2",
"+ c #F3F5F6",
"; c #86989F",
"y c #7C90A2",
"W c #5E7BAA",
"- c #F6F9F9",
"r c #DBE8F2",
"l c #7088A5",
"3 c #8295A0",
"V c #6480A8",
"c c #CFDAEA",
"x c #CFDAEB",
"Q c #587591",
/* pixels */
" .....XooooooooooooooooooX..... ",
"O++++@####################@++++$",
"O++++@####################@++++$",
"O++++@####################@++++$",
"%&*&*.=================-==.&&**;",
"%&*&*.=================-==.&&**;",
"%&*&*.=================-==.&&**;",
":>,>,.<<<1<<<1<<1<<<1<12<<.>>>>3",
":>,>,.<<<1<<<1<<1<<<1<12<<.>>>>3",
":>,>,.<<<1<<<1<<1<<<1<12<<.>>>>3",
"45656.77777777777777777899.66664",
"45656.77777777777777777899.66664",
"45656.77777777777777777899.66664",
"0qwqw.eretrretreteretrtrte.wwwwy",
"0qwqw.eretrretreteretrtrte.wwwwy",
"uiiii.pppppppppppppppppppp.aassd",
"uiiii.pppppppppppppppppppp.aassd",
"fghghj....................khhggf",
"fghghhhhhhhhhhhhhhhhhhhhhhhhhggf",
"lzxzxxzcvxccvxcvxvcvxcxxxxbnnvvl",
"lzxzxxzcvxccvxcvxvcvxcxxxxbnnvvl",
"lmmmmmmmmmmmmmmmmmmmmmmmmmmmmmml",
"MNBNBNBVVVVVVVVVVVVVVVVVVNmCCNNZ",
"ASDSDFVGGGGGGGGGGGGGGGGGpVFFFFFH",
"ASDSDFVGGGGGGGGGGGGGGGGGpVFFFFFH",
"AJJJJJVGGGGGGGGGGGGGGGGGpVJJJJJH",
"AJJJJJVGGGGGGGGGGGGGGGGGpVJJJJJH",
"AKKKKKVGGGGGGGGGGGGGGGGGpVKKKKKH",
"LKKKKKVPPPPPPPPPPPPPPPPIIVKKKKKV",
"UYYYYYVTTTTTTTTTTTTTTTTRRVYYYYYE",
"WYYYYYVppppppppppppppppQpVYYYYYW",
"!~^~^/((^)((^)(^)^(^)()(//^((//^"
};
