/* XPM */
static char * stepover_xpm[] = {
"32 32 3 1",
" 	c None",
".	c #A26D15",
"+	c #010F48",
"                                ",
"                                ",
"                                ",
"                                ",
"                                ",
"                                ",
"                                ",
"                                ",
"                                ",
"   .................            ",
"  .                 .           ",
"                     .          ",
"                     .          ",
"    +++    +++       .          ",
"    ++      ++       .          ",
"    ++      ++       .          ",
"    +        +       .          ",
"    +        +       .          ",
"    +        +    .......       ",
"   ++        ++    .....        ",
"  +++        +++    ...         ",
"  ++          ++     .          ",
"   ++        ++                 ",
"   ++        ++                 ",
"    +        +                  ",
"    +        +                  ",
"    +        +                  ",
"    ++      ++                  ",
"    +++    +++                  ",
"    +++    +++                  ",
"                                ",
"                                "};
