/* XPM */
static char *undo_xpm[] = {
/* columns rows colors chars-per-pixel */
"32 32 37 1",
"w c #BB8216",
"5 c #FDF9D9",
"q c #FDFCE6",
". c #A76C10",
", c #FBF0B3",
"1 c #FBF0B4",
"0 c #B97F15",
"& c #AF7412",
"@ c #AA7011",
"y c #BC8315",
"t c #BC8316",
"; c #B27813",
"# c #AD7112",
"e c #FEFDEF",
"> c #B57C14",
"6 c #FCFAD9",
"i c #BD8416",
": c #B37913",
"X c #A96E11",
"r c #BB8115",
"% c #AC7212",
"8 c #FDFBE6",
"o c #FBE99F",
"  c None",
"+ c #AA6F11",
"u c #BC8216",
"4 c #FCF9D9",
"* c #AE7412",
"$ c #AC7111",
"2 c #FBF1B4",
"7 c #B98015",
"3 c #B77D14",
"O c #A86E11",
"9 c #FEFBE6",
"< c #BA8116",
"- c #B07612",
"= c #B07613",
/* pixels */
"                                ",
"                                ",
"            ....                ",
"           .....                ",
"          XX.oOO                ",
"         XXXooOO                ",
"        ++Xooo@@                ",
"       +++oooo@@                ",
"      ##+ooooo$$%%%%            ",
"     ###oooooo$$%%%%%%          ",
"    &&#ooooooooooooo%%**        ",
"   &&&oooooooooooooooo***       ",
"  ==&oooooooooooooooooo*--      ",
" ===oooooooooooooooooooo---     ",
";;;oooooooooooooooooooooo-::    ",
";;;ooooooooooooooooooooooo::    ",
" ;>>,,,,,,,,,,,,,,,,,,,,,,,<<   ",
"  >>>1111122,,11,,22,,1111,<<   ",
"   >334444445555666666554444<<  ",
"    333444445555666666554444<<  ",
"     37788999977000077qqqqqq<<  ",
"      77789999770000777qqqqq<<  ",
"       7wweeeerr     7rreeee<<  ",
"        wwweeerr      rrreee<<  ",
"         wtteeyy       rteeeuu  ",
"          ttteyy        tteeuu  ",
"           tiiii        iieeii  ",
"            iiii        iieeii  ",
"                         iiii   ",
"                          ii    ",
"                                ",
"                                "
};
