/* XPM */
static char *watch_xpm[] = {
/* columns rows colors chars-per-pixel */
"32 32 9 1",
"$ c #E4E8EC",
"o c #324E6E",
"+ c #D5F3FF",
"@ c #EBFAFF",
"  c None",
"X c #A9B2C6",
". c #556C87",
"# c #FCFFFF",
"O c #8B96AB",
/* pixels */
"                                ",
"                                ",
"                                ",
"                                ",
"                                ",
"                                ",
"          ....XX                ",
"          ....XX                ",
"        ooXX  ..        XXoo..OO",
"        ooXX  ..        XXoo..OO",
"      ooXX    oo      XXoo    ..",
"      ooXX    oo      XXoo    ..",
"    ..XX            XXoo      oo",
"    ..XX            XXoo      oo",
"  XXooooooXXooXXooooooOO        ",
"  XXooooooXXooXXooooooOO        ",
"  oo++@@@@ooXXoo++@@@@oo        ",
"  oo++@@@@ooXXoo++@@@@oo        ",
"  oo@@####oo  oo@@####oo        ",
"  oo@@####oo  oo@@####oo        ",
"  oo$$##XXoo  oo$$##XXoo        ",
"  oo$$##XXoo  oo$$##XXoo        ",
"  XXooooooOO  XXooooooXX        ",
"  XXooooooOO  XXooooooXX        ",
"                                ",
"                                ",
"                                ",
"                                ",
"                                ",
"                                ",
"                                ",
"                                "
};
