/* XPM */
static char *albottom_xpm[] = {
/* columns rows colors chars-per-pixel */
"32 32 5 1",
"o c Black",
". c #FFFFFF",
"  c None",
"O c #000288",
"X c #868986",
/* pixels */
"                                ",
"                                ",
"                                ",
"                                ",
"                                ",
"                                ",
"    ......                      ",
"    ......                      ",
"    ..XXoo                      ",
"    ..XXoo                      ",
"    ..XXoo                      ",
"    ..XXoo                      ",
"    ..XXoo              ......  ",
"    ..XXoo              ......  ",
"    ..XXoo              ..XXoo  ",
"    ..XXoo              ..XXoo  ",
"    ..XXoo              ..XXoo  ",
"    ..XXoo              ..XXoo  ",
"    ..XXoo    ......    ..XXoo  ",
"    ..XXoo    ......    ..XXoo  ",
"    ..XXoo    ..XXoo    ..XXoo  ",
"    ..XXoo    ..XXoo    ..XXoo  ",
"    ..XXoo    ..XXoo    ..XXoo  ",
"    ..XXoo    ..XXoo    ..XXoo  ",
"    ..XXoo    ..XXoo    ..XXoo  ",
"    ..XXoo    ..XXoo    ..XXoo  ",
"    ..oooo    ..oooo    ..oooo  ",
"    ..oooo    ..oooo    ..oooo  ",
"  OOOOOOOOOOOOOOOOOOOOOOOOOOOOOO",
"  OOOOOOOOOOOOOOOOOOOOOOOOOOOOOO",
"                                ",
"                                "
};
