/* XPM */
static char *alhcenter_xpm[] = {
/* columns rows colors chars-per-pixel */
"32 32 6 1",
"+ c Black",
"X c #FFFFFF",
"  c None",
". c #000288",
"O c #868986",
"o c #FEFEFE",
/* pixels */
"                ..              ",
"                ..              ",
"                ..              ",
"                ..              ",
"      XXXXXXXXXXooooXXXXXXXX    ",
"      XXXXXXXXXXooooXXXXXXXX    ",
"      XXOOOOOOOOOOOOOOOOOO++    ",
"      XXOOOOOOOOOOOOOOOOOO++    ",
"      XX++++++++++++++++++++    ",
"      XX++++++++++++++++++++    ",
"                ..              ",
"                ..              ",
"                ..              ",
"                ..              ",
"          XXXXooooXXXXXX        ",
"          XXXXooooXXXXXX        ",
"          XXOOOOOOOOOO++        ",
"          XXOOOOOOOOOO++        ",
"          XX++++++++++++        ",
"          XX++++++++++++        ",
"                ..              ",
"                ..              ",
"                ..              ",
"                ..              ",
"        XXXXXXooooXXXXXXXX      ",
"        XXXXXXooooXXXXXXXX      ",
"        XXOOOOOOOOOOOOOO++      ",
"        XXOOOOOOOOOOOOOO++      ",
"        XX++++++++++++++++      ",
"        XX++++++++++++++++      ",
"                ..              ",
"                ..              "
};
