/* XPM */
static char *alheight_xpm[] = {
/* columns rows colors chars-per-pixel */
"32 32 6 1",
"+ c Black",
"o c #FFFFFF",
"  c None",
"X c #FEFCFA",
". c #000288",
"O c #868986",
/* pixels */
"  ..............................",
"  ..............................",
"    XXXXXX    XXXXXX    XXXXXX  ",
"    XXXXXX    XXXXXX    XXXXXX  ",
"    ooOO++    oooo++    ooOO++  ",
"    ooOO++    oooo++    ooOO++  ",
"    ooOO++    ooOO++    ooOO++  ",
"    ooOO++    ooOO++    ooOO++  ",
"    ooOO++    ooOO      ooOO++  ",
"    ooOO++    ooOO      ooOO++  ",
"    ooOO++      OOOO    ooOO++  ",
"    ooOO++      OOOO    ooOO++  ",
"    ooOO++    OO        oo      ",
"    ooOO++    OO        oo      ",
"    ooOO++        OO        OO  ",
"    ooOO++        OO        OO  ",
"    ooOO++    OO        OO      ",
"    ooOO++    OO        OO      ",
"    ooOO++        OO        ++  ",
"    ooOO++        OO        ++  ",
"    ooOO++    OOOO++    ooOO++  ",
"    ooOO++    OOOO++    ooOO++  ",
"    ooOO++    ooOO++    ooOO++  ",
"    ooOO++    ooOO++    ooOO++  ",
"    ooOO++    ooOO++    ooOO++  ",
"    ooOO++    ooOO++    ooOO++  ",
"    ooOO++    ooOO++    ooOO++  ",
"    ooOO++    ooOO++    ooOO++  ",
"    oo++++    oo++++    oo++++  ",
"    oo++++    oo++++    oo++++  ",
"  ..............................",
"  .............................."
};
