/* XPM */
static char *alleft_xpm[] = {
/* columns rows colors chars-per-pixel */
"32 32 7 1",
"O c Black",
"X c #FFFFFF",
"  c None",
"+ c #FEFCFA",
". c #000288",
"o c #868986",
"@ c #FEFEFE",
/* pixels */
"                                ",
"                                ",
"  ..                            ",
"  ..                            ",
"  ..XXXXXXXXXXXXXXXXXXXXXX      ",
"  ..XXXXXXXXXXXXXXXXXXXXXX      ",
"  ..XXooooooooooooooooooOO      ",
"  ..XXooooooooooooooooooOO      ",
"  ..++OOOOOOOOOOOOOOOOOOOO      ",
"  ..++OOOOOOOOOOOOOOOOOOOO      ",
"  ..                            ",
"  ..                            ",
"  ..                            ",
"  ..                            ",
"  ..@@XXXXXXXX                  ",
"  ..@@XXXXXXXX                  ",
"  ..++ooooooOO                  ",
"  ..++ooooooOO                  ",
"  ..@@OOOOOOOO                  ",
"  ..@@OOOOOOOO                  ",
"  ..                            ",
"  ..                            ",
"  ..                            ",
"  ..                            ",
"  ..++XXXXXXXXXXXXXX            ",
"  ..++XXXXXXXXXXXXXX            ",
"  ..@@ooooooooooooOO            ",
"  ..@@ooooooooooooOO            ",
"  ..XXOOOOOOOOOOOOOO            ",
"  ..XXOOOOOOOOOOOOOO            ",
"  ..                            ",
"  ..                            "
};
