/* XPM */
static char *altop_xpm[] = {
/* columns rows colors chars-per-pixel */
"32 32 6 1",
"+ c Black",
"o c #FFFFFF",
"  c None",
"X c #FEFCFA",
". c #000288",
"O c #868986",
/* pixels */
"                                ",
"                                ",
"  ..............................",
"  ..............................",
"    XXXXXX    XXXXXX    XXXXXX  ",
"    XXXXXX    XXXXXX    XXXXXX  ",
"    ooOO++    ooOO++    ooOO++  ",
"    ooOO++    ooOO++    ooOO++  ",
"    ooOO++    ooOO++    ooOO++  ",
"    ooOO++    ooOO++    ooOO++  ",
"    ooOO++    ooOO++    ooOO++  ",
"    ooOO++    ooOO++    ooOO++  ",
"    ooOO++    oo++++    ooOO++  ",
"    ooOO++    oo++++    ooOO++  ",
"    ooOO++              ooOO++  ",
"    ooOO++              ooOO++  ",
"    ooOO++              ooOO++  ",
"    ooOO++              ooOO++  ",
"    ooOO++              oo++++  ",
"    ooOO++              oo++++  ",
"    ooOO++                      ",
"    ooOO++                      ",
"    ooOO++                      ",
"    ooOO++                      ",
"    oo++++                      ",
"    oo++++                      ",
"                                ",
"                                ",
"                                ",
"                                ",
"                                ",
"                                "
};
