/* XPM */
static char *alvcenter_xpm[] = {
/* columns rows colors chars-per-pixel */
"32 32 5 1",
"o c Black",
". c #FFFFFF",
"  c None",
"O c #000288",
"X c #868986",
/* pixels */
"                                ",
"                                ",
"                                ",
"                                ",
"                                ",
"                                ",
"    ......                      ",
"    ......                      ",
"    ..XXoo                      ",
"    ..XXoo                      ",
"    ..XXoo              ......  ",
"    ..XXoo              ......  ",
"    ..XXoo    ......    ..XXoo  ",
"    ..XXoo    ......    ..XXoo  ",
"    ..XXoo    ..XXoo    ..XXoo  ",
"    ..XXoo    ..XXoo    ..XXoo  ",
"OOOO..XXooOOOO..XXooOOOO..XXooOO",
"OOOO..XXooOOOO..XXooOOOO..XXooOO",
"    ..XXoo    ..XXoo    ..XXoo  ",
"    ..XXoo    ..XXoo    ..XXoo  ",
"    ..XXoo    ..oooo    ..XXoo  ",
"    ..XXoo    ..oooo    ..XXoo  ",
"    ..XXoo              ..oooo  ",
"    ..XXoo              ..oooo  ",
"    ..XXoo                      ",
"    ..XXoo                      ",
"    ..oooo                      ",
"    ..oooo                      ",
"                                ",
"                                ",
"                                ",
"                                "
};
