/* XPM */
static char *alwidth_xpm[] = {
/* columns rows colors chars-per-pixel */
"32 32 7 1",
"@ c Black",
"o c #FFFFFF",
"  c None",
"X c #FEFCFA",
". c #000288",
"+ c #868986",
"O c #FEFEFE",
/* pixels */
"                                ",
"                                ",
"..                            ..",
"..                            ..",
"..XXoooooooooooooooooooooooooo..",
"..XXoooooooooooooooooooooooooo..",
"..OO++++++++++++++++++++++++@@..",
"..OO++++++++++++++++++++++++@@..",
"..oo@@@@@@@@@@@@@@@@@@@@@@@@@@..",
"..oo@@@@@@@@@@@@@@@@@@@@@@@@@@..",
"..                            ..",
"..                            ..",
"..                            ..",
"..                            ..",
"..OOoooooo  ++  ++  ++ooooooOO..",
"..OOoooooo  ++  ++  ++ooooooOO..",
"..oo++++++          ++++++++@@..",
"..oo++++++          ++++++++@@..",
"..OO@@@@  ++  ++  ++@@@@@@@@@@..",
"..OO@@@@  ++  ++  ++@@@@@@@@@@..",
"..                            ..",
"..                            ..",
"..                            ..",
"..                            ..",
"..oooooooooooo  ++  ooooooooXX..",
"..oooooooooooo  ++  ooooooooXX..",
"..oo++++++++        ++++++++++..",
"..oo++++++++        ++++++++++..",
"..XX@@@@@@@@  ++  @@@@@@@@@@@@..",
"..XX@@@@@@@@  ++  @@@@@@@@@@@@..",
"..                            ..",
"..                            .."
};
