/* XPM */
static char *class_xpm[] = {
/* columns rows colors chars-per-pixel */
"16 16 21 1",
"$ c #17325D",
". c #B09047",
"< c #FEFC97",
", c #FEFC98",
": c #FEFCA9",
"; c #FEFCAA",
"& c #FEFCBD",
"* c #FEFCBE",
"  c None",
"o c #FEFCCF",
"@ c #FEFCD0",
"X c #FEFCDC",
"O c #7387AE",
"- c #9C9672",
"= c #AD8D46",
"+ c #687DA3",
"2 c #7288B1",
"% c #254373",
"1 c #7F94BA",
"> c #F9FAFC",
"# c #A2ADBE",
/* pixels */
"          ......",
"          .XXXX.",
"          .oO+@.",
"        #$%&***=",
" ------ $ =;O+:=",
" ->>>>- $ =,<<,=",
" ->12>- $ ======",
" ->>>>%$$       ",
" ->12>- $ ......",
" ->>>>- $ .XXXX.",
" ------ $ .oO+@.",
"        #$%&***=",
"          =;O+:=",
"          =,<<,=",
"          ======",
"                "
};
