/* XPM */
static char *method_xpm[] = {
/* columns rows colors chars-per-pixel */
"14 14 31 1",
"o c #2E9560",
"> c #1D8C56",
"3 c #3F985F",
"+ c #5FAA74",
". c #75B790",
"2 c #64AE85",
"0 c #97BD88",
"- c #82BD82",
"6 c #89B881",
"1 c #71B175",
"< c #71B176",
"9 c #4A9B65",
"w c #6FB18A",
"4 c #88B981",
"7 c #3F9760",
"X c #058149",
": c #84BF84",
"  c None",
"* c #ABCF98",
"& c #ABCF99",
", c #62AA70",
"# c #98C690",
"$ c #71B68D",
"8 c #439C6C",
"@ c #B4D29D",
"5 c #88B881",
"; c #84BE84",
"= c #038048",
"% c #56A770",
"q c #82B57F",
"O c #4DA373",
/* pixels */
"              ",
"              ",
"              ",
"     .Xo.     ",
"    O+@#+O    ",
"   $%&&&*%$   ",
"   =-;;;:-=   ",
"   >,<<1<,>   ",
"   23456472   ",
"    890q98    ",
"     wXow     ",
"              ",
"              ",
"              "
};
