/* XPM */
static char *gdatasrc_xpm[] = {
/* columns rows colors chars-per-pixel */
"16 16 87 1",
"3 c #F8C21E",
") c #FAFEFF",
", c #EF9B04",
"P c #5C775C",
"k c #FFFCF2",
"6 c #FED93A",
"S c #5C92C9",
"I c #6F746F",
"/ c #5B677B",
"` c #5B677C",
"' c #566381",
"s c #9F9F7F",
"f c #86825F",
"; c #EA8800",
"% c #A25F17",
"X c #9C4B1E",
"a c #5CACC9",
"q c #A25C17",
"z c #5B90AC",
"r c #A56315",
"< c #F1A608",
"D c #5C77AD",
"h c #EDFAFF",
"4 c #FACA28",
". c #9A4820",
"M c #5CC9C9",
"d c #918859",
"i c #91885A",
"y c #D5F3FF",
"W c #646D76",
"@ c #A0561A",
"b c #F0FBFF",
"Y c #92925C",
"N c #7B7B66",
"H c #9FBFBF",
"A c #98AC7C",
"K c #ADC977",
": c #EC8D00",
"# c #A15A18",
"V c #929277",
"p c #BFBF9F",
"O c #9E501B",
"2 c #F6B815",
"5 c #FCD231",
"o c #9C4D1D",
"9 c #9C4D1E",
"8 c #9C4A1E",
"m c #E4C9AD",
"= c #A56515",
"( c #F9FEFF",
"t c #988B56",
"l c #ADC9C9",
"! c #932626",
"B c #C9E4C9",
"n c #DFDF9F",
"  c #9A4720",
"c c #87825F",
"T c #5F7F3F",
"w c #A35F17",
"E c #3F7F7F",
"Z c #DFDFBF",
"C c #C9C992",
"v c #7B7A66",
"u c #E9F9FF",
"g c #EEFAFF",
"7 c #9B481E",
"0 c #A15918",
"U c #5CADAD",
"R c #77775C",
"> c #ED9301",
"j c #92C9C9",
"L c #7F9F3F",
"- c #8C5927",
"$ c #A25D18",
"+ c #9F531B",
"~ c #777777",
"* c #A56415",
"x c #3F9FBF",
"_ c #F9FDFF",
"& c #A56117",
"F c #70736F",
"1 c #F4AE0E",
"J c #ADAD77",
"G c #F7FDFF",
"e c #A36115",
"Q c #3E7D9D",
"^ c #646E76",
/* pixels */
" .XoO+@#$%%&&**=",
"-;:>,<123445566=",
" 789O+@0qwweerr=",
"tyyyyyyyyyyyyyyt",
"tyuuuuuuuuuuuuut",
"iyuuuupaaasuuuud",
"fyghhjajklzxhggc",
"vybbpaknmjMzsbbN",
"vybbaBkVCZASDbbN",
"FyGGaHmJKLJPDGGI",
"FyGGajaUYTREDGGI",
"WyGGpQaS!R~DsGG^",
"WyGGGaQaDDD~GGG^",
"/y((()pV~Vs((__`",
"/y((()_((((((__`",
"''''''''''''''''"
};
