/* XPM */
static char *htmlrep_xpm[] = {
/* columns rows colors chars-per-pixel */
"26 16 57 1",
"3 c #F8C21E",
"M c #FAFEFF",
", c #EF9B04",
"6 c #FED93A",
"c c #6F746F",
"n c #5B677B",
"B c #5B677C",
"j c #566381",
"a c #86825F",
"; c #EA8800",
"% c #A25F17",
"X c #9C4B1E",
"q c #A25C17",
"r c #A56315",
"< c #F1A608",
"d c #EDFAFF",
"4 c #FACA28",
". c #9A4820",
"p c #918859",
"i c #91885A",
"y c #D5F3FF",
"v c #646D76",
"@ c #A0561A",
"k c #F0FBFF",
"l c #7B7B66",
"f c #EEFBFF",
": c #EC8D00",
"# c #A15A18",
"O c #9E501B",
"2 c #F6B815",
"5 c #FCD231",
"o c #9C4D1D",
"9 c #9C4D1E",
"8 c #9C4A1E",
"= c #A56515",
"m c #F9FEFF",
"t c #988B56",
"  c #9A4720",
"g c #87825F",
"w c #A35F17",
"h c #7B7A66",
"u c #E9F9FF",
"s c #EEFAFF",
"7 c #9B481E",
"0 c #A15918",
"> c #ED9301",
"- c #8C5927",
"$ c #A25D18",
"+ c #9F531B",
"* c #A56415",
"N c #F9FDFF",
"& c #A56117",
"z c #70736F",
"1 c #F4AE0E",
"x c #F7FDFF",
"e c #A36115",
"b c #646E76",
/* pixels */
" .XXooOO++@@##$$%%%&&&***=",
"-;::>>,,<<112233444555666=",
" 78899OO++@@00qqwwweeerrr=",
"tyyyyyyyyyyyyyyyyyyyyyyyyt",
"tyuuuuuuuuuuuuuuuuuuuuuuut",
"iyuuuuuuuuuuuuuuuuuuuuuuup",
"ayssddddddffddddddddddsssg",
"hyjkkkjkjjjjjkjkkkjkjkkkkl",
"hyjkkkjkkkjkkkjjkjjkjkkkkl",
"zyjxxxjxxxjxxxjxjxjxjxxxxc",
"zyjjjjjxxxjxxxjxxxjxjxxxxc",
"vyjxxxjxxxjxxxjxxxjxjxxxxb",
"vyjxxxjxxxjxxxjxxxjxjxxxxb",
"nyjmmmjMMNjmmmjmmmjmjjjjNB",
"nymmmmmmMMNNmmmmmmmmmmNNNB",
"jjjjjjjjjjjjjjjjjjjjjjjjjj"
};
