/* XPM */
static char *memds_xpm[] = {
/* columns rows colors chars-per-pixel */
"16 16 56 1",
"3 c #F8C21E",
"m c #FAFEFF",
", c #EF9B04",
"6 c #FED93A",
"x c #6F746F",
"b c #5B677B",
"N c #5B677C",
"d c #566381",
"a c #86825F",
"; c #EA8800",
"% c #A25F17",
"X c #9C4B1E",
"q c #A25C17",
"r c #A56315",
"< c #F1A608",
"f c #EDFAFF",
"4 c #FACA28",
". c #9A4820",
"p c #918859",
"i c #91885A",
"y c #D5F3FF",
"c c #646D76",
"@ c #A0561A",
"j c #F0FBFF",
"k c #7B7B66",
": c #EC8D00",
"# c #A15A18",
"O c #9E501B",
"2 c #F6B815",
"5 c #FCD231",
"o c #9C4D1D",
"9 c #9C4D1E",
"8 c #9C4A1E",
"= c #A56515",
"n c #F9FEFF",
"t c #988B56",
"  c #9A4720",
"g c #87825F",
"w c #A35F17",
"h c #7B7A66",
"u c #E9F9FF",
"s c #EEFAFF",
"7 c #9B481E",
"0 c #A15918",
"> c #ED9301",
"- c #8C5927",
"$ c #A25D18",
"+ c #9F531B",
"* c #A56415",
"M c #F9FDFF",
"& c #A56117",
"l c #70736F",
"1 c #F4AE0E",
"z c #F7FDFF",
"e c #A36115",
"v c #646E76",
/* pixels */
" .XoO+@#$%%&&**=",
"-;:>,<123445566=",
" 789O+@0qwweerr=",
"tyyyyyyyyyyyyyyt",
"tyuuuuuuuuuuuuut",
"iyuuuuuuuuuuuuup",
"aysddddffdddddsg",
"hyjjjjjjjjjjjjjk",
"hyjddddjjdddjjjk",
"lyzzzzzzzzzzzzzx",
"lyzddddzzddddzzx",
"cyzzzzzzzzzzzzzv",
"cyzddddzzdddddzv",
"bynnnmMnnnnnnMMN",
"bynnnmMnnnnnnMMN",
"dddddddddddddddd"
};
