/* XPM */
static char * tbl_ppm[] = {
"24 24 4 1",
" 	c #000000000000",
".	c #FFFFFFFFFFFF",
"X	c #E0E0E0E0E0E0",
"o	c #FFFF00000000",
"                        ",
" oooooooooooooooooooooo ",
" oo  oo  oo  oo  oo  oo ",
" oo  oo  oo  oo  oo  oo ",
" oooooooooooooooooooooo ",
" oooooooooooooooooooooo ",
" oooooooooooooooooooooo ",
" oo  oo  oo  oo  oo  oo ",
" oo  oo  oo  oo  oo  oo ",
" oooooooooooooooooooooo ",
" oooooooooooooooooooooo ",
" oooooooooooooooooooooo ",
" oo  oo  oo  oo  oo  oo ",
" oo  oo  oo  oo  oo  oo ",
" oooooooooooooooooooooo ",
" oooooooooooooooooooooo ",
" oooooooooooooooooooooo ",
" oo  oo  oo  oo  oo  oo ",
" oo  oo  oo  oo  oo  oo ",
" oooooooooooooooooooooo ",
" oooooooo  o  ooooooooo ",
" oooooooo  o  ooooooooo ",
" oooooooo  o  ooooooooo ",
"                        "};

