/* XPM */
static char * tbl_ppm[] = {
"24 24 4 1",
" 	c #000000000000",
".	c #FFFFFFFFFFFF",
"X	c #E0E0E0E0E0E0",
"o	c #FFFF00000000",
"                        ",
" oooooooooooooooooooooo ",
" o oooooooooooooooooo o ",
" oo oooooooooooooooo oo ",
" ooo oooooo  oooooo ooo ",
" oooo  oooo  oooo  oooo ",
" oooooo  oo  oo  oooooo ",
" oooooooo      oooooooo ",
" oooooooooo  oooooooooo ",
" oooooooooo  oooooooooo ",
" oo                  oo ",
" oo oooooooooooooooo oo ",
" oo oooooooooooooooo oo ",
" oo oooooooooooooooo oo ",
" oo oooooooooooooooo oo ",
" oo oooooooooooooooo oo ",
" oo oooooooooooooooo oo ",
" oo oooooooooooooooo oo ",
" oo ooooo  o  oooooo oo ",
" oo ooooo  o  oooooo oo ",
" oo ooooo  o  oooooo oo ",
" oo                  oo ",
" oooooooooooooooooooooo ",
"                        "};

